M48
;Layer_Color=9474304
;FILE_FORMAT=2:5
INCH,TZ
;TYPE=PLATED
T1F00S00C0.00787
T2F00S00C0.01181
T3F00S00C0.02362
T4F00S00C0.03543
T5F00S00C0.14094
T6F00S00C0.18315
%
T01
X316000Y234000
X318500
X322000Y231500
X320000Y247500
X315000Y245000
X312500Y247000
X313000Y254000
X315728Y254415
X318000Y255000
X323000Y266500
X325500Y265500
Y270000
X326000Y287500
X325000Y290000
X325500Y292500
Y295000
X324000Y297000
X325000Y301000
X323894Y303106
X324000Y307500
X356000Y302500
X358500Y278000
X370500Y276000
X374000Y271500
X365719Y269781
X366500Y242500
X353750Y242250
X379500Y242500
X310500Y245500
X308000Y246000
X305500
X303000Y245500
X300000Y236000
Y233500
X306500
X280000Y236500
X281500Y320500
X285500Y320000
X293500Y320500
X297000Y329000
X301000Y328500
X303500Y329500
X307500Y329000
X310000
X307000Y320500
X304500Y345000
X294500Y343000
X291000
X288500Y343500
X286000
X283000
X275000Y343000
X269000Y343500
X265500Y343000
X265000Y338000
X261500Y334500
X260000Y328500
X265500Y329500
X269000Y329000
X274547Y332826
X277000Y335000
X281000
X282173Y332960
X276500Y319500
X273500Y319000
X271000Y317500
X263500Y318000
X258000Y320000
X259500Y345000
X255500Y350000
X244500Y349000
X250860Y361640
X264050Y365950
X265860Y364140
X275063Y387937
X273500Y391000
X294500Y372000
X297500Y370500
X300000Y368500
Y363000
X299500Y358500
X299000Y356000
X312500Y328990
X315000Y328500
X330224Y388000
X332784
T02
X344500Y238000
X357500
X370500
X372500Y262500
X355000Y272500
X360500Y291000
X353000Y307000
X383500Y309000
X321500Y305000
X317000Y299500
X325500Y258000
X335500Y255500
X298500Y245500
X295500Y247000
X282000Y245500
X287000Y235500
X275000Y233000
X258000Y247000
X251500Y264000
X253500Y279500
X251500Y285500
X244500Y236000
X310000Y234000
X303000Y319000
X297000Y315000
X283500Y316500
X278500Y317000
X279500Y344000
X253500Y346000
X255000Y354500
X257000Y335500
X251500Y331000
X249500Y324311
X241000Y340500
X264000Y379500
X265500Y385000
X270500Y394000
X283000Y380000
X295000
X298500Y384000
X301500Y386500
X311500Y387000
X297000Y365000
X299500Y352000
X323500Y348500
X316500Y335500
X320000Y331000
X351500Y341500
X362500
X366500Y345500
X376500Y338500
X348000Y358000
X349000Y384500
X351000Y394000
X324500Y370500
T03
X324921Y233020
X297362
T04
X347000Y250563
Y260063
Y270063
Y280063
Y290063
Y300063
Y310063
X397000
Y300063
Y290063
Y280063
Y270063
Y260063
Y250563
X387000
X377000
X367000
X357000
T05
X354468Y325917
T06
X252260Y221358
M30
