%FSLAX25Y25*%
%MOIN*%
G70*
G01*
G75*
%ADD31C,0.00500*%
%ADD32C,0.01181*%
%ADD35C,0.01968*%
%ADD36R,0.05905X0.05905*%
%ADD37C,0.05905*%
%ADD39C,0.02362*%
%ADD42C,0.01772*%
G36*
X265996Y398853D02*
X376232D01*
X376334Y398895D01*
X379692Y398706D01*
X383107Y398126D01*
X386437Y397167D01*
X389638Y395841D01*
X392670Y394165D01*
X395496Y392160D01*
X398079Y389851D01*
X400388Y387268D01*
X402393Y384442D01*
X404069Y381410D01*
X405395Y378209D01*
X406354Y374879D01*
X406934Y371463D01*
X407123Y368106D01*
X407081Y368004D01*
Y257768D01*
X407123Y257666D01*
X406934Y254309D01*
X406354Y250893D01*
X405395Y247564D01*
X404069Y244363D01*
X402393Y241330D01*
X400388Y238505D01*
X398079Y235921D01*
X395496Y233612D01*
X392670Y231607D01*
X389638Y229931D01*
X386437Y228606D01*
X383107Y227646D01*
X379692Y227066D01*
X376334Y226877D01*
X376232Y226920D01*
X287150D01*
X287126Y226910D01*
X285048Y226746D01*
X282998Y226254D01*
X281050Y225448D01*
X279253Y224346D01*
X277650Y222977D01*
X276281Y221374D01*
X275179Y219576D01*
X274372Y217628D01*
X274113Y216546D01*
X274093Y216500D01*
X274053Y216509D01*
X273807Y215484D01*
X273075Y213718D01*
X272076Y212088D01*
X270835Y210634D01*
X269381Y209392D01*
X267751Y208393D01*
X265984Y207662D01*
X264125Y207215D01*
X262294Y207071D01*
X262219Y207102D01*
X247295D01*
X247295Y207102D01*
Y207102D01*
X246796Y207104D01*
X245389Y207215D01*
X243530Y207662D01*
X241764Y208393D01*
X240134Y209392D01*
X238680Y210634D01*
X237438Y212088D01*
X236439Y213718D01*
X235707Y215484D01*
X235261Y217344D01*
X235117Y219175D01*
X235148Y219250D01*
Y368004D01*
X235105Y368106D01*
X235294Y371463D01*
X235874Y374879D01*
X236834Y378209D01*
X238159Y381410D01*
X239836Y384442D01*
X241840Y387268D01*
X244149Y389851D01*
X246733Y392160D01*
X249558Y394165D01*
X252591Y395841D01*
X255792Y397167D01*
X259121Y398126D01*
X262537Y398706D01*
X265894Y398895D01*
X265996Y398853D01*
D02*
G37*
%LPC*%
G36*
X251000Y266124D02*
X250649Y266055D01*
X249927Y265573D01*
X249445Y264851D01*
X249376Y264500D01*
X251000D01*
Y266124D01*
D02*
G37*
G36*
X252000D02*
Y264500D01*
X253624D01*
X253555Y264851D01*
X253073Y265573D01*
X252351Y266055D01*
X252000Y266124D01*
D02*
G37*
G36*
X323000Y267913D02*
X322459Y267805D01*
X322001Y267499D01*
X321695Y267041D01*
X321587Y266500D01*
X321695Y265959D01*
X322001Y265501D01*
X322459Y265195D01*
X323000Y265087D01*
X323541Y265195D01*
X323627Y265252D01*
X324182Y265022D01*
X324195Y264959D01*
X324501Y264501D01*
X324959Y264195D01*
X325500Y264087D01*
X326041Y264195D01*
X326499Y264501D01*
X326805Y264959D01*
X326913Y265500D01*
X326805Y266041D01*
X326499Y266499D01*
X326041Y266805D01*
X325500Y266913D01*
X324959Y266805D01*
X324873Y266748D01*
X324318Y266978D01*
X324305Y267041D01*
X323999Y267499D01*
X323541Y267805D01*
X323000Y267913D01*
D02*
G37*
G36*
X251000Y263500D02*
X249376D01*
X249445Y263149D01*
X249927Y262427D01*
X250649Y261945D01*
X251000Y261876D01*
Y263500D01*
D02*
G37*
G36*
X253624D02*
X252000D01*
Y261876D01*
X252351Y261945D01*
X253073Y262427D01*
X253555Y263149D01*
X253624Y263500D01*
D02*
G37*
G36*
X374000Y272913D02*
X373459Y272805D01*
X373001Y272499D01*
X372695Y272041D01*
X372587Y271500D01*
X372695Y270959D01*
X373001Y270501D01*
X373459Y270195D01*
X374000Y270087D01*
X374541Y270195D01*
X374999Y270501D01*
X375305Y270959D01*
X375413Y271500D01*
X375305Y272041D01*
X374999Y272499D01*
X374541Y272805D01*
X374000Y272913D01*
D02*
G37*
G36*
X355000Y274214D02*
X354344Y274084D01*
X353788Y273712D01*
X353416Y273156D01*
X353286Y272500D01*
X353416Y271844D01*
X353788Y271288D01*
X354344Y270916D01*
X355000Y270786D01*
X355656Y270916D01*
X356212Y271288D01*
X356584Y271844D01*
X356714Y272500D01*
X356584Y273156D01*
X356212Y273712D01*
X355656Y274084D01*
X355000Y274214D01*
D02*
G37*
G36*
X325500Y271413D02*
X324959Y271305D01*
X324501Y270999D01*
X324195Y270541D01*
X324087Y270000D01*
X324195Y269459D01*
X324501Y269001D01*
X324959Y268695D01*
X325500Y268587D01*
X326041Y268695D01*
X326499Y269001D01*
X326805Y269459D01*
X326913Y270000D01*
X326805Y270541D01*
X326499Y270999D01*
X326041Y271305D01*
X325500Y271413D01*
D02*
G37*
G36*
X347000Y273546D02*
X346099Y273427D01*
X345259Y273079D01*
X344537Y272526D01*
X343984Y271804D01*
X343636Y270964D01*
X343517Y270063D01*
X343636Y269162D01*
X343984Y268322D01*
X344537Y267600D01*
X345259Y267047D01*
X346099Y266699D01*
X347000Y266581D01*
X347901Y266699D01*
X348741Y267047D01*
X349463Y267600D01*
X350016Y268322D01*
X350364Y269162D01*
X350483Y270063D01*
X350364Y270964D01*
X350016Y271804D01*
X349463Y272526D01*
X348741Y273079D01*
X347901Y273427D01*
X347000Y273546D01*
D02*
G37*
G36*
X397000D02*
X396099Y273427D01*
X395259Y273079D01*
X394537Y272526D01*
X393984Y271804D01*
X393636Y270964D01*
X393517Y270063D01*
X393636Y269162D01*
X393984Y268322D01*
X394537Y267600D01*
X395259Y267047D01*
X396099Y266699D01*
X397000Y266581D01*
X397901Y266699D01*
X398741Y267047D01*
X399463Y267600D01*
X400016Y268322D01*
X400364Y269162D01*
X400483Y270063D01*
X400364Y270964D01*
X400016Y271804D01*
X399463Y272526D01*
X398741Y273079D01*
X397901Y273427D01*
X397000Y273546D01*
D02*
G37*
G36*
X372500Y264214D02*
X371844Y264084D01*
X371288Y263712D01*
X370916Y263156D01*
X370786Y262500D01*
X370916Y261844D01*
X371288Y261288D01*
X371844Y260916D01*
X372500Y260786D01*
X373156Y260916D01*
X373712Y261288D01*
X374084Y261844D01*
X374214Y262500D01*
X374084Y263156D01*
X373712Y263712D01*
X373156Y264084D01*
X372500Y264214D01*
D02*
G37*
G36*
X396500Y259563D02*
X393028D01*
Y257110D01*
X393105Y256720D01*
X393326Y256389D01*
X393657Y256168D01*
X394047Y256091D01*
X396500D01*
Y259563D01*
D02*
G37*
G36*
X400972D02*
X397500D01*
Y256091D01*
X399953D01*
X400343Y256168D01*
X400674Y256389D01*
X400895Y256720D01*
X400972Y257110D01*
Y259563D01*
D02*
G37*
G36*
X327624Y257500D02*
X326000D01*
Y255876D01*
X326351Y255945D01*
X327073Y256428D01*
X327555Y257149D01*
X327624Y257500D01*
D02*
G37*
G36*
X318000Y256413D02*
X317459Y256305D01*
X317001Y255999D01*
X316695Y255541D01*
X316301Y255705D01*
X316269Y255720D01*
X316269Y255720D01*
X315728Y255828D01*
X315188Y255720D01*
X314729Y255414D01*
X314526Y255110D01*
X314084Y255017D01*
X313931Y255045D01*
X313541Y255305D01*
X313000Y255413D01*
X312459Y255305D01*
X312001Y254999D01*
X311695Y254541D01*
X311587Y254000D01*
X311695Y253459D01*
X312001Y253001D01*
X312459Y252695D01*
X313000Y252587D01*
X313541Y252695D01*
X313999Y253001D01*
X314202Y253305D01*
X314644Y253398D01*
X314797Y253370D01*
X315188Y253110D01*
X315728Y253002D01*
X316269Y253110D01*
X316727Y253416D01*
X316785Y253501D01*
X316977Y253770D01*
X317427Y253710D01*
X317459Y253695D01*
X318000Y253587D01*
X318541Y253695D01*
X318999Y254001D01*
X319305Y254459D01*
X319413Y255000D01*
X319305Y255541D01*
X318999Y255999D01*
X318541Y256305D01*
X318000Y256413D01*
D02*
G37*
G36*
X325000Y257500D02*
X323376D01*
X323445Y257149D01*
X323927Y256428D01*
X324649Y255945D01*
X325000Y255876D01*
Y257500D01*
D02*
G37*
G36*
X396500Y264035D02*
X394047D01*
X393657Y263958D01*
X393326Y263737D01*
X393105Y263406D01*
X393028Y263016D01*
Y260563D01*
X396500D01*
Y264035D01*
D02*
G37*
G36*
X399953D02*
X397500D01*
Y260563D01*
X400972D01*
Y263016D01*
X400895Y263406D01*
X400674Y263737D01*
X400343Y263958D01*
X399953Y264035D01*
D02*
G37*
G36*
X326000Y260124D02*
Y258500D01*
X327624D01*
X327555Y258851D01*
X327073Y259573D01*
X326351Y260055D01*
X326000Y260124D01*
D02*
G37*
G36*
X347000Y263545D02*
X346099Y263427D01*
X345259Y263079D01*
X344537Y262526D01*
X343984Y261804D01*
X343636Y260964D01*
X343517Y260063D01*
X343636Y259162D01*
X343984Y258322D01*
X344537Y257600D01*
X345259Y257047D01*
X346099Y256699D01*
X347000Y256580D01*
X347901Y256699D01*
X348741Y257047D01*
X349463Y257600D01*
X350016Y258322D01*
X350364Y259162D01*
X350483Y260063D01*
X350364Y260964D01*
X350016Y261804D01*
X349463Y262526D01*
X348741Y263079D01*
X347901Y263427D01*
X347000Y263545D01*
D02*
G37*
G36*
X325000Y260124D02*
X324649Y260055D01*
X323927Y259573D01*
X323445Y258851D01*
X323376Y258500D01*
X325000D01*
Y260124D01*
D02*
G37*
G36*
X354468Y335753D02*
X352550Y335564D01*
X350705Y335004D01*
X349004Y334096D01*
X347514Y332872D01*
X346290Y331382D01*
X345381Y329681D01*
X344822Y327836D01*
X344633Y325917D01*
X344822Y323998D01*
X345381Y322153D01*
X346290Y320453D01*
X347514Y318962D01*
X349004Y317739D01*
X350705Y316830D01*
X352550Y316270D01*
X354468Y316082D01*
X356387Y316270D01*
X358232Y316830D01*
X359933Y317739D01*
X361423Y318962D01*
X362647Y320453D01*
X363556Y322153D01*
X364115Y323998D01*
X364304Y325917D01*
X364115Y327836D01*
X363556Y329681D01*
X362647Y331382D01*
X361423Y332872D01*
X359933Y334096D01*
X358232Y335004D01*
X356387Y335564D01*
X354468Y335753D01*
D02*
G37*
G36*
X263500Y319413D02*
X262959Y319305D01*
X262501Y318999D01*
X262195Y318541D01*
X262087Y318000D01*
X262195Y317459D01*
X262501Y317001D01*
X262959Y316695D01*
X263500Y316587D01*
X264041Y316695D01*
X264499Y317001D01*
X264805Y317459D01*
X264913Y318000D01*
X264805Y318541D01*
X264499Y318999D01*
X264041Y319305D01*
X263500Y319413D01*
D02*
G37*
G36*
X285624Y316000D02*
X284000D01*
Y314376D01*
X284351Y314445D01*
X285072Y314928D01*
X285555Y315649D01*
X285624Y316000D01*
D02*
G37*
G36*
X324000Y308913D02*
X323459Y308805D01*
X323001Y308499D01*
X322695Y308041D01*
X322587Y307500D01*
X322591Y307478D01*
X322552Y307408D01*
X322158Y307093D01*
X322000Y307124D01*
Y305000D01*
Y302876D01*
X322351Y302945D01*
X322527Y302872D01*
X322588Y302566D01*
X322895Y302107D01*
X323353Y301801D01*
X323634Y301235D01*
X323587Y301000D01*
X323695Y300459D01*
X324001Y300001D01*
X324459Y299695D01*
X325000Y299587D01*
X325541Y299695D01*
X325999Y300001D01*
X326305Y300459D01*
X326413Y301000D01*
X326305Y301541D01*
X325999Y301999D01*
X325541Y302305D01*
X325260Y302871D01*
X325307Y303106D01*
X325199Y303647D01*
X324893Y304105D01*
X324434Y304412D01*
X323894Y304519D01*
X323672Y304741D01*
X323724Y305000D01*
X323593Y305658D01*
X323908Y306052D01*
X323978Y306091D01*
X324000Y306087D01*
X324541Y306195D01*
X324999Y306501D01*
X325305Y306959D01*
X325413Y307500D01*
X325305Y308041D01*
X324999Y308499D01*
X324541Y308805D01*
X324000Y308913D01*
D02*
G37*
G36*
X283000Y316000D02*
X281376D01*
X281445Y315649D01*
X281927Y314928D01*
X282649Y314445D01*
X283000Y314376D01*
Y316000D01*
D02*
G37*
G36*
X258000Y321413D02*
X257459Y321305D01*
X257001Y320999D01*
X256695Y320541D01*
X256587Y320000D01*
X256695Y319459D01*
X257001Y319001D01*
X257459Y318695D01*
X258000Y318587D01*
X258541Y318695D01*
X258999Y319001D01*
X259305Y319459D01*
X259413Y320000D01*
X259305Y320541D01*
X258999Y320999D01*
X258541Y321305D01*
X258000Y321413D01*
D02*
G37*
G36*
X285500D02*
X284959Y321305D01*
X284501Y320999D01*
X284195Y320541D01*
X284087Y320000D01*
X284195Y319459D01*
X284490Y319017D01*
X284464Y318943D01*
X284234Y318578D01*
X284000Y318624D01*
Y317000D01*
X285624D01*
X285555Y317351D01*
X285072Y318073D01*
X284881Y318200D01*
X285076Y318671D01*
X285500Y318587D01*
X286041Y318695D01*
X286499Y319001D01*
X286805Y319459D01*
X286913Y320000D01*
X286805Y320541D01*
X286499Y320999D01*
X286041Y321305D01*
X285500Y321413D01*
D02*
G37*
G36*
X283000Y318624D02*
X282649Y318555D01*
X281927Y318073D01*
X281445Y317351D01*
X281376Y317000D01*
X283000D01*
Y318624D01*
D02*
G37*
G36*
X302500Y318500D02*
X300876D01*
X300945Y318149D01*
X301428Y317427D01*
X302149Y316945D01*
X302500Y316876D01*
Y318500D01*
D02*
G37*
G36*
X305124D02*
X303500D01*
Y316876D01*
X303851Y316945D01*
X304573Y317427D01*
X305055Y318149D01*
X305124Y318500D01*
D02*
G37*
G36*
X397000Y313545D02*
X396099Y313427D01*
X395259Y313079D01*
X394537Y312526D01*
X394337Y312265D01*
X381500D01*
X381207Y312207D01*
X380959Y312041D01*
X373819Y304901D01*
X353625D01*
X353576Y305400D01*
X353656Y305416D01*
X354212Y305788D01*
X354584Y306344D01*
X354714Y307000D01*
X354584Y307656D01*
X354212Y308212D01*
X353656Y308584D01*
X353000Y308714D01*
X352344Y308584D01*
X351788Y308212D01*
X351416Y307656D01*
X351286Y307000D01*
X351416Y306344D01*
X351788Y305788D01*
X352344Y305416D01*
X352424Y305400D01*
X352375Y304901D01*
X343136D01*
X342843Y304842D01*
X342595Y304677D01*
X342595Y304677D01*
X333683Y295765D01*
X326656D01*
X326499Y295999D01*
X326041Y296305D01*
X325757Y296362D01*
X325499Y296417D01*
X325393Y296902D01*
X325413Y297000D01*
X325305Y297541D01*
X324999Y297999D01*
X324541Y298305D01*
X324000Y298413D01*
X323459Y298305D01*
X323001Y297999D01*
X322695Y297541D01*
X322587Y297000D01*
X322695Y296459D01*
X323001Y296001D01*
X323459Y295695D01*
X323743Y295638D01*
X324001Y295583D01*
X324107Y295098D01*
X324087Y295000D01*
X324195Y294459D01*
X324501Y294001D01*
X324502Y294000D01*
Y293500D01*
X324501Y293499D01*
X324195Y293041D01*
X324087Y292500D01*
X324195Y291959D01*
X324322Y291769D01*
X324428Y291412D01*
X324194Y291128D01*
X324001Y290999D01*
X323695Y290541D01*
X323587Y290000D01*
X323695Y289459D01*
X324001Y289001D01*
X324459Y288695D01*
X324522Y288682D01*
X324752Y288127D01*
X324695Y288041D01*
X324587Y287500D01*
X324695Y286959D01*
X325001Y286501D01*
X325459Y286195D01*
X326000Y286087D01*
X326276Y286142D01*
X326959Y285459D01*
X327207Y285294D01*
X327500Y285235D01*
X390683D01*
X394041Y281878D01*
X393984Y281804D01*
X393636Y280964D01*
X393517Y280063D01*
X393636Y279162D01*
X393984Y278322D01*
X394537Y277601D01*
X395259Y277047D01*
X396099Y276699D01*
X397000Y276581D01*
X397901Y276699D01*
X398741Y277047D01*
X399463Y277601D01*
X400016Y278322D01*
X400364Y279162D01*
X400483Y280063D01*
X400364Y280964D01*
X400016Y281804D01*
X399463Y282525D01*
X398741Y283079D01*
X397901Y283427D01*
X397000Y283545D01*
X396099Y283427D01*
X395259Y283079D01*
X395114Y282968D01*
X391541Y286541D01*
X391293Y286706D01*
X391000Y286765D01*
X349195D01*
X349025Y287265D01*
X349463Y287600D01*
X350016Y288322D01*
X350364Y289162D01*
X350483Y290063D01*
X350364Y290964D01*
X350016Y291804D01*
X349463Y292526D01*
X349189Y292735D01*
X349359Y293235D01*
X359019D01*
X359171Y292735D01*
X358927Y292572D01*
X358445Y291851D01*
X358376Y291500D01*
X362624D01*
X362555Y291851D01*
X362072Y292572D01*
X361829Y292735D01*
X361981Y293235D01*
X392746D01*
X394068Y291914D01*
X393984Y291804D01*
X393636Y290964D01*
X393517Y290063D01*
X393636Y289162D01*
X393984Y288322D01*
X394537Y287600D01*
X395259Y287047D01*
X396099Y286699D01*
X397000Y286580D01*
X397901Y286699D01*
X398741Y287047D01*
X399463Y287600D01*
X400016Y288322D01*
X400364Y289162D01*
X400483Y290063D01*
X400364Y290964D01*
X400016Y291804D01*
X399463Y292526D01*
X398741Y293079D01*
X397901Y293427D01*
X397000Y293546D01*
X396099Y293427D01*
X395259Y293079D01*
X395149Y292995D01*
X393604Y294541D01*
X393356Y294707D01*
X393063Y294765D01*
X342085D01*
X341894Y295227D01*
X342263Y295596D01*
X366360D01*
X366653Y295654D01*
X366901Y295819D01*
X370380Y299298D01*
X393618D01*
X393636Y299162D01*
X393984Y298322D01*
X394537Y297601D01*
X395259Y297047D01*
X396099Y296699D01*
X397000Y296581D01*
X397901Y296699D01*
X398741Y297047D01*
X399463Y297601D01*
X400016Y298322D01*
X400364Y299162D01*
X400483Y300063D01*
X400364Y300964D01*
X400016Y301804D01*
X399463Y302525D01*
X398741Y303079D01*
X397901Y303427D01*
X397000Y303545D01*
X396099Y303427D01*
X395259Y303079D01*
X394537Y302525D01*
X393984Y301804D01*
X393636Y300964D01*
X393618Y300828D01*
X370063D01*
X369770Y300769D01*
X369522Y300604D01*
X366043Y297125D01*
X349621D01*
X349509Y297452D01*
X349481Y297625D01*
X350016Y298322D01*
X350364Y299162D01*
X350483Y300063D01*
X350364Y300964D01*
X350016Y301804D01*
X349463Y302525D01*
X349012Y302871D01*
X349182Y303371D01*
X354360D01*
X354661Y302871D01*
X354587Y302500D01*
X354695Y301959D01*
X355001Y301501D01*
X355459Y301195D01*
X356000Y301087D01*
X356541Y301195D01*
X356999Y301501D01*
X357305Y301959D01*
X357413Y302500D01*
X357339Y302871D01*
X357640Y303371D01*
X374136D01*
X374429Y303429D01*
X374676Y303595D01*
X381695Y310614D01*
X381973Y310572D01*
X382001Y310539D01*
X382174Y310042D01*
X381916Y309656D01*
X381786Y309000D01*
X381916Y308344D01*
X382288Y307788D01*
X382844Y307416D01*
X383500Y307286D01*
X384156Y307416D01*
X384712Y307788D01*
X385084Y308344D01*
X385214Y309000D01*
X385084Y309656D01*
X384712Y310212D01*
X384677Y310235D01*
X384829Y310735D01*
X393227D01*
X393556Y310359D01*
X393517Y310063D01*
X393636Y309162D01*
X393984Y308322D01*
X394537Y307600D01*
X395259Y307047D01*
X396099Y306699D01*
X397000Y306580D01*
X397901Y306699D01*
X398741Y307047D01*
X399463Y307600D01*
X400016Y308322D01*
X400364Y309162D01*
X400483Y310063D01*
X400364Y310964D01*
X400016Y311804D01*
X399463Y312526D01*
X398741Y313079D01*
X397901Y313427D01*
X397000Y313545D01*
D02*
G37*
G36*
X251000Y287624D02*
X250649Y287555D01*
X249927Y287072D01*
X249445Y286351D01*
X249376Y286000D01*
X251000D01*
Y287624D01*
D02*
G37*
G36*
X252000D02*
Y286000D01*
X253624D01*
X253555Y286351D01*
X253073Y287072D01*
X252351Y287555D01*
X252000Y287624D01*
D02*
G37*
G36*
X253624Y285000D02*
X252000D01*
Y283376D01*
X252351Y283445D01*
X253073Y283927D01*
X253555Y284649D01*
X253624Y285000D01*
D02*
G37*
G36*
X347000Y283545D02*
X346099Y283427D01*
X345259Y283079D01*
X344537Y282525D01*
X343984Y281804D01*
X343636Y280964D01*
X343517Y280063D01*
X343636Y279162D01*
X343984Y278322D01*
X344537Y277601D01*
X345259Y277047D01*
X346099Y276699D01*
X347000Y276581D01*
X347901Y276699D01*
X348741Y277047D01*
X349463Y277601D01*
X350016Y278322D01*
X350364Y279162D01*
X350483Y280063D01*
X350364Y280964D01*
X350016Y281804D01*
X349463Y282525D01*
X348741Y283079D01*
X347901Y283427D01*
X347000Y283545D01*
D02*
G37*
G36*
X251000Y285000D02*
X249376D01*
X249445Y284649D01*
X249927Y283927D01*
X250649Y283445D01*
X251000Y283376D01*
Y285000D01*
D02*
G37*
G36*
X321000Y307124D02*
X320649Y307055D01*
X319928Y306573D01*
X319445Y305851D01*
X319376Y305500D01*
X321000D01*
Y307124D01*
D02*
G37*
G36*
X349953Y313557D02*
X344047D01*
X343665Y313398D01*
X343506Y313016D01*
Y307110D01*
X343665Y306728D01*
X344047Y306569D01*
X349953D01*
X350335Y306728D01*
X350494Y307110D01*
Y313016D01*
X350335Y313398D01*
X349953Y313557D01*
D02*
G37*
G36*
X321000Y304500D02*
X319376D01*
X319445Y304149D01*
X319928Y303428D01*
X320649Y302945D01*
X321000Y302876D01*
Y304500D01*
D02*
G37*
G36*
X360000Y290500D02*
X358376D01*
X358445Y290149D01*
X358927Y289427D01*
X359649Y288945D01*
X360000Y288876D01*
Y290500D01*
D02*
G37*
G36*
X362624D02*
X361000D01*
Y288876D01*
X361351Y288945D01*
X362072Y289427D01*
X362555Y290149D01*
X362624Y290500D01*
D02*
G37*
G36*
X335500Y257214D02*
X334844Y257084D01*
X334288Y256712D01*
X333916Y256156D01*
X333786Y255500D01*
X333916Y254844D01*
X334288Y254288D01*
X334844Y253916D01*
X335500Y253786D01*
X336156Y253916D01*
X336712Y254288D01*
X337084Y254844D01*
X337214Y255500D01*
X337084Y256156D01*
X336712Y256712D01*
X336156Y257084D01*
X335500Y257214D01*
D02*
G37*
G36*
X370000Y237500D02*
X368376D01*
X368445Y237149D01*
X368928Y236427D01*
X369649Y235945D01*
X370000Y235876D01*
Y237500D01*
D02*
G37*
G36*
X372624D02*
X371000D01*
Y235876D01*
X371351Y235945D01*
X372073Y236427D01*
X372555Y237149D01*
X372624Y237500D01*
D02*
G37*
G36*
X359624D02*
X358000D01*
Y235876D01*
X358351Y235945D01*
X359072Y236427D01*
X359555Y237149D01*
X359624Y237500D01*
D02*
G37*
G36*
X346624D02*
X345000D01*
Y235876D01*
X345351Y235945D01*
X346073Y236427D01*
X346555Y237149D01*
X346624Y237500D01*
D02*
G37*
G36*
X357000D02*
X355376D01*
X355445Y237149D01*
X355927Y236427D01*
X356649Y235945D01*
X357000Y235876D01*
Y237500D01*
D02*
G37*
G36*
X345000Y240124D02*
Y238500D01*
X346624D01*
X346555Y238851D01*
X346073Y239573D01*
X345351Y240055D01*
X345000Y240124D01*
D02*
G37*
G36*
X357000D02*
X356649Y240055D01*
X355927Y239573D01*
X355445Y238851D01*
X355376Y238500D01*
X357000D01*
Y240124D01*
D02*
G37*
G36*
X344000D02*
X343649Y240055D01*
X342928Y239573D01*
X342445Y238851D01*
X342376Y238500D01*
X344000D01*
Y240124D01*
D02*
G37*
G36*
X244000Y238124D02*
X243649Y238055D01*
X242928Y237573D01*
X242445Y236851D01*
X242376Y236500D01*
X244000D01*
Y238124D01*
D02*
G37*
G36*
X245000D02*
Y236500D01*
X246624D01*
X246555Y236851D01*
X246073Y237573D01*
X245351Y238055D01*
X245000Y238124D01*
D02*
G37*
G36*
X344000Y237500D02*
X342376D01*
X342445Y237149D01*
X342928Y236427D01*
X343649Y235945D01*
X344000Y235876D01*
Y237500D01*
D02*
G37*
G36*
X244000Y235500D02*
X242376D01*
X242445Y235149D01*
X242928Y234427D01*
X243649Y233945D01*
X244000Y233876D01*
Y235500D01*
D02*
G37*
G36*
X246624D02*
X245000D01*
Y233876D01*
X245351Y233945D01*
X246073Y234427D01*
X246555Y235149D01*
X246624Y235500D01*
D02*
G37*
G36*
X287000Y237214D02*
X286344Y237084D01*
X285788Y236712D01*
X285416Y236156D01*
X285286Y235500D01*
X285416Y234844D01*
X285788Y234288D01*
X286344Y233916D01*
X287000Y233786D01*
X287656Y233916D01*
X288212Y234288D01*
X288584Y234844D01*
X288714Y235500D01*
X288584Y236156D01*
X288212Y236712D01*
X287656Y237084D01*
X287000Y237214D01*
D02*
G37*
G36*
X252260Y234598D02*
X250189Y234435D01*
X248168Y233950D01*
X246249Y233155D01*
X244478Y232070D01*
X242898Y230720D01*
X241548Y229140D01*
X240463Y227369D01*
X239668Y225450D01*
X239183Y223429D01*
X239020Y221358D01*
X239183Y219287D01*
X239668Y217267D01*
X240463Y215348D01*
X241548Y213576D01*
X242898Y211996D01*
X244478Y210647D01*
X246249Y209561D01*
X248168Y208766D01*
X250189Y208281D01*
X252260Y208118D01*
X254331Y208281D01*
X256351Y208766D01*
X258271Y209561D01*
X260042Y210647D01*
X261622Y211996D01*
X262971Y213576D01*
X264057Y215348D01*
X264852Y217267D01*
X265337Y219287D01*
X265500Y221358D01*
X265337Y223429D01*
X264852Y225450D01*
X264057Y227369D01*
X262971Y229140D01*
X261622Y230720D01*
X260042Y232070D01*
X258271Y233155D01*
X256351Y233950D01*
X254331Y234435D01*
X252260Y234598D01*
D02*
G37*
G36*
X275000Y234714D02*
X274344Y234584D01*
X273788Y234212D01*
X273416Y233656D01*
X273286Y233000D01*
X273416Y232344D01*
X273788Y231788D01*
X274344Y231416D01*
X275000Y231286D01*
X275656Y231416D01*
X276212Y231788D01*
X276584Y232344D01*
X276714Y233000D01*
X276584Y233656D01*
X276212Y234212D01*
X275656Y234584D01*
X275000Y234714D01*
D02*
G37*
G36*
X318500Y235413D02*
X317959Y235305D01*
X317501Y234999D01*
X317500Y234998D01*
X317000D01*
X316999Y234999D01*
X316541Y235305D01*
X316000Y235413D01*
X315459Y235305D01*
X315001Y234999D01*
X314695Y234541D01*
X314587Y234000D01*
X314695Y233459D01*
X315001Y233001D01*
X315459Y232695D01*
X316000Y232587D01*
X316541Y232695D01*
X316999Y233001D01*
X317000Y233002D01*
X317500D01*
X317501Y233001D01*
X317959Y232695D01*
X318500Y232587D01*
X319041Y232695D01*
X319499Y233001D01*
X319805Y233459D01*
X319913Y234000D01*
X319805Y234541D01*
X319499Y234999D01*
X319041Y235305D01*
X318500Y235413D01*
D02*
G37*
G36*
X280000Y237913D02*
X279459Y237805D01*
X279001Y237499D01*
X278695Y237041D01*
X278587Y236500D01*
X278695Y235959D01*
X279001Y235501D01*
X279459Y235195D01*
X280000Y235087D01*
X280541Y235195D01*
X280999Y235501D01*
X281305Y235959D01*
X281413Y236500D01*
X281305Y237041D01*
X280999Y237499D01*
X280541Y237805D01*
X280000Y237913D01*
D02*
G37*
G36*
X324921Y234765D02*
X324870Y234744D01*
X324816Y234755D01*
X324355Y234663D01*
X324265Y234603D01*
X324160Y234582D01*
X323769Y234321D01*
X323709Y234232D01*
X323620Y234172D01*
X323359Y233781D01*
X323338Y233676D01*
X323278Y233586D01*
X323186Y233125D01*
X323207Y233020D01*
X323197Y232968D01*
X322989Y232816D01*
X322722Y232684D01*
X322541Y232805D01*
X322000Y232913D01*
X321459Y232805D01*
X321001Y232499D01*
X320695Y232041D01*
X320587Y231500D01*
X320695Y230959D01*
X321001Y230501D01*
X321459Y230195D01*
X322000Y230087D01*
X322541Y230195D01*
X322999Y230501D01*
X323305Y230959D01*
X323395Y231412D01*
X323468Y231472D01*
X323663Y231569D01*
X323896Y231633D01*
X324160Y231457D01*
X324265Y231436D01*
X324355Y231376D01*
X324816Y231285D01*
X324870Y231295D01*
X324921Y231274D01*
X324973Y231295D01*
X325027Y231285D01*
X325488Y231376D01*
X325577Y231436D01*
X325683Y231457D01*
X326074Y231718D01*
X326133Y231808D01*
X326223Y231868D01*
X326484Y232258D01*
X326505Y232364D01*
X326565Y232453D01*
X326656Y232914D01*
X326635Y233020D01*
X326656Y233125D01*
X326565Y233586D01*
X326505Y233676D01*
X326484Y233781D01*
X326223Y234172D01*
X326133Y234232D01*
X326074Y234321D01*
X325683Y234582D01*
X325577Y234603D01*
X325488Y234663D01*
X325027Y234755D01*
X324973Y234744D01*
X324921Y234765D01*
D02*
G37*
G36*
X310000Y235714D02*
X309344Y235584D01*
X308788Y235212D01*
X308416Y234656D01*
X308286Y234000D01*
X307902Y233997D01*
D01*
X307902D01*
X307589Y234364D01*
X307499Y234499D01*
X307041Y234805D01*
X306500Y234913D01*
X305959Y234805D01*
X305501Y234499D01*
X305195Y234041D01*
X305087Y233500D01*
X305195Y232959D01*
X305501Y232501D01*
X305959Y232195D01*
X306500Y232087D01*
X307041Y232195D01*
X307499Y232501D01*
X307805Y232959D01*
X307913Y233500D01*
X308297Y233503D01*
D01*
X308297D01*
X308568Y233118D01*
X308788Y232788D01*
X309344Y232416D01*
X310000Y232286D01*
X310656Y232416D01*
X311212Y232788D01*
X311584Y233344D01*
X311714Y234000D01*
X311584Y234656D01*
X311212Y235212D01*
X310656Y235584D01*
X310000Y235714D01*
D02*
G37*
G36*
X300000Y237413D02*
X299459Y237305D01*
X299001Y236999D01*
X298695Y236541D01*
X298587Y236000D01*
X298695Y235459D01*
X299001Y235001D01*
X299002Y235000D01*
Y234654D01*
X298965Y234479D01*
X298514Y234321D01*
X298124Y234582D01*
X298018Y234603D01*
X297929Y234663D01*
X297468Y234755D01*
X297413Y234744D01*
X297362Y234765D01*
X297311Y234744D01*
X297257Y234755D01*
X296796Y234663D01*
X296706Y234603D01*
X296601Y234582D01*
X296210Y234321D01*
X296150Y234232D01*
X296061Y234172D01*
X295800Y233781D01*
X295779Y233676D01*
X295719Y233586D01*
X295627Y233125D01*
X295648Y233020D01*
X295627Y232914D01*
X295719Y232453D01*
X295779Y232364D01*
X295800Y232258D01*
X296061Y231868D01*
X296150Y231808D01*
X296210Y231718D01*
X296601Y231457D01*
X296706Y231436D01*
X296796Y231376D01*
X297257Y231285D01*
X297311Y231295D01*
X297362Y231274D01*
X297413Y231295D01*
X297468Y231285D01*
X297929Y231376D01*
X298018Y231436D01*
X298124Y231457D01*
X298514Y231718D01*
X298574Y231808D01*
X298664Y231868D01*
X298783Y232045D01*
X299342Y232224D01*
X299426Y232217D01*
X299459Y232195D01*
X300000Y232087D01*
X300541Y232195D01*
X300999Y232501D01*
X301305Y232959D01*
X301413Y233500D01*
X301305Y234041D01*
X300999Y234499D01*
X300998Y234500D01*
Y235000D01*
X300999Y235001D01*
X301305Y235459D01*
X301413Y236000D01*
X301305Y236541D01*
X300999Y236999D01*
X300541Y237305D01*
X300000Y237413D01*
D02*
G37*
G36*
X349953Y254057D02*
X344047D01*
X343665Y253898D01*
X343506Y253516D01*
Y247610D01*
X343665Y247228D01*
X344047Y247069D01*
X349953D01*
X350335Y247228D01*
X350494Y247610D01*
Y253516D01*
X350335Y253898D01*
X349953Y254057D01*
D02*
G37*
G36*
X357000Y254046D02*
X356099Y253927D01*
X355259Y253579D01*
X354538Y253026D01*
X353984Y252304D01*
X353636Y251464D01*
X353518Y250563D01*
X353636Y249662D01*
X353984Y248822D01*
X354538Y248100D01*
X355259Y247547D01*
X356099Y247199D01*
X357000Y247080D01*
X357901Y247199D01*
X358741Y247547D01*
X359462Y248100D01*
X360016Y248822D01*
X360364Y249662D01*
X360483Y250563D01*
X360364Y251464D01*
X360016Y252304D01*
X359462Y253026D01*
X358741Y253579D01*
X357901Y253927D01*
X357000Y254046D01*
D02*
G37*
G36*
X312500Y248413D02*
X311959Y248305D01*
X311501Y247999D01*
X311195Y247541D01*
X311138Y247257D01*
X311083Y246999D01*
X310598Y246893D01*
X310500Y246913D01*
X309959Y246805D01*
X309769Y246678D01*
X309412Y246572D01*
X309128Y246806D01*
X308999Y246999D01*
X308541Y247305D01*
X308000Y247413D01*
X307459Y247305D01*
X307001Y246999D01*
X307000Y246998D01*
X306500D01*
X306499Y246999D01*
X306041Y247305D01*
X305500Y247413D01*
X304959Y247305D01*
X304501Y246999D01*
X304372Y246806D01*
X304088Y246572D01*
X303731Y246678D01*
X303541Y246805D01*
X303000Y246913D01*
X302459Y246805D01*
X302001Y246499D01*
X301695Y246041D01*
X301587Y245500D01*
X301695Y244959D01*
X302001Y244501D01*
X302459Y244195D01*
X303000Y244087D01*
X303541Y244195D01*
X303999Y244501D01*
X304128Y244694D01*
X304412Y244928D01*
X304769Y244822D01*
X304959Y244695D01*
X305500Y244587D01*
X306041Y244695D01*
X306499Y245001D01*
X306500Y245002D01*
X307000D01*
X307001Y245001D01*
X307459Y244695D01*
X308000Y244587D01*
X308541Y244695D01*
X308731Y244822D01*
X309088Y244928D01*
X309372Y244694D01*
X309501Y244501D01*
X309959Y244195D01*
X310500Y244087D01*
X311041Y244195D01*
X311499Y244501D01*
X311805Y244959D01*
X311862Y245243D01*
X311917Y245501D01*
X312402Y245607D01*
X312500Y245587D01*
X313041Y245695D01*
X313321Y245882D01*
X313664Y245569D01*
X313692Y245529D01*
X313587Y245000D01*
X313695Y244459D01*
X314001Y244001D01*
X314459Y243695D01*
X315000Y243587D01*
X315541Y243695D01*
X315999Y244001D01*
X316305Y244459D01*
X316413Y245000D01*
X316305Y245541D01*
X315999Y245999D01*
X315541Y246305D01*
X315000Y246413D01*
X314459Y246305D01*
X314179Y246118D01*
X313836Y246431D01*
X313808Y246472D01*
X313913Y247000D01*
X313805Y247541D01*
X313499Y247999D01*
X313041Y248305D01*
X312500Y248413D01*
D02*
G37*
G36*
X282500Y247624D02*
Y246000D01*
X284124D01*
X284055Y246351D01*
X283573Y247073D01*
X282851Y247555D01*
X282500Y247624D01*
D02*
G37*
G36*
X320000Y248913D02*
X319459Y248805D01*
X319001Y248499D01*
X318695Y248041D01*
X318587Y247500D01*
X318695Y246959D01*
X319001Y246501D01*
X319459Y246195D01*
X320000Y246087D01*
X320541Y246195D01*
X320999Y246501D01*
X321305Y246959D01*
X321413Y247500D01*
X321305Y248041D01*
X320999Y248499D01*
X320541Y248805D01*
X320000Y248913D01*
D02*
G37*
G36*
X397000Y254046D02*
X396099Y253927D01*
X395259Y253579D01*
X394537Y253026D01*
X393984Y252304D01*
X393636Y251464D01*
X393517Y250563D01*
X393636Y249662D01*
X393984Y248822D01*
X394537Y248100D01*
X395259Y247547D01*
X396099Y247199D01*
X397000Y247080D01*
X397901Y247199D01*
X398741Y247547D01*
X399463Y248100D01*
X400016Y248822D01*
X400364Y249662D01*
X400483Y250563D01*
X400364Y251464D01*
X400016Y252304D01*
X399463Y253026D01*
X398741Y253579D01*
X397901Y253927D01*
X397000Y254046D01*
D02*
G37*
G36*
X295000Y249124D02*
X294649Y249055D01*
X293928Y248572D01*
X293445Y247851D01*
X293376Y247500D01*
X295000D01*
Y249124D01*
D02*
G37*
G36*
X358500Y279413D02*
X357959Y279305D01*
X357501Y278999D01*
X357195Y278541D01*
X357087Y278000D01*
X357195Y277459D01*
X357501Y277001D01*
X357959Y276695D01*
X358500Y276587D01*
X359041Y276695D01*
X359499Y277001D01*
X359656Y277235D01*
X369057D01*
X369325Y276735D01*
X369195Y276541D01*
X369087Y276000D01*
X369195Y275459D01*
X369501Y275001D01*
X369959Y274695D01*
X370500Y274587D01*
X371041Y274695D01*
X371499Y275001D01*
X371805Y275459D01*
X371913Y276000D01*
X371805Y276541D01*
X371675Y276735D01*
X371943Y277235D01*
X380183D01*
X386235Y271183D01*
Y253945D01*
X386099Y253927D01*
X385259Y253579D01*
X384538Y253026D01*
X383984Y252304D01*
X383636Y251464D01*
X383518Y250563D01*
X383636Y249662D01*
X383984Y248822D01*
X384538Y248100D01*
X385259Y247547D01*
X386099Y247199D01*
X387000Y247080D01*
X387901Y247199D01*
X388741Y247547D01*
X389462Y248100D01*
X390016Y248822D01*
X390364Y249662D01*
X390482Y250563D01*
X390364Y251464D01*
X390016Y252304D01*
X389462Y253026D01*
X388741Y253579D01*
X387901Y253927D01*
X387765Y253945D01*
Y271500D01*
X387706Y271793D01*
X387541Y272041D01*
X381041Y278541D01*
X380793Y278707D01*
X380500Y278765D01*
X359656D01*
X359499Y278999D01*
X359041Y279305D01*
X358500Y279413D01*
D02*
G37*
G36*
X365719Y271195D02*
X365178Y271087D01*
X364719Y270781D01*
X364413Y270322D01*
X364305Y269781D01*
X364413Y269241D01*
X364719Y268782D01*
X364954Y268626D01*
Y255782D01*
X365012Y255489D01*
X365178Y255241D01*
X366010Y254409D01*
X366020Y254353D01*
X365877Y253835D01*
X365259Y253579D01*
X364538Y253026D01*
X363984Y252304D01*
X363636Y251464D01*
X363517Y250563D01*
X363636Y249662D01*
X363984Y248822D01*
X364538Y248100D01*
X365259Y247547D01*
X366099Y247199D01*
X367000Y247080D01*
X367901Y247199D01*
X368741Y247547D01*
X369462Y248100D01*
X370016Y248822D01*
X370364Y249662D01*
X370482Y250563D01*
X370364Y251464D01*
X370016Y252304D01*
X369462Y253026D01*
X368741Y253579D01*
X367901Y253927D01*
X367765Y253945D01*
Y254500D01*
X367706Y254793D01*
X367541Y255041D01*
X366483Y256098D01*
Y268626D01*
X366718Y268782D01*
X367024Y269241D01*
X367131Y269781D01*
X367024Y270322D01*
X366718Y270781D01*
X366259Y271087D01*
X365719Y271195D01*
D02*
G37*
G36*
X377000Y254046D02*
X376099Y253927D01*
X375259Y253579D01*
X374537Y253026D01*
X373984Y252304D01*
X373636Y251464D01*
X373517Y250563D01*
X373636Y249662D01*
X373984Y248822D01*
X374537Y248100D01*
X375259Y247547D01*
X376099Y247199D01*
X377000Y247080D01*
X377901Y247199D01*
X378741Y247547D01*
X379463Y248100D01*
X380016Y248822D01*
X380364Y249662D01*
X380483Y250563D01*
X380364Y251464D01*
X380016Y252304D01*
X379463Y253026D01*
X378741Y253579D01*
X377901Y253927D01*
X377000Y254046D01*
D02*
G37*
G36*
X281500Y247624D02*
X281149Y247555D01*
X280428Y247073D01*
X279945Y246351D01*
X279876Y246000D01*
X281500D01*
Y247624D01*
D02*
G37*
G36*
X353750Y243663D02*
X353209Y243555D01*
X352751Y243249D01*
X352445Y242791D01*
X352337Y242250D01*
X352445Y241709D01*
X352751Y241251D01*
X353209Y240945D01*
X353750Y240837D01*
X354291Y240945D01*
X354749Y241251D01*
X355055Y241709D01*
X355163Y242250D01*
X355055Y242791D01*
X354749Y243249D01*
X354291Y243555D01*
X353750Y243663D01*
D02*
G37*
G36*
X366500Y243913D02*
X365959Y243805D01*
X365501Y243499D01*
X365195Y243041D01*
X365087Y242500D01*
X365195Y241959D01*
X365501Y241501D01*
X365959Y241195D01*
X366500Y241087D01*
X367041Y241195D01*
X367499Y241501D01*
X367805Y241959D01*
X367913Y242500D01*
X367805Y243041D01*
X367499Y243499D01*
X367041Y243805D01*
X366500Y243913D01*
D02*
G37*
G36*
X371000Y240124D02*
Y238500D01*
X372624D01*
X372555Y238851D01*
X372073Y239573D01*
X371351Y240055D01*
X371000Y240124D01*
D02*
G37*
G36*
X358000D02*
Y238500D01*
X359624D01*
X359555Y238851D01*
X359072Y239573D01*
X358351Y240055D01*
X358000Y240124D01*
D02*
G37*
G36*
X370000D02*
X369649Y240055D01*
X368928Y239573D01*
X368445Y238851D01*
X368376Y238500D01*
X370000D01*
Y240124D01*
D02*
G37*
G36*
X296000Y249124D02*
Y247000D01*
Y244876D01*
X296351Y244945D01*
X296474Y245027D01*
X296916Y244844D01*
X297288Y244288D01*
X297844Y243916D01*
X298500Y243786D01*
X299156Y243916D01*
X299712Y244288D01*
X300084Y244844D01*
X300214Y245500D01*
X300084Y246156D01*
X299712Y246712D01*
X299156Y247084D01*
X298500Y247214D01*
X297844Y247084D01*
X297695Y247145D01*
X297555Y247851D01*
X297073Y248572D01*
X296351Y249055D01*
X296000Y249124D01*
D02*
G37*
G36*
X295000Y246500D02*
X293376D01*
X293445Y246149D01*
X293928Y245427D01*
X294649Y244945D01*
X295000Y244876D01*
Y246500D01*
D02*
G37*
G36*
X284124Y245000D02*
X282500D01*
Y243376D01*
X282851Y243445D01*
X283573Y243928D01*
X284055Y244649D01*
X284124Y245000D01*
D02*
G37*
G36*
X379500Y243913D02*
X378959Y243805D01*
X378501Y243499D01*
X378195Y243041D01*
X378087Y242500D01*
X378195Y241959D01*
X378501Y241501D01*
X378959Y241195D01*
X379500Y241087D01*
X380041Y241195D01*
X380499Y241501D01*
X380805Y241959D01*
X380913Y242500D01*
X380805Y243041D01*
X380499Y243499D01*
X380041Y243805D01*
X379500Y243913D01*
D02*
G37*
G36*
X281500Y245000D02*
X279876D01*
X279945Y244649D01*
X280428Y243928D01*
X281149Y243445D01*
X281500Y243376D01*
Y245000D01*
D02*
G37*
G36*
Y321913D02*
X280959Y321805D01*
X280501Y321499D01*
X280195Y321041D01*
X280087Y320500D01*
X280195Y319959D01*
X280501Y319501D01*
X280959Y319195D01*
X281500Y319087D01*
X282041Y319195D01*
X282499Y319501D01*
X282805Y319959D01*
X282913Y320500D01*
X282805Y321041D01*
X282499Y321499D01*
X282041Y321805D01*
X281500Y321913D01*
D02*
G37*
G36*
X296500Y364500D02*
X294876D01*
X294945Y364149D01*
X295427Y363427D01*
X296149Y362945D01*
X296500Y362876D01*
Y364500D01*
D02*
G37*
G36*
Y367124D02*
X296149Y367055D01*
X295427Y366572D01*
X294945Y365851D01*
X294876Y365500D01*
X296500D01*
Y367124D01*
D02*
G37*
G36*
X264050Y367363D02*
X263510Y367255D01*
X263051Y366949D01*
X262745Y366490D01*
X262637Y365950D01*
X262745Y365409D01*
X263051Y364950D01*
X263510Y364644D01*
X264017Y364543D01*
X264162Y364489D01*
X264399Y364252D01*
X264454Y364107D01*
X264555Y363599D01*
X264861Y363141D01*
X265319Y362835D01*
X265860Y362727D01*
X266401Y362835D01*
X266859Y363141D01*
X267165Y363599D01*
X267273Y364140D01*
X267165Y364681D01*
X266859Y365139D01*
X266401Y365445D01*
X265893Y365546D01*
X265748Y365601D01*
X265511Y365838D01*
X265457Y365983D01*
X265356Y366490D01*
X265050Y366949D01*
X264591Y367255D01*
X264050Y367363D01*
D02*
G37*
G36*
X250860Y363053D02*
X250319Y362946D01*
X249861Y362639D01*
X249554Y362181D01*
X249447Y361640D01*
X249554Y361099D01*
X249861Y360641D01*
X250319Y360335D01*
X250860Y360227D01*
X251401Y360335D01*
X251859Y360641D01*
X252165Y361099D01*
X252273Y361640D01*
X252165Y362181D01*
X251859Y362639D01*
X251401Y362946D01*
X250860Y363053D01*
D02*
G37*
G36*
X299373Y364500D02*
X297500D01*
Y362876D01*
X297851Y362945D01*
X298099Y363111D01*
X298250Y363077D01*
X298616Y362855D01*
X298695Y362459D01*
X299001Y362001D01*
X299459Y361695D01*
X300000Y361587D01*
X300541Y361695D01*
X300999Y362001D01*
X301305Y362459D01*
X301413Y363000D01*
X301305Y363541D01*
X300999Y363999D01*
X300541Y364305D01*
X300000Y364413D01*
X299601Y364334D01*
X299373Y364500D01*
D02*
G37*
G36*
X326624Y370000D02*
X325000D01*
Y368376D01*
X325351Y368445D01*
X326073Y368928D01*
X326555Y369649D01*
X326624Y370000D01*
D02*
G37*
G36*
X294500Y373413D02*
X293959Y373305D01*
X293501Y372999D01*
X293195Y372541D01*
X293087Y372000D01*
X293195Y371459D01*
X293501Y371001D01*
X293959Y370695D01*
X294500Y370587D01*
X295041Y370695D01*
X295499Y371001D01*
X295805Y371459D01*
X295913Y372000D01*
X295805Y372541D01*
X295499Y372999D01*
X295041Y373305D01*
X294500Y373413D01*
D02*
G37*
G36*
X324000Y370000D02*
X322376D01*
X322445Y369649D01*
X322927Y368928D01*
X323649Y368445D01*
X324000Y368376D01*
Y370000D01*
D02*
G37*
G36*
X297500Y367124D02*
Y365500D01*
X299124D01*
X299055Y365851D01*
X298572Y366572D01*
X297851Y367055D01*
X297500Y367124D01*
D02*
G37*
G36*
Y371913D02*
X296959Y371805D01*
X296501Y371499D01*
X296195Y371041D01*
X296087Y370500D01*
X296195Y369959D01*
X296501Y369501D01*
X296959Y369195D01*
X297500Y369087D01*
X298041Y369195D01*
X298321Y369382D01*
X298664Y369069D01*
X298692Y369028D01*
X298587Y368500D01*
X298695Y367959D01*
X299001Y367501D01*
X299459Y367195D01*
X300000Y367087D01*
X300541Y367195D01*
X300999Y367501D01*
X301305Y367959D01*
X301413Y368500D01*
X301305Y369041D01*
X300999Y369499D01*
X300541Y369805D01*
X300000Y369913D01*
X299459Y369805D01*
X299179Y369618D01*
X298836Y369931D01*
X298808Y369971D01*
X298913Y370500D01*
X298805Y371041D01*
X298499Y371499D01*
X298041Y371805D01*
X297500Y371913D01*
D02*
G37*
G36*
X348500Y360124D02*
Y358500D01*
X350124D01*
X350055Y358851D01*
X349572Y359573D01*
X348851Y360055D01*
X348500Y360124D01*
D02*
G37*
G36*
X255500Y351413D02*
X254959Y351305D01*
X254501Y350999D01*
X254195Y350541D01*
X254087Y350000D01*
X254195Y349459D01*
X254501Y349001D01*
X254959Y348695D01*
X255500Y348587D01*
X256041Y348695D01*
X256499Y349001D01*
X256805Y349459D01*
X256913Y350000D01*
X256805Y350541D01*
X256499Y350999D01*
X256041Y351305D01*
X255500Y351413D01*
D02*
G37*
G36*
X323000Y350624D02*
X322649Y350555D01*
X321927Y350073D01*
X321445Y349351D01*
X321376Y349000D01*
X323000D01*
Y350624D01*
D02*
G37*
G36*
X244500Y350413D02*
X243959Y350305D01*
X243501Y349999D01*
X243195Y349541D01*
X243087Y349000D01*
X243195Y348459D01*
X243501Y348001D01*
X243959Y347695D01*
X244500Y347587D01*
X245041Y347695D01*
X245499Y348001D01*
X245805Y348459D01*
X245913Y349000D01*
X245805Y349541D01*
X245499Y349999D01*
X245041Y350305D01*
X244500Y350413D01*
D02*
G37*
G36*
X253000Y348124D02*
X252649Y348055D01*
X251927Y347572D01*
X251445Y346851D01*
X251376Y346500D01*
X253000D01*
Y348124D01*
D02*
G37*
G36*
X254000D02*
Y346500D01*
X255624D01*
X255555Y346851D01*
X255072Y347572D01*
X254351Y348055D01*
X254000Y348124D01*
D02*
G37*
G36*
X350124Y357500D02*
X348500D01*
Y355876D01*
X348851Y355945D01*
X349572Y356428D01*
X350055Y357149D01*
X350124Y357500D01*
D02*
G37*
G36*
X347500Y360124D02*
X347149Y360055D01*
X346427Y359573D01*
X345945Y358851D01*
X345876Y358500D01*
X347500D01*
Y360124D01*
D02*
G37*
G36*
Y357500D02*
X345876D01*
X345945Y357149D01*
X346427Y356428D01*
X347149Y355945D01*
X347500Y355876D01*
Y357500D01*
D02*
G37*
G36*
X324000Y350624D02*
Y349000D01*
X325624D01*
X325555Y349351D01*
X325073Y350073D01*
X324351Y350555D01*
X324000Y350624D01*
D02*
G37*
G36*
X299500Y359913D02*
X298959Y359805D01*
X298501Y359499D01*
X298195Y359041D01*
X298087Y358500D01*
X298195Y357959D01*
X298322Y357769D01*
X298428Y357412D01*
X298194Y357128D01*
X298001Y356999D01*
X297695Y356541D01*
X297587Y356000D01*
X297695Y355459D01*
X298001Y355001D01*
X298459Y354695D01*
X299000Y354587D01*
X299541Y354695D01*
X299999Y355001D01*
X300305Y355459D01*
X300413Y356000D01*
X300305Y356541D01*
X300178Y356731D01*
X300072Y357088D01*
X300306Y357372D01*
X300499Y357501D01*
X300805Y357959D01*
X300913Y358500D01*
X300805Y359041D01*
X300499Y359499D01*
X300041Y359805D01*
X299500Y359913D01*
D02*
G37*
G36*
X324000Y372624D02*
X323649Y372555D01*
X322927Y372073D01*
X322445Y371351D01*
X322376Y371000D01*
X324000D01*
Y372624D01*
D02*
G37*
G36*
X301500Y388214D02*
X300844Y388084D01*
X300288Y387712D01*
X299916Y387156D01*
X299786Y386500D01*
X299916Y385844D01*
X300288Y385288D01*
X300844Y384916D01*
X301500Y384786D01*
X302156Y384916D01*
X302712Y385288D01*
X303084Y385844D01*
X303214Y386500D01*
X303084Y387156D01*
X302712Y387712D01*
X302156Y388084D01*
X301500Y388214D01*
D02*
G37*
G36*
X311500Y388714D02*
X310844Y388584D01*
X310288Y388212D01*
X309916Y387656D01*
X309786Y387000D01*
X309916Y386344D01*
X310288Y385788D01*
X310844Y385416D01*
X311500Y385286D01*
X312156Y385416D01*
X312712Y385788D01*
X313084Y386344D01*
X313214Y387000D01*
X313084Y387656D01*
X312712Y388212D01*
X312156Y388584D01*
X311500Y388714D01*
D02*
G37*
G36*
X349000Y386214D02*
X348344Y386084D01*
X347788Y385712D01*
X347416Y385156D01*
X347286Y384500D01*
X347416Y383844D01*
X347788Y383288D01*
X348344Y382916D01*
X349000Y382786D01*
X349656Y382916D01*
X350212Y383288D01*
X350584Y383844D01*
X350714Y384500D01*
X350584Y385156D01*
X350212Y385712D01*
X349656Y386084D01*
X349000Y386214D01*
D02*
G37*
G36*
X294500Y382124D02*
X294149Y382055D01*
X293427Y381573D01*
X292945Y380851D01*
X292876Y380500D01*
X294500D01*
Y382124D01*
D02*
G37*
G36*
X295500D02*
Y380500D01*
X297124D01*
X297055Y380851D01*
X296572Y381573D01*
X295851Y382055D01*
X295500Y382124D01*
D02*
G37*
G36*
X270500Y395714D02*
X269844Y395584D01*
X269288Y395212D01*
X268916Y394656D01*
X268786Y394000D01*
X268916Y393344D01*
X269288Y392788D01*
X269844Y392416D01*
X270500Y392286D01*
X271156Y392416D01*
X271712Y392788D01*
X272084Y393344D01*
X272214Y394000D01*
X272084Y394656D01*
X271712Y395212D01*
X271156Y395584D01*
X270500Y395714D01*
D02*
G37*
G36*
X351000D02*
X350344Y395584D01*
X349788Y395212D01*
X349416Y394656D01*
X349286Y394000D01*
X349416Y393344D01*
X349788Y392788D01*
X350344Y392416D01*
X351000Y392286D01*
X351656Y392416D01*
X352212Y392788D01*
X352584Y393344D01*
X352714Y394000D01*
X352584Y394656D01*
X352212Y395212D01*
X351656Y395584D01*
X351000Y395714D01*
D02*
G37*
G36*
X273500Y392413D02*
X272959Y392305D01*
X272501Y391999D01*
X272195Y391541D01*
X272087Y391000D01*
X272195Y390459D01*
X272501Y390001D01*
X272959Y389695D01*
X273500Y389587D01*
X274041Y389695D01*
X274499Y390001D01*
X274805Y390459D01*
X274913Y391000D01*
X274805Y391541D01*
X274499Y391999D01*
X274041Y392305D01*
X273500Y392413D01*
D02*
G37*
G36*
X275063Y389350D02*
X274523Y389242D01*
X274064Y388936D01*
X273758Y388477D01*
X273650Y387937D01*
X273758Y387396D01*
X274064Y386937D01*
X274523Y386631D01*
X274620Y386612D01*
X274570Y386112D01*
X266779D01*
X266712Y386212D01*
X266156Y386584D01*
X265500Y386714D01*
X264844Y386584D01*
X264288Y386212D01*
X264221Y386112D01*
X262000D01*
X261575Y386027D01*
X261214Y385786D01*
X261214Y385786D01*
X254214Y378786D01*
X253973Y378426D01*
X253888Y378000D01*
X253888Y378000D01*
Y355779D01*
X253788Y355712D01*
X253416Y355156D01*
X253286Y354500D01*
X253416Y353844D01*
X253788Y353288D01*
X254344Y352916D01*
X255000Y352786D01*
X255656Y352916D01*
X256212Y353288D01*
X256584Y353844D01*
X256714Y354500D01*
X256584Y355156D01*
X256212Y355712D01*
X256112Y355779D01*
Y377539D01*
X262461Y383888D01*
X264221D01*
X264288Y383788D01*
X264844Y383416D01*
X265500Y383286D01*
X266156Y383416D01*
X266712Y383788D01*
X266779Y383888D01*
X296808D01*
X296916Y383344D01*
X297288Y382788D01*
X297844Y382416D01*
X298500Y382286D01*
X298618Y382310D01*
X303388Y377539D01*
Y357461D01*
X299618Y353691D01*
X299500Y353714D01*
X298844Y353584D01*
X298288Y353212D01*
X297916Y352656D01*
X297786Y352000D01*
X297916Y351344D01*
X298288Y350788D01*
X298844Y350416D01*
X299500Y350286D01*
X300156Y350416D01*
X300712Y350788D01*
X301084Y351344D01*
X301214Y352000D01*
X301190Y352118D01*
X305286Y356214D01*
X305286Y356214D01*
X305527Y356575D01*
X305612Y357000D01*
X305612Y357000D01*
Y378000D01*
X305527Y378426D01*
X305286Y378786D01*
X300190Y383882D01*
X300214Y384000D01*
X300084Y384656D01*
X299712Y385212D01*
X299156Y385584D01*
X298500Y385714D01*
X298382Y385690D01*
X298286Y385786D01*
X297925Y386027D01*
X297500Y386112D01*
X297500Y386112D01*
X275556D01*
X275507Y386612D01*
X275604Y386631D01*
X276062Y386937D01*
X276369Y387396D01*
X276476Y387937D01*
X276369Y388477D01*
X276062Y388936D01*
X275604Y389242D01*
X275063Y389350D01*
D02*
G37*
G36*
X332784Y389413D02*
X332243Y389305D01*
X331812Y389018D01*
X331672Y388954D01*
X331336D01*
X331195Y389018D01*
X330765Y389305D01*
X330224Y389413D01*
X329684Y389305D01*
X329225Y388999D01*
X328919Y388541D01*
X328811Y388000D01*
X328919Y387459D01*
X329225Y387001D01*
X329684Y386695D01*
X330224Y386587D01*
X330765Y386695D01*
X331195Y386982D01*
X331336Y387046D01*
X331672D01*
X331812Y386982D01*
X332243Y386695D01*
X332784Y386587D01*
X333324Y386695D01*
X333783Y387001D01*
X334089Y387459D01*
X334196Y388000D01*
X334089Y388541D01*
X333783Y388999D01*
X333324Y389305D01*
X332784Y389413D01*
D02*
G37*
G36*
X283500Y382124D02*
Y380500D01*
X285124D01*
X285055Y380851D01*
X284573Y381573D01*
X283851Y382055D01*
X283500Y382124D01*
D02*
G37*
G36*
X282500Y379500D02*
X280876D01*
X280945Y379149D01*
X281428Y378428D01*
X282149Y377945D01*
X282500Y377876D01*
Y379500D01*
D02*
G37*
G36*
X285124D02*
X283500D01*
Y377876D01*
X283851Y377945D01*
X284573Y378428D01*
X285055Y379149D01*
X285124Y379500D01*
D02*
G37*
G36*
X266124Y379000D02*
X264500D01*
Y377376D01*
X264851Y377445D01*
X265573Y377927D01*
X266055Y378649D01*
X266124Y379000D01*
D02*
G37*
G36*
X325000Y372624D02*
Y371000D01*
X326624D01*
X326555Y371351D01*
X326073Y372073D01*
X325351Y372555D01*
X325000Y372624D01*
D02*
G37*
G36*
X263500Y379000D02*
X261876D01*
X261945Y378649D01*
X262427Y377927D01*
X263149Y377445D01*
X263500Y377376D01*
Y379000D01*
D02*
G37*
G36*
X264500Y381624D02*
Y380000D01*
X266124D01*
X266055Y380351D01*
X265573Y381072D01*
X264851Y381555D01*
X264500Y381624D01*
D02*
G37*
G36*
X282500Y382124D02*
X282149Y382055D01*
X281428Y381573D01*
X280945Y380851D01*
X280876Y380500D01*
X282500D01*
Y382124D01*
D02*
G37*
G36*
X263500Y381624D02*
X263149Y381555D01*
X262427Y381072D01*
X261945Y380351D01*
X261876Y380000D01*
X263500D01*
Y381624D01*
D02*
G37*
G36*
X294500Y379500D02*
X292876D01*
X292945Y379149D01*
X293427Y378428D01*
X294149Y377945D01*
X294500Y377876D01*
Y379500D01*
D02*
G37*
G36*
X297124D02*
X295500D01*
Y377876D01*
X295851Y377945D01*
X296572Y378428D01*
X297055Y379149D01*
X297124Y379500D01*
D02*
G37*
G36*
X281000Y336413D02*
X280459Y336305D01*
X280001Y335999D01*
X279695Y335541D01*
X279587Y335000D01*
X279695Y334459D01*
X280001Y334001D01*
X280459Y333695D01*
X280791Y333119D01*
X280760Y332960D01*
X280867Y332419D01*
X281174Y331961D01*
X281632Y331655D01*
X282173Y331547D01*
X282714Y331655D01*
X283172Y331961D01*
X283478Y332419D01*
X283586Y332960D01*
X283478Y333501D01*
X283172Y333959D01*
X282714Y334266D01*
X282381Y334841D01*
X282413Y335000D01*
X282305Y335541D01*
X281999Y335999D01*
X281541Y336305D01*
X281000Y336413D01*
D02*
G37*
G36*
X316000Y335000D02*
X314376D01*
X314445Y334649D01*
X314928Y333927D01*
X315649Y333445D01*
X316000Y333376D01*
Y335000D01*
D02*
G37*
G36*
X252000Y333124D02*
Y331500D01*
X253624D01*
X253555Y331851D01*
X253073Y332573D01*
X252351Y333055D01*
X252000Y333124D01*
D02*
G37*
G36*
X303500Y330913D02*
X302959Y330805D01*
X302501Y330499D01*
X302195Y330041D01*
X302182Y329978D01*
X301627Y329748D01*
X301541Y329805D01*
X301000Y329913D01*
X300459Y329805D01*
X300001Y329499D01*
X299695Y329041D01*
X299587Y328500D01*
X299695Y327959D01*
X300001Y327501D01*
X300459Y327195D01*
X301000Y327087D01*
X301541Y327195D01*
X301999Y327501D01*
X302305Y327959D01*
X302318Y328022D01*
X302873Y328252D01*
X302959Y328195D01*
X303500Y328087D01*
X304041Y328195D01*
X304499Y328501D01*
X304805Y328959D01*
X304913Y329500D01*
X304805Y330041D01*
X304499Y330499D01*
X304041Y330805D01*
X303500Y330913D01*
D02*
G37*
G36*
X251000Y333124D02*
X250649Y333055D01*
X249927Y332573D01*
X249445Y331851D01*
X249376Y331500D01*
X251000D01*
Y333124D01*
D02*
G37*
G36*
X259500Y346413D02*
X258959Y346305D01*
X258501Y345999D01*
X258195Y345541D01*
X258087Y345000D01*
X258195Y344459D01*
X258501Y344001D01*
X258735Y343844D01*
Y340000D01*
X258793Y339707D01*
X258959Y339459D01*
X262119Y336300D01*
X261873Y335839D01*
X261500Y335913D01*
X260959Y335805D01*
X260501Y335499D01*
X260195Y335041D01*
X260087Y334500D01*
X260195Y333959D01*
X260501Y333501D01*
X260959Y333195D01*
X261500Y333087D01*
X262041Y333195D01*
X262235Y333325D01*
X262735Y333057D01*
Y325000D01*
X262793Y324707D01*
X262959Y324459D01*
X269642Y317776D01*
X269587Y317500D01*
X269695Y316959D01*
X270001Y316501D01*
X270459Y316195D01*
X271000Y316087D01*
X271541Y316195D01*
X271999Y316501D01*
X272305Y316959D01*
X272413Y317500D01*
X272872Y317753D01*
X272959Y317695D01*
X273500Y317587D01*
X274041Y317695D01*
X274499Y318001D01*
X274805Y318459D01*
X274833Y318600D01*
X275364Y318706D01*
X275501Y318501D01*
X275959Y318195D01*
X276500Y318087D01*
X276619Y318111D01*
X276920Y317661D01*
X276916Y317656D01*
X276786Y317000D01*
X276916Y316344D01*
X277288Y315788D01*
X277844Y315416D01*
X278500Y315286D01*
X279156Y315416D01*
X279712Y315788D01*
X280084Y316344D01*
X280214Y317000D01*
X280084Y317656D01*
X279712Y318212D01*
X279156Y318584D01*
X278500Y318714D01*
X278204Y318655D01*
X278070Y318757D01*
X277832Y319091D01*
X277913Y319500D01*
X277805Y320041D01*
X277499Y320499D01*
X277041Y320805D01*
X276500Y320913D01*
X276223Y320858D01*
X271400Y325681D01*
Y341864D01*
X271342Y342157D01*
X271177Y342405D01*
X270358Y343224D01*
X270413Y343500D01*
X270305Y344041D01*
X269999Y344499D01*
X269541Y344805D01*
X269000Y344913D01*
X268459Y344805D01*
X268001Y344499D01*
X267695Y344041D01*
X267587Y343500D01*
X267695Y342959D01*
X268001Y342501D01*
X268459Y342195D01*
X269000Y342087D01*
X269276Y342142D01*
X269871Y341547D01*
Y330640D01*
X269371Y330339D01*
X269000Y330413D01*
X268459Y330305D01*
X268401Y330266D01*
X267900Y330533D01*
Y341364D01*
X267842Y341657D01*
X267676Y341905D01*
X266858Y342723D01*
X266913Y343000D01*
X266805Y343541D01*
X266499Y343999D01*
X266041Y344305D01*
X265500Y344413D01*
X264959Y344305D01*
X264501Y343999D01*
X264195Y343541D01*
X264087Y343000D01*
X264195Y342459D01*
X264501Y342001D01*
X264959Y341695D01*
X265500Y341587D01*
X265776Y341642D01*
X266371Y341047D01*
Y339953D01*
X265871Y339686D01*
X265736Y339776D01*
X265500Y339823D01*
Y338000D01*
X264500D01*
Y339823D01*
X264264Y339776D01*
X263640Y339360D01*
X263224Y338736D01*
X263112Y338176D01*
X262612Y337969D01*
X260265Y340317D01*
Y343844D01*
X260499Y344001D01*
X260805Y344459D01*
X260913Y345000D01*
X260805Y345541D01*
X260499Y345999D01*
X260041Y346305D01*
X259500Y346413D01*
D02*
G37*
G36*
X316000Y337624D02*
X315649Y337555D01*
X314928Y337072D01*
X314445Y336351D01*
X314376Y336000D01*
X316000D01*
Y337624D01*
D02*
G37*
G36*
X277000Y336413D02*
X276459Y336305D01*
X276001Y335999D01*
X275695Y335541D01*
X275587Y335000D01*
X275695Y334459D01*
X275909Y334138D01*
X275546Y333825D01*
X275088Y334132D01*
X274547Y334239D01*
X274006Y334132D01*
X273548Y333825D01*
X273241Y333367D01*
X273134Y332826D01*
X273241Y332286D01*
X273548Y331827D01*
X274006Y331521D01*
X274547Y331413D01*
X275088Y331521D01*
X275546Y331827D01*
X275852Y332286D01*
X275960Y332826D01*
X275852Y333367D01*
X275638Y333688D01*
X276001Y334001D01*
X276459Y333695D01*
X277000Y333587D01*
X277541Y333695D01*
X277999Y334001D01*
X278305Y334459D01*
X278413Y335000D01*
X278305Y335541D01*
X277999Y335999D01*
X277541Y336305D01*
X277000Y336413D01*
D02*
G37*
G36*
X318624Y335000D02*
X317000D01*
Y333376D01*
X317351Y333445D01*
X318073Y333927D01*
X318555Y334649D01*
X318624Y335000D01*
D02*
G37*
G36*
X257000Y337214D02*
X256344Y337084D01*
X255788Y336712D01*
X255416Y336156D01*
X255286Y335500D01*
X255416Y334844D01*
X255788Y334288D01*
X256344Y333916D01*
X257000Y333786D01*
X257656Y333916D01*
X258212Y334288D01*
X258584Y334844D01*
X258714Y335500D01*
X258584Y336156D01*
X258212Y336712D01*
X257656Y337084D01*
X257000Y337214D01*
D02*
G37*
G36*
X253624Y330500D02*
X252000D01*
Y328876D01*
X252351Y328945D01*
X253073Y329428D01*
X253555Y330149D01*
X253624Y330500D01*
D02*
G37*
G36*
X249000Y323811D02*
X247376D01*
X247445Y323460D01*
X247927Y322739D01*
X248649Y322256D01*
X249000Y322187D01*
Y323811D01*
D02*
G37*
G36*
X251624D02*
X250000D01*
Y322187D01*
X250351Y322256D01*
X251073Y322739D01*
X251555Y323460D01*
X251624Y323811D01*
D02*
G37*
G36*
X303500Y321124D02*
Y319500D01*
X305124D01*
X305055Y319851D01*
X304573Y320572D01*
X303851Y321055D01*
X303500Y321124D01*
D02*
G37*
G36*
X293500Y321913D02*
X292959Y321805D01*
X292501Y321499D01*
X292195Y321041D01*
X292087Y320500D01*
X292195Y319959D01*
X292501Y319501D01*
X292959Y319195D01*
X293500Y319087D01*
X294041Y319195D01*
X294499Y319501D01*
X294805Y319959D01*
X294913Y320500D01*
X294805Y321041D01*
X294499Y321499D01*
X294041Y321805D01*
X293500Y321913D01*
D02*
G37*
G36*
X307000D02*
X306459Y321805D01*
X306001Y321499D01*
X305695Y321041D01*
X305587Y320500D01*
X305695Y319959D01*
X306001Y319501D01*
X306459Y319195D01*
X307000Y319087D01*
X307541Y319195D01*
X307999Y319501D01*
X308305Y319959D01*
X308413Y320500D01*
X308305Y321041D01*
X307999Y321499D01*
X307541Y321805D01*
X307000Y321913D01*
D02*
G37*
G36*
X297000Y330413D02*
X296459Y330305D01*
X296001Y329999D01*
X295695Y329541D01*
X295587Y329000D01*
X295695Y328459D01*
X296001Y328001D01*
X296459Y327695D01*
X297000Y327587D01*
X297541Y327695D01*
X297999Y328001D01*
X298305Y328459D01*
X298413Y329000D01*
X298305Y329541D01*
X297999Y329999D01*
X297541Y330305D01*
X297000Y330413D01*
D02*
G37*
G36*
X251000Y330500D02*
X249376D01*
X249445Y330149D01*
X249927Y329428D01*
X250649Y328945D01*
X251000Y328876D01*
Y330500D01*
D02*
G37*
G36*
X260000Y329913D02*
X259459Y329805D01*
X259001Y329499D01*
X258695Y329041D01*
X258587Y328500D01*
X258695Y327959D01*
X259001Y327501D01*
X259459Y327195D01*
X260000Y327087D01*
X260541Y327195D01*
X260999Y327501D01*
X261305Y327959D01*
X261413Y328500D01*
X261305Y329041D01*
X260999Y329499D01*
X260541Y329805D01*
X260000Y329913D01*
D02*
G37*
G36*
X249000Y326435D02*
X248649Y326366D01*
X247927Y325884D01*
X247445Y325162D01*
X247376Y324811D01*
X249000D01*
Y326435D01*
D02*
G37*
G36*
X250000D02*
Y324811D01*
X251624D01*
X251555Y325162D01*
X251073Y325884D01*
X250351Y326366D01*
X250000Y326435D01*
D02*
G37*
G36*
X317000Y337624D02*
Y336000D01*
X318624D01*
X318555Y336351D01*
X318073Y337072D01*
X317351Y337555D01*
X317000Y337624D01*
D02*
G37*
G36*
X304500Y346413D02*
X303959Y346305D01*
X303501Y345999D01*
X303195Y345541D01*
X303087Y345000D01*
X303195Y344459D01*
X303501Y344001D01*
X303959Y343695D01*
X304500Y343587D01*
X305041Y343695D01*
X305499Y344001D01*
X305805Y344459D01*
X305913Y345000D01*
X305805Y345541D01*
X305499Y345999D01*
X305041Y346305D01*
X304500Y346413D01*
D02*
G37*
G36*
X253000Y345500D02*
X251376D01*
X251445Y345149D01*
X251927Y344427D01*
X252649Y343945D01*
X253000Y343876D01*
Y345500D01*
D02*
G37*
G36*
X368624Y345000D02*
X367000D01*
Y343376D01*
X367351Y343445D01*
X368073Y343928D01*
X368555Y344649D01*
X368624Y345000D01*
D02*
G37*
G36*
X363000Y343624D02*
Y342000D01*
X364624D01*
X364555Y342351D01*
X364072Y343073D01*
X363351Y343555D01*
X363000Y343624D01*
D02*
G37*
G36*
X366000Y345000D02*
X364376D01*
X364445Y344649D01*
X364928Y343928D01*
X365649Y343445D01*
X366000Y343376D01*
Y345000D01*
D02*
G37*
G36*
X323000Y348000D02*
X321376D01*
X321445Y347649D01*
X321927Y346927D01*
X322649Y346445D01*
X323000Y346376D01*
Y348000D01*
D02*
G37*
G36*
X325624D02*
X324000D01*
Y346376D01*
X324351Y346445D01*
X325073Y346927D01*
X325555Y347649D01*
X325624Y348000D01*
D02*
G37*
G36*
X367000Y347624D02*
Y346000D01*
X368624D01*
X368555Y346351D01*
X368073Y347073D01*
X367351Y347555D01*
X367000Y347624D01*
D02*
G37*
G36*
X255624Y345500D02*
X254000D01*
Y343876D01*
X254351Y343945D01*
X255072Y344427D01*
X255555Y345149D01*
X255624Y345500D01*
D02*
G37*
G36*
X366000Y347624D02*
X365649Y347555D01*
X364928Y347073D01*
X364445Y346351D01*
X364376Y346000D01*
X366000D01*
Y347624D01*
D02*
G37*
G36*
X362000Y343624D02*
X361649Y343555D01*
X360928Y343073D01*
X360445Y342351D01*
X360376Y342000D01*
X362000D01*
Y343624D01*
D02*
G37*
G36*
X240500Y342624D02*
X240149Y342555D01*
X239427Y342073D01*
X238945Y341351D01*
X238876Y341000D01*
X240500D01*
Y342624D01*
D02*
G37*
G36*
X241500D02*
Y341000D01*
X243124D01*
X243055Y341351D01*
X242572Y342073D01*
X241851Y342555D01*
X241500Y342624D01*
D02*
G37*
G36*
X364624Y341000D02*
X360376D01*
X360445Y340649D01*
X360576Y340454D01*
X360340Y340013D01*
X353660D01*
X353425Y340454D01*
X353555Y340649D01*
X353624Y341000D01*
X349376D01*
X349445Y340649D01*
X349575Y340454D01*
X349340Y340013D01*
X348500D01*
X348500Y340013D01*
X347921Y339898D01*
X347430Y339570D01*
X333873Y326013D01*
X318883D01*
Y327743D01*
X320532Y329392D01*
X320656Y329416D01*
X321212Y329788D01*
X321584Y330344D01*
X321714Y331000D01*
X321584Y331656D01*
X321212Y332212D01*
X320656Y332584D01*
X320000Y332714D01*
X319344Y332584D01*
X318788Y332212D01*
X318416Y331656D01*
X318392Y331532D01*
X316504Y329644D01*
X316080Y329522D01*
X315819Y329620D01*
X315541Y329805D01*
X315000Y329913D01*
X314459Y329805D01*
X314264Y329675D01*
X313918Y329566D01*
X313624Y329803D01*
X313499Y329989D01*
X313041Y330296D01*
X312500Y330403D01*
X311959Y330296D01*
X311574Y330038D01*
X311314Y329989D01*
X311006D01*
X310999Y329999D01*
X310541Y330305D01*
X310000Y330413D01*
X309459Y330305D01*
X309070Y330045D01*
X308846Y329998D01*
X308654D01*
X308430Y330045D01*
X308041Y330305D01*
X307500Y330413D01*
X306959Y330305D01*
X306501Y329999D01*
X306195Y329541D01*
X306087Y329000D01*
X306195Y328459D01*
X306501Y328001D01*
X306959Y327695D01*
X307500Y327587D01*
X308041Y327695D01*
X308430Y327955D01*
X308654Y328002D01*
X308846D01*
X309070Y327955D01*
X309459Y327695D01*
X310000Y327587D01*
X310541Y327695D01*
X310926Y327952D01*
X311186Y328001D01*
X311494D01*
X311501Y327991D01*
X311959Y327685D01*
X312500Y327577D01*
X313041Y327685D01*
X313235Y327815D01*
X313582Y327924D01*
X313876Y327687D01*
X314001Y327501D01*
X314459Y327195D01*
X315000Y327087D01*
X315357Y327158D01*
X315857Y326850D01*
Y326013D01*
X303000D01*
X302421Y325898D01*
X301930Y325570D01*
X301930Y325570D01*
X295930Y319570D01*
X295602Y319079D01*
X295487Y318500D01*
X295487Y318500D01*
Y315761D01*
X295416Y315656D01*
X295286Y315000D01*
X295416Y314344D01*
X295788Y313788D01*
X296344Y313416D01*
X297000Y313286D01*
X297656Y313416D01*
X298212Y313788D01*
X298584Y314344D01*
X298714Y315000D01*
X298584Y315656D01*
X298513Y315761D01*
Y317873D01*
X300422Y319782D01*
X300883Y319535D01*
X300876Y319500D01*
X302500D01*
Y321124D01*
X302465Y321117D01*
X302218Y321578D01*
X303627Y322987D01*
X315487D01*
Y300261D01*
X315416Y300156D01*
X315392Y300032D01*
X296373Y281013D01*
X254261D01*
X254156Y281084D01*
X253500Y281214D01*
X252844Y281084D01*
X252288Y280712D01*
X251916Y280156D01*
X251786Y279500D01*
X251916Y278844D01*
X252288Y278288D01*
X252844Y277916D01*
X253500Y277786D01*
X254156Y277916D01*
X254261Y277987D01*
X297000D01*
X297000Y277987D01*
X297579Y278102D01*
X298070Y278430D01*
X315025Y295385D01*
X315487Y295193D01*
Y286627D01*
X295373Y266513D01*
X271500D01*
X270921Y266398D01*
X270430Y266070D01*
X270430Y266070D01*
X256930Y252570D01*
X256602Y252079D01*
X256487Y251500D01*
X256487Y251500D01*
Y247761D01*
X256416Y247656D01*
X256286Y247000D01*
X256416Y246344D01*
X256788Y245788D01*
X257344Y245416D01*
X258000Y245286D01*
X258656Y245416D01*
X259212Y245788D01*
X259584Y246344D01*
X259714Y247000D01*
X259584Y247656D01*
X259513Y247761D01*
Y250873D01*
X272127Y263487D01*
X296000D01*
X296000Y263487D01*
X296579Y263602D01*
X297070Y263930D01*
X318070Y284930D01*
X318070Y284930D01*
X318398Y285421D01*
X318513Y286000D01*
Y298739D01*
X318584Y298844D01*
X318714Y299500D01*
X318584Y300156D01*
X318513Y300261D01*
Y322987D01*
X334500D01*
X334500Y322987D01*
X335079Y323102D01*
X335570Y323430D01*
X349127Y336987D01*
X375739D01*
X375844Y336916D01*
X376500Y336786D01*
X377156Y336916D01*
X377712Y337288D01*
X378084Y337844D01*
X378214Y338500D01*
X378084Y339156D01*
X377712Y339712D01*
X377156Y340084D01*
X376500Y340214D01*
X375844Y340084D01*
X375739Y340013D01*
X364660D01*
X364424Y340454D01*
X364555Y340649D01*
X364624Y341000D01*
D02*
G37*
G36*
X240500Y340000D02*
X238876D01*
X238945Y339649D01*
X239427Y338928D01*
X240149Y338445D01*
X240500Y338376D01*
Y340000D01*
D02*
G37*
G36*
X243124D02*
X241500D01*
Y338376D01*
X241851Y338445D01*
X242572Y338928D01*
X243055Y339649D01*
X243124Y340000D01*
D02*
G37*
G36*
X351000Y343624D02*
X350649Y343555D01*
X349927Y343073D01*
X349445Y342351D01*
X349376Y342000D01*
X351000D01*
Y343624D01*
D02*
G37*
G36*
X352000D02*
Y342000D01*
X353624D01*
X353555Y342351D01*
X353073Y343073D01*
X352351Y343555D01*
X352000Y343624D01*
D02*
G37*
G36*
X294500Y344413D02*
X293959Y344305D01*
X293501Y343999D01*
X293195Y343541D01*
X293087Y343000D01*
X293195Y342459D01*
X293501Y342001D01*
X293959Y341695D01*
X294500Y341587D01*
X295041Y341695D01*
X295499Y342001D01*
X295805Y342459D01*
X295913Y343000D01*
X295805Y343541D01*
X295499Y343999D01*
X295041Y344305D01*
X294500Y344413D01*
D02*
G37*
G36*
X275000D02*
X274459Y344305D01*
X274001Y343999D01*
X273695Y343541D01*
X273587Y343000D01*
X273695Y342459D01*
X274001Y342001D01*
X274459Y341695D01*
X275000Y341587D01*
X275541Y341695D01*
X275999Y342001D01*
X276305Y342459D01*
X276413Y343000D01*
X276305Y343541D01*
X275999Y343999D01*
X275541Y344305D01*
X275000Y344413D01*
D02*
G37*
G36*
X279500Y345714D02*
X278844Y345584D01*
X278288Y345212D01*
X277916Y344656D01*
X277786Y344000D01*
X277916Y343344D01*
X278288Y342788D01*
X278844Y342416D01*
X279500Y342286D01*
X280156Y342416D01*
X280712Y342788D01*
X280932Y343117D01*
X281203Y343503D01*
X281203D01*
D01*
X281587Y343500D01*
X281695Y342959D01*
X282001Y342501D01*
X282459Y342195D01*
X283000Y342087D01*
X283541Y342195D01*
X283999Y342501D01*
X284222Y342835D01*
X284337Y342865D01*
X284663D01*
X284778Y342835D01*
X285001Y342501D01*
X285459Y342195D01*
X286000Y342087D01*
X286541Y342195D01*
X286930Y342455D01*
X287154Y342502D01*
X287346D01*
X287570Y342455D01*
X287959Y342195D01*
X288500Y342087D01*
X289041Y342195D01*
X289231Y342322D01*
X289588Y342428D01*
X289872Y342194D01*
X290001Y342001D01*
X290459Y341695D01*
X291000Y341587D01*
X291541Y341695D01*
X291999Y342001D01*
X292305Y342459D01*
X292413Y343000D01*
X292305Y343541D01*
X291999Y343999D01*
X291541Y344305D01*
X291000Y344413D01*
X290459Y344305D01*
X290269Y344178D01*
X289912Y344072D01*
X289628Y344306D01*
X289499Y344499D01*
X289041Y344805D01*
X288500Y344913D01*
X287959Y344805D01*
X287570Y344545D01*
X287346Y344498D01*
X287154D01*
X286930Y344545D01*
X286541Y344805D01*
X286000Y344913D01*
X285459Y344805D01*
X285001Y344499D01*
X284778Y344165D01*
X284663Y344135D01*
X284337D01*
X284222Y344165D01*
X283999Y344499D01*
X283541Y344805D01*
X283000Y344913D01*
X282459Y344805D01*
X282001Y344499D01*
X281911Y344364D01*
X281598Y343997D01*
X281598D01*
D01*
X281214Y344000D01*
X281084Y344656D01*
X280712Y345212D01*
X280156Y345584D01*
X279500Y345714D01*
D02*
G37*
%LPD*%
D31*
X265500Y343000D02*
X267136Y341364D01*
X263500Y325000D02*
Y336000D01*
X259500Y340000D02*
X263500Y336000D01*
X259500Y340000D02*
Y345000D01*
X263500Y325000D02*
X271000Y317500D01*
X269000Y343500D02*
X270636Y341864D01*
Y325364D02*
Y341864D01*
Y325364D02*
X276500Y319500D01*
X267136Y325364D02*
Y341364D01*
Y325364D02*
X273500Y319000D01*
X380500Y278000D02*
X387000Y271500D01*
X358500Y278000D02*
X380500D01*
X341000Y294000D02*
X393063D01*
X325500Y292500D02*
X326500Y293500D01*
X326813Y291500D02*
X338500D01*
X325000Y290000D02*
X325313D01*
X326813Y291500D01*
X365719Y255782D02*
X367000Y254500D01*
X387000Y250563D02*
Y271500D01*
X365719Y255782D02*
Y269781D01*
X326000Y287500D02*
X327500Y286000D01*
X338500Y291500D02*
X341000Y294000D01*
X326500Y293500D02*
X339086D01*
X341946Y296360D01*
X366360D01*
X370063Y300063D01*
X397000D01*
X393063Y294000D02*
X397000Y290063D01*
X327500Y286000D02*
X391000D01*
X395000Y282000D01*
X367000Y250563D02*
Y254500D01*
X325500Y295000D02*
X334000D01*
X343136Y304136D01*
X374136D01*
X381500Y311500D01*
X396000D01*
X397000Y312500D01*
D32*
X255000Y378000D02*
X262000Y385000D01*
X265500D01*
X297500D01*
X298500Y384000D01*
X304500Y378000D01*
Y357000D02*
Y378000D01*
X299500Y352000D02*
X304500Y357000D01*
X255000Y354500D02*
Y378000D01*
D35*
X297000Y318500D02*
X303000Y324500D01*
X297000Y315000D02*
Y318500D01*
X317000Y299500D02*
Y324500D01*
X303000D02*
X317000D01*
X297000Y279500D02*
X317000Y299500D01*
X253500Y279500D02*
X297000D01*
X317000Y286000D02*
Y299500D01*
X296000Y265000D02*
X317000Y286000D01*
X271500Y265000D02*
X296000D01*
X258000Y251500D02*
X271500Y265000D01*
X258000Y247000D02*
Y251500D01*
X317000Y324500D02*
X317370Y324870D01*
Y328370D01*
X320000Y331000D01*
X348500Y338500D02*
X376500D01*
X317000Y324500D02*
X334500D01*
X348500Y338500D01*
D36*
X397000Y260063D02*
D03*
D37*
Y280063D02*
D03*
Y290063D02*
D03*
Y300063D02*
D03*
Y310063D02*
D03*
X367000Y250563D02*
D03*
X387000D02*
D03*
D39*
X295500Y247000D02*
D03*
X370500Y238000D02*
D03*
X357500D02*
D03*
X344500D02*
D03*
X251500Y285500D02*
D03*
Y264000D02*
D03*
X244500Y236000D02*
D03*
X282000Y245500D02*
D03*
X325500Y258000D02*
D03*
X321500Y305000D02*
D03*
X249500Y324311D02*
D03*
X251500Y331000D02*
D03*
X283500Y316500D02*
D03*
X303000Y319000D02*
D03*
X316500Y335500D02*
D03*
X323500Y348500D02*
D03*
X348000Y358000D02*
D03*
X362500Y341500D02*
D03*
X366500Y345500D02*
D03*
X295000Y380000D02*
D03*
X283000D02*
D03*
X264000Y379500D02*
D03*
X241000Y340500D02*
D03*
X253500Y346000D02*
D03*
X376500Y338500D02*
D03*
X297000Y315000D02*
D03*
X317000Y299500D02*
D03*
X253500Y279500D02*
D03*
X258000Y247000D02*
D03*
X320000Y331000D02*
D03*
X351500Y341500D02*
D03*
X265500Y385000D02*
D03*
X298500Y384000D02*
D03*
X299500Y352000D02*
D03*
X255000Y354500D02*
D03*
X360500Y291000D02*
D03*
X324500Y370500D02*
D03*
X297000Y365000D02*
D03*
D42*
X276500Y319500D02*
D03*
X269000Y343500D02*
D03*
X273500Y319000D02*
D03*
X265500Y343000D02*
D03*
X271000Y317500D02*
D03*
X259500Y345000D02*
D03*
X358500Y278000D02*
D03*
X325500Y295000D02*
D03*
Y292500D02*
D03*
X326000Y287500D02*
D03*
X325000Y290000D02*
D03*
X365719Y269781D02*
D03*
X265000Y338000D02*
D03*
M02*
