%FSLAX25Y25*%
%MOIN*%
G70*
G01*
G75*
%ADD36R,0.05905X0.05905*%
%ADD37C,0.05905*%
%ADD38R,0.05905X0.05905*%
%ADD39C,0.02362*%
%ADD40C,0.14094*%
%ADD41C,0.18315*%
%ADD43R,0.00984X0.03937*%
%ADD44R,0.05512X0.08268*%
D36*
X397000Y260063D02*
D03*
X347000Y310063D02*
D03*
D37*
X397000Y270063D02*
D03*
Y280063D02*
D03*
Y290063D02*
D03*
Y300063D02*
D03*
Y310063D02*
D03*
X347000Y300063D02*
D03*
Y290063D02*
D03*
Y280063D02*
D03*
Y270063D02*
D03*
Y260063D02*
D03*
X357000Y250563D02*
D03*
X367000D02*
D03*
X377000D02*
D03*
X387000D02*
D03*
X397000D02*
D03*
D38*
X347000D02*
D03*
D39*
X324921Y233020D02*
D03*
X297362D02*
D03*
D40*
X354468Y325917D02*
D03*
D41*
X252260Y221358D02*
D03*
D43*
X320000Y250933D02*
D03*
X318032D02*
D03*
X316063D02*
D03*
X314094D02*
D03*
X312126D02*
D03*
X310157D02*
D03*
X308189D02*
D03*
X306221D02*
D03*
X304252D02*
D03*
X302284D02*
D03*
Y230067D02*
D03*
X304252D02*
D03*
X306221D02*
D03*
X308189D02*
D03*
X310157D02*
D03*
X312126D02*
D03*
X314094D02*
D03*
X316063D02*
D03*
X318032D02*
D03*
X320000D02*
D03*
D44*
X328000Y240500D02*
D03*
X294284D02*
D03*
M02*
