%FSLAX25Y25*%
%MOIN*%
G70*
G01*
G75*
%ADD10R,0.02362X0.02520*%
%ADD11R,0.02362X0.02953*%
%ADD12R,0.02953X0.02362*%
%ADD13R,0.03150X0.03150*%
%ADD14R,0.02520X0.02362*%
%ADD15O,0.01181X0.04724*%
%ADD16O,0.04724X0.01181*%
%ADD17R,0.03937X0.03543*%
%ADD18R,0.03543X0.03937*%
%ADD19R,0.07480X0.05709*%
%ADD20R,0.08268X0.06299*%
%ADD21R,0.01575X0.05315*%
%ADD22R,0.03740X0.03347*%
%ADD23O,0.05709X0.02362*%
%ADD24R,0.01181X0.06299*%
%ADD25R,0.25433X0.09449*%
%ADD26R,0.04528X0.05512*%
%ADD27C,0.01614*%
%ADD28R,0.03740X0.03543*%
%ADD29O,0.01378X0.05315*%
%ADD30O,0.05315X0.01378*%
%ADD31C,0.00500*%
%ADD32C,0.01181*%
%ADD33C,0.01000*%
%ADD34C,0.00591*%
%ADD35C,0.01968*%
%ADD36R,0.05905X0.05905*%
%ADD37C,0.05905*%
%ADD38R,0.05905X0.05905*%
%ADD39C,0.02362*%
%ADD40C,0.14094*%
%ADD41C,0.18315*%
%ADD42C,0.01772*%
G36*
X265996Y398853D02*
X376232D01*
X376334Y398895D01*
X379692Y398706D01*
X383107Y398126D01*
X386437Y397167D01*
X389638Y395841D01*
X392670Y394165D01*
X395496Y392160D01*
X398079Y389851D01*
X400388Y387268D01*
X402393Y384442D01*
X404069Y381410D01*
X405395Y378209D01*
X406354Y374879D01*
X406934Y371463D01*
X407123Y368106D01*
X407081Y368004D01*
Y257768D01*
X407123Y257666D01*
X406934Y254309D01*
X406354Y250893D01*
X405395Y247564D01*
X404069Y244363D01*
X402393Y241330D01*
X400388Y238505D01*
X398079Y235921D01*
X395496Y233612D01*
X392670Y231607D01*
X389638Y229931D01*
X386437Y228606D01*
X383107Y227646D01*
X379692Y227066D01*
X376334Y226877D01*
X376232Y226920D01*
X298673D01*
X298521Y227420D01*
X298670Y227519D01*
X298847Y227784D01*
X299051Y227699D01*
X301413D01*
X301796Y227857D01*
X301955Y228240D01*
Y228480D01*
X303000D01*
X303390Y228558D01*
X303571Y228679D01*
X303601Y228683D01*
X304029Y228574D01*
X304146Y228497D01*
X304204Y228358D01*
X304587Y228199D01*
X306949D01*
X307154Y228284D01*
X307330Y228019D01*
X307661Y227798D01*
X308051Y227721D01*
X308732D01*
Y230000D01*
X309232D01*
Y230500D01*
X311433D01*
Y231260D01*
X311355Y231650D01*
X311341Y231672D01*
X311435Y232336D01*
X311573Y232428D01*
X312055Y233149D01*
X312124Y233500D01*
X310000D01*
Y234500D01*
X312124D01*
X312055Y234851D01*
X311818Y235205D01*
X311899Y235400D01*
X312147Y235566D01*
X313541Y236959D01*
X313612Y237066D01*
X314096Y237244D01*
X314226Y237256D01*
X314416Y237129D01*
X315075Y236998D01*
X315235Y236867D01*
Y235156D01*
X315001Y234999D01*
X314695Y234541D01*
X314587Y234000D01*
X314695Y233459D01*
X315001Y233001D01*
X315459Y232695D01*
X316000Y232587D01*
X316541Y232695D01*
X316999Y233001D01*
X317000Y233002D01*
X317500D01*
X317501Y233001D01*
X317959Y232695D01*
X318500Y232587D01*
X319041Y232695D01*
X319499Y233001D01*
X319805Y233459D01*
X319913Y234000D01*
X319805Y234541D01*
X319499Y234999D01*
X319531Y235270D01*
X319730Y235448D01*
X320268Y235258D01*
X320274Y235227D01*
X320440Y234979D01*
X321235Y234183D01*
Y232656D01*
X321001Y232499D01*
X320695Y232041D01*
X320587Y231500D01*
X320695Y230959D01*
X321001Y230501D01*
X321459Y230195D01*
X322000Y230087D01*
X322541Y230195D01*
X322999Y230501D01*
X323276Y230915D01*
X323305Y230959D01*
X323842Y231094D01*
X323894Y231059D01*
X323987Y231021D01*
X324070Y230965D01*
X324169Y230946D01*
X324261Y230907D01*
X324421Y230875D01*
Y233020D01*
X325421D01*
Y230875D01*
X325581Y230907D01*
X325674Y230946D01*
X325772Y230965D01*
X325856Y231021D01*
X325949Y231059D01*
X326339Y231320D01*
X326410Y231391D01*
X326494Y231447D01*
X326550Y231531D01*
X326621Y231602D01*
X326882Y231992D01*
X326920Y232085D01*
X326976Y232169D01*
X326987Y232224D01*
X327112Y232303D01*
X327496Y232423D01*
X328459Y231459D01*
X328707Y231294D01*
X328719Y231291D01*
Y230819D01*
X328877Y230436D01*
X329260Y230278D01*
X332213D01*
X332354Y230336D01*
X332665Y230395D01*
X333004Y230191D01*
X333066Y230098D01*
X333397Y229877D01*
X333787Y229799D01*
X334764D01*
Y232000D01*
Y234201D01*
X333787D01*
X333397Y234123D01*
X333066Y233902D01*
X333004Y233808D01*
X332665Y233605D01*
X332354Y233664D01*
X332213Y233722D01*
X329260D01*
X328877Y233564D01*
X328577Y233504D01*
X323971Y238110D01*
X324069Y238257D01*
X324161Y238720D01*
Y242657D01*
X324069Y243121D01*
X323806Y243515D01*
X323713Y243577D01*
Y254051D01*
X323713Y254051D01*
X323655Y254344D01*
X323489Y254592D01*
X320905Y257176D01*
X320657Y257342D01*
X320364Y257400D01*
X315636D01*
X315636Y257400D01*
X315343Y257342D01*
X315095Y257176D01*
X313277Y255358D01*
X313000Y255413D01*
X312459Y255305D01*
X312001Y254999D01*
X311695Y254541D01*
X311587Y254000D01*
X311695Y253459D01*
X311825Y253265D01*
X311557Y252765D01*
X276500D01*
X276207Y252707D01*
X275959Y252541D01*
X275959Y252541D01*
X269258Y245840D01*
X269093Y245592D01*
X269035Y245299D01*
Y243839D01*
X269013Y243818D01*
X268534Y243617D01*
X268295Y243777D01*
X267831Y243870D01*
X267367Y243777D01*
X267214Y243675D01*
X266846Y243556D01*
X266479Y243675D01*
X266326Y243777D01*
X265862Y243870D01*
X265398Y243777D01*
X265005Y243515D01*
X264751D01*
X264358Y243777D01*
X263894Y243870D01*
X263430Y243777D01*
X263277Y243675D01*
X262910Y243556D01*
X262542Y243675D01*
X262389Y243777D01*
X261925Y243870D01*
X261461Y243777D01*
X261308Y243675D01*
X260941Y243556D01*
X260574Y243675D01*
X260421Y243777D01*
X259957Y243870D01*
X259520Y243783D01*
X259486Y243782D01*
X259020Y244063D01*
Y245659D01*
X259212Y245788D01*
X259584Y246344D01*
X259714Y247000D01*
X259584Y247656D01*
X259212Y248212D01*
X258656Y248584D01*
X258000Y248714D01*
X257344Y248584D01*
X256788Y248212D01*
X256416Y247656D01*
X256286Y247000D01*
X256416Y246344D01*
X256788Y245788D01*
X256980Y245659D01*
Y244047D01*
X256484Y243777D01*
X256020Y243870D01*
X255556Y243777D01*
X255403Y243675D01*
X255035Y243556D01*
X254668Y243675D01*
X254515Y243777D01*
X254051Y243870D01*
X253587Y243777D01*
X253194Y243515D01*
X252931Y243121D01*
X252839Y242657D01*
Y238720D01*
X252931Y238257D01*
X253194Y237863D01*
X253587Y237600D01*
X254051Y237508D01*
X254515Y237600D01*
X254668Y237703D01*
X255035Y237822D01*
X255403Y237703D01*
X255556Y237600D01*
X256020Y237508D01*
X256469Y237597D01*
X256485Y237600D01*
X256969Y237323D01*
Y236512D01*
X257046Y236122D01*
X257267Y235791D01*
X259779Y233279D01*
X260110Y233058D01*
X260500Y232980D01*
X266545D01*
Y232740D01*
X266704Y232358D01*
X267087Y232199D01*
X267248D01*
Y231232D01*
X267326Y230842D01*
X267547Y230511D01*
X269779Y228279D01*
X270110Y228058D01*
X270500Y227980D01*
X272045D01*
Y227240D01*
X272204Y226857D01*
X272587Y226699D01*
X274949D01*
X275153Y226784D01*
X275330Y226519D01*
X275661Y226298D01*
X276051Y226221D01*
X276732D01*
Y228500D01*
X277232D01*
Y229000D01*
X279433D01*
Y229760D01*
X279355Y230150D01*
X279134Y230481D01*
X278804Y230702D01*
X278709Y230721D01*
X278759Y231221D01*
X279449D01*
X279839Y231298D01*
X280170Y231519D01*
X280346Y231784D01*
X280551Y231699D01*
X282913D01*
X283296Y231857D01*
X283455Y232240D01*
Y234760D01*
X283296Y235142D01*
X282913Y235301D01*
X282905Y235719D01*
Y237185D01*
X283405Y237543D01*
X283579Y237508D01*
X284043Y237600D01*
X284436Y237863D01*
X284690D01*
X285083Y237600D01*
X285264Y237565D01*
X285359Y237277D01*
X285398Y237028D01*
X284945Y236351D01*
X284876Y236000D01*
X289124D01*
X289055Y236351D01*
X288590Y237046D01*
X288574Y237085D01*
X288638Y237630D01*
X288831Y237727D01*
X289020Y237600D01*
X289484Y237508D01*
X289948Y237600D01*
X290101Y237703D01*
X290228Y237744D01*
X290670Y237558D01*
X290689Y237540D01*
X290746Y237255D01*
X290912Y237006D01*
X293459Y234459D01*
X293707Y234294D01*
X294000Y234235D01*
X294939D01*
X294970Y234217D01*
X295075Y234110D01*
X295288Y233772D01*
X295250Y233679D01*
X295218Y233520D01*
X297362D01*
Y232520D01*
X295218D01*
X295250Y232360D01*
X295288Y232267D01*
X295295Y232231D01*
X295274Y232029D01*
X295215Y231778D01*
X295082Y231625D01*
X294866Y231481D01*
X294645Y231150D01*
X294567Y230760D01*
Y230000D01*
X296768D01*
Y229000D01*
X294567D01*
Y228240D01*
X294645Y227850D01*
X294866Y227519D01*
X295015Y227420D01*
X294863Y226920D01*
X287150D01*
X287126Y226910D01*
X285048Y226746D01*
X282998Y226254D01*
X281050Y225448D01*
X279253Y224346D01*
X277650Y222977D01*
X276281Y221374D01*
X275179Y219576D01*
X274372Y217628D01*
X274113Y216546D01*
X274093Y216500D01*
X274053Y216509D01*
X273807Y215484D01*
X273075Y213718D01*
X272076Y212088D01*
X270835Y210634D01*
X269381Y209392D01*
X267751Y208393D01*
X265984Y207662D01*
X264125Y207215D01*
X262294Y207071D01*
X262219Y207102D01*
X247295D01*
X247295Y207102D01*
Y207102D01*
X246796Y207104D01*
X245389Y207215D01*
X243530Y207662D01*
X241764Y208393D01*
X240134Y209392D01*
X238680Y210634D01*
X237438Y212088D01*
X236439Y213718D01*
X235707Y215484D01*
X235261Y217344D01*
X235117Y219175D01*
X235148Y219250D01*
Y368004D01*
X235105Y368106D01*
X235294Y371463D01*
X235874Y374879D01*
X236834Y378209D01*
X238159Y381410D01*
X239836Y384442D01*
X241840Y387268D01*
X244149Y389851D01*
X246733Y392160D01*
X249558Y394165D01*
X252591Y395841D01*
X255792Y397167D01*
X259121Y398126D01*
X262537Y398706D01*
X265894Y398895D01*
X265996Y398853D01*
D02*
G37*
G36*
X275241Y237600D02*
X275705Y237508D01*
X276169Y237600D01*
X276322Y237703D01*
X276689Y237822D01*
X277056Y237703D01*
X277209Y237600D01*
X277673Y237508D01*
X278137Y237600D01*
X278665Y237361D01*
X278733Y237099D01*
X278695Y237041D01*
X278587Y236500D01*
X278631Y236279D01*
X278259Y235779D01*
X277087D01*
X276696Y235702D01*
X276366Y235481D01*
X276145Y235150D01*
X275625Y235100D01*
X275500Y235124D01*
Y233000D01*
X274500D01*
Y235124D01*
X274433Y235111D01*
X274301Y235151D01*
X273921Y235424D01*
X273890Y235474D01*
X273855Y235650D01*
X273634Y235981D01*
X273304Y236202D01*
X272913Y236279D01*
X272232D01*
Y234000D01*
X271232D01*
Y236279D01*
X270551D01*
X270161Y236202D01*
X269830Y235981D01*
X269654Y235716D01*
X269449Y235801D01*
X267087D01*
X266704Y235643D01*
X266545Y235260D01*
Y235020D01*
X260922D01*
X259076Y236866D01*
X259112Y237289D01*
X259254Y237400D01*
X259540Y237591D01*
X259957Y237508D01*
X260421Y237600D01*
X260574Y237703D01*
X260941Y237822D01*
X261308Y237703D01*
X261461Y237600D01*
X261925Y237508D01*
X262389Y237600D01*
X262542Y237703D01*
X262910Y237822D01*
X263277Y237703D01*
X263430Y237600D01*
X263894Y237508D01*
X264358Y237600D01*
X264751Y237863D01*
X265005D01*
X265398Y237600D01*
X265862Y237508D01*
X266326Y237600D01*
X266479Y237703D01*
X266846Y237822D01*
X267214Y237703D01*
X267367Y237600D01*
X267831Y237508D01*
X268295Y237600D01*
X268688Y237863D01*
X268942D01*
X269335Y237600D01*
X269799Y237508D01*
X270263Y237600D01*
X270416Y237703D01*
X270783Y237822D01*
X271151Y237703D01*
X271304Y237600D01*
X271768Y237508D01*
X272232Y237600D01*
X272385Y237703D01*
X272752Y237822D01*
X273119Y237703D01*
X273272Y237600D01*
X273736Y237508D01*
X274200Y237600D01*
X274593Y237863D01*
X274848D01*
X275241Y237600D01*
D02*
G37*
G36*
X322184Y253734D02*
Y243839D01*
X322162Y243818D01*
X321724Y243634D01*
X321597Y243675D01*
X321444Y243777D01*
X320980Y243870D01*
X320516Y243777D01*
X320363Y243675D01*
X319996Y243556D01*
X319629Y243675D01*
X319476Y243777D01*
X319012Y243870D01*
X318548Y243777D01*
X318155Y243515D01*
X317900D01*
X317507Y243777D01*
X317106Y243857D01*
X316930Y244074D01*
X316789Y244329D01*
X316823Y244500D01*
X315000D01*
Y245000D01*
X314500D01*
Y246823D01*
X314383Y246800D01*
X314117Y246913D01*
X313888Y247126D01*
X313805Y247541D01*
X313675Y247735D01*
X313943Y248235D01*
X317183D01*
X318459Y246959D01*
X318707Y246794D01*
X318820Y246771D01*
X319001Y246501D01*
X319459Y246195D01*
X320000Y246087D01*
X320541Y246195D01*
X320999Y246501D01*
X321305Y246959D01*
X321413Y247500D01*
X321305Y248041D01*
X320999Y248499D01*
X320541Y248805D01*
X320000Y248913D01*
X319459Y248805D01*
X319050Y248532D01*
X318156Y249425D01*
X318041Y249541D01*
X318150Y250069D01*
X318541Y250459D01*
X318706Y250707D01*
X318765Y251000D01*
Y253844D01*
X318999Y254001D01*
X319305Y254459D01*
X319413Y255000D01*
X319339Y255371D01*
X319585Y255780D01*
X320099Y255819D01*
X322184Y253734D01*
D02*
G37*
%LPC*%
G36*
X373575Y292908D02*
X373065Y292806D01*
X372633Y292517D01*
X372344Y292085D01*
X372242Y291575D01*
X372344Y291065D01*
X372633Y290633D01*
X373065Y290344D01*
X373575Y290242D01*
X374085Y290344D01*
X374517Y290633D01*
X374806Y291065D01*
X374907Y291575D01*
X374806Y292085D01*
X374517Y292517D01*
X374085Y292806D01*
X373575Y292908D01*
D02*
G37*
G36*
X238500Y293433D02*
X237740D01*
X237350Y293355D01*
X237019Y293134D01*
X236798Y292804D01*
X236721Y292413D01*
Y291732D01*
X238500D01*
Y293433D01*
D02*
G37*
G36*
X250280Y290858D02*
X246689D01*
X243098D01*
X243129Y290699D01*
X243503Y290141D01*
X243703Y290007D01*
X243601Y289854D01*
X243508Y289390D01*
X243601Y288926D01*
X243703Y288773D01*
X243822Y288405D01*
X243703Y288038D01*
X243601Y287885D01*
X243508Y287421D01*
X243588Y287020D01*
X243544Y286877D01*
X243292Y286520D01*
X241690D01*
X240801Y287409D01*
Y288949D01*
X240716Y289154D01*
X240981Y289330D01*
X241202Y289661D01*
X241279Y290051D01*
Y290732D01*
X239000D01*
X236721D01*
Y290051D01*
X236798Y289661D01*
X237019Y289330D01*
X237284Y289154D01*
X237199Y288949D01*
Y286587D01*
X237357Y286204D01*
X237740Y286045D01*
X239280D01*
X239663Y285663D01*
X239500Y285269D01*
Y283000D01*
X239000D01*
Y282500D01*
X236721D01*
Y281819D01*
X236798Y281429D01*
X237019Y281098D01*
X237284Y280921D01*
X237199Y280716D01*
Y278354D01*
X237357Y277972D01*
X237740Y277813D01*
X240260D01*
X240480Y277905D01*
X240980Y277656D01*
Y276422D01*
X240439Y275881D01*
X240260Y275955D01*
X237740D01*
X237357Y275796D01*
X237199Y275413D01*
Y273051D01*
X237284Y272847D01*
X237019Y272670D01*
X236798Y272339D01*
X236721Y271949D01*
Y271268D01*
X241279D01*
Y271949D01*
X241202Y272339D01*
X240981Y272670D01*
X240716Y272847D01*
X240801Y273051D01*
Y273540D01*
X240890Y273558D01*
X241221Y273779D01*
X242721Y275279D01*
X242942Y275610D01*
X243020Y276000D01*
Y277116D01*
X243083Y277153D01*
X243601Y277115D01*
X243863Y276722D01*
Y276467D01*
X243601Y276074D01*
X243508Y275610D01*
X243601Y275146D01*
X243703Y274993D01*
X243822Y274626D01*
X243703Y274259D01*
X243601Y274106D01*
X243508Y273642D01*
X243601Y273178D01*
X243703Y273025D01*
X243822Y272657D01*
X243703Y272290D01*
X243601Y272137D01*
X243508Y271673D01*
X243601Y271209D01*
X243703Y271056D01*
X243822Y270689D01*
X243703Y270322D01*
X243601Y270169D01*
X243508Y269705D01*
X243601Y269241D01*
X243703Y269088D01*
X243822Y268721D01*
X243703Y268353D01*
X243601Y268200D01*
X243508Y267736D01*
X243601Y267272D01*
X243863Y266879D01*
Y266625D01*
X243601Y266232D01*
X243508Y265768D01*
X243598Y265319D01*
X243600Y265303D01*
X243323Y264819D01*
X240799D01*
X240409Y264741D01*
X240078Y264520D01*
X239013Y263455D01*
X237740D01*
X237357Y263296D01*
X237199Y262913D01*
Y260551D01*
X237284Y260347D01*
X237019Y260170D01*
X236798Y259839D01*
X236721Y259449D01*
Y258768D01*
X241279D01*
Y259449D01*
X241202Y259839D01*
X240981Y260170D01*
X240716Y260347D01*
X240801Y260551D01*
Y262359D01*
X241221Y262780D01*
X243323D01*
X243600Y262296D01*
X243598Y262280D01*
X243508Y261831D01*
X243601Y261367D01*
X243703Y261214D01*
X243822Y260846D01*
X243703Y260479D01*
X243601Y260326D01*
X243508Y259862D01*
X243601Y259398D01*
X243703Y259245D01*
X243503Y259111D01*
X243129Y258553D01*
X243098Y258394D01*
X246689D01*
X250280D01*
X250249Y258553D01*
X249875Y259111D01*
X249675Y259245D01*
X249778Y259398D01*
X249870Y259862D01*
X249778Y260326D01*
X249675Y260479D01*
X249556Y260846D01*
X249675Y261214D01*
X249778Y261367D01*
X249870Y261831D01*
X249821Y262077D01*
X250139Y262574D01*
X250503Y262644D01*
X250844Y262416D01*
X251500Y262286D01*
X252156Y262416D01*
X252712Y262788D01*
X253084Y263344D01*
X253214Y264000D01*
X253084Y264656D01*
X252712Y265212D01*
X252156Y265584D01*
X251500Y265714D01*
X250844Y265584D01*
X250288Y265212D01*
X250206Y265089D01*
X249778Y265303D01*
X249781Y265319D01*
X249870Y265768D01*
X249778Y266232D01*
X249515Y266625D01*
Y266879D01*
X249778Y267272D01*
X249870Y267736D01*
X249778Y268200D01*
X249675Y268353D01*
X249556Y268721D01*
X249675Y269088D01*
X249778Y269241D01*
X249870Y269705D01*
X249778Y270169D01*
X249675Y270322D01*
X249556Y270689D01*
X249675Y271056D01*
X249778Y271209D01*
X249870Y271673D01*
X249778Y272137D01*
X249515Y272530D01*
Y272784D01*
X249778Y273178D01*
X249870Y273642D01*
X249778Y274106D01*
X249675Y274259D01*
X249556Y274626D01*
X249675Y274993D01*
X249778Y275146D01*
X249870Y275610D01*
X249778Y276074D01*
X249515Y276467D01*
Y276722D01*
X249778Y277115D01*
X249870Y277579D01*
X249790Y277980D01*
X249834Y278122D01*
X250086Y278480D01*
X252159D01*
X252288Y278288D01*
X252844Y277916D01*
X253500Y277786D01*
X254156Y277916D01*
X254712Y278288D01*
X255084Y278844D01*
X255214Y279500D01*
X255084Y280156D01*
X254712Y280712D01*
X254156Y281084D01*
X253500Y281214D01*
X252844Y281084D01*
X252288Y280712D01*
X252159Y280520D01*
X250023D01*
X249756Y281020D01*
X249778Y281052D01*
X249870Y281516D01*
X249778Y281980D01*
X249515Y282373D01*
Y282627D01*
X249778Y283020D01*
X249870Y283484D01*
X249837Y283647D01*
X250201Y284130D01*
X250206Y284133D01*
X250476Y284162D01*
X250844Y283916D01*
X251500Y283786D01*
X252156Y283916D01*
X252712Y284288D01*
X253084Y284844D01*
X253214Y285500D01*
X253084Y286156D01*
X252712Y286712D01*
X252156Y287084D01*
X251500Y287214D01*
X250844Y287084D01*
X250437Y286811D01*
X250239Y286828D01*
X249849Y287314D01*
X249870Y287421D01*
X249778Y287885D01*
X249675Y288038D01*
X249556Y288405D01*
X249675Y288773D01*
X249778Y288926D01*
X249870Y289390D01*
X249778Y289854D01*
X249675Y290007D01*
X249875Y290141D01*
X250249Y290699D01*
X250280Y290858D01*
D02*
G37*
G36*
X370425Y292908D02*
X369915Y292806D01*
X369483Y292517D01*
X369194Y292085D01*
X369092Y291575D01*
X369194Y291065D01*
X369483Y290633D01*
X369915Y290344D01*
X370425Y290242D01*
X370935Y290344D01*
X371368Y290633D01*
X371656Y291065D01*
X371758Y291575D01*
X371656Y292085D01*
X371368Y292517D01*
X370935Y292806D01*
X370425Y292908D01*
D02*
G37*
G36*
X373575Y296057D02*
X373065Y295956D01*
X372633Y295667D01*
X372344Y295234D01*
X372242Y294724D01*
X372344Y294214D01*
X372633Y293782D01*
X373065Y293493D01*
X373575Y293392D01*
X374085Y293493D01*
X374517Y293782D01*
X374806Y294214D01*
X374907Y294724D01*
X374806Y295234D01*
X374517Y295667D01*
X374085Y295956D01*
X373575Y296057D01*
D02*
G37*
G36*
X340488Y295843D02*
X338000D01*
Y293551D01*
X339469D01*
X339859Y293629D01*
X340190Y293850D01*
X340410Y294181D01*
X340488Y294571D01*
Y295843D01*
D02*
G37*
G36*
X240260Y293433D02*
X239500D01*
Y291732D01*
X241279D01*
Y292413D01*
X241202Y292804D01*
X240981Y293134D01*
X240650Y293355D01*
X240260Y293433D01*
D02*
G37*
G36*
X248657Y318161D02*
X244721D01*
X244257Y318069D01*
X243863Y317806D01*
X243601Y317413D01*
X243508Y316949D01*
X243601Y316485D01*
X243703Y316332D01*
X243822Y315965D01*
X243703Y315597D01*
X243601Y315444D01*
X243508Y314980D01*
X243601Y314516D01*
X243703Y314363D01*
X243822Y313996D01*
X243703Y313629D01*
X243601Y313476D01*
X243508Y313012D01*
X243601Y312548D01*
X243863Y312155D01*
Y311900D01*
X243601Y311507D01*
X243508Y311043D01*
X243601Y310579D01*
X243703Y310426D01*
X243822Y310059D01*
X243703Y309692D01*
X243601Y309539D01*
X243508Y309075D01*
X243601Y308611D01*
X243703Y308458D01*
X243822Y308090D01*
X243703Y307723D01*
X243601Y307570D01*
X243508Y307106D01*
X243601Y306642D01*
X243863Y306249D01*
Y305995D01*
X243601Y305602D01*
X243508Y305138D01*
X243601Y304674D01*
X243703Y304521D01*
X243822Y304153D01*
X243703Y303786D01*
X243601Y303633D01*
X243508Y303169D01*
X243601Y302705D01*
X243863Y302312D01*
Y302058D01*
X243601Y301665D01*
X243508Y301201D01*
X243601Y300737D01*
X243703Y300584D01*
X243822Y300217D01*
X243703Y299849D01*
X243601Y299696D01*
X243508Y299232D01*
X243601Y298768D01*
X243703Y298615D01*
X243822Y298248D01*
X243703Y297881D01*
X243601Y297728D01*
X243508Y297264D01*
X243601Y296800D01*
X243863Y296407D01*
Y296152D01*
X243601Y295759D01*
X243508Y295295D01*
X243601Y294831D01*
X243703Y294678D01*
X243822Y294311D01*
X243703Y293944D01*
X243601Y293791D01*
X243508Y293327D01*
X243601Y292863D01*
X243703Y292710D01*
X243503Y292576D01*
X243129Y292017D01*
X243098Y291858D01*
X246689D01*
X250280D01*
X250249Y292017D01*
X249875Y292576D01*
X249675Y292710D01*
X249778Y292863D01*
X249870Y293327D01*
X249778Y293791D01*
X249675Y293944D01*
X249556Y294311D01*
X249675Y294678D01*
X249778Y294831D01*
X249870Y295295D01*
X249778Y295759D01*
X249515Y296152D01*
Y296407D01*
X249778Y296800D01*
X249870Y297264D01*
X249778Y297728D01*
X249675Y297881D01*
X249556Y298248D01*
X249675Y298615D01*
X249778Y298768D01*
X249870Y299232D01*
X249778Y299696D01*
X249675Y299849D01*
X249556Y300217D01*
X249675Y300584D01*
X249778Y300737D01*
X249870Y301201D01*
X249778Y301665D01*
X249515Y302058D01*
Y302312D01*
X249778Y302705D01*
X249870Y303169D01*
X249778Y303633D01*
X249675Y303786D01*
X249556Y304153D01*
X249675Y304521D01*
X249778Y304674D01*
X249870Y305138D01*
X249778Y305602D01*
X249515Y305995D01*
Y306249D01*
X249778Y306642D01*
X249870Y307106D01*
X249778Y307570D01*
X249675Y307723D01*
X249556Y308090D01*
X249675Y308458D01*
X249778Y308611D01*
X249870Y309075D01*
X249778Y309539D01*
X249675Y309692D01*
X249556Y310059D01*
X249675Y310426D01*
X249778Y310579D01*
X249870Y311043D01*
X249778Y311507D01*
X249515Y311900D01*
Y312155D01*
X249778Y312548D01*
X249870Y313012D01*
X249778Y313476D01*
X249675Y313629D01*
X249556Y313996D01*
X249675Y314363D01*
X249778Y314516D01*
X249870Y314980D01*
X249778Y315444D01*
X249675Y315597D01*
X249556Y315965D01*
X249675Y316332D01*
X249778Y316485D01*
X249870Y316949D01*
X249778Y317413D01*
X249515Y317806D01*
X249121Y318069D01*
X248657Y318161D01*
D02*
G37*
G36*
X370425Y289758D02*
X369915Y289656D01*
X369483Y289368D01*
X369194Y288935D01*
X369092Y288425D01*
X369194Y287915D01*
X369483Y287483D01*
X369915Y287194D01*
X370425Y287092D01*
X370935Y287194D01*
X371368Y287483D01*
X371656Y287915D01*
X371758Y288425D01*
X371656Y288935D01*
X371368Y289368D01*
X370935Y289656D01*
X370425Y289758D01*
D02*
G37*
G36*
X373575D02*
X373065Y289656D01*
X372633Y289368D01*
X372344Y288935D01*
X372242Y288425D01*
X372344Y287915D01*
X372633Y287483D01*
X373065Y287194D01*
X373575Y287092D01*
X374085Y287194D01*
X374517Y287483D01*
X374806Y287915D01*
X374907Y288425D01*
X374806Y288935D01*
X374517Y289368D01*
X374085Y289656D01*
X373575Y289758D01*
D02*
G37*
G36*
X364126D02*
X363616Y289656D01*
X363184Y289368D01*
X362895Y288935D01*
X362793Y288425D01*
X362895Y287915D01*
X363184Y287483D01*
X363616Y287194D01*
X364126Y287092D01*
X364636Y287194D01*
X365068Y287483D01*
X365357Y287915D01*
X365459Y288425D01*
X365357Y288935D01*
X365068Y289368D01*
X364636Y289656D01*
X364126Y289758D01*
D02*
G37*
G36*
X367276D02*
X366766Y289656D01*
X366333Y289368D01*
X366044Y288935D01*
X365943Y288425D01*
X366044Y287915D01*
X366333Y287483D01*
X366766Y287194D01*
X367276Y287092D01*
X367786Y287194D01*
X368218Y287483D01*
X368507Y287915D01*
X368608Y288425D01*
X368507Y288935D01*
X368218Y289368D01*
X367786Y289656D01*
X367276Y289758D01*
D02*
G37*
G36*
X347000Y293546D02*
X346099Y293427D01*
X345259Y293079D01*
X344537Y292526D01*
X343984Y291804D01*
X343636Y290964D01*
X343517Y290063D01*
X343636Y289162D01*
X343984Y288322D01*
X344537Y287600D01*
X345259Y287047D01*
X346099Y286699D01*
X347000Y286580D01*
X347901Y286699D01*
X348741Y287047D01*
X349463Y287600D01*
X350016Y288322D01*
X350364Y289162D01*
X350483Y290063D01*
X350364Y290964D01*
X350016Y291804D01*
X349463Y292526D01*
X348741Y293079D01*
X347901Y293427D01*
X347000Y293546D01*
D02*
G37*
G36*
X367276Y292908D02*
X366766Y292806D01*
X366333Y292517D01*
X366044Y292085D01*
X365943Y291575D01*
X366044Y291065D01*
X366333Y290633D01*
X366766Y290344D01*
X367276Y290242D01*
X367786Y290344D01*
X368218Y290633D01*
X368507Y291065D01*
X368608Y291575D01*
X368507Y292085D01*
X368218Y292517D01*
X367786Y292806D01*
X367276Y292908D01*
D02*
G37*
G36*
X376724Y289758D02*
X376214Y289656D01*
X375782Y289368D01*
X375493Y288935D01*
X375392Y288425D01*
X375493Y287915D01*
X375782Y287483D01*
X376214Y287194D01*
X376724Y287092D01*
X377234Y287194D01*
X377667Y287483D01*
X377956Y287915D01*
X378057Y288425D01*
X377956Y288935D01*
X377667Y289368D01*
X377234Y289656D01*
X376724Y289758D01*
D02*
G37*
G36*
X379874D02*
X379364Y289656D01*
X378932Y289368D01*
X378643Y288935D01*
X378541Y288425D01*
X378643Y287915D01*
X378932Y287483D01*
X379364Y287194D01*
X379874Y287092D01*
X380384Y287194D01*
X380816Y287483D01*
X381105Y287915D01*
X381207Y288425D01*
X381105Y288935D01*
X380816Y289368D01*
X380384Y289656D01*
X379874Y289758D01*
D02*
G37*
G36*
X373575Y299207D02*
X373065Y299105D01*
X372633Y298816D01*
X372344Y298384D01*
X372242Y297874D01*
X372344Y297364D01*
X372633Y296932D01*
X373065Y296643D01*
X373575Y296541D01*
X374085Y296643D01*
X374517Y296932D01*
X374806Y297364D01*
X374907Y297874D01*
X374806Y298384D01*
X374517Y298816D01*
X374085Y299105D01*
X373575Y299207D01*
D02*
G37*
G36*
X280624Y316500D02*
X279000D01*
Y314876D01*
X279351Y314945D01*
X280072Y315427D01*
X280555Y316149D01*
X280624Y316500D01*
D02*
G37*
G36*
X354468Y335753D02*
X352550Y335564D01*
X350705Y335004D01*
X349004Y334096D01*
X347514Y332872D01*
X346290Y331382D01*
X345381Y329681D01*
X344822Y327836D01*
X344633Y325917D01*
X344822Y323998D01*
X345381Y322153D01*
X346290Y320453D01*
X347514Y318962D01*
X349004Y317739D01*
X350705Y316830D01*
X352550Y316270D01*
X354468Y316082D01*
X356387Y316270D01*
X358232Y316830D01*
X359933Y317739D01*
X361423Y318962D01*
X362647Y320453D01*
X363556Y322153D01*
X364115Y323998D01*
X364304Y325917D01*
X364115Y327836D01*
X363556Y329681D01*
X362647Y331382D01*
X361423Y332872D01*
X359933Y334096D01*
X358232Y335004D01*
X356387Y335564D01*
X354468Y335753D01*
D02*
G37*
G36*
X338760Y312933D02*
X338000D01*
Y311232D01*
X339779D01*
Y311913D01*
X339702Y312304D01*
X339481Y312634D01*
X339150Y312855D01*
X338760Y312933D01*
D02*
G37*
G36*
X278000Y316500D02*
X276376D01*
X276445Y316149D01*
X276927Y315427D01*
X277649Y314945D01*
X278000Y314876D01*
Y316500D01*
D02*
G37*
G36*
X279000Y319124D02*
Y317500D01*
X280624D01*
X280555Y317851D01*
X280072Y318572D01*
X279351Y319055D01*
X279000Y319124D01*
D02*
G37*
G36*
X244268Y330500D02*
X242567D01*
Y329740D01*
X242645Y329350D01*
X242866Y329019D01*
X243196Y328798D01*
X243587Y328721D01*
X244268D01*
Y330500D01*
D02*
G37*
G36*
X239000Y318768D02*
X237221D01*
Y318087D01*
X237298Y317696D01*
X237519Y317366D01*
X237850Y317145D01*
X238240Y317067D01*
X239000D01*
Y318768D01*
D02*
G37*
G36*
X241779D02*
X240000D01*
Y317067D01*
X240760D01*
X241150Y317145D01*
X241481Y317366D01*
X241702Y317696D01*
X241779Y318087D01*
Y318768D01*
D02*
G37*
G36*
X397000Y313545D02*
X396099Y313427D01*
X395259Y313079D01*
X394537Y312526D01*
X394337Y312265D01*
X381500D01*
X381207Y312207D01*
X380959Y312041D01*
X373034Y304116D01*
X372868Y303868D01*
X372810Y303575D01*
Y302085D01*
X372633Y301966D01*
X372344Y301534D01*
X372242Y301024D01*
X372344Y300514D01*
X372633Y300081D01*
X373065Y299792D01*
X373575Y299691D01*
X374085Y299792D01*
X374517Y300081D01*
X374806Y300514D01*
X374907Y301024D01*
X374806Y301534D01*
X374517Y301966D01*
X374340Y302085D01*
Y303258D01*
X374944Y303862D01*
X375486Y303698D01*
X375493Y303663D01*
X375782Y303231D01*
X376214Y302942D01*
X376265Y302932D01*
X376518Y302372D01*
X376481Y302308D01*
X376214Y302255D01*
X375782Y301966D01*
X375493Y301534D01*
X375392Y301024D01*
X375493Y300514D01*
X375782Y300081D01*
X376214Y299792D01*
X376724Y299691D01*
X377234Y299792D01*
X377667Y300081D01*
X377721Y300162D01*
X377752Y300173D01*
X378299Y300128D01*
X378571Y299721D01*
X378978Y299449D01*
X379023Y298902D01*
X379012Y298870D01*
X378932Y298816D01*
X378643Y298384D01*
X378633Y298334D01*
X378073Y298080D01*
X378009Y298117D01*
X377956Y298384D01*
X377667Y298816D01*
X377234Y299105D01*
X376724Y299207D01*
X376214Y299105D01*
X375782Y298816D01*
X375493Y298384D01*
X375392Y297874D01*
X375493Y297364D01*
X375782Y296932D01*
X376214Y296643D01*
X376481Y296590D01*
X376518Y296526D01*
X376265Y295966D01*
X376214Y295956D01*
X375782Y295667D01*
X375493Y295234D01*
X375392Y294724D01*
X375493Y294214D01*
X375782Y293782D01*
X376214Y293493D01*
X376481Y293440D01*
X376518Y293376D01*
X376265Y292816D01*
X376214Y292806D01*
X375782Y292517D01*
X375493Y292085D01*
X375392Y291575D01*
X375493Y291065D01*
X375782Y290633D01*
X376214Y290344D01*
X376724Y290242D01*
X377234Y290344D01*
X377667Y290633D01*
X377956Y291065D01*
X378057Y291575D01*
X378302Y291785D01*
X378541Y291575D01*
X378643Y291065D01*
X378932Y290633D01*
X379364Y290344D01*
X379874Y290242D01*
X380384Y290344D01*
X380816Y290633D01*
X381105Y291065D01*
X381207Y291575D01*
X381141Y291903D01*
X381449Y292403D01*
X383016D01*
X393876Y281543D01*
X393636Y280964D01*
X393517Y280063D01*
X393636Y279162D01*
X393984Y278322D01*
X394537Y277601D01*
X395259Y277047D01*
X396099Y276699D01*
X397000Y276581D01*
X397901Y276699D01*
X398741Y277047D01*
X399463Y277601D01*
X400016Y278322D01*
X400364Y279162D01*
X400483Y280063D01*
X400364Y280964D01*
X400016Y281804D01*
X399463Y282525D01*
X398741Y283079D01*
X397901Y283427D01*
X397000Y283545D01*
X396099Y283427D01*
X395259Y283079D01*
X394831Y282751D01*
X383873Y293708D01*
X383625Y293874D01*
X383333Y293932D01*
X381472D01*
X381149Y294432D01*
X381207Y294724D01*
X381149Y295017D01*
X381472Y295517D01*
X390465D01*
X394068Y291914D01*
X393984Y291804D01*
X393636Y290964D01*
X393517Y290063D01*
X393636Y289162D01*
X393984Y288322D01*
X394537Y287600D01*
X395259Y287047D01*
X396099Y286699D01*
X397000Y286580D01*
X397901Y286699D01*
X398741Y287047D01*
X399463Y287600D01*
X400016Y288322D01*
X400364Y289162D01*
X400483Y290063D01*
X400364Y290964D01*
X400016Y291804D01*
X399463Y292526D01*
X398741Y293079D01*
X397901Y293427D01*
X397000Y293546D01*
X396099Y293427D01*
X395259Y293079D01*
X395149Y292995D01*
X391322Y296822D01*
X391074Y296988D01*
X390781Y297046D01*
X384598D01*
X384291Y297546D01*
X384356Y297874D01*
X384255Y298384D01*
X383966Y298816D01*
X383534Y299105D01*
X383024Y299207D01*
X382514Y299105D01*
X382081Y298816D01*
X381792Y298384D01*
X381691Y297874D01*
X381449Y297681D01*
X381207Y297874D01*
X381105Y298384D01*
X380816Y298816D01*
X380736Y298870D01*
X380725Y298902D01*
X380770Y299449D01*
X381177Y299721D01*
X381449Y300128D01*
X381996Y300173D01*
X382027Y300162D01*
X382081Y300081D01*
X382514Y299792D01*
X383024Y299691D01*
X383534Y299792D01*
X383966Y300081D01*
X384255Y300514D01*
X384356Y301024D01*
X384298Y301316D01*
X384622Y301816D01*
X393448D01*
X393782Y301316D01*
X393636Y300964D01*
X393517Y300063D01*
X393636Y299162D01*
X393984Y298322D01*
X394537Y297601D01*
X395259Y297047D01*
X396099Y296699D01*
X397000Y296581D01*
X397901Y296699D01*
X398741Y297047D01*
X399463Y297601D01*
X400016Y298322D01*
X400364Y299162D01*
X400483Y300063D01*
X400364Y300964D01*
X400016Y301804D01*
X399463Y302525D01*
X398741Y303079D01*
X397901Y303427D01*
X397000Y303545D01*
X396099Y303427D01*
X395259Y303079D01*
X395149Y302995D01*
X395023Y303121D01*
X394775Y303287D01*
X394482Y303345D01*
X384598D01*
X384291Y303845D01*
X384356Y304173D01*
X384255Y304683D01*
X383966Y305116D01*
X383534Y305404D01*
X383024Y305506D01*
X382514Y305404D01*
X382081Y305116D01*
X381792Y304683D01*
X381691Y304173D01*
X381449Y303980D01*
X381207Y304173D01*
X381105Y304683D01*
X380816Y305116D01*
X380384Y305404D01*
X379874Y305506D01*
X379364Y305404D01*
X378932Y305116D01*
X378643Y304683D01*
X378541Y304173D01*
X378302Y303963D01*
X378057Y304173D01*
X377956Y304683D01*
X377667Y305116D01*
X377234Y305404D01*
X377200Y305411D01*
X377035Y305954D01*
X380936Y309855D01*
X381397Y309609D01*
X381376Y309500D01*
X385624D01*
X385555Y309851D01*
X385298Y310235D01*
X385565Y310735D01*
X393227D01*
X393556Y310359D01*
X393517Y310063D01*
X393636Y309162D01*
X393984Y308322D01*
X394537Y307600D01*
X395259Y307047D01*
X396099Y306699D01*
X397000Y306580D01*
X397901Y306699D01*
X398741Y307047D01*
X399463Y307600D01*
X400016Y308322D01*
X400364Y309162D01*
X400483Y310063D01*
X400364Y310964D01*
X400016Y311804D01*
X399463Y312526D01*
X398741Y313079D01*
X397901Y313427D01*
X397000Y313545D01*
D02*
G37*
G36*
X383000Y308500D02*
X381376D01*
X381445Y308149D01*
X381927Y307428D01*
X382649Y306945D01*
X383000Y306876D01*
Y308500D01*
D02*
G37*
G36*
X360976Y305506D02*
X360466Y305404D01*
X360034Y305116D01*
X359745Y304683D01*
X359644Y304173D01*
X359745Y303663D01*
X360034Y303231D01*
X360466Y302942D01*
X360976Y302840D01*
X361486Y302942D01*
X361919Y303231D01*
X362208Y303663D01*
X362309Y304173D01*
X362208Y304683D01*
X361919Y305116D01*
X361486Y305404D01*
X360976Y305506D01*
D02*
G37*
G36*
X355124Y306500D02*
X353500D01*
Y304876D01*
X353851Y304945D01*
X354573Y305428D01*
X355055Y306149D01*
X355124Y306500D01*
D02*
G37*
G36*
X353500Y309124D02*
Y307500D01*
X355124D01*
X355055Y307851D01*
X354573Y308573D01*
X353851Y309055D01*
X353500Y309124D01*
D02*
G37*
G36*
X337000Y312933D02*
X336240D01*
X335850Y312855D01*
X335519Y312634D01*
X335298Y312304D01*
X335221Y311913D01*
Y311232D01*
X337000D01*
Y312933D01*
D02*
G37*
G36*
X385624Y308500D02*
X384000D01*
Y306876D01*
X384351Y306945D01*
X385072Y307428D01*
X385555Y308149D01*
X385624Y308500D01*
D02*
G37*
G36*
X349953Y313557D02*
X344047D01*
X343665Y313398D01*
X343506Y313016D01*
Y307110D01*
X343665Y306728D01*
X344047Y306569D01*
X349953D01*
X350322Y306722D01*
X350337Y306727D01*
X350845Y306652D01*
X350945Y306149D01*
X351428Y305428D01*
X352149Y304945D01*
X352500Y304876D01*
Y307000D01*
Y309124D01*
X352149Y309055D01*
X351428Y308573D01*
X350994Y307924D01*
X350690Y307939D01*
X350494Y308007D01*
Y309735D01*
X367183D01*
X369370Y307549D01*
X369348Y307440D01*
X368806Y307276D01*
X368541Y307541D01*
X368293Y307706D01*
X368000Y307765D01*
X359000D01*
X358707Y307706D01*
X358459Y307541D01*
X355459Y304541D01*
X355293Y304293D01*
X355235Y304000D01*
Y303656D01*
X355001Y303499D01*
X354695Y303041D01*
X354587Y302500D01*
X354695Y301959D01*
X355001Y301501D01*
X355459Y301195D01*
X356000Y301087D01*
X356541Y301195D01*
X356999Y301501D01*
X357305Y301959D01*
X357413Y302500D01*
X357305Y303041D01*
X356999Y303499D01*
X357109Y304027D01*
X359317Y306235D01*
X367539D01*
X367887Y305842D01*
X367382Y305485D01*
X367276Y305506D01*
X366766Y305404D01*
X366333Y305116D01*
X366044Y304683D01*
X365943Y304173D01*
X366044Y303663D01*
X366333Y303231D01*
X366766Y302942D01*
X366816Y302932D01*
X367069Y302372D01*
X367033Y302308D01*
X366766Y302255D01*
X366333Y301966D01*
X366279Y301885D01*
X366248Y301874D01*
X365701Y301919D01*
X365429Y302326D01*
X365022Y302598D01*
X364977Y303145D01*
X364987Y303177D01*
X365068Y303231D01*
X365357Y303663D01*
X365459Y304173D01*
X365357Y304683D01*
X365068Y305116D01*
X364636Y305404D01*
X364126Y305506D01*
X363616Y305404D01*
X363184Y305116D01*
X362895Y304683D01*
X362793Y304173D01*
X362895Y303663D01*
X363184Y303231D01*
X363264Y303177D01*
X363275Y303145D01*
X363230Y302598D01*
X362823Y302326D01*
X362551Y301919D01*
X362004Y301874D01*
X361973Y301885D01*
X361919Y301966D01*
X361486Y302255D01*
X360976Y302356D01*
X360466Y302255D01*
X360034Y301966D01*
X359745Y301534D01*
X359644Y301024D01*
X359702Y300731D01*
X359378Y300231D01*
X350460D01*
X350364Y300964D01*
X350016Y301804D01*
X349463Y302525D01*
X348741Y303079D01*
X347901Y303427D01*
X347000Y303545D01*
X346099Y303427D01*
X345259Y303079D01*
X344537Y302525D01*
X343984Y301804D01*
X343636Y300964D01*
X343517Y300063D01*
X343636Y299162D01*
X343984Y298322D01*
X344537Y297601D01*
X345259Y297047D01*
X346099Y296699D01*
X347000Y296581D01*
X347901Y296699D01*
X348741Y297047D01*
X349463Y297601D01*
X350016Y298322D01*
X350173Y298702D01*
X359402D01*
X359709Y298202D01*
X359644Y297874D01*
X359745Y297364D01*
X360034Y296932D01*
X360466Y296643D01*
X360976Y296541D01*
X361012Y296548D01*
X361258Y296088D01*
X348394Y283223D01*
X347901Y283427D01*
X347000Y283545D01*
X346099Y283427D01*
X345259Y283079D01*
X344537Y282525D01*
X343984Y281804D01*
X343636Y280964D01*
X343517Y280063D01*
X343636Y279162D01*
X343984Y278322D01*
X344537Y277601D01*
X345259Y277047D01*
X346099Y276699D01*
X347000Y276581D01*
X347901Y276699D01*
X348741Y277047D01*
X349463Y277601D01*
X350016Y278322D01*
X350364Y279162D01*
X350483Y280063D01*
X350364Y280964D01*
X350016Y281804D01*
X349635Y282301D01*
X358310Y290977D01*
X358828Y290788D01*
X358916Y290344D01*
X359288Y289788D01*
X359844Y289416D01*
X360500Y289286D01*
X361156Y289416D01*
X361712Y289788D01*
X362084Y290344D01*
X362214Y291000D01*
X362135Y291399D01*
X362316Y291542D01*
X362844Y291321D01*
X362895Y291065D01*
X363184Y290633D01*
X363616Y290344D01*
X364126Y290242D01*
X364636Y290344D01*
X365068Y290633D01*
X365357Y291065D01*
X365459Y291575D01*
X365357Y292085D01*
X365068Y292517D01*
X364636Y292806D01*
X364585Y292816D01*
X364332Y293376D01*
X364369Y293440D01*
X364636Y293493D01*
X365068Y293782D01*
X365357Y294214D01*
X365390Y294381D01*
X365481Y294483D01*
X365556Y294484D01*
X366044Y294214D01*
X366333Y293782D01*
X366766Y293493D01*
X367276Y293392D01*
X367786Y293493D01*
X368218Y293782D01*
X368507Y294214D01*
X368608Y294724D01*
X368840Y294906D01*
X369092Y294724D01*
X369194Y294214D01*
X369483Y293782D01*
X369915Y293493D01*
X370425Y293392D01*
X370935Y293493D01*
X371368Y293782D01*
X371656Y294214D01*
X371758Y294724D01*
X371656Y295234D01*
X371368Y295667D01*
X370935Y295956D01*
X370885Y295966D01*
X370631Y296526D01*
X370668Y296590D01*
X370935Y296643D01*
X371368Y296932D01*
X371656Y297364D01*
X371758Y297874D01*
X371656Y298384D01*
X371368Y298816D01*
X370935Y299105D01*
X370425Y299207D01*
X369915Y299105D01*
X369483Y298816D01*
X369194Y298384D01*
X369141Y298117D01*
X369077Y298080D01*
X368517Y298334D01*
X368507Y298384D01*
X368218Y298816D01*
X367786Y299105D01*
X367519Y299158D01*
X367482Y299222D01*
X367735Y299782D01*
X367786Y299792D01*
X368218Y300081D01*
X368507Y300514D01*
X368560Y300781D01*
X368624Y300817D01*
X369184Y300564D01*
X369194Y300514D01*
X369483Y300081D01*
X369915Y299792D01*
X370425Y299691D01*
X370935Y299792D01*
X371368Y300081D01*
X371656Y300514D01*
X371758Y301024D01*
X371656Y301534D01*
X371368Y301966D01*
X371190Y302085D01*
Y307575D01*
X371190Y307575D01*
X371132Y307867D01*
X370966Y308116D01*
X368041Y311041D01*
X367793Y311207D01*
X367500Y311265D01*
X350494D01*
Y313016D01*
X350335Y313398D01*
X349953Y313557D01*
D02*
G37*
G36*
X373575Y286608D02*
X373065Y286507D01*
X372633Y286218D01*
X372344Y285786D01*
X372242Y285276D01*
X371997Y285065D01*
X371758Y285276D01*
X371656Y285786D01*
X371368Y286218D01*
X370935Y286507D01*
X370425Y286608D01*
X369915Y286507D01*
X369483Y286218D01*
X369194Y285786D01*
X369092Y285276D01*
X368850Y285083D01*
X368608Y285276D01*
X368507Y285786D01*
X368218Y286218D01*
X367786Y286507D01*
X367276Y286608D01*
X366766Y286507D01*
X366333Y286218D01*
X366044Y285786D01*
X365943Y285276D01*
X365701Y285083D01*
X365459Y285276D01*
X365357Y285786D01*
X365068Y286218D01*
X364636Y286507D01*
X364126Y286608D01*
X363616Y286507D01*
X363184Y286218D01*
X362895Y285786D01*
X362793Y285276D01*
X362859Y284948D01*
X362551Y284448D01*
X360183D01*
X360183Y284448D01*
X359891Y284390D01*
X359642Y284224D01*
X348569Y273150D01*
X347901Y273427D01*
X347000Y273546D01*
X346099Y273427D01*
X345259Y273079D01*
X344537Y272526D01*
X343984Y271804D01*
X343636Y270964D01*
X343517Y270063D01*
X343636Y269162D01*
X343984Y268322D01*
X344530Y267611D01*
X341482Y264564D01*
X333461D01*
X333440Y264586D01*
X333256Y265024D01*
X333297Y265151D01*
X333400Y265304D01*
X333492Y265768D01*
X333400Y266232D01*
X333137Y266625D01*
Y266879D01*
X333400Y267272D01*
X333492Y267736D01*
X333400Y268200D01*
X333297Y268353D01*
X333178Y268721D01*
X333297Y269088D01*
X333400Y269241D01*
X333492Y269705D01*
X333400Y270169D01*
X333297Y270322D01*
X333497Y270456D01*
X333871Y271014D01*
X333902Y271173D01*
X330311D01*
Y272173D01*
X333902D01*
X333871Y272332D01*
X333653Y272657D01*
X333871Y272983D01*
X333902Y273142D01*
X330311D01*
X326720D01*
X326751Y272983D01*
X326969Y272657D01*
X326751Y272332D01*
X326620Y271673D01*
X326656Y271496D01*
X326206Y271195D01*
X326041Y271305D01*
X325500Y271413D01*
X324959Y271305D01*
X324501Y270999D01*
X324195Y270541D01*
X324087Y270000D01*
X324195Y269459D01*
X324339Y269243D01*
X324228Y268791D01*
X324159Y268674D01*
X323959Y268541D01*
X323276Y267858D01*
X323000Y267913D01*
X322459Y267805D01*
X322001Y267499D01*
X321695Y267041D01*
X321587Y266500D01*
X321695Y265959D01*
X322001Y265501D01*
X322459Y265195D01*
X323000Y265087D01*
X323541Y265195D01*
X323627Y265252D01*
X324182Y265022D01*
X324195Y264959D01*
X324501Y264501D01*
X324959Y264195D01*
X325500Y264087D01*
X326041Y264195D01*
X326499Y264501D01*
X326721Y264832D01*
X327001Y264826D01*
X327206Y264567D01*
X327262Y264424D01*
X327275Y264341D01*
X327222Y264263D01*
X327130Y263799D01*
X327222Y263335D01*
X327485Y262942D01*
Y262688D01*
X327222Y262295D01*
X327130Y261831D01*
X327222Y261367D01*
X327325Y261214D01*
X327444Y260846D01*
X327325Y260479D01*
X327222Y260326D01*
X327130Y259862D01*
X327145Y259788D01*
X326736Y259305D01*
X326588Y259295D01*
X326156Y259584D01*
X325500Y259714D01*
X324844Y259584D01*
X324288Y259212D01*
X323916Y258656D01*
X323786Y258000D01*
X323916Y257344D01*
X324288Y256788D01*
X324844Y256416D01*
X325500Y256286D01*
X326156Y256416D01*
X326216Y256457D01*
X326264Y256425D01*
X330311D01*
Y255425D01*
X326720D01*
X326751Y255266D01*
X327125Y254708D01*
X327325Y254574D01*
X327222Y254421D01*
X327130Y253957D01*
X327222Y253493D01*
X327485Y253099D01*
Y252845D01*
X327222Y252452D01*
X327130Y251988D01*
X327222Y251524D01*
X327325Y251371D01*
X327444Y251004D01*
X327325Y250637D01*
X327222Y250484D01*
X327130Y250020D01*
X327222Y249556D01*
X327325Y249403D01*
X327444Y249035D01*
X327325Y248668D01*
X327222Y248515D01*
X327130Y248051D01*
X327222Y247587D01*
X327485Y247194D01*
X327879Y246931D01*
X328343Y246839D01*
X332279D01*
X332743Y246931D01*
X332861Y247009D01*
X335911Y243959D01*
X336159Y243794D01*
X336452Y243735D01*
X336452Y243735D01*
X352578D01*
X352726Y243321D01*
X352742Y243235D01*
X352445Y242791D01*
X352337Y242250D01*
X352383Y242018D01*
X352332Y241623D01*
X352047Y241405D01*
X351936Y241359D01*
X351778Y240976D01*
Y238024D01*
X351936Y237641D01*
X352319Y237482D01*
Y236990D01*
X351936Y236831D01*
X351778Y236449D01*
Y235312D01*
X349616D01*
Y236122D01*
X349458Y236505D01*
X349075Y236663D01*
X346230D01*
X345963Y237163D01*
X346084Y237344D01*
X346214Y238000D01*
X346651Y238337D01*
X349075D01*
X349458Y238495D01*
X349616Y238878D01*
Y242028D01*
X349458Y242410D01*
X349075Y242569D01*
X345925D01*
X345543Y242410D01*
X345384Y242028D01*
Y240326D01*
X344727Y239669D01*
X344500Y239714D01*
X343844Y239584D01*
X343288Y239212D01*
X342916Y238656D01*
X342786Y238000D01*
X342916Y237344D01*
X343288Y236788D01*
X343844Y236416D01*
X344500Y236286D01*
X344948Y236375D01*
X345088Y236294D01*
X345360Y236036D01*
X345384Y235991D01*
Y232972D01*
X345543Y232590D01*
X345925Y232431D01*
X349075D01*
X349458Y232590D01*
X349616Y232972D01*
Y233783D01*
X351778D01*
Y233496D01*
X351936Y233113D01*
X352319Y232955D01*
X354681D01*
X355064Y233113D01*
X355222Y233496D01*
Y236449D01*
X355064Y236831D01*
X354681Y236990D01*
Y237482D01*
X355064Y237641D01*
X355222Y238024D01*
Y240976D01*
X355064Y241359D01*
X354988Y241609D01*
X355055Y241709D01*
X355163Y242250D01*
X355055Y242791D01*
X354758Y243235D01*
X354774Y243321D01*
X354922Y243735D01*
X365057D01*
X365325Y243235D01*
X365195Y243041D01*
X365087Y242500D01*
X365195Y241959D01*
X365115Y241697D01*
X364936Y241623D01*
X364778Y241240D01*
Y238287D01*
X364936Y237905D01*
X365319Y237746D01*
Y237254D01*
X364936Y237095D01*
X364778Y236713D01*
Y235312D01*
X362616D01*
Y236122D01*
X362457Y236505D01*
X362075Y236663D01*
X359230D01*
X358963Y237163D01*
X359084Y237344D01*
X359146Y237657D01*
X359826Y238337D01*
X362075D01*
X362457Y238495D01*
X362616Y238878D01*
Y242028D01*
X362457Y242410D01*
X362075Y242569D01*
X358925D01*
X358542Y242410D01*
X358384Y242028D01*
Y240009D01*
X358362Y239969D01*
X357948Y239625D01*
X357500Y239714D01*
X356844Y239584D01*
X356288Y239212D01*
X355916Y238656D01*
X355786Y238000D01*
X355916Y237344D01*
X356288Y236788D01*
X356844Y236416D01*
X357500Y236286D01*
X357948Y236375D01*
X358088Y236294D01*
X358360Y236036D01*
X358384Y235991D01*
Y232972D01*
X358542Y232590D01*
X358925Y232431D01*
X362075D01*
X362457Y232590D01*
X362616Y232972D01*
Y233783D01*
X364778D01*
Y233760D01*
X364936Y233377D01*
X365319Y233219D01*
X367681D01*
X368064Y233377D01*
X368222Y233760D01*
Y236713D01*
X368064Y237095D01*
X367681Y237254D01*
Y237746D01*
X368064Y237905D01*
X368222Y238287D01*
Y241240D01*
X368064Y241623D01*
X367885Y241697D01*
X367805Y241959D01*
X367913Y242500D01*
X367805Y243041D01*
X367675Y243235D01*
X367943Y243735D01*
X378057D01*
X378325Y243235D01*
X378195Y243041D01*
X378087Y242500D01*
X378195Y241959D01*
X378115Y241697D01*
X377936Y241623D01*
X377778Y241240D01*
Y238287D01*
X377936Y237905D01*
X378319Y237746D01*
Y237254D01*
X377936Y237095D01*
X377778Y236713D01*
Y235312D01*
X375616D01*
Y236122D01*
X375458Y236505D01*
X375075Y236663D01*
X372230D01*
X371963Y237163D01*
X372084Y237344D01*
X372146Y237657D01*
X372826Y238337D01*
X375075D01*
X375458Y238495D01*
X375616Y238878D01*
Y242028D01*
X375458Y242410D01*
X375075Y242569D01*
X371925D01*
X371543Y242410D01*
X371384Y242028D01*
Y240009D01*
X371362Y239969D01*
X370948Y239625D01*
X370500Y239714D01*
X369844Y239584D01*
X369288Y239212D01*
X368916Y238656D01*
X368786Y238000D01*
X368916Y237344D01*
X369288Y236788D01*
X369844Y236416D01*
X370500Y236286D01*
X370948Y236375D01*
X371088Y236294D01*
X371360Y236036D01*
X371384Y235991D01*
Y232972D01*
X371543Y232590D01*
X371925Y232431D01*
X375075D01*
X375458Y232590D01*
X375616Y232972D01*
Y233783D01*
X377778D01*
Y233760D01*
X377936Y233377D01*
X378319Y233219D01*
X380681D01*
X381064Y233377D01*
X381222Y233760D01*
Y236713D01*
X381064Y237095D01*
X380681Y237254D01*
Y237746D01*
X381064Y237905D01*
X381222Y238287D01*
Y241240D01*
X381064Y241623D01*
X380885Y241697D01*
X380805Y241959D01*
X380913Y242500D01*
X380805Y243041D01*
X380675Y243235D01*
X380943Y243735D01*
X381500D01*
X381793Y243794D01*
X382041Y243959D01*
X385520Y247439D01*
X386099Y247199D01*
X387000Y247080D01*
X387901Y247199D01*
X388741Y247547D01*
X389462Y248100D01*
X390016Y248822D01*
X390364Y249662D01*
X390482Y250563D01*
X390364Y251464D01*
X390016Y252304D01*
X389462Y253026D01*
X388741Y253579D01*
X387901Y253927D01*
X387000Y254046D01*
X386099Y253927D01*
X385259Y253579D01*
X384538Y253026D01*
X383984Y252304D01*
X383636Y251464D01*
X383518Y250563D01*
X383636Y249662D01*
X383984Y248822D01*
X384312Y248394D01*
X381183Y245265D01*
X371553D01*
X371346Y245765D01*
X373898Y248316D01*
X374397Y248284D01*
X374537Y248100D01*
X375259Y247547D01*
X376099Y247199D01*
X377000Y247080D01*
X377901Y247199D01*
X378741Y247547D01*
X379463Y248100D01*
X380016Y248822D01*
X380364Y249662D01*
X380483Y250563D01*
X380364Y251464D01*
X380016Y252304D01*
X379463Y253026D01*
X378741Y253579D01*
X377901Y253927D01*
X377765Y253945D01*
Y269683D01*
X383041Y274959D01*
X383041Y274959D01*
X383207Y275207D01*
X383265Y275500D01*
Y276500D01*
X383207Y276793D01*
X383041Y277041D01*
X382928Y277154D01*
X382970Y277372D01*
X383125Y277664D01*
X383534Y277745D01*
X383966Y278034D01*
X384255Y278466D01*
X384356Y278976D01*
X384255Y279486D01*
X383966Y279919D01*
X383534Y280208D01*
X383024Y280309D01*
X382514Y280208D01*
X382081Y279919D01*
X381792Y279486D01*
X381239Y279268D01*
X381140Y279310D01*
X381105Y279486D01*
X380816Y279919D01*
X380384Y280208D01*
X379874Y280309D01*
X379681Y280551D01*
X379874Y280793D01*
X380384Y280895D01*
X380816Y281184D01*
X381105Y281616D01*
X381207Y282126D01*
X381105Y282636D01*
X380816Y283068D01*
X380384Y283357D01*
X379874Y283459D01*
X379364Y283357D01*
X378932Y283068D01*
X378643Y282636D01*
X378419Y282571D01*
X377956Y282636D01*
X377667Y283068D01*
X377234Y283357D01*
X376724Y283459D01*
X376214Y283357D01*
X375782Y283068D01*
X375493Y282636D01*
X375392Y282126D01*
X375493Y281616D01*
X375782Y281184D01*
X376214Y280895D01*
X376724Y280793D01*
X376884Y280551D01*
X376724Y280309D01*
X376214Y280208D01*
X375782Y279919D01*
X375728Y279838D01*
X375696Y279827D01*
X375150Y279872D01*
X374878Y280279D01*
X374471Y280551D01*
X374425Y281098D01*
X374436Y281130D01*
X374517Y281184D01*
X374806Y281616D01*
X374907Y282126D01*
X374806Y282636D01*
X374517Y283068D01*
X374085Y283357D01*
X373818Y283410D01*
X373781Y283474D01*
X374034Y284034D01*
X374085Y284044D01*
X374517Y284333D01*
X374806Y284766D01*
X374907Y285276D01*
X374806Y285786D01*
X374517Y286218D01*
X374085Y286507D01*
X373575Y286608D01*
D02*
G37*
G36*
X400921Y250063D02*
X397500D01*
Y246642D01*
X398032Y246712D01*
X398993Y247110D01*
X399819Y247744D01*
X400453Y248570D01*
X400851Y249531D01*
X400921Y250063D01*
D02*
G37*
G36*
X250280Y257394D02*
X246689D01*
X243098D01*
X243129Y257235D01*
X243503Y256676D01*
X243703Y256542D01*
X243601Y256389D01*
X243508Y255925D01*
X243601Y255461D01*
X243703Y255308D01*
X243822Y254941D01*
X243703Y254574D01*
X243601Y254421D01*
X243508Y253957D01*
X243601Y253493D01*
X243863Y253099D01*
Y252845D01*
X243601Y252452D01*
X243508Y251988D01*
X243601Y251524D01*
X243703Y251371D01*
X243822Y251004D01*
X243703Y250637D01*
X243601Y250484D01*
X243508Y250020D01*
X243601Y249556D01*
X243625Y249520D01*
X243357Y249020D01*
X242000D01*
X241911Y249092D01*
Y249472D01*
X241753Y249855D01*
X241370Y250014D01*
X237630D01*
X237247Y249855D01*
X237089Y249472D01*
Y245929D01*
X237247Y245546D01*
X237630Y245388D01*
X241370D01*
X241753Y245546D01*
X241911Y245929D01*
Y246723D01*
X242091Y246759D01*
X242422Y246980D01*
X242422Y246980D01*
X244183D01*
X244257Y246931D01*
X244721Y246839D01*
X248657D01*
X249121Y246931D01*
X249515Y247194D01*
X249778Y247587D01*
X249870Y248051D01*
X249778Y248515D01*
X249675Y248668D01*
X249556Y249035D01*
X249675Y249403D01*
X249778Y249556D01*
X249870Y250020D01*
X249778Y250484D01*
X249675Y250637D01*
X249556Y251004D01*
X249675Y251371D01*
X249778Y251524D01*
X249870Y251988D01*
X249778Y252452D01*
X249515Y252845D01*
Y253099D01*
X249778Y253493D01*
X249870Y253957D01*
X249778Y254421D01*
X249675Y254574D01*
X249556Y254941D01*
X249675Y255308D01*
X249778Y255461D01*
X249870Y255925D01*
X249778Y256389D01*
X249675Y256542D01*
X249875Y256676D01*
X250249Y257235D01*
X250280Y257394D01*
D02*
G37*
G36*
X396500Y250063D02*
X393079D01*
X393149Y249531D01*
X393547Y248570D01*
X394181Y247744D01*
X395007Y247110D01*
X395968Y246712D01*
X396500Y246642D01*
Y250063D01*
D02*
G37*
G36*
X238500Y257768D02*
X236721D01*
Y257087D01*
X236798Y256696D01*
X237019Y256366D01*
X237350Y256145D01*
X237740Y256067D01*
X238500D01*
Y257768D01*
D02*
G37*
G36*
X241279D02*
X239500D01*
Y256067D01*
X240260D01*
X240650Y256145D01*
X240981Y256366D01*
X241202Y256696D01*
X241279Y257087D01*
Y257768D01*
D02*
G37*
G36*
X396500Y254484D02*
X395968Y254414D01*
X395007Y254016D01*
X394181Y253382D01*
X393547Y252556D01*
X393149Y251595D01*
X393079Y251063D01*
X396500D01*
Y254484D01*
D02*
G37*
G36*
X397500D02*
Y251063D01*
X400921D01*
X400851Y251595D01*
X400453Y252556D01*
X399819Y253382D01*
X398993Y254016D01*
X398032Y254414D01*
X397500Y254484D01*
D02*
G37*
G36*
X311433Y229500D02*
X309732D01*
Y227721D01*
X310413D01*
X310804Y227798D01*
X311134Y228019D01*
X311355Y228350D01*
X311433Y228740D01*
Y229500D01*
D02*
G37*
G36*
X337760Y231500D02*
X335764D01*
Y229799D01*
X336740D01*
X337130Y229877D01*
X337461Y230098D01*
X337682Y230429D01*
X337760Y230819D01*
Y231500D01*
D02*
G37*
G36*
X252260Y234598D02*
X250189Y234435D01*
X248168Y233950D01*
X246249Y233155D01*
X244478Y232070D01*
X242898Y230720D01*
X241548Y229140D01*
X240463Y227369D01*
X239668Y225450D01*
X239183Y223429D01*
X239020Y221358D01*
X239183Y219287D01*
X239668Y217267D01*
X240463Y215348D01*
X241548Y213576D01*
X242898Y211996D01*
X244478Y210647D01*
X246249Y209561D01*
X248168Y208766D01*
X250189Y208281D01*
X252260Y208118D01*
X254331Y208281D01*
X256351Y208766D01*
X258271Y209561D01*
X260042Y210647D01*
X261622Y211996D01*
X262971Y213576D01*
X264057Y215348D01*
X264852Y217267D01*
X265337Y219287D01*
X265500Y221358D01*
X265337Y223429D01*
X264852Y225450D01*
X264057Y227369D01*
X262971Y229140D01*
X261622Y230720D01*
X260042Y232070D01*
X258271Y233155D01*
X256351Y233950D01*
X254331Y234435D01*
X252260Y234598D01*
D02*
G37*
G36*
X279433Y228000D02*
X277732D01*
Y226221D01*
X278413D01*
X278804Y226298D01*
X279134Y226519D01*
X279355Y226850D01*
X279433Y227240D01*
Y228000D01*
D02*
G37*
G36*
X289124Y235000D02*
X287500D01*
Y233376D01*
X287851Y233445D01*
X288573Y233927D01*
X289055Y234649D01*
X289124Y235000D01*
D02*
G37*
G36*
X244500Y237714D02*
X243844Y237584D01*
X243288Y237212D01*
X242916Y236656D01*
X242849Y236319D01*
X241911D01*
Y237071D01*
X241753Y237454D01*
X241370Y237612D01*
X237630D01*
X237247Y237454D01*
X237089Y237071D01*
Y233528D01*
X237247Y233145D01*
X237630Y232986D01*
X241370D01*
X241753Y233145D01*
X241911Y233528D01*
Y234280D01*
X243799D01*
X244166Y234352D01*
X244500Y234286D01*
X245156Y234416D01*
X245712Y234788D01*
X246084Y235344D01*
X246214Y236000D01*
X246084Y236656D01*
X245712Y237212D01*
X245156Y237584D01*
X244500Y237714D01*
D02*
G37*
G36*
X336740Y234201D02*
X335764D01*
Y232500D01*
X337760D01*
Y233181D01*
X337682Y233571D01*
X337461Y233902D01*
X337130Y234123D01*
X336740Y234201D01*
D02*
G37*
G36*
X286500Y235000D02*
X284876D01*
X284945Y234649D01*
X285427Y233927D01*
X286149Y233445D01*
X286500Y233376D01*
Y235000D01*
D02*
G37*
G36*
X381768Y262500D02*
X380067D01*
Y261740D01*
X380145Y261350D01*
X380366Y261019D01*
X380696Y260798D01*
X381087Y260721D01*
X381768D01*
Y262500D01*
D02*
G37*
G36*
X383024Y283459D02*
X382514Y283357D01*
X382081Y283068D01*
X381792Y282636D01*
X381691Y282126D01*
X381792Y281616D01*
X382081Y281184D01*
X382514Y280895D01*
X383024Y280793D01*
X383534Y280895D01*
X383966Y281184D01*
X384255Y281616D01*
X384356Y282126D01*
X384255Y282636D01*
X383966Y283068D01*
X383534Y283357D01*
X383024Y283459D01*
D02*
G37*
G36*
X238500Y285201D02*
X237740D01*
X237350Y285123D01*
X237019Y284902D01*
X236798Y284571D01*
X236721Y284181D01*
Y283500D01*
X238500D01*
Y285201D01*
D02*
G37*
G36*
X396500Y273984D02*
X395968Y273914D01*
X395007Y273516D01*
X394181Y272882D01*
X393547Y272056D01*
X393149Y271095D01*
X393079Y270563D01*
X396500D01*
Y273984D01*
D02*
G37*
G36*
X397500D02*
Y270563D01*
X400921D01*
X400851Y271095D01*
X400453Y272056D01*
X399819Y272882D01*
X398993Y273516D01*
X398032Y273914D01*
X397500Y273984D01*
D02*
G37*
G36*
X336500Y285768D02*
X334721D01*
Y285087D01*
X334798Y284696D01*
X335019Y284366D01*
X335350Y284145D01*
X335740Y284067D01*
X336500D01*
Y285768D01*
D02*
G37*
G36*
X339279D02*
X337500D01*
Y284067D01*
X338260D01*
X338650Y284145D01*
X338981Y284366D01*
X339202Y284696D01*
X339279Y285087D01*
Y285768D01*
D02*
G37*
G36*
X376724Y286608D02*
X376214Y286507D01*
X375782Y286218D01*
X375493Y285786D01*
X375392Y285276D01*
X375493Y284766D01*
X375782Y284333D01*
X376214Y284044D01*
X376724Y283943D01*
X377234Y284044D01*
X377667Y284333D01*
X377956Y284766D01*
X378057Y285276D01*
X377956Y285786D01*
X377667Y286218D01*
X377234Y286507D01*
X376724Y286608D01*
D02*
G37*
G36*
X379874D02*
X379364Y286507D01*
X378932Y286218D01*
X378643Y285786D01*
X378541Y285276D01*
X378643Y284766D01*
X378932Y284333D01*
X379364Y284044D01*
X379874Y283943D01*
X380384Y284044D01*
X380816Y284333D01*
X381105Y284766D01*
X381207Y285276D01*
X381105Y285786D01*
X380816Y286218D01*
X380384Y286507D01*
X379874Y286608D01*
D02*
G37*
G36*
X396500Y269563D02*
X393079D01*
X393149Y269031D01*
X393547Y268070D01*
X394181Y267244D01*
X395007Y266610D01*
X395968Y266212D01*
X396500Y266142D01*
Y269563D01*
D02*
G37*
G36*
X400921D02*
X397500D01*
Y266142D01*
X398032Y266212D01*
X398993Y266610D01*
X399819Y267244D01*
X400453Y268070D01*
X400851Y269031D01*
X400921Y269563D01*
D02*
G37*
G36*
X381768Y265279D02*
X381087D01*
X380696Y265202D01*
X380366Y264981D01*
X380145Y264650D01*
X380067Y264260D01*
Y263500D01*
X381768D01*
Y265279D01*
D02*
G37*
G36*
X383449Y270779D02*
X382768D01*
Y268500D01*
Y266221D01*
X383449D01*
X383839Y266298D01*
X384170Y266519D01*
X384213Y266583D01*
X384713Y266432D01*
Y265068D01*
X384213Y264917D01*
X384170Y264981D01*
X383839Y265202D01*
X383449Y265279D01*
X382768D01*
Y263000D01*
Y260721D01*
X383449D01*
X383839Y260798D01*
X384170Y261019D01*
X384347Y261284D01*
X384551Y261199D01*
X386913D01*
X387296Y261357D01*
X387455Y261740D01*
Y261980D01*
X393506D01*
Y257110D01*
X393665Y256728D01*
X394047Y256569D01*
X399953D01*
X400335Y256728D01*
X400494Y257110D01*
Y263016D01*
X400335Y263398D01*
X399953Y263557D01*
X394948D01*
X394784Y263721D01*
X394453Y263942D01*
X394063Y264020D01*
X387455D01*
Y264260D01*
X387296Y264643D01*
X386913Y264801D01*
X386752D01*
Y266699D01*
X386913D01*
X387296Y266858D01*
X387455Y267240D01*
Y269760D01*
X387296Y270143D01*
X386913Y270301D01*
X384551D01*
X384347Y270216D01*
X384170Y270481D01*
X383839Y270702D01*
X383449Y270779D01*
D02*
G37*
G36*
X241279Y270268D02*
X239500D01*
Y268567D01*
X240260D01*
X240650Y268645D01*
X240981Y268866D01*
X241202Y269196D01*
X241279Y269587D01*
Y270268D01*
D02*
G37*
G36*
X381768Y270779D02*
X381087D01*
X380696Y270702D01*
X380366Y270481D01*
X380145Y270150D01*
X380067Y269760D01*
Y269000D01*
X381768D01*
Y270779D01*
D02*
G37*
G36*
Y268000D02*
X380067D01*
Y267240D01*
X380145Y266850D01*
X380366Y266519D01*
X380696Y266298D01*
X381087Y266221D01*
X381768D01*
Y268000D01*
D02*
G37*
G36*
X238500Y270268D02*
X236721D01*
Y269587D01*
X236798Y269196D01*
X237019Y268866D01*
X237350Y268645D01*
X237740Y268567D01*
X238500D01*
Y270268D01*
D02*
G37*
G36*
X244268Y333279D02*
X243587D01*
X243196Y333202D01*
X242866Y332981D01*
X242645Y332650D01*
X242567Y332260D01*
Y331500D01*
X244268D01*
Y333279D01*
D02*
G37*
G36*
X341929Y388622D02*
X338295D01*
X337905Y388544D01*
X337574Y388323D01*
X337353Y387993D01*
X337276Y387602D01*
Y384953D01*
X341929D01*
Y388622D01*
D02*
G37*
G36*
X349500Y386624D02*
Y385000D01*
X351124D01*
X351055Y385351D01*
X350572Y386072D01*
X349851Y386555D01*
X349500Y386624D01*
D02*
G37*
G36*
X377500Y385933D02*
X376740D01*
X376350Y385855D01*
X376019Y385634D01*
X375798Y385304D01*
X375721Y384913D01*
Y384232D01*
X377500D01*
Y385933D01*
D02*
G37*
G36*
X379260D02*
X378500D01*
Y384232D01*
X380279D01*
Y384913D01*
X380202Y385304D01*
X379981Y385634D01*
X379650Y385855D01*
X379260Y385933D01*
D02*
G37*
G36*
X325000Y393500D02*
X320740D01*
Y391146D01*
X320818Y390756D01*
X321039Y390425D01*
X321370Y390204D01*
X321760Y390126D01*
X325000D01*
Y393500D01*
D02*
G37*
G36*
X339709D02*
X335449D01*
Y390126D01*
X338689D01*
X339079Y390204D01*
X339410Y390425D01*
X339631Y390756D01*
X339709Y391146D01*
Y393500D01*
D02*
G37*
G36*
X314961D02*
X310701D01*
Y391146D01*
X310778Y390756D01*
X310999Y390425D01*
X311330Y390204D01*
X311720Y390126D01*
X314961D01*
Y393500D01*
D02*
G37*
G36*
X320220D02*
X315961D01*
Y390126D01*
X319201D01*
X319591Y390204D01*
X319922Y390425D01*
X320143Y390756D01*
X320220Y391146D01*
Y393500D01*
D02*
G37*
G36*
X346563Y388622D02*
X342929D01*
Y384453D01*
Y380284D01*
X346563D01*
X346953Y380361D01*
X347284Y380582D01*
X347505Y380913D01*
X347583Y381303D01*
Y382294D01*
X348024Y382529D01*
X348149Y382445D01*
X348500Y382376D01*
Y384500D01*
Y386624D01*
X348149Y386555D01*
X348024Y386471D01*
X347583Y386706D01*
Y387602D01*
X347505Y387993D01*
X347284Y388323D01*
X346953Y388544D01*
X346563Y388622D01*
D02*
G37*
G36*
X351124Y384000D02*
X349500D01*
Y382376D01*
X349851Y382445D01*
X350572Y382927D01*
X351055Y383649D01*
X351124Y384000D01*
D02*
G37*
G36*
X385516Y379193D02*
X385425D01*
X385035Y379115D01*
X384736Y378916D01*
X384437Y379115D01*
X384047Y379193D01*
X383957D01*
Y375024D01*
Y370854D01*
X384047D01*
X384437Y370932D01*
X384736Y371132D01*
X385035Y370932D01*
X385425Y370854D01*
X385516D01*
Y375024D01*
Y379193D01*
D02*
G37*
G36*
X341929Y383953D02*
X337276D01*
Y381303D01*
X337353Y380913D01*
X337574Y380582D01*
X337905Y380361D01*
X338295Y380284D01*
X341929D01*
Y383953D01*
D02*
G37*
G36*
X361500Y385933D02*
X360740D01*
X360350Y385855D01*
X360019Y385634D01*
X359798Y385304D01*
X359721Y384913D01*
Y384232D01*
X361500D01*
Y385933D01*
D02*
G37*
G36*
X363260D02*
X362500D01*
Y384232D01*
X364279D01*
Y384913D01*
X364202Y385304D01*
X363981Y385634D01*
X363650Y385855D01*
X363260Y385933D01*
D02*
G37*
G36*
X243500Y385433D02*
X242740D01*
X242350Y385355D01*
X242019Y385134D01*
X241798Y384804D01*
X241721Y384413D01*
Y383732D01*
X243500D01*
Y385433D01*
D02*
G37*
G36*
X245260D02*
X244500D01*
Y383732D01*
X246279D01*
Y384413D01*
X246202Y384804D01*
X245981Y385134D01*
X245650Y385355D01*
X245260Y385433D01*
D02*
G37*
G36*
X344488Y393500D02*
X340229D01*
Y391146D01*
X340306Y390756D01*
X340527Y390425D01*
X340858Y390204D01*
X341248Y390126D01*
X344488D01*
Y393500D01*
D02*
G37*
G36*
X270000Y396124D02*
X269649Y396055D01*
X268928Y395572D01*
X268445Y394851D01*
X268376Y394500D01*
X270000D01*
Y396124D01*
D02*
G37*
G36*
X271000D02*
Y394500D01*
X272624D01*
X272555Y394851D01*
X272073Y395572D01*
X271351Y396055D01*
X271000Y396124D01*
D02*
G37*
G36*
X314961Y397874D02*
X311720D01*
X311330Y397796D01*
X310999Y397575D01*
X310778Y397245D01*
X310701Y396854D01*
Y394500D01*
X314961D01*
Y397874D01*
D02*
G37*
G36*
X325000D02*
X321760D01*
X321370Y397796D01*
X321039Y397575D01*
X320818Y397245D01*
X320740Y396854D01*
Y394500D01*
X325000D01*
Y397874D01*
D02*
G37*
G36*
X319201D02*
X315961D01*
Y394500D01*
X320220D01*
Y396854D01*
X320143Y397245D01*
X319922Y397575D01*
X319591Y397796D01*
X319201Y397874D01*
D02*
G37*
G36*
X334449D02*
X331209D01*
X330819Y397796D01*
X330488Y397575D01*
X329961D01*
X329630Y397796D01*
X329240Y397874D01*
X326000D01*
Y394000D01*
Y390126D01*
X329240D01*
X329630Y390204D01*
X329961Y390425D01*
X330488D01*
X330819Y390204D01*
X331209Y390126D01*
X334449D01*
Y394000D01*
Y397874D01*
D02*
G37*
G36*
X351500Y396124D02*
Y394500D01*
X353124D01*
X353055Y394851D01*
X352572Y395572D01*
X351851Y396055D01*
X351500Y396124D01*
D02*
G37*
G36*
X338689Y397874D02*
X335449D01*
Y394500D01*
X339709D01*
Y396854D01*
X339631Y397245D01*
X339410Y397575D01*
X339079Y397796D01*
X338689Y397874D01*
D02*
G37*
G36*
X260500Y391933D02*
X259740D01*
X259350Y391855D01*
X259019Y391634D01*
X258798Y391304D01*
X258721Y390913D01*
Y390232D01*
X260500D01*
Y391933D01*
D02*
G37*
G36*
X262260D02*
X261500D01*
Y390232D01*
X263279D01*
Y390913D01*
X263202Y391304D01*
X262981Y391634D01*
X262650Y391855D01*
X262260Y391933D01*
D02*
G37*
G36*
X255000D02*
X254240D01*
X253850Y391855D01*
X253519Y391634D01*
X253298Y391304D01*
X253221Y390913D01*
Y390232D01*
X255000D01*
Y391933D01*
D02*
G37*
G36*
X256760D02*
X256000D01*
Y390232D01*
X257779D01*
Y390913D01*
X257702Y391304D01*
X257481Y391634D01*
X257150Y391855D01*
X256760Y391933D01*
D02*
G37*
G36*
X306000Y397765D02*
X278000D01*
X277707Y397707D01*
X277459Y397541D01*
X273101Y393182D01*
X273041Y393157D01*
X272601Y393383D01*
X272624Y393500D01*
X268376D01*
X268415Y393301D01*
X268179Y392898D01*
X268077Y392801D01*
X266087D01*
X265704Y392642D01*
X265545Y392260D01*
Y389740D01*
X265704Y389357D01*
X266087Y389199D01*
X266156D01*
Y387228D01*
X265618Y386690D01*
X265500Y386714D01*
X264844Y386584D01*
X264288Y386212D01*
X263916Y385656D01*
X263891Y385526D01*
X263348Y385362D01*
X262801Y385909D01*
Y387449D01*
X262716Y387653D01*
X262981Y387830D01*
X263202Y388161D01*
X263279Y388551D01*
Y389232D01*
X258721D01*
Y388551D01*
X258798Y388161D01*
X259019Y387830D01*
X259083Y387787D01*
X258932Y387287D01*
X257568D01*
X257417Y387787D01*
X257481Y387830D01*
X257702Y388161D01*
X257779Y388551D01*
Y389232D01*
X253221D01*
Y388551D01*
X253298Y388161D01*
X253519Y387830D01*
X253784Y387653D01*
X253699Y387449D01*
Y385087D01*
X253857Y384704D01*
X254240Y384545D01*
X256760D01*
X257142Y384704D01*
X257301Y385087D01*
Y385248D01*
X259199D01*
Y385087D01*
X259358Y384704D01*
X259740Y384545D01*
X261280D01*
X262980Y382845D01*
Y380841D01*
X262788Y380712D01*
X262416Y380156D01*
X262286Y379500D01*
X262416Y378844D01*
X262788Y378288D01*
X262980Y378159D01*
Y377263D01*
X262480Y377111D01*
X262281Y377411D01*
X261754Y377762D01*
X261134Y377886D01*
X259862D01*
Y376264D01*
X259362D01*
Y375764D01*
X256068D01*
X256092Y375643D01*
X256148Y375560D01*
X255881Y375060D01*
X255022D01*
X251041Y379041D01*
X250793Y379206D01*
X250500Y379265D01*
X245801D01*
Y380949D01*
X245716Y381153D01*
X245981Y381330D01*
X246202Y381661D01*
X246279Y382051D01*
Y382732D01*
X241721D01*
Y382051D01*
X241798Y381661D01*
X242019Y381330D01*
X242284Y381153D01*
X242199Y380949D01*
Y378780D01*
X241046Y377628D01*
X239087D01*
X238704Y377469D01*
X238545Y377087D01*
Y371575D01*
X238704Y371192D01*
X239087Y371034D01*
X243614D01*
X243997Y371192D01*
X244155Y371575D01*
Y376960D01*
X244439Y377342D01*
X244500Y377396D01*
X244845Y377087D01*
Y371575D01*
X245003Y371192D01*
X245386Y371034D01*
X249913D01*
X250296Y371192D01*
X250455Y371575D01*
Y376757D01*
X250955Y376964D01*
X254164Y373755D01*
X254412Y373589D01*
X254349Y373092D01*
X254307D01*
X254014Y373033D01*
X253766Y372867D01*
X249865Y368966D01*
X245386D01*
X245003Y368808D01*
X244845Y368425D01*
Y362913D01*
X244987Y362569D01*
X243703Y361284D01*
X243642Y361296D01*
X243260Y361455D01*
X240740D01*
X240357Y361296D01*
X240199Y360913D01*
Y358551D01*
X240284Y358347D01*
X240019Y358170D01*
X239798Y357839D01*
X239721Y357449D01*
Y356768D01*
X242000D01*
Y355768D01*
X239721D01*
Y355087D01*
X239798Y354696D01*
X240019Y354366D01*
X240206Y354241D01*
X240145Y354150D01*
X240067Y353760D01*
Y353000D01*
X242268D01*
Y352500D01*
X242768D01*
Y350221D01*
X243047D01*
X243315Y349721D01*
X243195Y349541D01*
X243143Y349281D01*
X241319D01*
X240936Y349123D01*
X240778Y348740D01*
Y345787D01*
X240936Y345405D01*
X241319Y345246D01*
Y344754D01*
X240936Y344595D01*
X240778Y344213D01*
Y342170D01*
X240344Y342084D01*
X239788Y341712D01*
X239416Y341156D01*
X239286Y340500D01*
X239416Y339844D01*
X239788Y339288D01*
X240344Y338916D01*
X241000Y338786D01*
X241656Y338916D01*
X242212Y339288D01*
X242584Y339844D01*
X242714Y340500D01*
X242894Y340719D01*
X243681D01*
X244064Y340877D01*
X244222Y341260D01*
Y344213D01*
X244064Y344595D01*
X243681Y344754D01*
Y345246D01*
X244064Y345405D01*
X244222Y345787D01*
Y347102D01*
X244293Y347169D01*
X244348Y347165D01*
X244799Y346714D01*
Y346500D01*
X247000D01*
Y346000D01*
X247500D01*
Y343721D01*
X248181D01*
X248571Y343798D01*
X248902Y344019D01*
X249079Y344284D01*
X249284Y344199D01*
X251646D01*
X252028Y344357D01*
X252029Y344360D01*
X252648Y344547D01*
X252844Y344416D01*
X253500Y344286D01*
X254156Y344416D01*
X254712Y344788D01*
X255084Y345344D01*
X255214Y346000D01*
X255084Y346656D01*
X254712Y347212D01*
X254156Y347584D01*
X253500Y347714D01*
X252844Y347584D01*
X252648Y347453D01*
X252029Y347640D01*
X252028Y347642D01*
X251752Y347757D01*
Y349268D01*
X251674Y349658D01*
X251453Y349989D01*
X250337Y351105D01*
X250500Y351499D01*
Y353768D01*
X251500D01*
Y351567D01*
X252260D01*
X252650Y351645D01*
X252981Y351866D01*
X253202Y352196D01*
X253279Y352587D01*
Y353149D01*
X253779Y353301D01*
X253788Y353288D01*
X254344Y352916D01*
X255000Y352786D01*
X255508Y352887D01*
X255836Y352713D01*
X255990Y352538D01*
X256092Y352021D01*
X256153Y351930D01*
X256155Y351887D01*
X255915Y351386D01*
X255881Y351380D01*
X255832Y351347D01*
X255500Y351413D01*
X254959Y351305D01*
X254501Y350999D01*
X254195Y350541D01*
X254087Y350000D01*
X254195Y349459D01*
X254501Y349001D01*
X254959Y348695D01*
X255500Y348587D01*
X255974Y348681D01*
X256092Y348084D01*
X256444Y347558D01*
X256710Y347380D01*
X256563Y347162D01*
X256479Y346736D01*
X256563Y346311D01*
X256804Y345950D01*
X257165Y345709D01*
X257591Y345624D01*
X257701D01*
X258112Y345124D01*
X258087Y345000D01*
X258195Y344459D01*
X258501Y344001D01*
X258959Y343695D01*
X259500Y343587D01*
X260041Y343695D01*
X260499Y344001D01*
X260805Y344459D01*
X260913Y345000D01*
X260888Y345124D01*
X260992Y345336D01*
X261285Y345654D01*
X261559Y345709D01*
X261920Y345950D01*
X262161Y346311D01*
X262246Y346736D01*
X262161Y347162D01*
X262015Y347380D01*
X262281Y347558D01*
X262632Y348084D01*
X262656Y348205D01*
X259362D01*
Y349205D01*
X262656D01*
X262632Y349325D01*
X262281Y349851D01*
X262015Y350029D01*
X262161Y350248D01*
X262246Y350673D01*
X262161Y351099D01*
X262015Y351318D01*
X262281Y351495D01*
X262632Y352021D01*
X262656Y352142D01*
X259362D01*
Y353142D01*
X262656D01*
X262632Y353262D01*
X262281Y353788D01*
X262015Y353966D01*
X262161Y354185D01*
X262246Y354610D01*
X262161Y355036D01*
X262015Y355255D01*
X262281Y355432D01*
X262632Y355958D01*
X262656Y356079D01*
X259362D01*
Y357079D01*
X262656D01*
X262632Y357199D01*
X262389Y357563D01*
X262632Y357927D01*
X262656Y358047D01*
X259362D01*
Y359047D01*
X262656D01*
X262632Y359168D01*
X262281Y359694D01*
X262015Y359872D01*
X262161Y360090D01*
X262246Y360516D01*
X262161Y360941D01*
X262015Y361160D01*
X261994Y361281D01*
X262068Y361527D01*
X262195Y361720D01*
X263305D01*
X263598Y361778D01*
X263846Y361944D01*
X264970Y363068D01*
X265319Y362835D01*
X265860Y362727D01*
X266401Y362835D01*
X266859Y363141D01*
X267165Y363599D01*
X267273Y364140D01*
X267165Y364681D01*
X266859Y365139D01*
X266401Y365445D01*
X265893Y365546D01*
X265748Y365601D01*
X265511Y365838D01*
X265457Y365983D01*
X265356Y366490D01*
X265050Y366949D01*
X264591Y367255D01*
X264050Y367363D01*
X263510Y367255D01*
X263051Y366949D01*
X262745Y366490D01*
X262732Y366423D01*
X262724Y366385D01*
X262246Y366421D01*
X262232Y366491D01*
X262161Y366847D01*
X262015Y367066D01*
X262281Y367243D01*
X262632Y367769D01*
X262656Y367890D01*
X259362D01*
Y368890D01*
X262686D01*
X262747Y369049D01*
X262893Y369266D01*
X262996Y369366D01*
X263248Y369416D01*
X263579Y369637D01*
X264721Y370779D01*
X264942Y371110D01*
X265020Y371500D01*
Y378159D01*
X265212Y378288D01*
X265584Y378844D01*
X265714Y379500D01*
X265584Y380156D01*
X265212Y380712D01*
X265020Y380841D01*
Y382872D01*
X265500Y383286D01*
X265738Y383333D01*
X266124Y383016D01*
Y382366D01*
X266209Y381941D01*
X266450Y381580D01*
X266811Y381339D01*
X267236Y381254D01*
X267662Y381339D01*
X267881Y381485D01*
X268001Y381506D01*
X268248Y381432D01*
X268440Y381305D01*
Y380795D01*
X268498Y380503D01*
X268664Y380255D01*
X271459Y377459D01*
X271707Y377293D01*
X272000Y377235D01*
X301602D01*
X301870Y376735D01*
X301839Y376689D01*
X301754Y376264D01*
X301839Y375838D01*
X301985Y375620D01*
X301719Y375442D01*
X301368Y374916D01*
X301344Y374795D01*
X304638D01*
X307932D01*
X307908Y374916D01*
X307556Y375442D01*
X307291Y375620D01*
X307437Y375838D01*
X307521Y376264D01*
X307437Y376689D01*
X307406Y376735D01*
X307673Y377235D01*
X309183D01*
X310959Y375459D01*
X311207Y375293D01*
X311500Y375235D01*
X311500Y375235D01*
X323683D01*
X327235Y371683D01*
Y348000D01*
X327293Y347707D01*
X327459Y347459D01*
X336354Y338565D01*
X336341Y338500D01*
X336472Y337844D01*
X336843Y337288D01*
X337399Y336916D01*
X338055Y336786D01*
X341402D01*
X342057Y336916D01*
X342614Y337288D01*
X342913Y337735D01*
X345219D01*
Y337319D01*
X345377Y336936D01*
X345760Y336778D01*
X348713D01*
X349095Y336936D01*
X349254Y337319D01*
X349746D01*
X349905Y336936D01*
X350287Y336778D01*
X353240D01*
X353623Y336936D01*
X353781Y337319D01*
Y339681D01*
X353623Y340064D01*
X353263Y340213D01*
X353238Y340228D01*
X353002Y340722D01*
X353084Y340844D01*
X353214Y341500D01*
X353084Y342156D01*
X352712Y342712D01*
X352156Y343084D01*
X351500Y343214D01*
X350844Y343084D01*
X350288Y342712D01*
X349916Y342156D01*
X349786Y341500D01*
X349916Y340844D01*
X350039Y340661D01*
X349905Y340064D01*
X349716Y339785D01*
X349200Y339810D01*
X349095Y340064D01*
X348713Y340222D01*
X345760D01*
X345377Y340064D01*
X345219Y339681D01*
Y339265D01*
X342913D01*
X342614Y339712D01*
X342057Y340084D01*
X341402Y340214D01*
X338055D01*
X337399Y340084D01*
X337159Y339923D01*
X328765Y348317D01*
Y350803D01*
X329265Y350852D01*
X329293Y350707D01*
X329459Y350459D01*
X336354Y343565D01*
X336341Y343500D01*
X336472Y342844D01*
X336843Y342288D01*
X337399Y341916D01*
X338055Y341786D01*
X341402D01*
X342057Y341916D01*
X342614Y342288D01*
X342985Y342844D01*
X343116Y343500D01*
X342985Y344156D01*
X342614Y344712D01*
X342057Y345084D01*
X341402Y345214D01*
X338055D01*
X337399Y345084D01*
X337159Y344923D01*
X330765Y351317D01*
Y373000D01*
X330765Y373000D01*
X330707Y373293D01*
X330541Y373541D01*
X325846Y378235D01*
X326053Y378735D01*
X327683D01*
X331735Y374683D01*
Y366000D01*
Y353000D01*
X331793Y352707D01*
X331959Y352459D01*
X336446Y347973D01*
X336472Y347844D01*
X336843Y347288D01*
X337399Y346916D01*
X338055Y346786D01*
X341402D01*
X342057Y346916D01*
X342614Y347288D01*
X342985Y347844D01*
X343116Y348500D01*
X342985Y349156D01*
X342614Y349712D01*
X342057Y350084D01*
X341402Y350214D01*
X338055D01*
X337399Y350084D01*
X336859Y349723D01*
X333265Y353317D01*
Y363488D01*
X333646Y363751D01*
X333765Y363782D01*
X334000Y363735D01*
X342183D01*
X342734Y363184D01*
X342577Y362635D01*
X342405Y362564D01*
X342246Y362181D01*
X341754D01*
X341595Y362564D01*
X341213Y362722D01*
X338260D01*
X337877Y362564D01*
X337719Y362181D01*
Y359819D01*
X337877Y359436D01*
X338260Y359278D01*
X338971D01*
Y355214D01*
X338055D01*
X337399Y355084D01*
X336843Y354712D01*
X336472Y354156D01*
X336341Y353500D01*
X336472Y352844D01*
X336843Y352288D01*
X337399Y351916D01*
X338055Y351786D01*
X341402D01*
X342057Y351916D01*
X342324Y352095D01*
X344723Y349695D01*
X344971Y349530D01*
X345264Y349471D01*
X346278D01*
Y348760D01*
X346436Y348377D01*
X346819Y348219D01*
X349181D01*
X349564Y348377D01*
X349722Y348760D01*
Y351713D01*
X349564Y352095D01*
X349181Y352254D01*
Y352746D01*
X349564Y352905D01*
X349722Y353287D01*
Y356240D01*
X349564Y356623D01*
X349485Y357197D01*
X349584Y357344D01*
X349714Y358000D01*
X349584Y358656D01*
X349212Y359212D01*
X348656Y359584D01*
X348000Y359714D01*
X347344Y359584D01*
X346788Y359212D01*
X346416Y358656D01*
X346286Y358000D01*
X346416Y357344D01*
X346515Y357197D01*
X346436Y356623D01*
X346278Y356240D01*
Y353287D01*
X346436Y352905D01*
X346819Y352746D01*
Y352254D01*
X346436Y352095D01*
X346278Y351713D01*
Y351001D01*
X345581D01*
X343110Y353471D01*
X343116Y353500D01*
X342985Y354156D01*
X342614Y354712D01*
X342057Y355084D01*
X341402Y355214D01*
X340501D01*
Y359278D01*
X341213D01*
X341595Y359436D01*
X341754Y359819D01*
X342246D01*
X342405Y359436D01*
X342787Y359278D01*
X345740D01*
X346123Y359436D01*
X346281Y359819D01*
Y362181D01*
X346123Y362564D01*
X345740Y362722D01*
X345028D01*
Y362736D01*
X344970Y363029D01*
X344805Y363277D01*
X343041Y365041D01*
X342793Y365207D01*
X342500Y365265D01*
X334317D01*
X333265Y366317D01*
Y375000D01*
X333207Y375293D01*
X333041Y375541D01*
X328541Y380041D01*
X328293Y380206D01*
X328000Y380265D01*
X328007Y380762D01*
X328453D01*
X328835Y380920D01*
X329054Y380921D01*
X329437Y380762D01*
X331012D01*
X331395Y380920D01*
X331613Y380921D01*
X331996Y380762D01*
X333571D01*
X333731Y380828D01*
X334231Y380544D01*
Y378157D01*
X334231Y378157D01*
X334315Y377732D01*
X334556Y377371D01*
X337056Y374871D01*
X337056Y374871D01*
X337417Y374630D01*
X337842Y374546D01*
X339990D01*
Y373886D01*
X340124Y373563D01*
X340130Y373398D01*
X340057Y373000D01*
X339810Y372835D01*
X339590Y372504D01*
X339512Y372114D01*
Y370843D01*
X342500D01*
X345488D01*
Y372114D01*
X345410Y372504D01*
X345189Y372835D01*
X344943Y373000D01*
X344870Y373398D01*
X344876Y373563D01*
X345010Y373886D01*
Y374546D01*
X349157D01*
X349158Y374546D01*
X349583Y374630D01*
X349944Y374871D01*
X353961Y378888D01*
X356572D01*
X356823Y378388D01*
X356734Y378173D01*
Y371874D01*
X356893Y371491D01*
X357276Y371333D01*
X358457D01*
X358839Y371491D01*
X358875Y371578D01*
X359416D01*
X359452Y371491D01*
X359835Y371333D01*
X361016D01*
X361398Y371491D01*
X361434Y371578D01*
X361975D01*
X362011Y371491D01*
X362394Y371333D01*
X363575D01*
X363958Y371491D01*
X363993Y371578D01*
X364534D01*
X364570Y371491D01*
X364953Y371333D01*
X366134D01*
X366533Y371471D01*
X366791Y371153D01*
X367122Y370932D01*
X367512Y370854D01*
X367602D01*
Y375024D01*
X368602D01*
Y370854D01*
X368693D01*
X369083Y370932D01*
X369382Y371132D01*
X369681Y370932D01*
X370071Y370854D01*
X370162D01*
Y375024D01*
X371162D01*
Y370854D01*
X371252D01*
X371642Y370932D01*
X371973Y371153D01*
X372231Y371471D01*
X372630Y371333D01*
X373811D01*
X374194Y371491D01*
X374229Y371578D01*
X374771D01*
X374806Y371491D01*
X375189Y371333D01*
X376370D01*
X376753Y371491D01*
X376788Y371578D01*
X377330D01*
X377365Y371491D01*
X377748Y371333D01*
X378929D01*
X379312Y371491D01*
X379347Y371578D01*
X379889D01*
X379924Y371491D01*
X380307Y371333D01*
X381488D01*
X381887Y371471D01*
X382145Y371153D01*
X382476Y370932D01*
X382866Y370854D01*
X382957D01*
Y375024D01*
Y379193D01*
X382866D01*
X382476Y379115D01*
X382145Y378894D01*
X381887Y378576D01*
X381488Y378714D01*
X381174D01*
X380730Y378882D01*
X380645Y379307D01*
X380404Y379668D01*
X380404Y379668D01*
X379801Y380272D01*
Y381449D01*
X379716Y381653D01*
X379981Y381830D01*
X380202Y382161D01*
X380279Y382551D01*
Y383232D01*
X375721D01*
Y382551D01*
X375798Y382161D01*
X375986Y381880D01*
X375929Y381651D01*
X375794Y381380D01*
X364206D01*
X364071Y381651D01*
X364014Y381880D01*
X364202Y382161D01*
X364279Y382551D01*
Y383232D01*
X359721D01*
Y382551D01*
X359798Y382161D01*
X360019Y381830D01*
X360284Y381653D01*
X360199Y381449D01*
Y381112D01*
X353500D01*
X353075Y381027D01*
X352714Y380786D01*
X348697Y376769D01*
X345010D01*
Y377429D01*
X344851Y377812D01*
X344468Y377970D01*
X340531D01*
X340149Y377812D01*
X339990Y377429D01*
Y376769D01*
X338303D01*
X336454Y378618D01*
Y380896D01*
X336513Y380921D01*
X336671Y381303D01*
Y386618D01*
X336513Y387001D01*
X336130Y387159D01*
X334555D01*
X334465Y387122D01*
X334228Y387334D01*
X334099Y387512D01*
X334196Y388000D01*
X334089Y388541D01*
X333783Y388999D01*
X333324Y389305D01*
X332784Y389413D01*
X332243Y389305D01*
X331812Y389018D01*
X331672Y388954D01*
X331336D01*
X331195Y389018D01*
X330765Y389305D01*
X330224Y389413D01*
X329684Y389305D01*
X329225Y388999D01*
X328919Y388541D01*
X328811Y388000D01*
X328909Y387512D01*
X328780Y387334D01*
X328543Y387122D01*
X328453Y387159D01*
X326878D01*
X326766Y387113D01*
X326615Y387339D01*
X326284Y387560D01*
X325894Y387638D01*
X325606D01*
Y383961D01*
X324606D01*
Y387638D01*
X324319D01*
X323929Y387560D01*
X323673Y387389D01*
X323379Y387475D01*
X323186Y387594D01*
X323173Y387603D01*
X323095Y387993D01*
X322874Y388323D01*
X322544Y388544D01*
X322153Y388622D01*
X318520D01*
Y384453D01*
X317520D01*
Y388622D01*
X313886D01*
X313496Y388544D01*
X313431Y388501D01*
X313072Y388573D01*
X312351Y389055D01*
X312000Y389124D01*
Y387000D01*
X311000D01*
Y389124D01*
X310649Y389055D01*
X310265Y388798D01*
X309765Y389065D01*
Y394000D01*
X309706Y394293D01*
X309541Y394541D01*
X306541Y397541D01*
X306293Y397707D01*
X306000Y397765D01*
D02*
G37*
G36*
X344488Y397874D02*
X341248D01*
X340858Y397796D01*
X340527Y397575D01*
X340306Y397245D01*
X340229Y396854D01*
Y394500D01*
X344488D01*
Y397874D01*
D02*
G37*
G36*
X348728D02*
X345488D01*
Y394000D01*
Y390126D01*
X348728D01*
X349118Y390204D01*
X349449Y390425D01*
X349670Y390756D01*
X349748Y391146D01*
Y391658D01*
X350248Y391926D01*
X350500Y391876D01*
Y394000D01*
Y396124D01*
X350248Y396074D01*
X349748Y396342D01*
Y396854D01*
X349670Y397245D01*
X349449Y397575D01*
X349118Y397796D01*
X348728Y397874D01*
D02*
G37*
G36*
X353124Y393500D02*
X351500D01*
Y391876D01*
X351851Y391945D01*
X352572Y392427D01*
X353055Y393149D01*
X353124Y393500D01*
D02*
G37*
G36*
X258862Y377886D02*
X257591D01*
X256970Y377762D01*
X256444Y377411D01*
X256092Y376884D01*
X256068Y376764D01*
X258862D01*
Y377886D01*
D02*
G37*
G36*
X395390Y339441D02*
X393000D01*
Y337248D01*
X394370D01*
X394760Y337326D01*
X395091Y337547D01*
X395312Y337877D01*
X395390Y338268D01*
Y339441D01*
D02*
G37*
G36*
X322069Y353000D02*
X318772D01*
Y351276D01*
X319945D01*
X320796Y351445D01*
X321517Y351927D01*
X321999Y352649D01*
X322069Y353000D01*
D02*
G37*
G36*
X317772D02*
X314474D01*
X314544Y352649D01*
X315026Y351927D01*
X315747Y351445D01*
X316598Y351276D01*
X317772D01*
Y353000D01*
D02*
G37*
G36*
X319945Y345214D02*
X316598D01*
X315943Y345084D01*
X315386Y344712D01*
X315015Y344156D01*
X314884Y343500D01*
X315015Y342844D01*
X315386Y342288D01*
X315943Y341916D01*
X316598Y341786D01*
X319945D01*
X320601Y341916D01*
X321157Y342288D01*
X321529Y342844D01*
X321659Y343500D01*
X321529Y344156D01*
X321157Y344712D01*
X320601Y345084D01*
X319945Y345214D01*
D02*
G37*
G36*
X392000Y339441D02*
X389610D01*
Y338268D01*
X389688Y337877D01*
X389909Y337547D01*
X390240Y337326D01*
X390630Y337248D01*
X392000D01*
Y339441D01*
D02*
G37*
G36*
X391724Y356667D02*
X390543D01*
X390161Y356509D01*
X390125Y356422D01*
X389584D01*
X389548Y356509D01*
X389165Y356667D01*
X387984D01*
X387602Y356509D01*
X387566Y356422D01*
X387025D01*
X386989Y356509D01*
X386606Y356667D01*
X385425D01*
X385043Y356509D01*
X385007Y356422D01*
X384466D01*
X384430Y356509D01*
X384047Y356667D01*
X382866D01*
X382483Y356509D01*
X382448Y356422D01*
X381907D01*
X381871Y356509D01*
X381488Y356667D01*
X380307D01*
X379924Y356509D01*
X379889Y356422D01*
X379347D01*
X379312Y356509D01*
X378929Y356667D01*
X377748D01*
X377365Y356509D01*
X377330Y356422D01*
X376788D01*
X376753Y356509D01*
X376370Y356667D01*
X375189D01*
X374806Y356509D01*
X374771Y356422D01*
X374229D01*
X374194Y356509D01*
X373811Y356667D01*
X372630D01*
X372247Y356509D01*
X372212Y356422D01*
X371670D01*
X371635Y356509D01*
X371252Y356667D01*
X370071D01*
X369688Y356509D01*
X369653Y356422D01*
X369111D01*
X369076Y356509D01*
X368693Y356667D01*
X367512D01*
X367129Y356509D01*
X367093Y356422D01*
X366552D01*
X366517Y356509D01*
X366134Y356667D01*
X364953D01*
X364570Y356509D01*
X364534Y356422D01*
X363993D01*
X363958Y356509D01*
X363575Y356667D01*
X362394D01*
X362011Y356509D01*
X361975Y356422D01*
X361434D01*
X361398Y356509D01*
X361016Y356667D01*
X359835D01*
X359452Y356509D01*
X359416Y356422D01*
X358875D01*
X358839Y356509D01*
X358457Y356667D01*
X357276D01*
X356893Y356509D01*
X356734Y356126D01*
Y349827D01*
X356893Y349444D01*
X357276Y349286D01*
X358457D01*
X358839Y349444D01*
X358875Y349530D01*
X359416D01*
X359452Y349444D01*
X359835Y349286D01*
X361016D01*
X361398Y349444D01*
X361872Y349282D01*
Y348010D01*
X360886D01*
X360563Y347876D01*
X360399Y347870D01*
X360000Y347943D01*
X359835Y348189D01*
X359504Y348411D01*
X359114Y348488D01*
X357842D01*
Y345500D01*
Y342512D01*
X359114D01*
X359504Y342589D01*
X359835Y342811D01*
X360000Y343057D01*
X360399Y343130D01*
X360563Y343124D01*
X360886Y342990D01*
X361140Y342490D01*
X360916Y342156D01*
X360786Y341500D01*
X360916Y340844D01*
X361288Y340288D01*
X361844Y339916D01*
X362500Y339786D01*
X363156Y339916D01*
X363712Y340288D01*
X364084Y340844D01*
X364214Y341500D01*
X364084Y342156D01*
X363860Y342490D01*
X364056Y342990D01*
X364429D01*
X364812Y343149D01*
X364970Y343531D01*
Y343932D01*
X365470Y344166D01*
X365844Y343916D01*
X366500Y343786D01*
X367156Y343916D01*
X367712Y344288D01*
X368084Y344844D01*
X368214Y345500D01*
X368084Y346156D01*
X367712Y346712D01*
X367156Y347084D01*
X366500Y347214D01*
X365844Y347084D01*
X365470Y346834D01*
X364970Y347068D01*
Y347468D01*
X364812Y347851D01*
X364429Y348010D01*
X364096D01*
Y349282D01*
X364570Y349444D01*
X364953Y349286D01*
X366134D01*
X366517Y349444D01*
X366552Y349530D01*
X367093D01*
X367129Y349444D01*
X367512Y349286D01*
X368693D01*
X369076Y349444D01*
X369111Y349530D01*
X369653D01*
X369688Y349444D01*
X370071Y349286D01*
X371252D01*
X371635Y349444D01*
X371670Y349530D01*
X372212D01*
X372247Y349444D01*
X372630Y349286D01*
X373811D01*
X374194Y349444D01*
X374229Y349530D01*
X374771D01*
X374806Y349444D01*
X375189Y349286D01*
X376370D01*
X376753Y349444D01*
X377227Y349282D01*
X377319Y349194D01*
Y347510D01*
X376886D01*
X376563Y347376D01*
X376398Y347370D01*
X376000Y347443D01*
X375835Y347690D01*
X375504Y347910D01*
X375114Y347988D01*
X373843D01*
Y345000D01*
Y342012D01*
X375114D01*
X375504Y342090D01*
X375835Y342311D01*
X376000Y342557D01*
X376398Y342630D01*
X376563Y342624D01*
X376886Y342490D01*
X377144D01*
Y341284D01*
X375968Y340108D01*
X375844Y340084D01*
X375288Y339712D01*
X374916Y339156D01*
X374786Y338500D01*
X374916Y337844D01*
X375288Y337288D01*
X375844Y336916D01*
X376500Y336786D01*
X377156Y336916D01*
X377261Y336987D01*
X380500D01*
X380500Y336987D01*
X381079Y337102D01*
X381570Y337430D01*
X382568Y338428D01*
X383589D01*
Y338268D01*
X383747Y337885D01*
X384130Y337726D01*
X387870D01*
X388253Y337885D01*
X388411Y338268D01*
Y341614D01*
X388253Y341997D01*
X387870Y342155D01*
X384130D01*
X383747Y341997D01*
X383589Y341614D01*
Y341454D01*
X381941D01*
X381941Y341454D01*
X381362Y341339D01*
X380871Y341011D01*
X380671Y340811D01*
X380171Y341018D01*
Y342490D01*
X380429D01*
X380812Y342649D01*
X380970Y343032D01*
Y346969D01*
X380812Y347351D01*
X380429Y347510D01*
X379358D01*
Y349194D01*
X379450Y349282D01*
X379924Y349444D01*
X380307Y349286D01*
X381488D01*
X381871Y349444D01*
X382368Y349432D01*
X382692Y349131D01*
Y347602D01*
X382750Y347310D01*
X382916Y347062D01*
X383589Y346389D01*
Y343386D01*
X383747Y343003D01*
X384130Y342845D01*
X387870D01*
X388253Y343003D01*
X388411Y343386D01*
Y344294D01*
X390089D01*
Y343386D01*
X390223Y343063D01*
X390228Y342899D01*
X390156Y342500D01*
X389909Y342335D01*
X389688Y342004D01*
X389610Y341614D01*
Y340441D01*
X395390D01*
Y341614D01*
X395312Y342004D01*
X395091Y342335D01*
X394844Y342500D01*
X394772Y342899D01*
X394777Y343063D01*
X394911Y343386D01*
Y346732D01*
X394753Y347115D01*
X394370Y347273D01*
X390630D01*
X390247Y347115D01*
X390089Y346732D01*
Y345824D01*
X388411D01*
Y346732D01*
X388253Y347115D01*
X387870Y347273D01*
X384867D01*
X384221Y347919D01*
Y349358D01*
X384430Y349444D01*
X384466Y349530D01*
X385007D01*
X385043Y349444D01*
X385425Y349286D01*
X386606D01*
X386989Y349444D01*
X387025Y349530D01*
X387566D01*
X387602Y349444D01*
X387984Y349286D01*
X389165D01*
X389548Y349444D01*
X389584Y349530D01*
X390125D01*
X390161Y349444D01*
X390543Y349286D01*
X391724D01*
X392107Y349444D01*
X392266Y349827D01*
Y356126D01*
X392107Y356509D01*
X391724Y356667D01*
D02*
G37*
G36*
X317772Y355724D02*
X316598D01*
X315747Y355555D01*
X315026Y355072D01*
X314544Y354351D01*
X314474Y354000D01*
X317772D01*
Y355724D01*
D02*
G37*
G36*
X319945D02*
X318772D01*
Y354000D01*
X322069D01*
X321999Y354351D01*
X321517Y355072D01*
X320796Y355555D01*
X319945Y355724D01*
D02*
G37*
G36*
X372843Y344500D02*
X370551D01*
Y343032D01*
X370629Y342641D01*
X370850Y342311D01*
X371181Y342090D01*
X371571Y342012D01*
X372843D01*
Y344500D01*
D02*
G37*
G36*
X279000Y346124D02*
X278649Y346055D01*
X277927Y345572D01*
X277445Y344851D01*
X277376Y344500D01*
X279000D01*
Y346124D01*
D02*
G37*
G36*
X372843Y347988D02*
X371571D01*
X371181Y347910D01*
X370850Y347690D01*
X370629Y347359D01*
X370551Y346969D01*
Y345500D01*
X372843D01*
Y347988D01*
D02*
G37*
G36*
X246500Y345500D02*
X244799D01*
Y344740D01*
X244877Y344350D01*
X245098Y344019D01*
X245429Y343798D01*
X245819Y343721D01*
X246500D01*
Y345500D01*
D02*
G37*
G36*
X313779Y344768D02*
X312000D01*
Y343067D01*
X312760D01*
X313150Y343145D01*
X313481Y343366D01*
X313702Y343696D01*
X313779Y344087D01*
Y344768D01*
D02*
G37*
G36*
X241768Y352000D02*
X240067D01*
Y351240D01*
X240145Y350850D01*
X240366Y350519D01*
X240696Y350298D01*
X241087Y350221D01*
X241768D01*
Y352000D01*
D02*
G37*
G36*
X356842Y345000D02*
X354551D01*
Y343531D01*
X354629Y343141D01*
X354850Y342811D01*
X355181Y342589D01*
X355571Y342512D01*
X356842D01*
Y345000D01*
D02*
G37*
G36*
Y348488D02*
X355571D01*
X355181Y348411D01*
X354850Y348189D01*
X354629Y347859D01*
X354551Y347468D01*
Y346000D01*
X356842D01*
Y348488D01*
D02*
G37*
G36*
X312760Y350455D02*
X310240D01*
X309858Y350296D01*
X309699Y349913D01*
Y347551D01*
X309784Y347346D01*
X309519Y347170D01*
X309298Y346839D01*
X309221Y346449D01*
Y345768D01*
X311500D01*
X313779D01*
Y346449D01*
X313702Y346839D01*
X313607Y346980D01*
X313847Y347480D01*
X315258D01*
X315386Y347288D01*
X315943Y346916D01*
X316598Y346786D01*
X319945D01*
X320601Y346916D01*
X321157Y347288D01*
X321286Y347480D01*
X322159D01*
X322288Y347288D01*
X322844Y346916D01*
X323500Y346786D01*
X324156Y346916D01*
X324712Y347288D01*
X325084Y347844D01*
X325214Y348500D01*
X325084Y349156D01*
X324712Y349712D01*
X324156Y350084D01*
X323500Y350214D01*
X322844Y350084D01*
X322288Y349712D01*
X322159Y349520D01*
X321286D01*
X321157Y349712D01*
X320601Y350084D01*
X319945Y350214D01*
X316598D01*
X315943Y350084D01*
X315386Y349712D01*
X315258Y349520D01*
X313301D01*
Y349913D01*
X313142Y350296D01*
X312760Y350455D01*
D02*
G37*
G36*
X374000Y363500D02*
X360764D01*
Y359276D01*
X360841Y358885D01*
X361063Y358555D01*
X361393Y358334D01*
X361784Y358256D01*
X374000D01*
Y363500D01*
D02*
G37*
G36*
X243614Y368966D02*
X239087D01*
X238704Y368808D01*
X238545Y368425D01*
Y362913D01*
X238704Y362531D01*
X239087Y362372D01*
X243614D01*
X243997Y362531D01*
X244155Y362913D01*
Y368425D01*
X243997Y368808D01*
X243614Y368966D01*
D02*
G37*
G36*
X342000Y369843D02*
X339512D01*
Y368571D01*
X339590Y368181D01*
X339810Y367850D01*
X340141Y367629D01*
X340531Y367551D01*
X342000D01*
Y369843D01*
D02*
G37*
G36*
X345488D02*
X343000D01*
Y367551D01*
X344468D01*
X344859Y367629D01*
X345189Y367850D01*
X345410Y368181D01*
X345488Y368571D01*
Y369843D01*
D02*
G37*
G36*
X374000Y369744D02*
X361784D01*
X361393Y369666D01*
X361063Y369445D01*
X360841Y369115D01*
X360764Y368724D01*
Y364500D01*
X374000D01*
Y369744D01*
D02*
G37*
G36*
X324740Y364201D02*
X323764D01*
Y362500D01*
X325760D01*
Y363181D01*
X325682Y363571D01*
X325461Y363902D01*
X325130Y364123D01*
X324740Y364201D01*
D02*
G37*
G36*
X387216Y369744D02*
X375000D01*
Y364500D01*
X388236D01*
Y368724D01*
X388158Y369115D01*
X387937Y369445D01*
X387607Y369666D01*
X387216Y369744D01*
D02*
G37*
G36*
X341413Y333301D02*
X339051D01*
X338668Y333142D01*
X338332D01*
X338279Y333164D01*
X337949Y333301D01*
X335587D01*
X335204Y333142D01*
X335045Y332760D01*
Y332020D01*
X331281D01*
Y332181D01*
X331123Y332564D01*
X330740Y332722D01*
X327787D01*
X327405Y332564D01*
X327246Y332181D01*
X326754D01*
X326595Y332564D01*
X326213Y332722D01*
X323260D01*
X322877Y332564D01*
X322719Y332181D01*
Y332020D01*
X321341D01*
X321212Y332212D01*
X320656Y332584D01*
X320000Y332714D01*
X319344Y332584D01*
X318788Y332212D01*
X318416Y331656D01*
X318286Y331000D01*
X318416Y330344D01*
X318788Y329788D01*
X319344Y329416D01*
X320000Y329286D01*
X320656Y329416D01*
X321212Y329788D01*
X321341Y329980D01*
X322719D01*
Y329819D01*
X322877Y329436D01*
X323260Y329278D01*
X326213D01*
X326595Y329436D01*
X326754Y329819D01*
X327246D01*
X327405Y329436D01*
X327787Y329278D01*
X330740D01*
X331123Y329436D01*
X331281Y329819D01*
Y329980D01*
X334323D01*
Y326510D01*
X333571D01*
X333188Y326351D01*
X333030Y325969D01*
Y324888D01*
X332779Y324721D01*
X330279Y322221D01*
X330058Y321890D01*
X329980Y321500D01*
Y318161D01*
X328343D01*
X327879Y318069D01*
X327485Y317806D01*
X327222Y317413D01*
X327130Y316949D01*
X327222Y316485D01*
X327325Y316332D01*
X327444Y315965D01*
X327325Y315597D01*
X327222Y315444D01*
X327130Y314980D01*
X327222Y314516D01*
X327325Y314363D01*
X327444Y313996D01*
X327325Y313629D01*
X327222Y313476D01*
X327130Y313012D01*
X327222Y312548D01*
X327485Y312155D01*
Y311900D01*
X327222Y311507D01*
X327130Y311043D01*
X327222Y310579D01*
X327325Y310426D01*
X327444Y310059D01*
X327325Y309692D01*
X327222Y309539D01*
X327130Y309075D01*
X327192Y308765D01*
X326898Y308265D01*
X325156D01*
X324999Y308499D01*
X324541Y308805D01*
X324000Y308913D01*
X323459Y308805D01*
X323001Y308499D01*
X322695Y308041D01*
X322587Y307500D01*
X322695Y306959D01*
X322857Y306717D01*
X322496Y306356D01*
X322156Y306584D01*
X321500Y306714D01*
X320844Y306584D01*
X320288Y306212D01*
X319916Y305656D01*
X319786Y305000D01*
X319916Y304344D01*
X320288Y303788D01*
X320844Y303416D01*
X321500Y303286D01*
X322027Y303391D01*
X322375Y303172D01*
X322494Y303041D01*
X322588Y302566D01*
X322895Y302107D01*
X323353Y301801D01*
X323634Y301235D01*
X323587Y301000D01*
X323660Y300634D01*
X323357Y300134D01*
X318588D01*
X318584Y300156D01*
X318212Y300712D01*
X317656Y301084D01*
X317000Y301214D01*
X316344Y301084D01*
X315788Y300712D01*
X315416Y300156D01*
X315286Y299500D01*
X315416Y298844D01*
X315788Y298288D01*
X316344Y297916D01*
X317000Y297786D01*
X317656Y297916D01*
X317922Y298095D01*
X322463D01*
X322731Y297595D01*
X322695Y297541D01*
X322587Y297000D01*
X322695Y296459D01*
X323001Y296001D01*
X323459Y295695D01*
X323743Y295638D01*
X324001Y295583D01*
X324107Y295098D01*
X324087Y295000D01*
X324195Y294459D01*
X324501Y294001D01*
X324502Y294000D01*
Y293500D01*
X324501Y293499D01*
X324195Y293041D01*
X324087Y292500D01*
X324195Y291959D01*
X324322Y291769D01*
X324428Y291412D01*
X324194Y291128D01*
X324001Y290999D01*
X323695Y290541D01*
X323587Y290000D01*
X323695Y289459D01*
X324001Y289001D01*
X324459Y288695D01*
X324522Y288682D01*
X324752Y288127D01*
X324695Y288041D01*
X324587Y287500D01*
X324695Y286959D01*
X325001Y286501D01*
X325459Y286195D01*
X326000Y286087D01*
X326541Y286195D01*
X326949Y286467D01*
X326985Y286479D01*
X327009Y286471D01*
X327318Y286059D01*
X327222Y285917D01*
X327130Y285453D01*
X327222Y284989D01*
X327325Y284836D01*
X327444Y284469D01*
X327325Y284101D01*
X327222Y283948D01*
X327130Y283484D01*
X327222Y283020D01*
X327485Y282627D01*
Y282373D01*
X327222Y281980D01*
X327130Y281516D01*
X327222Y281052D01*
X327325Y280899D01*
X327444Y280532D01*
X327325Y280164D01*
X327222Y280011D01*
X327130Y279547D01*
X327222Y279083D01*
X327325Y278930D01*
X327444Y278563D01*
X327325Y278196D01*
X327222Y278043D01*
X327130Y277579D01*
X327222Y277115D01*
X327485Y276722D01*
Y276467D01*
X327222Y276074D01*
X327130Y275610D01*
X327222Y275146D01*
X327325Y274993D01*
X327125Y274859D01*
X326751Y274301D01*
X326720Y274142D01*
X330311D01*
X333902D01*
X333871Y274301D01*
X333497Y274859D01*
X333297Y274993D01*
X333400Y275146D01*
X333492Y275610D01*
X333400Y276074D01*
X333137Y276467D01*
Y276722D01*
X333400Y277115D01*
X333492Y277579D01*
X333400Y278043D01*
X333297Y278196D01*
X333178Y278563D01*
X333297Y278930D01*
X333400Y279083D01*
X333492Y279547D01*
X333400Y280011D01*
X333297Y280164D01*
X333178Y280532D01*
X333297Y280899D01*
X333400Y281052D01*
X333492Y281516D01*
X333400Y281980D01*
X333137Y282373D01*
Y282627D01*
X333400Y283020D01*
X333492Y283484D01*
X333400Y283948D01*
X333297Y284101D01*
X333178Y284469D01*
X333297Y284836D01*
X333400Y284989D01*
X333492Y285453D01*
X333400Y285917D01*
X333137Y286310D01*
Y286564D01*
X333400Y286957D01*
X333492Y287421D01*
X333400Y287885D01*
X333297Y288038D01*
X333178Y288405D01*
X333297Y288773D01*
X333400Y288926D01*
X333492Y289390D01*
X333400Y289854D01*
X333297Y290007D01*
X333178Y290374D01*
X333297Y290741D01*
X333366Y290845D01*
X333477Y290908D01*
X333928Y290990D01*
X335199Y289720D01*
Y288551D01*
X335284Y288347D01*
X335019Y288170D01*
X334798Y287839D01*
X334721Y287449D01*
Y286768D01*
X339279D01*
Y287449D01*
X339202Y287839D01*
X338981Y288170D01*
X338716Y288347D01*
X338801Y288551D01*
Y290913D01*
X338643Y291296D01*
X338260Y291455D01*
X335740D01*
X335660Y291421D01*
X334765Y292317D01*
Y293279D01*
X334889Y293394D01*
X335265Y293604D01*
X335531Y293551D01*
X337000D01*
Y296342D01*
X337500D01*
Y296843D01*
X340488D01*
Y298114D01*
X340410Y298504D01*
X340190Y298835D01*
X339943Y299000D01*
X339870Y299398D01*
X339876Y299563D01*
X340010Y299886D01*
Y303429D01*
X339851Y303812D01*
X339469Y303970D01*
X338520D01*
Y304000D01*
X338442Y304390D01*
X338221Y304721D01*
X337804Y305138D01*
X338212Y305545D01*
X338760D01*
X339142Y305704D01*
X339301Y306087D01*
Y308449D01*
X339216Y308653D01*
X339481Y308830D01*
X339702Y309161D01*
X339779Y309551D01*
Y310232D01*
X337500D01*
X335221D01*
Y309551D01*
X335298Y309161D01*
X335519Y308830D01*
X335784Y308653D01*
X335699Y308449D01*
Y306157D01*
X333677D01*
X333400Y306641D01*
X333402Y306657D01*
X333492Y307106D01*
X333400Y307570D01*
X333297Y307723D01*
X333178Y308090D01*
X333297Y308458D01*
X333400Y308611D01*
X333492Y309075D01*
X333400Y309539D01*
X333297Y309692D01*
X333178Y310059D01*
X333297Y310426D01*
X333400Y310579D01*
X333492Y311043D01*
X333400Y311507D01*
X333137Y311900D01*
Y312155D01*
X333400Y312548D01*
X333492Y313012D01*
X333402Y313461D01*
X333400Y313477D01*
X333677Y313961D01*
X337980D01*
X338370Y314038D01*
X338701Y314259D01*
X341378Y316936D01*
X341599Y317267D01*
X341677Y317657D01*
Y321490D01*
X342429D01*
X342812Y321649D01*
X342970Y322031D01*
Y325969D01*
X342812Y326351D01*
X342429Y326510D01*
X341252D01*
Y329699D01*
X341413D01*
X341796Y329857D01*
X341955Y330240D01*
Y332760D01*
X341796Y333142D01*
X341413Y333301D01*
D02*
G37*
G36*
X256500Y337624D02*
X256149Y337555D01*
X255428Y337072D01*
X254945Y336351D01*
X254876Y336000D01*
X256500D01*
Y337624D01*
D02*
G37*
G36*
X323240Y374722D02*
X320287D01*
X319905Y374564D01*
X319746Y374181D01*
X319254D01*
X319095Y374564D01*
X318713Y374722D01*
X315760D01*
X315377Y374564D01*
X315219Y374181D01*
Y373765D01*
X309500D01*
X309207Y373707D01*
X308959Y373541D01*
X308959Y373541D01*
X308154Y372735D01*
X307613Y372877D01*
X307556Y373149D01*
X307908Y373675D01*
X307932Y373795D01*
X304638D01*
X301344D01*
X301368Y373675D01*
X301719Y373149D01*
X301985Y372971D01*
X301839Y372752D01*
X301754Y372327D01*
X301839Y371901D01*
X301985Y371683D01*
X302045Y371342D01*
X301985Y371003D01*
X301839Y370784D01*
X301754Y370358D01*
X301839Y369933D01*
X301985Y369714D01*
X302006Y369593D01*
X301932Y369347D01*
X301805Y369155D01*
X301229D01*
X300999Y369499D01*
X300541Y369805D01*
X300000Y369913D01*
X299459Y369805D01*
X299179Y369618D01*
X298836Y369931D01*
X298808Y369971D01*
X298913Y370500D01*
X298805Y371041D01*
X298499Y371499D01*
X298041Y371805D01*
X297500Y371913D01*
X296959Y371805D01*
X296501Y371499D01*
X296195Y371041D01*
X296087Y370500D01*
X296195Y369959D01*
X296501Y369501D01*
X296735Y369344D01*
Y368500D01*
X296794Y368207D01*
X296959Y367959D01*
X297799Y367120D01*
X297651Y366613D01*
X297621Y366590D01*
X297000Y366714D01*
X296344Y366584D01*
X295788Y366212D01*
X295765Y366177D01*
X295265Y366329D01*
Y370844D01*
X295499Y371001D01*
X295805Y371459D01*
X295913Y372000D01*
X295805Y372541D01*
X295499Y372999D01*
X295041Y373305D01*
X294500Y373413D01*
X293959Y373305D01*
X293501Y372999D01*
X293195Y372541D01*
X293087Y372000D01*
X293195Y371459D01*
X293501Y371001D01*
X293735Y370844D01*
Y363000D01*
X293794Y362707D01*
X293959Y362459D01*
X296444Y359975D01*
X296692Y359809D01*
X296984Y359751D01*
X298068D01*
X298335Y359251D01*
X298195Y359041D01*
X298087Y358500D01*
X298195Y357959D01*
X298322Y357769D01*
X298428Y357412D01*
X298194Y357128D01*
X298001Y356999D01*
X297695Y356541D01*
X297587Y356000D01*
X297695Y355459D01*
X298001Y355001D01*
X298459Y354695D01*
X299000Y354587D01*
X299541Y354695D01*
X299999Y355001D01*
X300305Y355459D01*
X300376Y355814D01*
X301049D01*
X301167Y355635D01*
X301242Y355314D01*
X299618Y353691D01*
X299500Y353714D01*
X298844Y353584D01*
X298288Y353212D01*
X297916Y352656D01*
X297786Y352000D01*
X297916Y351344D01*
X298288Y350788D01*
X298844Y350416D01*
X299500Y350286D01*
X300156Y350416D01*
X300712Y350788D01*
X300777Y350885D01*
X301248Y350690D01*
X301244Y350673D01*
X301368Y350053D01*
X301719Y349527D01*
X301985Y349349D01*
X301839Y349130D01*
X301754Y348705D01*
X301839Y348279D01*
X301985Y348060D01*
X302045Y347721D01*
X301985Y347380D01*
X301839Y347162D01*
X301754Y346736D01*
X301839Y346311D01*
X302080Y345950D01*
X302441Y345709D01*
X302715Y345654D01*
X303008Y345336D01*
X303112Y345124D01*
X303087Y345000D01*
X303195Y344459D01*
X303488Y344020D01*
X303467Y343909D01*
X303321Y343520D01*
X296500D01*
X296110Y343442D01*
X295667Y343748D01*
X295499Y343999D01*
X295041Y344305D01*
X294500Y344413D01*
X293959Y344305D01*
X293501Y343999D01*
X293320Y343729D01*
X293207Y343706D01*
X292959Y343541D01*
X292839Y343421D01*
X292326Y343536D01*
X292284Y343573D01*
X291999Y343999D01*
X291541Y344305D01*
X291000Y344413D01*
X290459Y344305D01*
X290269Y344178D01*
X289912Y344072D01*
X289628Y344306D01*
X289499Y344499D01*
X289041Y344805D01*
X288500Y344913D01*
X287959Y344805D01*
X287501Y344499D01*
X287500Y344498D01*
X287000D01*
X286999Y344499D01*
X286541Y344805D01*
X286000Y344913D01*
X285459Y344805D01*
X285001Y344499D01*
X284778Y344165D01*
X284663Y344135D01*
X284337D01*
X284222Y344165D01*
X283999Y344499D01*
X283541Y344805D01*
X283000Y344913D01*
X282459Y344805D01*
X282119Y344578D01*
X281583Y344706D01*
X281555Y344851D01*
X281072Y345572D01*
X280351Y346055D01*
X280000Y346124D01*
Y344000D01*
X279500D01*
Y343500D01*
X277376D01*
X277445Y343149D01*
X277927Y342427D01*
X278245Y342216D01*
X278233Y341661D01*
X277935Y341478D01*
X277723Y341515D01*
X277504Y341661D01*
X277079Y341746D01*
X276653Y341661D01*
X276409Y341498D01*
X276252Y341568D01*
X276186Y341681D01*
X276073Y342112D01*
X276305Y342459D01*
X276413Y343000D01*
X276305Y343541D01*
X275999Y343999D01*
X275541Y344305D01*
X275000Y344413D01*
X274459Y344305D01*
X274001Y343999D01*
X273844Y343765D01*
X271500D01*
X271500Y343765D01*
X271207Y343706D01*
X270959Y343541D01*
X270890Y343471D01*
X270834Y343475D01*
X270379Y343668D01*
X270305Y344041D01*
X269999Y344499D01*
X269541Y344805D01*
X269000Y344913D01*
X268459Y344805D01*
X268001Y344499D01*
X267695Y344041D01*
X267587Y343500D01*
X267695Y342959D01*
X268001Y342501D01*
X268043Y342472D01*
X268033Y342255D01*
X267523Y342058D01*
X266858Y342723D01*
X266913Y343000D01*
X266805Y343541D01*
X266499Y343999D01*
X266041Y344305D01*
X265500Y344413D01*
X264959Y344305D01*
X264501Y343999D01*
X264195Y343541D01*
X264087Y343000D01*
X264195Y342459D01*
X264501Y342001D01*
X264959Y341695D01*
X265500Y341587D01*
X265776Y341642D01*
X266269Y341149D01*
X266209Y341059D01*
X266124Y340634D01*
Y339517D01*
X265624Y339250D01*
X265541Y339305D01*
X265000Y339413D01*
X264459Y339305D01*
X264001Y338999D01*
X263695Y338541D01*
X263587Y338000D01*
X263695Y337459D01*
X263980Y337032D01*
Y336000D01*
X264058Y335610D01*
X264192Y335216D01*
X263895Y335000D01*
X263866Y334981D01*
X263645Y334650D01*
X263567Y334260D01*
Y333653D01*
X263067Y333501D01*
X263041Y333541D01*
X262732Y333849D01*
X262805Y333959D01*
X262913Y334500D01*
X262805Y335041D01*
X262499Y335499D01*
X262041Y335805D01*
X261500Y335913D01*
X260959Y335805D01*
X260501Y335499D01*
X260195Y335041D01*
X260087Y334500D01*
X260131Y334279D01*
X259759Y333779D01*
X259075D01*
X258808Y334279D01*
X259055Y334649D01*
X259124Y335000D01*
X254876D01*
X254945Y334649D01*
X255428Y333927D01*
X255617Y333801D01*
X255465Y333301D01*
X255087D01*
X254704Y333142D01*
X254545Y332760D01*
Y331220D01*
X253634Y330308D01*
X253169Y330773D01*
X253214Y331000D01*
X253084Y331656D01*
X252712Y332212D01*
X252156Y332584D01*
X251500Y332714D01*
X250844Y332584D01*
X250434Y332310D01*
X250389Y332305D01*
X249966Y332414D01*
X249864Y332478D01*
X249796Y332643D01*
X249413Y332801D01*
X247051D01*
X246847Y332716D01*
X246670Y332981D01*
X246339Y333202D01*
X245949Y333279D01*
X245268D01*
Y331000D01*
Y328721D01*
X245949D01*
X246339Y328798D01*
X246670Y329019D01*
X246847Y329284D01*
X247051Y329199D01*
X249413D01*
X249796Y329358D01*
X249864Y329522D01*
X249966Y329586D01*
X250389Y329695D01*
X250434Y329691D01*
X250844Y329416D01*
X251500Y329286D01*
X251727Y329331D01*
X253032Y328027D01*
Y326894D01*
X252931Y326743D01*
X252839Y326279D01*
Y325331D01*
X250841D01*
X250712Y325523D01*
X250156Y325895D01*
X249500Y326025D01*
X248844Y325895D01*
X248288Y325523D01*
X248159Y325331D01*
X241079D01*
X240689Y325253D01*
X240358Y325032D01*
X239780Y324455D01*
X238240D01*
X237858Y324296D01*
X237699Y323913D01*
Y321551D01*
X237784Y321346D01*
X237519Y321170D01*
X237298Y320839D01*
X237221Y320449D01*
Y319768D01*
X241779D01*
Y320449D01*
X241702Y320839D01*
X241481Y321170D01*
X241216Y321346D01*
X241301Y321551D01*
Y323091D01*
X241501Y323291D01*
X248159D01*
X248288Y323099D01*
X248844Y322727D01*
X249500Y322597D01*
X250156Y322727D01*
X250712Y323099D01*
X250841Y323291D01*
X252839D01*
Y322342D01*
X252931Y321879D01*
X253194Y321485D01*
X253587Y321222D01*
X254051Y321130D01*
X254515Y321222D01*
X254668Y321325D01*
X254795Y321366D01*
X255233Y321182D01*
X255255Y321161D01*
Y318980D01*
X255313Y318688D01*
X255479Y318440D01*
X256459Y317459D01*
X256707Y317294D01*
X257000Y317235D01*
X257000Y317235D01*
X262344D01*
X262501Y317001D01*
X262959Y316695D01*
X263500Y316587D01*
X264041Y316695D01*
X264499Y317001D01*
X264805Y317459D01*
X264913Y318000D01*
X264805Y318541D01*
X264499Y318999D01*
X264041Y319305D01*
X263500Y319413D01*
X262959Y319305D01*
X262501Y318999D01*
X262344Y318765D01*
X259443D01*
X259175Y319265D01*
X259305Y319459D01*
X259413Y320000D01*
X259368Y320228D01*
X259457Y320319D01*
Y324311D01*
X260457D01*
Y320720D01*
X260616Y320752D01*
X261174Y321125D01*
X261308Y321325D01*
X261461Y321222D01*
X261925Y321130D01*
X262389Y321222D01*
X262542Y321325D01*
X262910Y321444D01*
X263277Y321325D01*
X263430Y321222D01*
X263894Y321130D01*
X264358Y321222D01*
X264751Y321485D01*
X265005D01*
X265398Y321222D01*
X265862Y321130D01*
X266326Y321222D01*
X266479Y321325D01*
X266846Y321444D01*
X267214Y321325D01*
X267367Y321222D01*
X267831Y321130D01*
X268295Y321222D01*
X268688Y321485D01*
X268942D01*
X269335Y321222D01*
X269799Y321130D01*
X270263Y321222D01*
X270416Y321325D01*
X270783Y321444D01*
X271151Y321325D01*
X271304Y321222D01*
X271412Y321201D01*
X271577Y320658D01*
X270459Y319541D01*
X270293Y319293D01*
X270235Y319000D01*
Y318656D01*
X270001Y318499D01*
X269695Y318041D01*
X269587Y317500D01*
X269695Y316959D01*
X270001Y316501D01*
X270459Y316195D01*
X271000Y316087D01*
X271541Y316195D01*
X271999Y316501D01*
X272305Y316959D01*
X272413Y317500D01*
X272872Y317753D01*
X272959Y317695D01*
X273500Y317587D01*
X274041Y317695D01*
X274499Y318001D01*
X274805Y318459D01*
X274833Y318600D01*
X275364Y318706D01*
X275501Y318501D01*
X275959Y318195D01*
X276060Y318175D01*
X276445Y317851D01*
X276376Y317500D01*
X278000D01*
Y319413D01*
X277913Y319500D01*
X277858Y319777D01*
X278214Y320132D01*
X278380Y320381D01*
X278410Y320533D01*
X278802Y320773D01*
X278908Y320802D01*
X278983Y320752D01*
X279603Y320628D01*
X280087Y320500D01*
X280195Y319959D01*
X280501Y319501D01*
X280959Y319195D01*
X281500Y319087D01*
X282041Y319195D01*
X282059Y319207D01*
X282559Y318940D01*
Y317893D01*
X282288Y317712D01*
X281916Y317156D01*
X281786Y316500D01*
X281916Y315844D01*
X282288Y315288D01*
X282844Y314916D01*
X283500Y314786D01*
X284156Y314916D01*
X284712Y315288D01*
X285084Y315844D01*
X285214Y316500D01*
X285084Y317156D01*
X284712Y317712D01*
X284598Y317788D01*
Y318380D01*
X285098Y318667D01*
X285500Y318587D01*
X286041Y318695D01*
X286499Y319001D01*
X286805Y319459D01*
X286913Y320000D01*
X286805Y320541D01*
X286559Y320910D01*
X286584Y320964D01*
X287052Y321222D01*
X287516Y321130D01*
X287980Y321222D01*
X288373Y321485D01*
X288627D01*
X289020Y321222D01*
X289484Y321130D01*
X289948Y321222D01*
X290101Y321325D01*
X290469Y321444D01*
X290836Y321325D01*
X290989Y321222D01*
X291453Y321130D01*
X291737Y321187D01*
X292114Y320856D01*
X292146Y320797D01*
X292087Y320500D01*
X292195Y319959D01*
X292501Y319501D01*
X292959Y319195D01*
X293500Y319087D01*
X294041Y319195D01*
X294499Y319501D01*
X294867Y319191D01*
X295980Y318078D01*
Y316341D01*
X295788Y316212D01*
X295416Y315656D01*
X295286Y315000D01*
X295416Y314344D01*
X295788Y313788D01*
X296344Y313416D01*
X297000Y313286D01*
X297656Y313416D01*
X298212Y313788D01*
X298584Y314344D01*
X298714Y315000D01*
X298584Y315656D01*
X298212Y316212D01*
X298020Y316341D01*
Y318500D01*
X297942Y318890D01*
X297721Y319221D01*
X296456Y320486D01*
X296492Y320924D01*
X296872Y321193D01*
X296911Y321219D01*
X297358Y321130D01*
X297822Y321222D01*
X298216Y321485D01*
X298470D01*
X298863Y321222D01*
X299327Y321130D01*
X299791Y321222D01*
X299944Y321325D01*
X300311Y321444D01*
X300678Y321325D01*
X300831Y321222D01*
X301295Y321130D01*
X301759Y321222D01*
X301912Y321325D01*
X302279Y321444D01*
X302647Y321325D01*
X302800Y321222D01*
X302897Y321203D01*
Y320693D01*
X302344Y320584D01*
X301788Y320212D01*
X301416Y319656D01*
X301286Y319000D01*
X301416Y318344D01*
X301788Y317788D01*
X302344Y317416D01*
X303000Y317286D01*
X303656Y317416D01*
X304212Y317788D01*
X304584Y318344D01*
X304714Y319000D01*
X304609Y319528D01*
X305161Y320079D01*
X305674Y319964D01*
X305716Y319927D01*
X306001Y319501D01*
X306459Y319195D01*
X307000Y319087D01*
X307541Y319195D01*
X307999Y319501D01*
X308305Y319959D01*
X308413Y320500D01*
X308340Y320865D01*
X308569Y321089D01*
X308745Y321215D01*
X309169Y321130D01*
X309633Y321222D01*
X309786Y321325D01*
X310154Y321444D01*
X310521Y321325D01*
X310674Y321222D01*
X311138Y321130D01*
X311602Y321222D01*
X311755Y321325D01*
X312122Y321444D01*
X312489Y321325D01*
X312642Y321222D01*
X313106Y321130D01*
X313570Y321222D01*
X313964Y321485D01*
X314218D01*
X314611Y321222D01*
X315075Y321130D01*
X315539Y321222D01*
X315692Y321325D01*
X316059Y321444D01*
X316426Y321325D01*
X316579Y321222D01*
X317043Y321130D01*
X317507Y321222D01*
X317900Y321485D01*
X318155D01*
X318548Y321222D01*
X319012Y321130D01*
X319476Y321222D01*
X319629Y321325D01*
X319996Y321444D01*
X320363Y321325D01*
X320516Y321222D01*
X320980Y321130D01*
X321444Y321222D01*
X321597Y321325D01*
X321965Y321444D01*
X322332Y321325D01*
X322485Y321222D01*
X322949Y321130D01*
X323413Y321222D01*
X323806Y321485D01*
X324069Y321879D01*
X324161Y322342D01*
Y326279D01*
X324069Y326743D01*
X323806Y327137D01*
X323413Y327399D01*
X322949Y327492D01*
X322485Y327399D01*
X322332Y327297D01*
X321965Y327178D01*
X321597Y327297D01*
X321444Y327399D01*
X320980Y327492D01*
X320516Y327399D01*
X320363Y327297D01*
X319996Y327178D01*
X319629Y327297D01*
X319476Y327399D01*
X319012Y327492D01*
X318548Y327399D01*
X318155Y327137D01*
X317900D01*
X317507Y327399D01*
X317043Y327492D01*
X316579Y327399D01*
X316495Y327343D01*
X316135Y327704D01*
X316305Y327959D01*
X316413Y328500D01*
X316305Y329041D01*
X315999Y329499D01*
X315541Y329805D01*
X315000Y329913D01*
X314459Y329805D01*
X314264Y329675D01*
X313918Y329566D01*
X313624Y329803D01*
X313499Y329989D01*
X313041Y330296D01*
X312933Y330740D01*
X312933Y330816D01*
Y331500D01*
X310732D01*
Y332500D01*
X312933D01*
Y333260D01*
X312855Y333650D01*
X312634Y333981D01*
X312505Y334067D01*
X312657Y334567D01*
X312760D01*
X313150Y334645D01*
X313481Y334866D01*
X313702Y335196D01*
X313779Y335587D01*
Y336268D01*
X311500D01*
X309221D01*
Y335587D01*
X309298Y335196D01*
X309519Y334866D01*
X309648Y334779D01*
X309572Y334384D01*
X309509Y334271D01*
X309161Y334202D01*
X308830Y333981D01*
X308653Y333716D01*
X308449Y333801D01*
X306087D01*
X305704Y333643D01*
X305545Y333260D01*
Y331127D01*
X305027Y330609D01*
X304499Y330499D01*
X304349Y330600D01*
X304041Y330805D01*
X303500Y330913D01*
X302959Y330805D01*
X302501Y330499D01*
X302195Y330041D01*
X302182Y329978D01*
X301627Y329748D01*
X301541Y329805D01*
X301000Y329913D01*
X300591Y329832D01*
X300092Y330115D01*
Y333673D01*
X300033Y333966D01*
X299868Y334214D01*
X297641Y336440D01*
X297791Y336665D01*
X297876Y337091D01*
Y340634D01*
X297807Y340980D01*
X297930Y341242D01*
X298111Y341480D01*
X308810D01*
X309699Y340591D01*
Y339051D01*
X309784Y338846D01*
X309519Y338670D01*
X309298Y338339D01*
X309221Y337949D01*
Y337268D01*
X311500D01*
X313779D01*
Y337949D01*
X313702Y338339D01*
X313481Y338670D01*
X313417Y338713D01*
X313568Y339213D01*
X314516D01*
X314927Y338713D01*
X314884Y338500D01*
X315015Y337844D01*
X315344Y337351D01*
X315394Y337146D01*
Y336783D01*
X315288Y336712D01*
X314916Y336156D01*
X314786Y335500D01*
X314916Y334844D01*
X315288Y334288D01*
X315844Y333916D01*
X316500Y333786D01*
X317156Y333916D01*
X317712Y334288D01*
X318084Y334844D01*
X318214Y335500D01*
X318169Y335727D01*
X318993Y336551D01*
X319150Y336786D01*
X319945D01*
X320601Y336916D01*
X321157Y337288D01*
X321529Y337844D01*
X321659Y338500D01*
X321529Y339156D01*
X321157Y339712D01*
X320601Y340084D01*
X319945Y340214D01*
X318000D01*
X317260Y340953D01*
X316930Y341174D01*
X316539Y341252D01*
X313301D01*
Y341413D01*
X313142Y341796D01*
X312760Y341955D01*
X311220D01*
X310607Y342567D01*
X310814Y343067D01*
X311000D01*
Y344768D01*
X309221D01*
Y344087D01*
X309234Y344019D01*
X308861Y343520D01*
X305679D01*
X305534Y343909D01*
X305512Y344020D01*
X305805Y344459D01*
X305913Y345000D01*
X305888Y345124D01*
X306299Y345624D01*
X306409D01*
X306835Y345709D01*
X307196Y345950D01*
X307437Y346311D01*
X307521Y346736D01*
X307437Y347162D01*
X307291Y347380D01*
X307231Y347721D01*
X307291Y348060D01*
X307437Y348279D01*
X307521Y348705D01*
X307437Y349130D01*
X307291Y349349D01*
X307556Y349527D01*
X307908Y350053D01*
X307932Y350173D01*
X304638D01*
Y351173D01*
X307932D01*
X307908Y351294D01*
X307556Y351820D01*
X307291Y351997D01*
X307437Y352216D01*
X307521Y352642D01*
X307450Y352998D01*
X307518Y353179D01*
X307750Y353498D01*
X310610D01*
X311036Y353583D01*
X311380Y353813D01*
X312260D01*
X312643Y353972D01*
X312801Y354354D01*
Y356716D01*
X312716Y356921D01*
X312981Y357098D01*
X313202Y357429D01*
X313279Y357819D01*
Y358500D01*
X311000D01*
Y359500D01*
X313279D01*
Y360181D01*
X313202Y360571D01*
X313092Y360735D01*
X313313Y361235D01*
X313314Y361235D01*
X316719D01*
Y360819D01*
X316877Y360436D01*
X317260Y360278D01*
X320213D01*
X320354Y360336D01*
X320665Y360395D01*
X321004Y360191D01*
X321066Y360098D01*
X321397Y359877D01*
X321787Y359799D01*
X322764D01*
Y362000D01*
Y364201D01*
X321787D01*
X321397Y364123D01*
X321066Y363902D01*
X321004Y363808D01*
X320665Y363605D01*
X320354Y363664D01*
X320213Y363722D01*
X317260D01*
X316933Y363941D01*
Y364000D01*
X314732D01*
Y365000D01*
X316933D01*
Y365760D01*
X316855Y366150D01*
X316770Y366278D01*
X317021Y366778D01*
X318713D01*
X319095Y366936D01*
X319254Y367319D01*
X319746D01*
X319905Y366936D01*
X320287Y366778D01*
X323240D01*
X323623Y366936D01*
X323781Y367319D01*
Y367735D01*
X324000D01*
X324293Y367793D01*
X324541Y367959D01*
X325041Y368459D01*
X325206Y368707D01*
X325262Y368987D01*
X325712Y369288D01*
X326084Y369844D01*
X326214Y370500D01*
X326084Y371156D01*
X325712Y371712D01*
X325262Y372013D01*
X325206Y372293D01*
X325041Y372541D01*
X325041Y372541D01*
X324041Y373541D01*
X323793Y373707D01*
X323781Y373709D01*
Y374181D01*
X323623Y374564D01*
X323240Y374722D01*
D02*
G37*
G36*
X257500Y337624D02*
Y336000D01*
X259124D01*
X259055Y336351D01*
X258573Y337072D01*
X257851Y337555D01*
X257500Y337624D01*
D02*
G37*
G36*
X325760Y361500D02*
X323764D01*
Y359799D01*
X324740D01*
X325130Y359877D01*
X325461Y360098D01*
X325682Y360429D01*
X325760Y360819D01*
Y361500D01*
D02*
G37*
G36*
X388236Y363500D02*
X375000D01*
Y358256D01*
X387216D01*
X387607Y358334D01*
X387937Y358555D01*
X388158Y358885D01*
X388236Y359276D01*
Y363500D01*
D02*
G37*
G36*
X386606Y379193D02*
X386516D01*
Y375024D01*
Y370854D01*
X386606D01*
X386997Y370932D01*
X387327Y371153D01*
X387585Y371471D01*
X387984Y371333D01*
X389165D01*
X389548Y371491D01*
X389584Y371578D01*
X390125D01*
X390161Y371491D01*
X390543Y371333D01*
X391724D01*
X392107Y371491D01*
X392266Y371874D01*
Y378173D01*
X392107Y378556D01*
X391724Y378714D01*
X390543D01*
X390161Y378556D01*
X390125Y378470D01*
X389584D01*
X389548Y378556D01*
X389165Y378714D01*
X387984D01*
X387585Y378576D01*
X387327Y378894D01*
X386997Y379115D01*
X386606Y379193D01*
D02*
G37*
%LPD*%
G36*
X375470Y275431D02*
X375493Y275317D01*
X375782Y274884D01*
X376030Y274719D01*
X376155Y274136D01*
X374710Y272692D01*
X374541Y272805D01*
X374000Y272913D01*
X373459Y272805D01*
X373001Y272499D01*
X372695Y272041D01*
X372587Y271500D01*
X372695Y270959D01*
X373001Y270501D01*
X373459Y270195D01*
X374000Y270087D01*
X374541Y270195D01*
X374999Y270501D01*
X375305Y270959D01*
X375346Y271165D01*
X378822Y274641D01*
X378822Y274641D01*
X379187Y274714D01*
X379364Y274595D01*
X379733Y274522D01*
X379917Y274129D01*
X379930Y274012D01*
X376459Y270541D01*
X376293Y270293D01*
X376235Y270000D01*
Y253945D01*
X376099Y253927D01*
X375259Y253579D01*
X374537Y253026D01*
X373984Y252304D01*
X373636Y251464D01*
X373517Y250563D01*
X373571Y250153D01*
X370043Y246625D01*
X367371D01*
X367338Y247125D01*
X367901Y247199D01*
X368741Y247547D01*
X369462Y248100D01*
X370016Y248822D01*
X370364Y249662D01*
X370482Y250563D01*
X370364Y251464D01*
X370016Y252304D01*
X369462Y253026D01*
X368741Y253579D01*
X367901Y253927D01*
X367000Y254046D01*
X366099Y253927D01*
X365259Y253579D01*
X364538Y253026D01*
X363984Y252304D01*
X363636Y251464D01*
X363517Y250563D01*
X363636Y249662D01*
X363984Y248822D01*
X364068Y248712D01*
X362981Y247625D01*
X359621D01*
X359509Y247952D01*
X359481Y248125D01*
X360016Y248822D01*
X360364Y249662D01*
X360483Y250563D01*
X360364Y251464D01*
X360016Y252304D01*
X359462Y253026D01*
X358741Y253579D01*
X357901Y253927D01*
X357000Y254046D01*
X356099Y253927D01*
X355259Y253579D01*
X355149Y253495D01*
X353104Y255541D01*
X352856Y255707D01*
X352563Y255765D01*
X346317D01*
X345800Y256282D01*
X346083Y256706D01*
X346099Y256699D01*
X347000Y256580D01*
X347901Y256699D01*
X348741Y257047D01*
X349463Y257600D01*
X350016Y258322D01*
X350364Y259162D01*
X350382Y259298D01*
X358313D01*
X358606Y259356D01*
X358854Y259522D01*
X374928Y275596D01*
X375470Y275431D01*
D02*
G37*
G36*
X362793Y282126D02*
X362895Y281616D01*
X363184Y281184D01*
X363616Y280895D01*
X364126Y280793D01*
X364636Y280895D01*
X365068Y281184D01*
X365357Y281616D01*
X365459Y282126D01*
X365701Y282331D01*
X365943Y282126D01*
X366044Y281616D01*
X366333Y281184D01*
X366766Y280895D01*
X367276Y280793D01*
X367786Y280895D01*
X368218Y281184D01*
X368507Y281616D01*
X368608Y282126D01*
X368850Y282331D01*
X369092Y282126D01*
X369194Y281616D01*
X369483Y281184D01*
X369915Y280895D01*
X370425Y280793D01*
X370935Y280895D01*
X371368Y281184D01*
X371656Y281616D01*
X371667Y281666D01*
X372227Y281920D01*
X372290Y281883D01*
X372344Y281616D01*
X372633Y281184D01*
X372713Y281130D01*
X372724Y281098D01*
X372679Y280551D01*
X372272Y280279D01*
X372000Y279872D01*
X371453Y279827D01*
X371422Y279838D01*
X371368Y279919D01*
X370935Y280208D01*
X370425Y280309D01*
X369915Y280208D01*
X369483Y279919D01*
X369194Y279486D01*
X369092Y278976D01*
X369194Y278466D01*
X369483Y278034D01*
X369735Y277865D01*
Y277156D01*
X369501Y276999D01*
X369195Y276541D01*
X369087Y276000D01*
X369195Y275459D01*
X369501Y275001D01*
X369959Y274695D01*
X370500Y274587D01*
X371041Y274695D01*
X371390Y274928D01*
X371708Y274539D01*
X367494Y270325D01*
X366928Y270466D01*
X366718Y270781D01*
X366483Y270937D01*
Y274229D01*
X366983Y274552D01*
X367276Y274494D01*
X367786Y274595D01*
X368218Y274884D01*
X368507Y275317D01*
X368608Y275827D01*
X368507Y276337D01*
X368218Y276769D01*
X367786Y277058D01*
X367735Y277068D01*
X367482Y277628D01*
X367519Y277692D01*
X367786Y277745D01*
X368218Y278034D01*
X368507Y278466D01*
X368608Y278976D01*
X368507Y279486D01*
X368218Y279919D01*
X367786Y280208D01*
X367276Y280309D01*
X366766Y280208D01*
X366333Y279919D01*
X366044Y279486D01*
X365991Y279220D01*
X365928Y279183D01*
X365367Y279436D01*
X365357Y279486D01*
X365068Y279919D01*
X364636Y280208D01*
X364126Y280309D01*
X363616Y280208D01*
X363184Y279919D01*
X363048Y279715D01*
X362886Y279683D01*
X362703Y279560D01*
X362559Y279539D01*
X362084Y279671D01*
X361919Y279919D01*
X361486Y280208D01*
X360976Y280309D01*
X360466Y280208D01*
X360034Y279919D01*
X359745Y279486D01*
X359736Y279442D01*
X359181Y279212D01*
X359041Y279305D01*
X358500Y279413D01*
X357959Y279305D01*
X357501Y278999D01*
X357195Y278541D01*
X357087Y278000D01*
X357195Y277459D01*
X357501Y277001D01*
X357959Y276695D01*
X358500Y276587D01*
X358960Y276679D01*
X359081Y276655D01*
X359081Y276655D01*
X359402D01*
X359709Y276155D01*
X359644Y275827D01*
X359745Y275317D01*
X360034Y274884D01*
X360466Y274595D01*
X360976Y274494D01*
X361486Y274595D01*
X361919Y274884D01*
X362208Y275317D01*
X362309Y275827D01*
X362208Y276337D01*
X362089Y276514D01*
X362162Y276879D01*
X363264Y277980D01*
X363616Y277745D01*
X364126Y277644D01*
X364336Y277399D01*
X364126Y277160D01*
X363616Y277058D01*
X363184Y276769D01*
X362895Y276337D01*
X362793Y275827D01*
X362895Y275317D01*
X363184Y274884D01*
X363616Y274595D01*
X364126Y274494D01*
X364454Y274559D01*
X364954Y274252D01*
Y270937D01*
X364719Y270781D01*
X364413Y270322D01*
X364305Y269781D01*
X364413Y269241D01*
X364719Y268782D01*
X365034Y268572D01*
X365175Y268006D01*
X357997Y260828D01*
X350382D01*
X350364Y260964D01*
X350016Y261804D01*
X349463Y262526D01*
X348741Y263079D01*
X347901Y263427D01*
X347000Y263545D01*
X346099Y263427D01*
X345259Y263079D01*
X344629Y262595D01*
X342155D01*
X342092Y263093D01*
X342340Y263259D01*
X345874Y266792D01*
X346099Y266699D01*
X347000Y266581D01*
X347901Y266699D01*
X348741Y267047D01*
X349463Y267600D01*
X350016Y268322D01*
X350364Y269162D01*
X350483Y270063D01*
X350364Y270964D01*
X350016Y271804D01*
X349742Y272161D01*
X359261Y281680D01*
X359809Y281520D01*
X360034Y281184D01*
X360466Y280895D01*
X360976Y280793D01*
X361486Y280895D01*
X361919Y281184D01*
X362208Y281616D01*
X362309Y282126D01*
X362551Y282331D01*
X362793Y282126D01*
D02*
G37*
%LPC*%
G36*
X372000Y262000D02*
X370376D01*
X370445Y261649D01*
X370928Y260928D01*
X371649Y260445D01*
X372000Y260376D01*
Y262000D01*
D02*
G37*
G36*
X373000Y264624D02*
Y263000D01*
X374624D01*
X374555Y263351D01*
X374073Y264072D01*
X373351Y264555D01*
X373000Y264624D01*
D02*
G37*
G36*
X372000D02*
X371649Y264555D01*
X370928Y264072D01*
X370445Y263351D01*
X370376Y263000D01*
X372000D01*
Y264624D01*
D02*
G37*
G36*
X374624Y262000D02*
X373000D01*
Y260376D01*
X373351Y260445D01*
X374073Y260928D01*
X374555Y261649D01*
X374624Y262000D01*
D02*
G37*
G36*
X354500Y272000D02*
X352876D01*
X352945Y271649D01*
X353428Y270928D01*
X354149Y270445D01*
X354500Y270376D01*
Y272000D01*
D02*
G37*
G36*
X355500Y274624D02*
Y273000D01*
X357124D01*
X357055Y273351D01*
X356573Y274073D01*
X355851Y274555D01*
X355500Y274624D01*
D02*
G37*
G36*
X354500D02*
X354149Y274555D01*
X353428Y274073D01*
X352945Y273351D01*
X352876Y273000D01*
X354500D01*
Y274624D01*
D02*
G37*
G36*
X357124Y272000D02*
X355500D01*
Y270376D01*
X355851Y270445D01*
X356573Y270928D01*
X357055Y271649D01*
X357124Y272000D01*
D02*
G37*
%LPD*%
G36*
X306235Y391683D02*
Y384500D01*
X306294Y384207D01*
X306459Y383959D01*
X312959Y377459D01*
X313207Y377293D01*
X313352Y377265D01*
X313303Y376765D01*
X311817D01*
X310041Y378541D01*
X309793Y378707D01*
X309500Y378765D01*
X296798D01*
X296531Y379265D01*
X296584Y379344D01*
X296714Y380000D01*
X296584Y380656D01*
X296488Y380799D01*
X296764Y381254D01*
X297189Y381339D01*
X297550Y381580D01*
X297791Y381941D01*
X297876Y382366D01*
X297919Y382402D01*
X298500Y382286D01*
X299156Y382416D01*
X299712Y382788D01*
X300084Y383344D01*
X300214Y384000D01*
X300183Y384155D01*
X300633Y384456D01*
X300649Y384445D01*
X301000Y384376D01*
Y386500D01*
X301500D01*
Y387000D01*
X303624D01*
X303555Y387351D01*
X303073Y388072D01*
X302851Y388221D01*
X302892Y388547D01*
X302982Y388734D01*
X303304Y388798D01*
X303634Y389019D01*
X303855Y389350D01*
X303933Y389740D01*
Y390500D01*
X301732D01*
Y391000D01*
X301232D01*
Y393279D01*
X300551D01*
X300161Y393202D01*
X299830Y392981D01*
X299654Y392716D01*
X299449Y392801D01*
X297087D01*
X296704Y392642D01*
X296545Y392260D01*
Y390850D01*
X295977Y390282D01*
X295927Y390207D01*
X295888Y390180D01*
X295308Y390134D01*
X293721Y391721D01*
X293390Y391942D01*
X293000Y392020D01*
X291955D01*
Y392260D01*
X291796Y392642D01*
X291413Y392801D01*
X289051D01*
X288846Y392716D01*
X288670Y392981D01*
X288339Y393202D01*
X287949Y393279D01*
X287268D01*
Y391000D01*
Y388721D01*
X287949D01*
X288339Y388798D01*
X288670Y389019D01*
X288846Y389284D01*
X289051Y389199D01*
X291413D01*
X291796Y389357D01*
X291955Y389740D01*
Y389980D01*
X292578D01*
X293776Y388782D01*
Y387744D01*
X293327Y387473D01*
Y384138D01*
X292327D01*
Y387432D01*
X292206Y387408D01*
X291680Y387056D01*
X291503Y386790D01*
X291284Y386937D01*
X290858Y387021D01*
X290433Y386937D01*
X290214Y386791D01*
X289874Y386731D01*
X289534Y386791D01*
X289315Y386937D01*
X288890Y387021D01*
X288464Y386937D01*
X288246Y386791D01*
X287906Y386731D01*
X287565Y386791D01*
X287347Y386937D01*
X286921Y387021D01*
X286496Y386937D01*
X286277Y386790D01*
X285937Y386731D01*
X285597Y386790D01*
X285378Y386937D01*
X284953Y387021D01*
X284527Y386937D01*
X284520Y386932D01*
X284020Y387199D01*
Y389264D01*
X283942Y389654D01*
X283721Y389985D01*
X283281Y390424D01*
Y392181D01*
X283123Y392564D01*
X282740Y392722D01*
X279787D01*
X279405Y392564D01*
X279246Y392181D01*
X278754D01*
X278595Y392564D01*
X278521Y392939D01*
X279817Y394235D01*
X303683D01*
X306235Y391683D01*
D02*
G37*
%LPC*%
G36*
X303624Y386000D02*
X302000D01*
Y384376D01*
X302351Y384445D01*
X303073Y384928D01*
X303555Y385649D01*
X303624Y386000D01*
D02*
G37*
G36*
X286268Y390500D02*
X284567D01*
Y389740D01*
X284645Y389350D01*
X284866Y389019D01*
X285196Y388798D01*
X285587Y388721D01*
X286268D01*
Y390500D01*
D02*
G37*
G36*
Y393279D02*
X285587D01*
X285196Y393202D01*
X284866Y392981D01*
X284645Y392650D01*
X284567Y392260D01*
Y391500D01*
X286268D01*
Y393279D01*
D02*
G37*
G36*
X302913D02*
X302232D01*
Y391500D01*
X303933D01*
Y392260D01*
X303855Y392650D01*
X303634Y392981D01*
X303304Y393202D01*
X302913Y393279D01*
D02*
G37*
%LPD*%
G36*
X273214Y332425D02*
X273241Y332286D01*
X273548Y331827D01*
X274006Y331521D01*
X274547Y331413D01*
X274567Y331397D01*
Y331000D01*
X276768D01*
Y330500D01*
X277268D01*
Y328221D01*
X277949D01*
X278339Y328298D01*
X278670Y328519D01*
X278847Y328784D01*
X279051Y328699D01*
X281413D01*
X281729Y328830D01*
X282432Y328126D01*
X282395Y327747D01*
X282361Y327712D01*
X281941Y327426D01*
X281610Y327492D01*
X281146Y327399D01*
X280993Y327297D01*
X280859Y327497D01*
X280301Y327870D01*
X280142Y327902D01*
Y324311D01*
X279142D01*
Y327902D01*
X278983Y327870D01*
X278424Y327497D01*
X278290Y327297D01*
X278137Y327399D01*
X277673Y327492D01*
X277209Y327399D01*
X277056Y327297D01*
X276689Y327178D01*
X276322Y327297D01*
X276169Y327399D01*
X275705Y327492D01*
X275241Y327399D01*
X274848Y327137D01*
X274593D01*
X274200Y327399D01*
X273736Y327492D01*
X273272Y327399D01*
X273119Y327297D01*
X272752Y327178D01*
X272385Y327297D01*
X272232Y327399D01*
X271768Y327492D01*
X271304Y327399D01*
X271151Y327297D01*
X270783Y327178D01*
X270416Y327297D01*
X270263Y327399D01*
X270060Y327440D01*
X269954Y327971D01*
X269999Y328001D01*
X270305Y328459D01*
X270413Y329000D01*
X270305Y329541D01*
X269999Y329999D01*
X269541Y330305D01*
X269000Y330413D01*
X268459Y330305D01*
X268001Y329999D01*
X267820Y329729D01*
X267707Y329707D01*
X267459Y329541D01*
X267390Y329471D01*
X267318Y329475D01*
X266985Y329583D01*
X266882Y329655D01*
X266805Y330041D01*
X266685Y330221D01*
X266949Y330721D01*
X267339Y330798D01*
X267670Y331019D01*
X267846Y331284D01*
X268051Y331199D01*
X270413D01*
X270796Y331358D01*
X270955Y331740D01*
Y332235D01*
X272000D01*
X272293Y332294D01*
X272541Y332459D01*
X272671Y332590D01*
X273214Y332425D01*
D02*
G37*
%LPC*%
G36*
X276268Y330000D02*
X274567D01*
Y329240D01*
X274645Y328850D01*
X274866Y328519D01*
X275196Y328298D01*
X275587Y328221D01*
X276268D01*
Y330000D01*
D02*
G37*
G36*
X315500Y246823D02*
Y245500D01*
X316823D01*
X316776Y245736D01*
X316360Y246360D01*
X315736Y246776D01*
X315500Y246823D01*
D02*
G37*
%LPD*%
D10*
X281732Y233500D02*
D03*
X278268D02*
D03*
X242268Y352500D02*
D03*
X245732D02*
D03*
X385732Y268500D02*
D03*
X382268D02*
D03*
X382268Y263000D02*
D03*
X385732D02*
D03*
X270732Y391000D02*
D03*
X267268D02*
D03*
X265768Y333000D02*
D03*
X269232D02*
D03*
X314732Y364500D02*
D03*
X311268D02*
D03*
X286768Y391000D02*
D03*
X290232D02*
D03*
X298268D02*
D03*
X301732D02*
D03*
X336768Y331500D02*
D03*
X340232D02*
D03*
X296768Y229500D02*
D03*
X300232D02*
D03*
X305768Y230000D02*
D03*
X309232D02*
D03*
X268268Y234000D02*
D03*
X271732D02*
D03*
X277232Y228500D02*
D03*
X273768D02*
D03*
X307268Y332000D02*
D03*
X310732D02*
D03*
X247000Y346000D02*
D03*
X250465D02*
D03*
X248232Y331000D02*
D03*
X244768D02*
D03*
X259732Y331500D02*
D03*
X256268D02*
D03*
X280232Y330500D02*
D03*
X276768D02*
D03*
X290732Y329000D02*
D03*
X287268D02*
D03*
D11*
X366500Y235236D02*
D03*
Y239764D02*
D03*
X379500Y235236D02*
D03*
Y239764D02*
D03*
X353500Y234972D02*
D03*
Y239500D02*
D03*
X242500Y342736D02*
D03*
Y347264D02*
D03*
X348000Y350236D02*
D03*
Y354764D02*
D03*
X253500Y362736D02*
D03*
Y367264D02*
D03*
D12*
X335264Y232000D02*
D03*
X330736D02*
D03*
X276736Y391000D02*
D03*
X281264D02*
D03*
X323264Y362000D02*
D03*
X318736D02*
D03*
X344264Y361000D02*
D03*
X339736D02*
D03*
X347236Y338500D02*
D03*
X351764D02*
D03*
X324736Y331000D02*
D03*
X329264D02*
D03*
X317236Y368500D02*
D03*
X321764D02*
D03*
X317236Y373000D02*
D03*
X321764D02*
D03*
D13*
X360500Y240453D02*
D03*
Y234547D02*
D03*
X347500Y240453D02*
D03*
Y234547D02*
D03*
X373500Y240453D02*
D03*
Y234547D02*
D03*
D14*
X255500Y389732D02*
D03*
Y386268D02*
D03*
X261000Y389732D02*
D03*
Y386268D02*
D03*
X311500Y345268D02*
D03*
Y348732D02*
D03*
X378000Y383732D02*
D03*
Y380268D02*
D03*
X362000Y383732D02*
D03*
Y380268D02*
D03*
X251000Y353768D02*
D03*
Y357232D02*
D03*
X311000Y359000D02*
D03*
Y355535D02*
D03*
X311500Y336768D02*
D03*
Y340232D02*
D03*
X244000Y383232D02*
D03*
Y379768D02*
D03*
X242000Y356268D02*
D03*
Y359732D02*
D03*
X338500Y257232D02*
D03*
Y253768D02*
D03*
X239000Y261732D02*
D03*
Y258268D02*
D03*
X337500Y307268D02*
D03*
Y310732D02*
D03*
X337000Y289732D02*
D03*
Y286268D02*
D03*
X239500Y322732D02*
D03*
Y319268D02*
D03*
X239000Y287768D02*
D03*
Y291232D02*
D03*
Y283000D02*
D03*
Y279535D02*
D03*
Y274232D02*
D03*
Y270768D02*
D03*
D15*
X267236Y384138D02*
D03*
X269205D02*
D03*
X271173D02*
D03*
X273142D02*
D03*
X275110D02*
D03*
X277079D02*
D03*
X279047D02*
D03*
X281016D02*
D03*
X282984D02*
D03*
X284953D02*
D03*
X286921D02*
D03*
X288890D02*
D03*
X290858D02*
D03*
X292827D02*
D03*
X294795D02*
D03*
X296764D02*
D03*
Y338862D02*
D03*
X294795D02*
D03*
X292827D02*
D03*
X290858D02*
D03*
X288890D02*
D03*
X286921D02*
D03*
X284953D02*
D03*
X282984D02*
D03*
X281016D02*
D03*
X279047D02*
D03*
X277079D02*
D03*
X275110D02*
D03*
X273142D02*
D03*
X271173D02*
D03*
X269205D02*
D03*
X267236D02*
D03*
D16*
X304638Y376264D02*
D03*
Y374295D02*
D03*
Y372327D02*
D03*
Y370358D02*
D03*
Y368390D02*
D03*
Y366421D02*
D03*
Y364453D02*
D03*
Y362484D02*
D03*
Y360516D02*
D03*
Y358547D02*
D03*
Y356579D02*
D03*
Y354610D02*
D03*
Y352642D02*
D03*
Y350673D02*
D03*
Y348705D02*
D03*
Y346736D02*
D03*
X259362D02*
D03*
Y348705D02*
D03*
Y350673D02*
D03*
Y352642D02*
D03*
Y354610D02*
D03*
Y356579D02*
D03*
Y358547D02*
D03*
Y360516D02*
D03*
Y366421D02*
D03*
Y368390D02*
D03*
Y370358D02*
D03*
Y372327D02*
D03*
Y374295D02*
D03*
Y376264D02*
D03*
Y364453D02*
D03*
Y362484D02*
D03*
D17*
X342500Y370342D02*
D03*
Y375658D02*
D03*
X337500Y296342D02*
D03*
Y301658D02*
D03*
D18*
X373342Y345000D02*
D03*
X378658D02*
D03*
X357343Y345500D02*
D03*
X362657D02*
D03*
X340657Y324000D02*
D03*
X335343D02*
D03*
X285842Y333500D02*
D03*
X291158D02*
D03*
D19*
X315461Y394000D02*
D03*
X325500D02*
D03*
X334949D02*
D03*
X344988D02*
D03*
D20*
X318020Y384453D02*
D03*
X342429D02*
D03*
D21*
X330224Y383961D02*
D03*
X325106D02*
D03*
X335343D02*
D03*
X332784D02*
D03*
X327665D02*
D03*
D22*
X386000Y339941D02*
D03*
Y345059D02*
D03*
X392500Y339941D02*
D03*
Y345059D02*
D03*
D23*
X318272Y353500D02*
D03*
Y348500D02*
D03*
Y343500D02*
D03*
Y338500D02*
D03*
X339728Y353500D02*
D03*
Y348500D02*
D03*
Y343500D02*
D03*
Y338500D02*
D03*
D24*
X357866Y375024D02*
D03*
X360425D02*
D03*
X362984D02*
D03*
X365543D02*
D03*
X368102D02*
D03*
X370661D02*
D03*
X373220D02*
D03*
X375780D02*
D03*
X378339D02*
D03*
X380898D02*
D03*
X383457D02*
D03*
X386016D02*
D03*
X388575D02*
D03*
X391134D02*
D03*
Y352976D02*
D03*
X388575D02*
D03*
X386016D02*
D03*
X383457D02*
D03*
X380898D02*
D03*
X378339D02*
D03*
X375780D02*
D03*
X373220D02*
D03*
X370661D02*
D03*
X368102D02*
D03*
X365543D02*
D03*
X362984D02*
D03*
X360425D02*
D03*
X357866D02*
D03*
D25*
X374500Y364000D02*
D03*
D26*
X241350Y374331D02*
D03*
X247650D02*
D03*
X241350Y365669D02*
D03*
X247650D02*
D03*
D27*
X360976Y304173D02*
D03*
Y301024D02*
D03*
Y297874D02*
D03*
Y282126D02*
D03*
Y278976D02*
D03*
Y275827D02*
D03*
X364126Y304173D02*
D03*
Y301024D02*
D03*
Y297874D02*
D03*
Y294724D02*
D03*
Y291575D02*
D03*
Y288425D02*
D03*
Y285276D02*
D03*
Y282126D02*
D03*
Y278976D02*
D03*
Y275827D02*
D03*
X367276Y304173D02*
D03*
Y301024D02*
D03*
Y297874D02*
D03*
Y294724D02*
D03*
Y291575D02*
D03*
Y288425D02*
D03*
Y285276D02*
D03*
Y282126D02*
D03*
Y278976D02*
D03*
Y275827D02*
D03*
X370425Y301024D02*
D03*
Y297874D02*
D03*
Y294724D02*
D03*
Y291575D02*
D03*
Y288425D02*
D03*
Y285276D02*
D03*
Y282126D02*
D03*
Y278976D02*
D03*
X373575Y301024D02*
D03*
Y297874D02*
D03*
Y294724D02*
D03*
Y291575D02*
D03*
Y288425D02*
D03*
Y285276D02*
D03*
Y282126D02*
D03*
Y278976D02*
D03*
X376724Y304173D02*
D03*
Y301024D02*
D03*
Y297874D02*
D03*
Y294724D02*
D03*
Y291575D02*
D03*
Y288425D02*
D03*
Y285276D02*
D03*
Y282126D02*
D03*
Y278976D02*
D03*
Y275827D02*
D03*
X379874Y304173D02*
D03*
Y301024D02*
D03*
Y297874D02*
D03*
Y294724D02*
D03*
Y291575D02*
D03*
Y288425D02*
D03*
Y285276D02*
D03*
Y282126D02*
D03*
Y278976D02*
D03*
Y275827D02*
D03*
X383024Y304173D02*
D03*
Y301024D02*
D03*
Y297874D02*
D03*
Y282126D02*
D03*
Y278976D02*
D03*
D28*
X239500Y247701D02*
D03*
Y235299D02*
D03*
D29*
X322949Y240689D02*
D03*
X320980D02*
D03*
X319012D02*
D03*
X317043D02*
D03*
X315075D02*
D03*
X313106D02*
D03*
X311138D02*
D03*
X309169D02*
D03*
X307201D02*
D03*
X305232D02*
D03*
X303264D02*
D03*
X301295D02*
D03*
X299327D02*
D03*
X297358D02*
D03*
X295390D02*
D03*
X293421D02*
D03*
X291453D02*
D03*
X289484D02*
D03*
X287516D02*
D03*
X285547D02*
D03*
X283579D02*
D03*
X281610D02*
D03*
X279642D02*
D03*
X277673D02*
D03*
X275705D02*
D03*
X273736D02*
D03*
X271768D02*
D03*
X269799D02*
D03*
X267831D02*
D03*
X265862D02*
D03*
X263894D02*
D03*
X261925D02*
D03*
X259957D02*
D03*
X257988D02*
D03*
X256020D02*
D03*
X254051D02*
D03*
Y324311D02*
D03*
X256020D02*
D03*
X257988D02*
D03*
X259957D02*
D03*
X261925D02*
D03*
X263894D02*
D03*
X265862D02*
D03*
X267831D02*
D03*
X269799D02*
D03*
X271768D02*
D03*
X273736D02*
D03*
X275705D02*
D03*
X277673D02*
D03*
X279642D02*
D03*
X281610D02*
D03*
X283579D02*
D03*
X285547D02*
D03*
X287516D02*
D03*
X289484D02*
D03*
X291453D02*
D03*
X293421D02*
D03*
X295390D02*
D03*
X297358D02*
D03*
X299327D02*
D03*
X301295D02*
D03*
X303264D02*
D03*
X305232D02*
D03*
X307201D02*
D03*
X309169D02*
D03*
X311138D02*
D03*
X313106D02*
D03*
X315075D02*
D03*
X317043D02*
D03*
X319012D02*
D03*
X320980D02*
D03*
X322949D02*
D03*
D30*
X246689Y248051D02*
D03*
Y250020D02*
D03*
Y251988D02*
D03*
Y253957D02*
D03*
Y255925D02*
D03*
Y257894D02*
D03*
Y259862D02*
D03*
Y261831D02*
D03*
Y263799D02*
D03*
Y265768D02*
D03*
Y267736D02*
D03*
Y269705D02*
D03*
Y271673D02*
D03*
Y273642D02*
D03*
Y275610D02*
D03*
Y277579D02*
D03*
Y279547D02*
D03*
Y281516D02*
D03*
Y283484D02*
D03*
Y285453D02*
D03*
Y287421D02*
D03*
Y289390D02*
D03*
Y291358D02*
D03*
Y293327D02*
D03*
Y295295D02*
D03*
Y297264D02*
D03*
Y299232D02*
D03*
Y301201D02*
D03*
Y303169D02*
D03*
Y305138D02*
D03*
Y307106D02*
D03*
Y309075D02*
D03*
Y311043D02*
D03*
Y313012D02*
D03*
Y314980D02*
D03*
Y316949D02*
D03*
X330311D02*
D03*
Y314980D02*
D03*
Y313012D02*
D03*
Y311043D02*
D03*
Y309075D02*
D03*
Y307106D02*
D03*
Y305138D02*
D03*
Y303169D02*
D03*
Y301201D02*
D03*
Y299232D02*
D03*
Y297264D02*
D03*
Y295295D02*
D03*
Y293327D02*
D03*
Y291358D02*
D03*
Y289390D02*
D03*
Y287421D02*
D03*
Y285453D02*
D03*
Y283484D02*
D03*
Y281516D02*
D03*
Y279547D02*
D03*
Y277579D02*
D03*
Y275610D02*
D03*
Y273642D02*
D03*
Y271673D02*
D03*
Y269705D02*
D03*
Y267736D02*
D03*
Y265768D02*
D03*
Y263799D02*
D03*
Y261831D02*
D03*
Y259862D02*
D03*
Y257894D02*
D03*
Y255925D02*
D03*
Y253957D02*
D03*
Y251988D02*
D03*
Y250020D02*
D03*
Y248051D02*
D03*
D31*
X316000Y234587D02*
X316587Y234000D01*
X396000Y280500D02*
X397000D01*
X291218Y333561D02*
X295364Y329415D01*
X303264Y324311D02*
Y329736D01*
X261000Y334500D02*
X262500Y333000D01*
X347000Y310500D02*
X367500D01*
X329705Y307500D02*
X330205Y307000D01*
X316000Y254000D02*
Y255000D01*
X260250Y328250D02*
X260500Y328500D01*
X293421Y237360D02*
X294781Y236000D01*
X293421Y237360D02*
Y240689D01*
X294781Y236000D02*
X300000D01*
X342500Y364500D02*
X344264Y362736D01*
X334000Y364500D02*
X342500D01*
X332500Y366000D02*
X334000Y364500D01*
X332500Y366000D02*
Y375000D01*
Y353000D02*
Y366000D01*
X344264Y361000D02*
Y362736D01*
X342000Y353500D02*
X345264Y350236D01*
X348000D01*
X339736Y354508D02*
Y361000D01*
X303000Y245500D02*
X303264Y245236D01*
Y240689D02*
Y245236D01*
X307606Y236106D02*
X311606D01*
X306500Y235000D02*
X307606Y236106D01*
X306500Y233500D02*
Y235000D01*
X311606Y236106D02*
X313000Y237500D01*
Y240000D01*
X317043Y238654D02*
Y240689D01*
X316000Y237611D02*
X317043Y238654D01*
X316000Y234587D02*
Y237611D01*
X318500Y235476D02*
X319012Y235988D01*
X318500Y234000D02*
Y235476D01*
X316000Y234000D02*
X316587D01*
X298500Y235000D02*
X300000Y233500D01*
X294000Y235000D02*
X298500D01*
X322000Y231500D02*
Y234500D01*
X320980Y235520D02*
X322000Y234500D01*
X320980Y235520D02*
Y240689D01*
X291453Y237547D02*
X294000Y235000D01*
X291453Y237547D02*
Y240689D01*
X278000Y249000D02*
X317500D01*
X276750Y250250D02*
X317250D01*
X273736Y244736D02*
X278000Y249000D01*
X271768Y245268D02*
X276750Y250250D01*
X319012Y235988D02*
Y240689D01*
X320364Y256636D02*
X322949Y254051D01*
Y240689D02*
Y254051D01*
X315636Y256636D02*
X320364D01*
X313000Y254000D02*
X315636Y256636D01*
X317500Y249000D02*
X319000Y247500D01*
X320000D01*
X315728Y254415D02*
Y254728D01*
X316000Y255000D01*
X318000Y251000D02*
Y255000D01*
X317250Y250250D02*
X318000Y251000D01*
X314500Y252000D02*
X316000Y253500D01*
X312500Y244500D02*
Y247000D01*
X311138Y243138D02*
X312500Y244500D01*
X311138Y240689D02*
Y243138D01*
X309169Y244169D02*
X310500Y245500D01*
X309169Y240689D02*
Y244169D01*
X305232Y245732D02*
X305500Y246000D01*
X305232Y240689D02*
Y245732D01*
X307201Y245201D02*
X308000Y246000D01*
X307201Y240689D02*
Y245201D01*
X330016Y270000D02*
X330311Y269705D01*
X325500Y270000D02*
X330016D01*
X379500Y239764D02*
Y242500D01*
X330047Y268000D02*
X330311Y267736D01*
X324500Y268000D02*
X330047D01*
X323000Y266500D02*
X324500Y268000D01*
X325500Y265500D02*
X325768Y265768D01*
X330311D01*
X353500Y239500D02*
Y242000D01*
X378811Y234547D02*
X379500Y235236D01*
X373500Y234547D02*
X378811D01*
X365811D02*
X366500Y235236D01*
X360500Y234547D02*
X365811D01*
X353075D02*
X353500Y234972D01*
X347500Y234547D02*
X353075D01*
X356000Y302500D02*
Y304000D01*
X369000Y302748D02*
Y306000D01*
X367276Y301024D02*
X369000Y302748D01*
X282984Y384138D02*
X283000Y384154D01*
X305232Y324311D02*
Y329732D01*
X306500Y331000D01*
X330311Y316949D02*
X331000Y317638D01*
X336268Y289732D02*
X337000D01*
X334000Y292000D02*
X336268Y289732D01*
X334000Y292000D02*
Y299000D01*
X333768Y299232D02*
X334000Y299000D01*
X330311Y299232D02*
X333768D01*
X239000Y261732D02*
Y262000D01*
X246642Y285500D02*
X246689Y285453D01*
X269232Y333000D02*
X272000D01*
X273142Y334142D01*
Y338862D01*
X247650Y365669D02*
X254307Y372327D01*
X259362D01*
X241350Y374331D02*
Y376850D01*
X243000Y378500D01*
X250500D02*
X254705Y374295D01*
X259362D01*
X242000Y359732D02*
X243232D01*
X247650Y364150D01*
Y365669D01*
X362657Y345500D02*
X362984Y345827D01*
X378339Y345319D02*
X378658Y345000D01*
X383457Y347602D02*
Y352976D01*
Y347602D02*
X386000Y345059D01*
X392500D01*
X385732Y263000D02*
X385732Y263000D01*
X300110Y368390D02*
X304638D01*
X300000Y368500D02*
X300110Y368390D01*
X265862Y324311D02*
Y329138D01*
X299500Y358500D02*
X304591D01*
X304638Y358547D01*
X257988Y320012D02*
Y324311D01*
Y320012D02*
X258000Y320000D01*
X299000Y356000D02*
X299579Y356579D01*
X304638D01*
X256020Y318980D02*
Y324311D01*
Y318980D02*
X257000Y318000D01*
X263500D01*
X301016Y362484D02*
X304638D01*
X300500Y363000D02*
X301016Y362484D01*
X332784Y383961D02*
Y388000D01*
X259362Y364453D02*
X263453D01*
X264050Y365050D01*
Y365950D01*
X330224Y383961D02*
Y388000D01*
X259362Y362484D02*
X263305D01*
X264961Y364140D01*
X265860D01*
X291453Y240689D02*
X291500Y240642D01*
X279642Y236858D02*
X280000Y236500D01*
X279642Y236858D02*
Y240689D01*
X281610Y233622D02*
X281732Y233500D01*
X269799Y240689D02*
Y245299D01*
X271768Y240689D02*
Y245268D01*
X273736Y240689D02*
Y244736D01*
X269799Y245299D02*
X276500Y252000D01*
X296764Y336236D02*
Y338862D01*
Y336236D02*
X299327Y333673D01*
Y324311D02*
Y333673D01*
X280232Y330500D02*
X281500D01*
X291158Y329925D02*
Y333500D01*
X290732Y329500D02*
X291158Y329925D01*
X307768Y331000D02*
X307768Y331000D01*
X315075Y324311D02*
Y328425D01*
X315000Y328500D02*
X315075Y328425D01*
X304500Y345000D02*
Y346598D01*
X304638Y346736D01*
X313106Y324311D02*
Y328384D01*
X312500Y328990D02*
X313106Y328384D01*
X293500Y343000D02*
X294500D01*
X292827Y342327D02*
X293500Y343000D01*
X292827Y338862D02*
Y342327D01*
X311138Y324311D02*
Y327362D01*
X310000Y328500D02*
X311138Y327362D01*
X310000Y328500D02*
Y329000D01*
X290858Y342858D02*
X291000Y343000D01*
X290858Y338862D02*
Y342858D01*
X309169Y324311D02*
Y327331D01*
X307500Y329000D02*
X309169Y327331D01*
X288500Y343500D02*
X288890Y343110D01*
Y338862D02*
Y343110D01*
X307201Y320701D02*
Y324311D01*
X307000Y320500D02*
X307201Y320701D01*
X286000Y343500D02*
X286921Y342579D01*
Y338862D02*
Y342579D01*
X283000Y343500D02*
X284953Y341547D01*
Y338862D02*
Y341547D01*
X303264Y329736D02*
X303500Y329500D01*
X301295Y324311D02*
Y328205D01*
X301000Y328500D02*
X301295Y328205D01*
X281000Y338846D02*
X281016Y338862D01*
X297358Y324311D02*
Y328642D01*
X295364Y324337D02*
X295390Y324311D01*
X295364Y324337D02*
Y329415D01*
X297000Y329000D02*
X297358Y328642D01*
X281000Y335000D02*
Y338846D01*
X280040Y332960D02*
X282173D01*
X279047Y333953D02*
X280040Y332960D01*
X279047Y333953D02*
Y338862D01*
X293421Y320579D02*
Y324311D01*
Y320579D02*
X293500Y320500D01*
X285547Y320047D02*
Y324311D01*
X277000Y338784D02*
X277079Y338862D01*
X281500Y324201D02*
X281610Y324311D01*
X281500Y320500D02*
Y324201D01*
X277000Y335000D02*
Y338784D01*
X274547Y332826D02*
X275110Y333390D01*
Y338862D01*
X271500Y343000D02*
X275000D01*
X271173Y342673D02*
X271500Y343000D01*
X271173Y338862D02*
Y342673D01*
X277673Y320673D02*
Y324311D01*
X276500Y319500D02*
X277673Y320673D01*
X269000Y339067D02*
Y343500D01*
Y339067D02*
X269205Y338862D01*
X275705Y321205D02*
Y324311D01*
X273500Y319000D02*
X275705Y321205D01*
X267236Y338862D02*
Y341264D01*
X265500Y343000D02*
X267236Y341264D01*
X273736Y321736D02*
Y324311D01*
X271000Y319000D02*
X273736Y321736D01*
X271000Y317500D02*
Y319000D01*
X267831Y324311D02*
Y328831D01*
X268000Y329000D01*
X269000D01*
X265500Y329500D02*
X265862Y329138D01*
X260250Y328250D02*
X261925Y326575D01*
X260000Y328500D02*
X260500D01*
X261925Y324311D02*
Y326575D01*
X263864Y324341D02*
X263894Y324311D01*
X259500Y345000D02*
Y346598D01*
X259362Y346736D02*
X259500Y346598D01*
X263894Y324311D02*
Y327606D01*
X262500Y329000D02*
X263894Y327606D01*
X262500Y329000D02*
Y333000D01*
X261000Y334500D02*
X261500D01*
X242500Y347264D02*
X242764D01*
X255500Y350000D02*
X256173Y350673D01*
X259362D01*
X253842Y366421D02*
X259362D01*
X253500Y366764D02*
X253842Y366421D01*
X276500Y252000D02*
X314500D01*
X370425Y301024D02*
Y307575D01*
X376724Y301024D02*
X378281Y302581D01*
X376724Y297874D02*
X378317Y296282D01*
X376724Y294724D02*
X378281Y293167D01*
X365683Y299466D02*
X367276Y297874D01*
X356000Y302500D02*
X356081Y302581D01*
X372018Y283683D02*
X373575Y282126D01*
X370500Y276000D02*
Y278902D01*
X370425Y278976D02*
X370500Y278902D01*
X376724Y282126D02*
X377374D01*
X378281Y281219D01*
Y275182D02*
Y281219D01*
X374600Y271500D02*
X378281Y275182D01*
X374000Y271500D02*
X374600D01*
X379874Y278976D02*
X380024D01*
X382500Y276500D01*
X363178Y278976D02*
X364126D01*
X361621Y277419D02*
X363178Y278976D01*
X359081Y277419D02*
X361621D01*
X358500Y278000D02*
X359081Y277419D01*
X330205Y307000D02*
X330311Y307106D01*
X337500Y306276D02*
Y307268D01*
X325201Y301201D02*
X330311D01*
X325000Y301000D02*
X325201Y301201D01*
X325795Y295295D02*
X330311D01*
X325500Y295000D02*
X325795Y295295D01*
X325827Y293327D02*
X330311D01*
X325500Y293000D02*
X325827Y293327D01*
X325500Y292500D02*
Y293000D01*
X326858Y291358D02*
X330311D01*
X326000Y287500D02*
Y287864D01*
X325000Y290000D02*
X325500D01*
X326858Y291358D01*
X327526Y289390D02*
X330311D01*
X326000Y287864D02*
X327526Y289390D01*
X330311Y251988D02*
X333512D01*
X330311Y248051D02*
X332900D01*
X330311Y250020D02*
X333480D01*
X333512Y251988D02*
X338640Y246860D01*
X330311Y253957D02*
X334043D01*
X337500Y250500D01*
X377000Y270000D02*
X382500Y275500D01*
Y276500D01*
X304638Y368390D02*
X307890D01*
X308500Y369000D01*
Y372000D01*
X304638Y366421D02*
X308921D01*
X311000Y355000D02*
Y355535D01*
X309500Y362000D02*
X318736D01*
X309000Y362500D02*
X309500Y362000D01*
X304654Y362500D02*
X309000D01*
X304638Y362484D02*
X304654Y362500D01*
X339728Y338500D02*
X347236D01*
X304000Y395000D02*
X307000Y392000D01*
X276736Y391000D02*
Y392236D01*
X279500Y395000D01*
X304000D01*
X271173Y384138D02*
Y387673D01*
X306000Y397000D02*
X309000Y394000D01*
X278000Y397000D02*
X306000D01*
X273500Y392500D02*
X278000Y397000D01*
X273500Y391000D02*
Y392500D01*
X275813Y391000D02*
X276736D01*
X274178Y389364D02*
X275813Y391000D01*
X272864Y389364D02*
X274178D01*
X271173Y387673D02*
X272864Y389364D01*
X273937Y387937D02*
X275063D01*
X273142Y387142D02*
X273937Y387937D01*
X273142Y384138D02*
Y387142D01*
X365719Y277419D02*
X367276Y278976D01*
X376724Y278474D02*
Y278976D01*
X358313Y260063D02*
X376724Y278474D01*
X365719Y269781D02*
Y277419D01*
X269205Y380795D02*
Y384138D01*
X309000Y385000D02*
Y394000D01*
Y385000D02*
X314500Y379500D01*
X328000D01*
X307000Y384500D02*
Y392000D01*
Y384500D02*
X313500Y378000D01*
X325000D01*
X308921Y366421D02*
X311000Y368500D01*
X317236D01*
X309500Y373000D02*
X317236D01*
X308500Y372000D02*
X309500Y373000D01*
X311500Y376000D02*
X324000D01*
X328000Y372000D01*
X325000Y378000D02*
X330000Y373000D01*
Y351000D02*
Y373000D01*
Y351000D02*
X337500Y343500D01*
X339728D01*
X328000Y348000D02*
Y372000D01*
Y348000D02*
X337500Y338500D01*
X339728D01*
X328000Y379500D02*
X332500Y375000D01*
X337000Y348500D02*
X339728D01*
X332500Y353000D02*
X337000Y348500D01*
X321500Y305000D02*
X321638Y305138D01*
X325500Y258000D02*
X325606Y257894D01*
X281610Y245110D02*
X282000Y245500D01*
X251299Y263799D02*
X251500Y264000D01*
X251453Y285453D02*
X251500Y285500D01*
X283500Y316500D02*
X283579Y316579D01*
X305232Y321232D02*
Y324311D01*
X303000Y319000D02*
X305232Y321232D01*
X294795Y338862D02*
Y340795D01*
X348000Y354764D02*
Y358000D01*
X362500Y341500D02*
X362657Y341657D01*
X337232Y253768D02*
X338500D01*
X335500Y255500D02*
X337232Y253768D01*
X315075Y240689D02*
Y244925D01*
X315000Y245000D02*
X315075Y244925D01*
X269205Y380795D02*
X272000Y378000D01*
X309500D01*
X311500Y376000D01*
X294795Y380205D02*
X295000Y380000D01*
X282984Y380016D02*
X283000Y380000D01*
X279642Y320642D02*
Y324311D01*
X278500Y319500D02*
X279642Y320642D01*
X278500Y317000D02*
Y319500D01*
X279642Y324311D02*
Y327358D01*
X276768Y330232D02*
X279642Y327358D01*
X276768Y330232D02*
Y330500D01*
X270724Y330990D02*
X270734Y331000D01*
X267510Y330990D02*
X270724D01*
X265768Y332732D02*
X267510Y330990D01*
X265768Y332732D02*
Y333000D01*
X270734Y331000D02*
X271234Y330500D01*
X276768D01*
X285842Y332658D02*
Y333500D01*
Y332658D02*
X287268Y331232D01*
Y329500D02*
Y331232D01*
X282984Y336358D02*
Y338862D01*
Y336358D02*
X285842Y333500D01*
X282984Y338862D02*
Y341016D01*
X280000Y344000D02*
X282984Y341016D01*
X279500Y344000D02*
X280000D01*
X324000Y297000D02*
X324264Y297264D01*
X330311D01*
X324000Y307500D02*
X329705D01*
X323894Y303106D02*
X323957Y303169D01*
X330311D01*
X310610Y354610D02*
X311000Y355000D01*
X242764Y347264D02*
X244500Y349000D01*
X364126Y294724D02*
X364224D01*
X365781Y296282D01*
X368833D01*
X370425Y297874D01*
X360500Y291098D02*
X364126Y294724D01*
X360500Y291000D02*
Y291098D01*
X321764Y373000D02*
X323500D01*
X324500Y372000D01*
Y370500D02*
Y372000D01*
X321764Y368500D02*
X324000D01*
X324500Y369000D01*
Y370500D01*
X294500Y363000D02*
Y372000D01*
Y363000D02*
X296984Y360516D01*
X304638D01*
X297500Y368500D02*
Y370500D01*
Y368500D02*
X299579Y366421D01*
X304638D01*
X243000Y378500D02*
X250500D01*
X377000Y252500D02*
Y270000D01*
X387000Y250000D02*
Y250563D01*
X395563Y311500D02*
X397000Y310063D01*
X367500Y310500D02*
X370425Y307575D01*
X378281Y302581D02*
X394482D01*
X397000Y300063D01*
X368000Y307000D02*
X369000Y306000D01*
X356000Y304000D02*
X359000Y307000D01*
X368000D01*
X347500Y299466D02*
X365683D01*
X353500Y242000D02*
X353750Y242250D01*
X366500Y239764D02*
Y242500D01*
X332900Y248051D02*
X336452Y244500D01*
X381500D01*
X387000Y250000D01*
X337640Y245860D02*
X370360D01*
X333480Y250020D02*
X337640Y245860D01*
X363297Y246860D02*
X367000Y250563D01*
X370360Y245860D02*
X377000Y252500D01*
X338640Y246860D02*
X363297D01*
X330311Y261831D02*
X345232D01*
X347000Y260063D01*
X358313D01*
X330311Y263799D02*
X341799D01*
X348000Y271500D02*
X360183Y283683D01*
X372018D01*
X341799Y263799D02*
X348000Y270000D01*
Y271500D01*
X347000Y280748D02*
X364126Y297874D01*
X378281Y293167D02*
X383333D01*
X396000Y280500D01*
X378317Y296282D02*
X390781D01*
X397000Y290063D01*
X373575Y301024D02*
Y303575D01*
X381500Y311500D01*
X395563D01*
X346937Y250500D02*
X347000Y250563D01*
X337500Y250500D02*
X346937D01*
X330311Y259862D02*
X341138D01*
X346000Y255000D01*
X352563D01*
X357000Y250563D01*
X322949Y238051D02*
Y240689D01*
Y238051D02*
X329000Y232000D01*
X330736D01*
X338339Y257894D02*
X339500Y256732D01*
X306500Y331000D02*
X307768D01*
X311500Y347732D02*
X312268Y348500D01*
X310953Y364453D02*
X311884Y365384D01*
D32*
X265500Y385000D02*
X267268Y386768D01*
X362984Y352976D02*
X365543D01*
X378339D02*
X380898D01*
X362984Y345827D02*
Y352976D01*
X296764Y384138D02*
Y389496D01*
X298268Y391000D01*
X362657Y345500D02*
X366500D01*
X362657Y341657D02*
Y345500D01*
X335343Y378157D02*
Y383961D01*
Y378157D02*
X337842Y375658D01*
X342500D01*
X349158D01*
X353500Y380000D01*
X363500D02*
X364264Y379236D01*
Y375024D02*
Y379236D01*
X362984Y375024D02*
X364264D01*
X365543D01*
X378232Y380268D02*
X379618Y378882D01*
Y375024D02*
Y378882D01*
X378339Y375024D02*
X379618D01*
X380898D01*
X362000Y380268D02*
X378000D01*
X378232D01*
X255110Y354610D02*
X259362D01*
X267268Y386768D02*
Y391000D01*
X296902Y384000D02*
X298500D01*
X296764Y384138D02*
X296902Y384000D01*
X299500Y352000D02*
X302110Y354610D01*
X304638D01*
X310610D01*
X255000Y354500D02*
X255110Y354610D01*
X251000Y357232D02*
X252268D01*
X255000Y354500D01*
X353500Y380000D02*
X363500D01*
D33*
X246677Y279535D02*
X246713Y279500D01*
X270500Y229000D02*
X273768D01*
X239000Y274500D02*
X240500D01*
X303500Y230000D02*
Y236000D01*
X301295Y238205D02*
X303500Y236000D01*
X301295Y238205D02*
Y240689D01*
X303500Y230000D02*
X304000Y230500D01*
X303000Y229500D02*
X303500Y230000D01*
X340232Y324425D02*
X340657Y324000D01*
X340232Y324425D02*
Y331500D01*
X340657Y317657D02*
Y324000D01*
X337980Y314980D02*
X340657Y317657D01*
X330311Y314980D02*
X337980D01*
X295500Y247000D02*
X296916D01*
X297597Y247681D01*
X299819D01*
X301114Y246386D01*
Y240870D02*
Y246386D01*
Y240870D02*
X301295Y240689D01*
X300232Y229500D02*
X303000D01*
X305268Y230500D02*
X305768Y230000D01*
X304000Y230500D02*
X305268D01*
X298500Y245500D02*
X299000D01*
X299327Y245173D01*
Y240689D02*
Y245173D01*
X275000Y233000D02*
X277768D01*
X371047Y238000D02*
X373500Y240453D01*
X370500Y238000D02*
X371047D01*
X358047D02*
X360500Y240453D01*
X357500Y238000D02*
X358047D01*
X346953Y240453D02*
X347500D01*
X344500Y238000D02*
X346953Y240453D01*
X362254Y302895D02*
X364126Y301024D01*
X364126D01*
X373575Y278976D02*
X374878Y280279D01*
X379874Y301024D02*
X381177Y299721D01*
X281264Y391000D02*
X283000Y389264D01*
Y384154D02*
Y389264D01*
X312268Y348500D02*
X318272D01*
X331000Y317638D02*
Y321500D01*
X333500Y324000D01*
X330311Y305138D02*
X336362D01*
X337500Y304000D01*
Y301658D02*
Y304000D01*
X330311Y257894D02*
X338339D01*
X268268Y231232D02*
Y234000D01*
Y231232D02*
X270500Y229000D01*
X239000Y262000D02*
X240799Y263799D01*
X246689D01*
X240500Y274500D02*
X242000Y276000D01*
Y278000D01*
X239000Y279535D02*
X243535D01*
X246677D01*
X242000Y278000D02*
X243535Y279535D01*
X239000Y287768D02*
X241268Y285500D01*
X246642D01*
X239500Y322732D02*
X241079Y324311D01*
X248232Y331000D02*
X251500D01*
X254051Y328449D01*
Y324311D02*
Y328449D01*
Y329283D02*
X256268Y331500D01*
X254051Y328449D02*
Y329283D01*
X255500Y386268D02*
X261000D01*
X264000Y383268D01*
X262858Y370358D02*
X264000Y371500D01*
X259362Y370358D02*
X262858D01*
X290232Y391000D02*
X293000D01*
X294795Y389205D01*
Y384138D02*
Y389205D01*
X378339Y345319D02*
Y352976D01*
X385732Y263000D02*
Y268500D01*
X281500Y330500D02*
X283579Y328421D01*
Y324311D02*
Y328421D01*
X336362Y305138D02*
X337500Y306276D01*
X385732Y263000D02*
X394063D01*
X304638Y364453D02*
X310953D01*
X325606Y257894D02*
X330311D01*
X281610Y240689D02*
Y245110D01*
X246689Y263799D02*
X251299D01*
X246689Y285453D02*
X251453D01*
X241079Y324311D02*
X249500D01*
X254051D01*
X283579Y316579D02*
Y324311D01*
X296500Y342500D02*
X309232D01*
X311500Y340232D01*
X316539D01*
X318272Y338500D01*
Y348500D02*
X323500D01*
X294795Y380205D02*
Y384138D01*
X282984Y380016D02*
Y384138D01*
X264000Y371500D02*
Y379500D01*
Y383268D01*
X265000Y336000D02*
X265500Y335500D01*
X265000Y336000D02*
Y338000D01*
X295390Y320110D02*
Y324311D01*
Y320110D02*
X297000Y318500D01*
Y315000D02*
Y318500D01*
X330193Y299114D02*
X330311Y299232D01*
X317000Y299500D02*
X317386Y299114D01*
X330193D01*
X246713Y279500D02*
X253500D01*
X258000Y240701D02*
Y247000D01*
X257988Y240689D02*
X258000Y240701D01*
X257988Y236512D02*
Y240689D01*
Y236512D02*
X260500Y234000D01*
X268268D01*
X277768Y233000D02*
X278268Y233500D01*
X281886Y235719D02*
Y240413D01*
X281610Y235443D02*
X281886Y235719D01*
X281610Y233622D02*
Y235443D01*
Y240689D02*
X281886Y240413D01*
X320000Y331000D02*
X324736D01*
X351500Y338764D02*
Y341500D01*
Y338764D02*
X351764Y338500D01*
X316500Y335500D02*
X318272Y337272D01*
Y338500D01*
X257000Y335500D02*
X257500D01*
X259732Y333268D01*
Y331500D02*
Y333268D01*
X321638Y305138D02*
X330311D01*
X250732Y346000D02*
X253500D01*
X256516Y360516D02*
X259362D01*
X255760Y359760D02*
X256516Y360516D01*
X245732Y352500D02*
Y357232D01*
Y352500D02*
X247500D01*
X250732Y349268D01*
X245732Y357232D02*
X248260Y359760D01*
X250073D01*
X250079Y359754D01*
X251641D01*
X251647Y359760D01*
X255760D01*
X250860Y361640D02*
X252404D01*
X253500Y362736D01*
X301214Y364453D02*
X304638D01*
X300781Y364886D02*
X301214Y364453D01*
X297114Y364886D02*
X300781D01*
X297000Y365000D02*
X297114Y364886D01*
X265500Y335500D02*
X268500D01*
X269232Y334768D01*
Y333000D02*
Y334768D01*
X270500Y391232D02*
Y394000D01*
Y391232D02*
X270732Y391000D01*
X239500Y247701D02*
X241701D01*
X242000Y248000D01*
X246638D01*
X246689Y248051D01*
X239500Y235299D02*
X243799D01*
X244500Y236000D01*
X333500Y324000D02*
X335343D01*
Y330075D01*
X329264Y331000D02*
X336268D01*
X335343Y330075D02*
X336268Y331000D01*
X336768Y331500D01*
X394063Y263000D02*
X397000Y260063D01*
X250732Y346000D02*
Y349268D01*
D34*
X294795Y340795D02*
X296500Y342500D01*
D35*
X378658Y340657D02*
Y345000D01*
X376500Y338500D02*
X378658Y340657D01*
X376500Y338500D02*
X380500D01*
X381941Y339941D01*
X386000D01*
D36*
X397000Y260063D02*
D03*
X347000Y310063D02*
D03*
D37*
X397000Y270063D02*
D03*
Y280063D02*
D03*
Y290063D02*
D03*
Y300063D02*
D03*
Y310063D02*
D03*
X347000Y300063D02*
D03*
Y290063D02*
D03*
Y280063D02*
D03*
Y270063D02*
D03*
Y260063D02*
D03*
X357000Y250563D02*
D03*
X367000D02*
D03*
X377000D02*
D03*
X387000D02*
D03*
X397000D02*
D03*
D38*
X347000D02*
D03*
D39*
X324921Y233020D02*
D03*
X297362D02*
D03*
X295500Y247000D02*
D03*
X298500Y245500D02*
D03*
X310000Y234000D02*
D03*
X275000Y233000D02*
D03*
X370500Y238000D02*
D03*
X357500D02*
D03*
X344500D02*
D03*
X383500Y309000D02*
D03*
X353000Y307000D02*
D03*
X372500Y262500D02*
D03*
X355000Y272500D02*
D03*
X251500Y285500D02*
D03*
Y264000D02*
D03*
X244500Y236000D02*
D03*
X282000Y245500D02*
D03*
X325500Y258000D02*
D03*
X321500Y305000D02*
D03*
X249500Y324311D02*
D03*
X251500Y331000D02*
D03*
X283500Y316500D02*
D03*
X303000Y319000D02*
D03*
X316500Y335500D02*
D03*
X323500Y348500D02*
D03*
X348000Y358000D02*
D03*
X362500Y341500D02*
D03*
X366500Y345500D02*
D03*
X335500Y255500D02*
D03*
X287000Y235500D02*
D03*
X349000Y384500D02*
D03*
X351000Y394000D02*
D03*
X311500Y387000D02*
D03*
X301500Y386500D02*
D03*
X295000Y380000D02*
D03*
X283000D02*
D03*
X270500Y394000D02*
D03*
X264000Y379500D02*
D03*
X257000Y335500D02*
D03*
X241000Y340500D02*
D03*
X253500Y346000D02*
D03*
X278500Y317000D02*
D03*
X279500Y344000D02*
D03*
X376500Y338500D02*
D03*
X297000Y315000D02*
D03*
X317000Y299500D02*
D03*
X253500Y279500D02*
D03*
X258000Y247000D02*
D03*
X320000Y331000D02*
D03*
X351500Y341500D02*
D03*
X265500Y385000D02*
D03*
X298500Y384000D02*
D03*
X299500Y352000D02*
D03*
X255000Y354500D02*
D03*
X360500Y291000D02*
D03*
X324500Y370500D02*
D03*
X297000Y365000D02*
D03*
D40*
X354468Y325917D02*
D03*
D41*
X252260Y221358D02*
D03*
D42*
X300000Y236000D02*
D03*
X303000Y245500D02*
D03*
X306500Y233500D02*
D03*
X318500Y234000D02*
D03*
X316000D02*
D03*
X300000Y233500D02*
D03*
X322000Y231500D02*
D03*
X320000Y247500D02*
D03*
X315728Y254415D02*
D03*
X318000Y255000D02*
D03*
X305500Y246000D02*
D03*
X308000D02*
D03*
X312500Y247000D02*
D03*
X310500Y245500D02*
D03*
X313000Y254000D02*
D03*
X325500Y270000D02*
D03*
X323000Y266500D02*
D03*
X325500Y265500D02*
D03*
X300000Y368500D02*
D03*
X297500Y370500D02*
D03*
X294500Y372000D02*
D03*
X299500Y358500D02*
D03*
X258000Y320000D02*
D03*
X299000Y356000D02*
D03*
X263500Y318000D02*
D03*
X300000Y363000D02*
D03*
X264050Y365950D02*
D03*
X265860Y364140D02*
D03*
X332784Y388000D02*
D03*
X330224D02*
D03*
X280000Y236500D02*
D03*
X315000Y328500D02*
D03*
X304500Y345000D02*
D03*
X312500Y328990D02*
D03*
X294500Y343000D02*
D03*
X310000Y329000D02*
D03*
X291000Y343000D02*
D03*
X307500Y329000D02*
D03*
X288500Y343500D02*
D03*
X307000Y320500D02*
D03*
X286000Y343500D02*
D03*
X283000D02*
D03*
X303500Y329500D02*
D03*
X301000Y328500D02*
D03*
X297000Y329000D02*
D03*
X281000Y335000D02*
D03*
X282173Y332960D02*
D03*
X293500Y320500D02*
D03*
X285500Y320000D02*
D03*
X281500Y320500D02*
D03*
X277000Y335000D02*
D03*
X274547Y332826D02*
D03*
X275000Y343000D02*
D03*
X276500Y319500D02*
D03*
X269000Y343500D02*
D03*
X273500Y319000D02*
D03*
X265500Y343000D02*
D03*
X271000Y317500D02*
D03*
X269000Y329000D02*
D03*
X265500Y329500D02*
D03*
X260000Y328500D02*
D03*
X259500Y345000D02*
D03*
X261500Y334500D02*
D03*
X255500Y350000D02*
D03*
X356000Y302500D02*
D03*
X370500Y276000D02*
D03*
X374000Y271500D02*
D03*
X358500Y278000D02*
D03*
X325000Y301000D02*
D03*
X325500Y295000D02*
D03*
Y292500D02*
D03*
X326000Y287500D02*
D03*
X325000Y290000D02*
D03*
X273500Y391000D02*
D03*
X275063Y387937D02*
D03*
X365719Y269781D02*
D03*
X315000Y245000D02*
D03*
X265000Y338000D02*
D03*
X324000Y297000D02*
D03*
Y307500D02*
D03*
X323894Y303106D02*
D03*
X244500Y349000D02*
D03*
X250860Y361640D02*
D03*
X353750Y242250D02*
D03*
X366500Y242500D02*
D03*
X379500D02*
D03*
M02*
