M48
;Layer_Color=9474304
;FILE_FORMAT=2:5
INCH,TZ
;TYPE=PLATED
T1F00S00C0.01181
T2F00S00C0.02362
T3F00S00C0.03543
%
T01
X627500Y190500
X630485Y189553
X633900Y191600
X635138Y196500
X641500Y198500
X642500Y202500
X645500Y203500
X644500Y207500
X640300Y211100
X641569Y219569
X641000Y223000
X644500Y217000
X635200Y205600
X642700Y194400
X649000Y194000
X622600Y197000
X622500Y186000
X618000Y185000
Y181000
X613000Y183000
X611500Y178000
Y194500
X611000Y200000
X613000Y208000
X610500Y214000
X608500Y222000
X615500Y227500
X620000Y228000
T02
X636047Y185736
Y213295
T03
X633500Y169500
X643500
X653500
Y179000
Y189000
Y199000
Y209000
Y219000
Y229000
X603500
Y219000
Y209000
Y199000
Y189000
Y179000
Y169500
X613500
X623500
M30
