%FSLAX25Y25*%
%MOIN*%
G70*
G01*
G75*
%ADD16C,0.01772*%
G36*
X10486Y15748D02*
X10676Y15290D01*
X11134Y15100D01*
X12541D01*
Y88D01*
X12041Y-64D01*
X11999Y-1D01*
X11541Y305D01*
X11000Y413D01*
X10459Y305D01*
X10001Y-1D01*
X9695Y-459D01*
X9587Y-1000D01*
X9695Y-1541D01*
X10001Y-1999D01*
X10459Y-2305D01*
X11000Y-2413D01*
X11541Y-2305D01*
X11999Y-1999D01*
X12041Y-1936D01*
X12541Y-2088D01*
Y-15100D01*
X11366D01*
X10908Y-15290D01*
X10718Y-15748D01*
Y-19446D01*
X-10718D01*
Y-15748D01*
X-10908Y-15290D01*
X-11366Y-15100D01*
X-12541D01*
Y15100D01*
X-11366D01*
X-10908Y15290D01*
X-10718Y15748D01*
Y19416D01*
X10486D01*
Y15748D01*
D02*
G37*
%LPC*%
G36*
X6275Y-8060D02*
X5734Y-8168D01*
X5276Y-8474D01*
X4970Y-8932D01*
X4955Y-9005D01*
X4445D01*
X4431Y-8932D01*
X4124Y-8474D01*
X3666Y-8168D01*
X3125Y-8060D01*
X2585Y-8168D01*
X2126Y-8474D01*
X1820Y-8932D01*
X1712Y-9473D01*
X1820Y-10014D01*
X2126Y-10472D01*
X2585Y-10778D01*
X2656Y-10793D01*
Y-11303D01*
X2585Y-11317D01*
X2127Y-11623D01*
X1821Y-12081D01*
X1713Y-12622D01*
X1821Y-13163D01*
X2127Y-13621D01*
X2585Y-13927D01*
X3126Y-14035D01*
X3667Y-13927D01*
X4125Y-13621D01*
X4431Y-13163D01*
X4446Y-13090D01*
X4956D01*
X4970Y-13163D01*
X5277Y-13621D01*
X5735Y-13927D01*
X6276Y-14035D01*
X6816Y-13927D01*
X7275Y-13621D01*
X7581Y-13163D01*
X7596Y-13090D01*
X8105D01*
X8120Y-13163D01*
X8426Y-13621D01*
X8884Y-13927D01*
X9425Y-14035D01*
X9966Y-13927D01*
X10424Y-13621D01*
X10731Y-13163D01*
X10838Y-12622D01*
X10731Y-12081D01*
X10424Y-11623D01*
X9966Y-11317D01*
X9425Y-11209D01*
X8884Y-11317D01*
X8426Y-11623D01*
X8120Y-12081D01*
X8105Y-12154D01*
X7596D01*
X7581Y-12081D01*
X7275Y-11623D01*
X6816Y-11317D01*
X6745Y-11302D01*
Y-10793D01*
X6816Y-10778D01*
X7274Y-10472D01*
X7580Y-10014D01*
X7688Y-9473D01*
X7580Y-8932D01*
X7274Y-8474D01*
X6816Y-8168D01*
X6275Y-8060D01*
D02*
G37*
G36*
X-3125Y-4910D02*
X-3666Y-5018D01*
X-4124Y-5324D01*
X-4431Y-5783D01*
X-4538Y-6323D01*
X-4431Y-6864D01*
X-4124Y-7322D01*
X-3666Y-7629D01*
X-3593Y-7643D01*
Y-8153D01*
X-3666Y-8168D01*
X-4124Y-8474D01*
X-4431Y-8932D01*
X-4446Y-9006D01*
X-4955D01*
X-4970Y-8932D01*
X-5277Y-8473D01*
X-5735Y-8167D01*
X-6276Y-8060D01*
X-6816Y-8167D01*
X-7275Y-8473D01*
X-7581Y-8932D01*
X-7689Y-9472D01*
X-7581Y-10013D01*
X-7275Y-10472D01*
X-6816Y-10778D01*
X-6276Y-10885D01*
X-5735Y-10778D01*
X-5277Y-10472D01*
X-4970Y-10013D01*
X-4955Y-9939D01*
X-4446D01*
X-4431Y-10014D01*
X-4124Y-10472D01*
X-3666Y-10778D01*
X-3595Y-10793D01*
Y-11302D01*
X-3667Y-11317D01*
X-4125Y-11623D01*
X-4431Y-12081D01*
X-4539Y-12622D01*
X-4431Y-13163D01*
X-4125Y-13621D01*
X-3667Y-13927D01*
X-3126Y-14035D01*
X-2585Y-13927D01*
X-2127Y-13621D01*
X-1821Y-13163D01*
X-1713Y-12622D01*
X-1821Y-12081D01*
X-2127Y-11623D01*
X-2585Y-11317D01*
X-2656Y-11303D01*
Y-10793D01*
X-2585Y-10778D01*
X-2126Y-10472D01*
X-1820Y-10014D01*
X-1712Y-9473D01*
X-1820Y-8932D01*
X-2126Y-8474D01*
X-2585Y-8168D01*
X-2658Y-8153D01*
Y-7643D01*
X-2585Y-7629D01*
X-2126Y-7322D01*
X-1820Y-6864D01*
X-1712Y-6323D01*
X-1820Y-5783D01*
X-2126Y-5324D01*
X-2585Y-5018D01*
X-3125Y-4910D01*
D02*
G37*
G36*
X-7375Y-12044D02*
X-7480Y-12066D01*
X-7586Y-12044D01*
X-8047Y-12136D01*
X-8136Y-12196D01*
X-8242Y-12217D01*
X-8632Y-12478D01*
X-8692Y-12567D01*
X-8782Y-12627D01*
X-9043Y-13018D01*
X-9064Y-13124D01*
X-9124Y-13213D01*
X-9215Y-13674D01*
X-9205Y-13728D01*
X-9226Y-13780D01*
X-9205Y-13831D01*
X-9215Y-13885D01*
X-9124Y-14346D01*
X-9064Y-14435D01*
X-9043Y-14541D01*
X-8782Y-14932D01*
X-8692Y-14991D01*
X-8632Y-15081D01*
X-8242Y-15342D01*
X-8136Y-15363D01*
X-8047Y-15423D01*
X-7586Y-15515D01*
X-7480Y-15494D01*
X-7375Y-15515D01*
X-6914Y-15423D01*
X-6824Y-15363D01*
X-6719Y-15342D01*
X-6328Y-15081D01*
X-6268Y-14992D01*
X-6179Y-14932D01*
X-5918Y-14541D01*
X-5897Y-14435D01*
X-5837Y-14346D01*
X-5745Y-13885D01*
X-5756Y-13831D01*
X-5735Y-13780D01*
X-5756Y-13728D01*
X-5745Y-13674D01*
X-5837Y-13213D01*
X-5897Y-13124D01*
X-5918Y-13018D01*
X-6179Y-12627D01*
X-6268Y-12567D01*
X-6328Y-12478D01*
X-6719Y-12217D01*
X-6824Y-12196D01*
X-6914Y-12136D01*
X-7375Y-12044D01*
D02*
G37*
G36*
X-1575Y15137D02*
X-2115Y15030D01*
X-2574Y14724D01*
X-2880Y14265D01*
X-2988Y13724D01*
X-2880Y13184D01*
X-2574Y12725D01*
X-2115Y12419D01*
X-1575Y12311D01*
X-1034Y12419D01*
X-576Y12725D01*
X-269Y13184D01*
X-162Y13724D01*
X-269Y14265D01*
X-576Y14724D01*
X-1034Y15030D01*
X-1575Y15137D01*
D02*
G37*
G36*
X6299Y10862D02*
X5759Y10754D01*
X5300Y10448D01*
X4994Y9990D01*
X4979Y9917D01*
X4470D01*
X4455Y9990D01*
X4149Y10448D01*
X3690Y10754D01*
X3150Y10862D01*
X2609Y10754D01*
X2151Y10448D01*
X1844Y9990D01*
X1830Y9917D01*
X1320D01*
X1305Y9990D01*
X999Y10448D01*
X541Y10754D01*
X-0Y10862D01*
X-541Y10754D01*
X-999Y10448D01*
X-1305Y9990D01*
X-1320Y9917D01*
X-1830D01*
X-1844Y9990D01*
X-2151Y10448D01*
X-2609Y10754D01*
X-3150Y10862D01*
X-3690Y10754D01*
X-4149Y10448D01*
X-4455Y9990D01*
X-4460Y9965D01*
X-4970D01*
X-5276Y10424D01*
X-5734Y10730D01*
X-6275Y10838D01*
X-6816Y10730D01*
X-7274Y10424D01*
X-7580Y9965D01*
X-7688Y9425D01*
X-7580Y8884D01*
X-7274Y8426D01*
X-6816Y8119D01*
X-6275Y8012D01*
X-5734Y8119D01*
X-5276Y8426D01*
X-4970Y8884D01*
X-4965Y8908D01*
X-4455D01*
X-4149Y8450D01*
X-3690Y8143D01*
X-3545Y8114D01*
Y7605D01*
X-3666Y7580D01*
X-4124Y7274D01*
X-4431Y6816D01*
X-4538Y6275D01*
X-4431Y5734D01*
X-4124Y5276D01*
X-3666Y4970D01*
X-3125Y4862D01*
X-2585Y4970D01*
X-2126Y5276D01*
X-1820Y5734D01*
X-1815Y5759D01*
X-1305D01*
X-999Y5300D01*
X-541Y4994D01*
X0Y4886D01*
X541Y4994D01*
X999Y5300D01*
X1305Y5759D01*
X1413Y6299D01*
X1305Y6840D01*
X999Y7298D01*
X541Y7605D01*
X468Y7619D01*
Y8129D01*
X541Y8143D01*
X999Y8450D01*
X1305Y8908D01*
X1320Y8981D01*
X1830D01*
X1844Y8908D01*
X2151Y8450D01*
X2609Y8143D01*
X3150Y8036D01*
X3690Y8143D01*
X4149Y8450D01*
X4455Y8908D01*
X4470Y8981D01*
X4979D01*
X4994Y8908D01*
X5300Y8450D01*
X5759Y8143D01*
X6299Y8036D01*
X6840Y8143D01*
X7298Y8450D01*
X7605Y8908D01*
X7712Y9449D01*
X7605Y9990D01*
X7298Y10448D01*
X6840Y10754D01*
X6299Y10862D01*
D02*
G37*
G36*
X-7375Y15515D02*
X-7480Y15494D01*
X-7586Y15515D01*
X-8047Y15423D01*
X-8136Y15363D01*
X-8242Y15342D01*
X-8632Y15081D01*
X-8692Y14992D01*
X-8782Y14932D01*
X-9043Y14541D01*
X-9064Y14435D01*
X-9124Y14346D01*
X-9215Y13885D01*
X-9205Y13831D01*
X-9226Y13780D01*
X-9205Y13728D01*
X-9215Y13674D01*
X-9124Y13213D01*
X-9064Y13124D01*
X-9043Y13018D01*
X-8782Y12627D01*
X-8692Y12567D01*
X-8632Y12478D01*
X-8242Y12217D01*
X-8136Y12196D01*
X-8047Y12136D01*
X-7586Y12044D01*
X-7480Y12066D01*
X-7375Y12044D01*
X-6914Y12136D01*
X-6824Y12196D01*
X-6719Y12217D01*
X-6328Y12478D01*
X-6268Y12567D01*
X-6179Y12627D01*
X-5918Y13018D01*
X-5897Y13124D01*
X-5837Y13213D01*
X-5745Y13674D01*
X-5756Y13728D01*
X-5735Y13780D01*
X-5756Y13831D01*
X-5745Y13885D01*
X-5837Y14346D01*
X-5897Y14435D01*
X-5918Y14541D01*
X-6179Y14932D01*
X-6268Y14991D01*
X-6328Y15081D01*
X-6719Y15342D01*
X-6824Y15363D01*
X-6914Y15423D01*
X-7375Y15515D01*
D02*
G37*
%LPD*%
D16*
X3126Y-6323D02*
D03*
X6276Y-3173D02*
D03*
X-11000Y2000D02*
D03*
M02*
