%FSLAX25Y25*%
%MOIN*%
G70*
G01*
G75*
%ADD10R,0.04528X0.00984*%
%ADD11R,0.08268X0.05197*%
%ADD12C,0.00591*%
%ADD13C,0.01000*%
%ADD14C,0.00500*%
%ADD15C,0.02362*%
%ADD16C,0.01772*%
G36*
X-1305Y5759D02*
X-999Y5300D01*
X-811Y5174D01*
Y4500D01*
X-749Y4190D01*
X-573Y3927D01*
X974Y2379D01*
X1237Y2204D01*
X1547Y2142D01*
X1547Y2142D01*
X6560D01*
X6887Y1642D01*
X6856Y1484D01*
X10138D01*
Y484D01*
X6856D01*
X6932Y102D01*
X7000Y0D01*
X6932Y-102D01*
X6856Y-484D01*
X10138D01*
Y-1484D01*
X6755D01*
X6636Y-1627D01*
X6406Y-1786D01*
X6276Y-1760D01*
X5735Y-1868D01*
X5277Y-2174D01*
X4970Y-2633D01*
X4863Y-3173D01*
X4970Y-3714D01*
X5277Y-4172D01*
X5735Y-4479D01*
X6061Y-4543D01*
X6248Y-5063D01*
X5015Y-6296D01*
X4496Y-6108D01*
X4431Y-5782D01*
X4125Y-5324D01*
X3667Y-5017D01*
X3126Y-4910D01*
X2585Y-5017D01*
X2127Y-5324D01*
X1821Y-5782D01*
X1765Y-6063D01*
X1265Y-6014D01*
Y-3500D01*
X1206Y-3207D01*
X1041Y-2959D01*
X1041Y-2959D01*
X-1459Y-459D01*
X-1707Y-293D01*
X-2000Y-235D01*
X-7183D01*
X-7412Y234D01*
X-7377Y385D01*
X-7333Y492D01*
Y1476D01*
X-7491Y1859D01*
X-7491Y2078D01*
X-7333Y2461D01*
Y3445D01*
X-7377Y3553D01*
X-7394Y3624D01*
X-7121Y4110D01*
X-4479D01*
X-4169Y4172D01*
X-3906Y4348D01*
X-3348Y4906D01*
X-3125Y4862D01*
X-2585Y4970D01*
X-2126Y5276D01*
X-1820Y5734D01*
X-1815Y5759D01*
X-1305D01*
D02*
G37*
G36*
X12541Y-9985D02*
Y-15100D01*
X11366D01*
X10908Y-15290D01*
X10718Y-15748D01*
Y-19446D01*
X5153D01*
Y-17358D01*
X0D01*
X-5153D01*
Y-19446D01*
X-10718D01*
Y-15748D01*
X-10908Y-15290D01*
X-11366Y-15100D01*
X-12541D01*
Y-9985D01*
X-12402Y-9892D01*
X-10686D01*
X-10678Y-9903D01*
X-8192Y-12389D01*
X-7944Y-12555D01*
X-7652Y-12613D01*
X-4924D01*
X-4698Y-12882D01*
X-4775Y-13486D01*
X-4855Y-13539D01*
X-5076Y-13870D01*
X-5153Y-14260D01*
Y-16358D01*
X0D01*
X5153D01*
Y-14260D01*
X5126Y-14122D01*
X5576Y-13821D01*
X5735Y-13927D01*
X6276Y-14035D01*
X6816Y-13927D01*
X7275Y-13621D01*
X7581Y-13163D01*
X7689Y-12622D01*
X7650Y-12428D01*
X10186Y-9892D01*
X12402D01*
X12541Y-9985D01*
D02*
G37*
G36*
X10486Y15748D02*
X10676Y15290D01*
X11134Y15100D01*
X12541D01*
Y9985D01*
X12402Y9892D01*
X7874D01*
X7825Y9871D01*
X7605Y9990D01*
X7298Y10448D01*
X6840Y10754D01*
X6299Y10862D01*
X5759Y10754D01*
X5300Y10448D01*
X4994Y9990D01*
X4979Y9917D01*
X4470D01*
X4455Y9990D01*
X4149Y10448D01*
X3690Y10754D01*
X3150Y10862D01*
X2609Y10754D01*
X2151Y10448D01*
X1844Y9990D01*
X1830Y9917D01*
X1320D01*
X1305Y9990D01*
X999Y10448D01*
X541Y10754D01*
X-0Y10862D01*
X-541Y10754D01*
X-999Y10448D01*
X-1305Y9990D01*
X-1320Y9917D01*
X-1830D01*
X-1844Y9990D01*
X-2151Y10448D01*
X-2609Y10754D01*
X-3150Y10862D01*
X-3372Y10818D01*
X-4627Y12073D01*
X-4891Y12249D01*
X-5201Y12311D01*
X-8500D01*
X-8810Y12249D01*
X-9073Y12073D01*
X-10711Y10436D01*
X-10887Y10172D01*
X-10943Y9892D01*
X-12402D01*
X-12541Y9985D01*
Y15100D01*
X-11366D01*
X-10908Y15290D01*
X-10718Y15748D01*
Y19416D01*
X-5153D01*
Y17358D01*
X0D01*
X5153D01*
Y19416D01*
X10486D01*
Y15748D01*
D02*
G37*
%LPC*%
G36*
X5153Y16358D02*
X500D01*
Y13240D01*
X4134D01*
X4524Y13318D01*
X4855Y13539D01*
X5076Y13870D01*
X5153Y14260D01*
Y16358D01*
D02*
G37*
G36*
X-500D02*
X-5153D01*
Y14260D01*
X-5076Y13870D01*
X-4855Y13539D01*
X-4524Y13318D01*
X-4134Y13240D01*
X-500D01*
Y16358D01*
D02*
G37*
%LPD*%
D10*
X10138Y8858D02*
D03*
Y6890D02*
D03*
Y4921D02*
D03*
Y2953D02*
D03*
Y984D02*
D03*
Y-984D02*
D03*
Y-2953D02*
D03*
Y-4921D02*
D03*
Y-6890D02*
D03*
Y-8858D02*
D03*
X-10138D02*
D03*
Y-6890D02*
D03*
Y-4921D02*
D03*
Y-2953D02*
D03*
Y-984D02*
D03*
Y984D02*
D03*
Y2953D02*
D03*
Y4921D02*
D03*
Y6890D02*
D03*
Y8858D02*
D03*
D11*
X0Y16858D02*
D03*
Y-16858D02*
D03*
D12*
X-3125Y-9473D02*
Y-9408D01*
X-10138Y6890D02*
X-7110D01*
X-6275Y7725D01*
Y9425D01*
X-10138Y4921D02*
X-4479D01*
X-3125Y6275D01*
X1547Y2953D02*
X10138D01*
X0Y4500D02*
X1547Y2953D01*
X0Y4500D02*
Y6299D01*
X4527Y4921D02*
X10138D01*
X-0Y9449D02*
X4527Y4921D01*
X5709Y6890D02*
X10138D01*
X3150Y9449D02*
X5709Y6890D01*
X6890Y8858D02*
X10138D01*
X6299Y9449D02*
X6890Y8858D01*
X6275Y-9473D02*
Y-7725D01*
X7000Y-7000D01*
X-10138Y8858D02*
Y9862D01*
X-8500Y11500D01*
X-5201D01*
X-3150Y9449D01*
X-4449Y-5000D02*
X-3125Y-6323D01*
X-10059Y-5000D02*
X-4449D01*
X-10138Y-2953D02*
X-10091Y-3000D01*
X-10138Y-4921D02*
X-10059Y-5000D01*
X7000Y-7000D02*
X10028D01*
X10138Y-6890D01*
X10059Y-5000D02*
X10138Y-4921D01*
X-10091Y-3000D02*
X-2500D01*
X-1045Y-4455D01*
Y-7393D02*
Y-4455D01*
X-3125Y-9473D02*
X-1045Y-7393D01*
X3125Y-9332D02*
X7458Y-5000D01*
X10059D01*
X3125Y-9473D02*
Y-9332D01*
D13*
X10138Y-984D02*
Y984D01*
X-10138D02*
Y2953D01*
X10138Y-2953D02*
Y-984D01*
D14*
X-10138Y-6890D02*
X-9911Y-7116D01*
X-3900Y-11848D02*
X-3126Y-12622D01*
X-7652Y-11848D02*
X-3900D01*
X-10138Y-9362D02*
X-7652Y-11848D01*
X-10122Y-1000D02*
X-2000D01*
X-10138Y-6890D02*
X-6610D01*
X-6276Y-7224D01*
Y-9472D02*
Y-7224D01*
X-10138Y-984D02*
X-10122Y-1000D01*
X-10138Y-9362D02*
Y-8858D01*
X6374Y-12622D02*
X10138Y-8858D01*
X500Y-9996D02*
X3126Y-12622D01*
X500Y-9996D02*
Y-3500D01*
X-2000Y-1000D02*
X500Y-3500D01*
X6276Y-12622D02*
X6374D01*
D15*
X-7480Y13780D02*
D03*
Y-13780D02*
D03*
D16*
X6275Y-9473D02*
D03*
X3125D02*
D03*
X-3125Y-6323D02*
D03*
X6299Y9449D02*
D03*
X3150D02*
D03*
X-3125Y6275D02*
D03*
X-0Y9449D02*
D03*
X-3150D02*
D03*
X0Y6299D02*
D03*
X-6275Y9425D02*
D03*
X-1575Y13724D02*
D03*
X-3125Y-9473D02*
D03*
X-6276Y-9472D02*
D03*
X3126Y-12622D02*
D03*
X-3126D02*
D03*
X6276D02*
D03*
X3126Y-6323D02*
D03*
X6276Y-3173D02*
D03*
X11000Y-1000D02*
D03*
X-11000Y2000D02*
D03*
X9425Y-12622D02*
D03*
M02*
