%FSLAX25Y25*%
%MOIN*%
G70*
G01*
G75*
%ADD12C,0.00591*%
%ADD14C,0.00500*%
%ADD15C,0.02362*%
%ADD16C,0.01772*%
%ADD17C,0.01614*%
G36*
X10486Y15748D02*
X10578Y15526D01*
X10514Y15405D01*
X10081Y15116D01*
X9792Y14683D01*
X9691Y14173D01*
X9792Y13663D01*
X10081Y13231D01*
X10514Y12942D01*
X11024Y12841D01*
X11534Y12942D01*
X11966Y13231D01*
X12041Y13343D01*
X12541Y13192D01*
Y12005D01*
X12041Y11853D01*
X11966Y11966D01*
X11534Y12255D01*
X11024Y12356D01*
X10514Y12255D01*
X10081Y11966D01*
X9792Y11534D01*
X9691Y11024D01*
X9792Y10514D01*
X10081Y10081D01*
X10514Y9792D01*
X11024Y9691D01*
X11534Y9792D01*
X11966Y10081D01*
X12041Y10194D01*
X12541Y10042D01*
Y8855D01*
X12041Y8704D01*
X11966Y8816D01*
X11534Y9105D01*
X11024Y9207D01*
X10514Y9105D01*
X10081Y8816D01*
X9792Y8384D01*
X9691Y7874D01*
X9792Y7364D01*
X10081Y6932D01*
X10514Y6643D01*
X11024Y6541D01*
X11534Y6643D01*
X11966Y6932D01*
X12041Y7044D01*
X12541Y6893D01*
Y-6893D01*
X12041Y-7044D01*
X11966Y-6932D01*
X11534Y-6643D01*
X11024Y-6541D01*
X10514Y-6643D01*
X10081Y-6932D01*
X9792Y-7364D01*
X9691Y-7874D01*
X9792Y-8384D01*
X10081Y-8816D01*
X10514Y-9105D01*
X11024Y-9207D01*
X11534Y-9105D01*
X11966Y-8816D01*
X12041Y-8704D01*
X12541Y-8855D01*
Y-10042D01*
X12041Y-10194D01*
X11966Y-10081D01*
X11534Y-9792D01*
X11024Y-9691D01*
X10514Y-9792D01*
X10081Y-10081D01*
X10027Y-10162D01*
X9996Y-10173D01*
X9449Y-10128D01*
X9177Y-9721D01*
X8770Y-9449D01*
X8725Y-8902D01*
X8736Y-8870D01*
X8816Y-8816D01*
X9105Y-8384D01*
X9207Y-7874D01*
X9105Y-7364D01*
X8816Y-6932D01*
X8384Y-6643D01*
X7874Y-6541D01*
X7364Y-6643D01*
X6932Y-6932D01*
X6643Y-7364D01*
X6593Y-7614D01*
X6592Y-7615D01*
X6032Y-7605D01*
X6000Y-7585D01*
X5956Y-7364D01*
X5667Y-6932D01*
X5234Y-6643D01*
X5014Y-6599D01*
X4931Y-6465D01*
X5065Y-5989D01*
X5234Y-5956D01*
X5667Y-5667D01*
X5956Y-5234D01*
X5993Y-5046D01*
X6121Y-4963D01*
X6540Y-4946D01*
X6602Y-5031D01*
X6643Y-5234D01*
X6932Y-5667D01*
X7364Y-5956D01*
X7874Y-6057D01*
X8384Y-5956D01*
X8816Y-5667D01*
X9105Y-5234D01*
X9207Y-4724D01*
X9105Y-4214D01*
X8816Y-3782D01*
X8384Y-3493D01*
X8163Y-3449D01*
X8081Y-3316D01*
X8214Y-2840D01*
X8384Y-2806D01*
X8816Y-2517D01*
X9105Y-2085D01*
X9207Y-1575D01*
X9105Y-1065D01*
X8816Y-632D01*
X8384Y-344D01*
X7874Y-242D01*
X7364Y-344D01*
X6932Y-632D01*
X6643Y-1065D01*
X6609Y-1235D01*
X6133Y-1368D01*
X6000Y-1286D01*
X5956Y-1065D01*
X5667Y-632D01*
X5234Y-344D01*
X4724Y-242D01*
X4214Y-344D01*
X3782Y-632D01*
X3493Y-1065D01*
X3392Y-1575D01*
X3493Y-2085D01*
X3782Y-2517D01*
X4214Y-2806D01*
X4418Y-2847D01*
X4503Y-2909D01*
X4486Y-3328D01*
X4403Y-3456D01*
X4214Y-3493D01*
X3782Y-3782D01*
X3493Y-4214D01*
X3459Y-4384D01*
X2984Y-4518D01*
X2850Y-4435D01*
X2806Y-4214D01*
X2517Y-3782D01*
X2085Y-3493D01*
X1575Y-3392D01*
X1065Y-3493D01*
X632Y-3782D01*
X344Y-4214D01*
X242Y-4724D01*
X344Y-5234D01*
X632Y-5667D01*
X1065Y-5956D01*
X1268Y-5996D01*
X1353Y-6058D01*
X1337Y-6478D01*
X1253Y-6605D01*
X1065Y-6643D01*
X632Y-6932D01*
X344Y-7364D01*
X242Y-7874D01*
X344Y-8384D01*
X632Y-8816D01*
X1065Y-9105D01*
X1268Y-9146D01*
X1353Y-9208D01*
X1336Y-9627D01*
X1252Y-9755D01*
X1065Y-9792D01*
X632Y-10081D01*
X344Y-10514D01*
X242Y-11024D01*
X344Y-11534D01*
X632Y-11966D01*
X1065Y-12255D01*
X1268Y-12295D01*
X1713Y-12622D01*
X1821Y-13163D01*
X2127Y-13621D01*
X2585Y-13927D01*
X3126Y-14035D01*
X3453Y-14480D01*
X3493Y-14683D01*
X3782Y-15116D01*
X4214Y-15405D01*
X4724Y-15506D01*
X5234Y-15405D01*
X5667Y-15116D01*
X5956Y-14683D01*
X5993Y-14495D01*
X6121Y-14411D01*
X6540Y-14395D01*
X6602Y-14480D01*
X6643Y-14683D01*
X6932Y-15116D01*
X7364Y-15405D01*
X7874Y-15506D01*
X8384Y-15405D01*
X8816Y-15116D01*
X9105Y-14683D01*
X9207Y-14173D01*
X9105Y-13663D01*
X8816Y-13231D01*
X8736Y-13177D01*
X8725Y-13145D01*
X8770Y-12598D01*
X9177Y-12326D01*
X9449Y-11919D01*
X9996Y-11874D01*
X10027Y-11885D01*
X10081Y-11966D01*
X10514Y-12255D01*
X11024Y-12356D01*
X11534Y-12255D01*
X11966Y-11966D01*
X12041Y-11853D01*
X12541Y-12005D01*
Y-13192D01*
X12041Y-13343D01*
X11966Y-13231D01*
X11534Y-12942D01*
X11024Y-12841D01*
X10514Y-12942D01*
X10081Y-13231D01*
X9792Y-13663D01*
X9691Y-14173D01*
X9792Y-14683D01*
X10081Y-15116D01*
X10514Y-15405D01*
X10537Y-15409D01*
X10718Y-15748D01*
Y-19446D01*
X-10718D01*
Y-15748D01*
X-10537Y-15409D01*
X-10514Y-15405D01*
X-10081Y-15116D01*
X-9792Y-14683D01*
X-9691Y-14173D01*
X-9792Y-13663D01*
X-10081Y-13231D01*
X-10514Y-12942D01*
X-11024Y-12841D01*
X-11534Y-12942D01*
X-11966Y-13231D01*
X-12041Y-13343D01*
X-12541Y-13192D01*
Y-12005D01*
X-12041Y-11853D01*
X-11966Y-11966D01*
X-11534Y-12255D01*
X-11024Y-12356D01*
X-10514Y-12255D01*
X-10081Y-11966D01*
X-10027Y-11885D01*
X-9996Y-11874D01*
X-9449Y-11919D01*
X-9177Y-12326D01*
X-8579Y-12726D01*
X-8374Y-12767D01*
Y-11024D01*
X-7374D01*
Y-12767D01*
X-7169Y-12726D01*
X-6571Y-12326D01*
X-6299Y-11919D01*
X-5752Y-11874D01*
X-5721Y-11885D01*
X-5667Y-11966D01*
X-5234Y-12255D01*
X-5065Y-12289D01*
X-4931Y-12765D01*
X-5014Y-12898D01*
X-5234Y-12942D01*
X-5667Y-13231D01*
X-5956Y-13663D01*
X-6057Y-14173D01*
X-5956Y-14683D01*
X-5667Y-15116D01*
X-5234Y-15405D01*
X-4724Y-15506D01*
X-4214Y-15405D01*
X-3782Y-15116D01*
X-3493Y-14683D01*
X-3453Y-14480D01*
X-3126Y-14035D01*
X-2585Y-13927D01*
X-2127Y-13621D01*
X-1821Y-13163D01*
X-1713Y-12622D01*
X-1268Y-12295D01*
X-1065Y-12255D01*
X-632Y-11966D01*
X-344Y-11534D01*
X-242Y-11024D01*
X-344Y-10514D01*
X-632Y-10081D01*
X-1065Y-9792D01*
X-1252Y-9755D01*
X-1336Y-9627D01*
X-1353Y-9208D01*
X-1268Y-9146D01*
X-1065Y-9105D01*
X-632Y-8816D01*
X-344Y-8384D01*
X-242Y-7874D01*
X-344Y-7364D01*
X-632Y-6932D01*
X-1065Y-6643D01*
X-1252Y-6605D01*
X-1336Y-6478D01*
X-1353Y-6059D01*
X-1268Y-5996D01*
X-1065Y-5956D01*
X-632Y-5667D01*
X-344Y-5234D01*
X-242Y-4724D01*
X-344Y-4214D01*
X-632Y-3782D01*
X-1065Y-3493D01*
X-1575Y-3392D01*
X-2085Y-3493D01*
X-2517Y-3782D01*
X-2806Y-4214D01*
X-2850Y-4435D01*
X-2882Y-4455D01*
X-3442Y-4465D01*
X-3444Y-4464D01*
X-3493Y-4214D01*
X-3782Y-3782D01*
X-4214Y-3493D01*
X-4724Y-3392D01*
X-5234Y-3493D01*
X-5667Y-3782D01*
X-5956Y-4214D01*
X-6057Y-4724D01*
X-5956Y-5234D01*
X-5667Y-5667D01*
X-5234Y-5956D01*
X-4985Y-6005D01*
X-4983Y-6007D01*
X-4994Y-6567D01*
X-5014Y-6599D01*
X-5234Y-6643D01*
X-5667Y-6932D01*
X-5956Y-7364D01*
X-6000Y-7585D01*
X-6133Y-7667D01*
X-6609Y-7534D01*
X-6643Y-7364D01*
X-6932Y-6932D01*
X-7364Y-6643D01*
X-7874Y-6541D01*
X-8384Y-6643D01*
X-8816Y-6932D01*
X-9105Y-7364D01*
X-9207Y-7874D01*
X-9105Y-8384D01*
X-8816Y-8816D01*
X-8736Y-8870D01*
X-8725Y-8902D01*
X-8770Y-9449D01*
X-9177Y-9721D01*
X-9449Y-10128D01*
X-9996Y-10173D01*
X-10027Y-10162D01*
X-10081Y-10081D01*
X-10514Y-9792D01*
X-11024Y-9691D01*
X-11534Y-9792D01*
X-11966Y-10081D01*
X-12041Y-10194D01*
X-12541Y-10042D01*
Y-8855D01*
X-12041Y-8704D01*
X-11966Y-8816D01*
X-11534Y-9105D01*
X-11024Y-9207D01*
X-10514Y-9105D01*
X-10081Y-8816D01*
X-9792Y-8384D01*
X-9691Y-7874D01*
X-9792Y-7364D01*
X-10081Y-6932D01*
X-10514Y-6643D01*
X-11024Y-6541D01*
X-11534Y-6643D01*
X-11966Y-6932D01*
X-12041Y-7044D01*
X-12541Y-6893D01*
Y912D01*
X-12041Y1064D01*
X-11999Y1001D01*
X-11541Y695D01*
X-11000Y587D01*
X-10459Y695D01*
X-10001Y1001D01*
X-9695Y1459D01*
X-9694Y1462D01*
X-9184D01*
X-9105Y1065D01*
X-8816Y632D01*
X-8384Y344D01*
X-7874Y242D01*
X-7364Y344D01*
X-6932Y632D01*
X-6643Y1065D01*
X-6541Y1575D01*
X-6643Y2085D01*
X-6932Y2517D01*
X-7364Y2806D01*
X-7874Y2908D01*
X-8384Y2806D01*
X-8816Y2517D01*
X-9097Y2098D01*
X-9157Y2088D01*
X-9610Y2113D01*
X-9695Y2541D01*
X-10001Y2999D01*
X-10459Y3305D01*
X-11000Y3413D01*
X-11541Y3305D01*
X-11999Y2999D01*
X-12041Y2936D01*
X-12541Y3088D01*
Y6893D01*
X-12041Y7044D01*
X-11966Y6932D01*
X-11534Y6643D01*
X-11024Y6541D01*
X-10514Y6643D01*
X-10081Y6932D01*
X-9792Y7364D01*
X-9691Y7874D01*
X-9792Y8384D01*
X-10081Y8816D01*
X-10514Y9105D01*
X-11024Y9207D01*
X-11534Y9105D01*
X-11966Y8816D01*
X-12041Y8704D01*
X-12541Y8855D01*
Y10042D01*
X-12041Y10194D01*
X-11966Y10081D01*
X-11534Y9792D01*
X-11024Y9691D01*
X-10514Y9792D01*
X-10081Y10081D01*
X-9792Y10514D01*
X-9691Y11024D01*
X-9792Y11534D01*
X-10081Y11966D01*
X-10514Y12255D01*
X-11024Y12356D01*
X-11534Y12255D01*
X-11966Y11966D01*
X-12041Y11853D01*
X-12541Y12005D01*
Y15100D01*
X-11366D01*
X-10908Y15290D01*
X-10718Y15748D01*
Y19416D01*
X10486D01*
Y15748D01*
D02*
G37*
%LPC*%
G36*
X1575Y-242D02*
X1065Y-344D01*
X632Y-632D01*
X344Y-1065D01*
X242Y-1575D01*
X344Y-2085D01*
X632Y-2517D01*
X1065Y-2806D01*
X1575Y-2908D01*
X2085Y-2806D01*
X2517Y-2517D01*
X2806Y-2085D01*
X2908Y-1575D01*
X2806Y-1065D01*
X2517Y-632D01*
X2085Y-344D01*
X1575Y-242D01*
D02*
G37*
G36*
X-4724Y2908D02*
X-5234Y2806D01*
X-5667Y2517D01*
X-5956Y2085D01*
X-6057Y1575D01*
X-5956Y1065D01*
X-5667Y632D01*
X-5234Y344D01*
X-4724Y242D01*
X-4214Y344D01*
X-3782Y632D01*
X-3493Y1065D01*
X-3392Y1575D01*
X-3493Y2085D01*
X-3782Y2517D01*
X-4214Y2806D01*
X-4724Y2908D01*
D02*
G37*
G36*
X1575D02*
X1065Y2806D01*
X632Y2517D01*
X344Y2085D01*
X242Y1575D01*
X344Y1065D01*
X632Y632D01*
X1065Y344D01*
X1575Y242D01*
X2085Y344D01*
X2517Y632D01*
X2806Y1065D01*
X2908Y1575D01*
X2806Y2085D01*
X2517Y2517D01*
X2085Y2806D01*
X1575Y2908D01*
D02*
G37*
G36*
X-1575D02*
X-2085Y2806D01*
X-2517Y2517D01*
X-2806Y2085D01*
X-2908Y1575D01*
X-2806Y1065D01*
X-2517Y632D01*
X-2085Y344D01*
X-1575Y242D01*
X-1065Y344D01*
X-632Y632D01*
X-344Y1065D01*
X-242Y1575D01*
X-344Y2085D01*
X-632Y2517D01*
X-1065Y2806D01*
X-1575Y2908D01*
D02*
G37*
G36*
X-7874Y-242D02*
X-8384Y-344D01*
X-8816Y-632D01*
X-9105Y-1065D01*
X-9207Y-1575D01*
X-9105Y-2085D01*
X-8816Y-2517D01*
X-8384Y-2806D01*
X-7874Y-2908D01*
X-7364Y-2806D01*
X-6932Y-2517D01*
X-6643Y-2085D01*
X-6541Y-1575D01*
X-6643Y-1065D01*
X-6932Y-632D01*
X-7364Y-344D01*
X-7874Y-242D01*
D02*
G37*
G36*
Y-3392D02*
X-8384Y-3493D01*
X-8816Y-3782D01*
X-9105Y-4214D01*
X-9207Y-4724D01*
X-9105Y-5234D01*
X-8816Y-5667D01*
X-8384Y-5956D01*
X-7874Y-6057D01*
X-7364Y-5956D01*
X-6932Y-5667D01*
X-6643Y-5234D01*
X-6541Y-4724D01*
X-6643Y-4214D01*
X-6932Y-3782D01*
X-7364Y-3493D01*
X-7874Y-3392D01*
D02*
G37*
G36*
X-1575Y-242D02*
X-2085Y-344D01*
X-2517Y-632D01*
X-2806Y-1065D01*
X-2908Y-1575D01*
X-2806Y-2085D01*
X-2517Y-2517D01*
X-2085Y-2806D01*
X-1575Y-2908D01*
X-1065Y-2806D01*
X-632Y-2517D01*
X-344Y-2085D01*
X-242Y-1575D01*
X-344Y-1065D01*
X-632Y-632D01*
X-1065Y-344D01*
X-1575Y-242D01*
D02*
G37*
G36*
X-4724D02*
X-5234Y-344D01*
X-5667Y-632D01*
X-5956Y-1065D01*
X-6057Y-1575D01*
X-5956Y-2085D01*
X-5667Y-2517D01*
X-5234Y-2806D01*
X-4724Y-2908D01*
X-4214Y-2806D01*
X-3782Y-2517D01*
X-3493Y-2085D01*
X-3392Y-1575D01*
X-3493Y-1065D01*
X-3782Y-632D01*
X-4214Y-344D01*
X-4724Y-242D01*
D02*
G37*
G36*
X4724Y2908D02*
X4214Y2806D01*
X3782Y2517D01*
X3493Y2085D01*
X3392Y1575D01*
X3493Y1065D01*
X3782Y632D01*
X4214Y344D01*
X4724Y242D01*
X5234Y344D01*
X5667Y632D01*
X5956Y1065D01*
X6057Y1575D01*
X5956Y2085D01*
X5667Y2517D01*
X5234Y2806D01*
X4724Y2908D01*
D02*
G37*
G36*
X-4724Y15506D02*
X-5234Y15405D01*
X-5667Y15116D01*
X-5956Y14683D01*
X-6057Y14173D01*
X-5956Y13663D01*
X-5667Y13231D01*
X-5234Y12942D01*
X-4724Y12841D01*
X-4214Y12942D01*
X-3782Y13231D01*
X-3493Y13663D01*
X-3392Y14173D01*
X-3493Y14683D01*
X-3782Y15116D01*
X-4214Y15405D01*
X-4724Y15506D01*
D02*
G37*
G36*
X-1075Y12767D02*
Y11024D01*
X-2075D01*
Y12767D01*
X-2280Y12726D01*
X-2878Y12326D01*
X-3150Y11919D01*
X-3697Y11874D01*
X-3728Y11885D01*
X-3782Y11966D01*
X-4214Y12255D01*
X-4724Y12356D01*
X-5234Y12255D01*
X-5667Y11966D01*
X-5956Y11534D01*
X-6000Y11313D01*
X-6032Y11293D01*
X-6592Y11282D01*
X-6593Y11284D01*
X-6643Y11534D01*
X-6932Y11966D01*
X-7364Y12255D01*
X-7874Y12356D01*
X-8384Y12255D01*
X-8816Y11966D01*
X-9105Y11534D01*
X-9207Y11024D01*
X-9105Y10514D01*
X-8816Y10081D01*
X-8384Y9792D01*
X-8134Y9743D01*
X-8133Y9742D01*
X-8143Y9181D01*
X-8163Y9149D01*
X-8384Y9105D01*
X-8816Y8816D01*
X-9105Y8384D01*
X-9207Y7874D01*
X-9105Y7364D01*
X-8816Y6932D01*
X-8384Y6643D01*
X-7874Y6541D01*
X-7364Y6643D01*
X-6932Y6932D01*
X-6643Y7364D01*
X-6602Y7567D01*
X-6540Y7652D01*
X-6121Y7635D01*
X-5993Y7551D01*
X-5956Y7364D01*
X-5667Y6932D01*
X-5234Y6643D01*
X-4985Y6593D01*
X-4983Y6592D01*
X-4994Y6032D01*
X-5014Y6000D01*
X-5234Y5956D01*
X-5667Y5667D01*
X-5956Y5234D01*
X-6057Y4724D01*
X-5956Y4214D01*
X-5667Y3782D01*
X-5234Y3493D01*
X-4724Y3392D01*
X-4214Y3493D01*
X-3782Y3782D01*
X-3493Y4214D01*
X-3453Y4417D01*
X-3390Y4502D01*
X-2971Y4486D01*
X-2843Y4402D01*
X-2806Y4214D01*
X-2517Y3782D01*
X-2085Y3493D01*
X-1575Y3392D01*
X-1065Y3493D01*
X-632Y3782D01*
X-344Y4214D01*
X-300Y4434D01*
X-185Y4510D01*
X185D01*
X300Y4434D01*
X344Y4214D01*
X632Y3782D01*
X1065Y3493D01*
X1575Y3392D01*
X2085Y3493D01*
X2517Y3782D01*
X2806Y4214D01*
X2908Y4724D01*
X2806Y5234D01*
X2517Y5667D01*
X2085Y5956D01*
X1865Y5999D01*
X1789Y6114D01*
Y6484D01*
X1865Y6599D01*
X2085Y6643D01*
X2517Y6932D01*
X2806Y7364D01*
X2850Y7584D01*
X2965Y7660D01*
X3334Y7660D01*
X3449Y7584D01*
X3493Y7364D01*
X3782Y6932D01*
X4214Y6643D01*
X4724Y6541D01*
X5234Y6643D01*
X5667Y6932D01*
X5956Y7364D01*
X5999Y7584D01*
X6114Y7660D01*
X6484D01*
X6599Y7584D01*
X6643Y7364D01*
X6932Y6932D01*
X7364Y6643D01*
X7874Y6541D01*
X8384Y6643D01*
X8816Y6932D01*
X9105Y7364D01*
X9207Y7874D01*
X9105Y8384D01*
X8816Y8816D01*
X8384Y9105D01*
X8164Y9149D01*
X8088Y9264D01*
X8088Y9634D01*
X8164Y9749D01*
X8384Y9792D01*
X8816Y10081D01*
X9105Y10514D01*
X9207Y11024D01*
X9105Y11534D01*
X8816Y11966D01*
X8384Y12255D01*
X7874Y12356D01*
X7364Y12255D01*
X6932Y11966D01*
X6643Y11534D01*
X6599Y11314D01*
X6484Y11238D01*
X6114Y11238D01*
X5999Y11314D01*
X5956Y11534D01*
X5667Y11966D01*
X5234Y12255D01*
X4724Y12356D01*
X4214Y12255D01*
X3782Y11966D01*
X3493Y11534D01*
X3449Y11314D01*
X3334Y11238D01*
X2965D01*
X2850Y11314D01*
X2806Y11534D01*
X2517Y11966D01*
X2085Y12255D01*
X1575Y12356D01*
X1065Y12255D01*
X632Y11966D01*
X579Y11885D01*
X547Y11874D01*
X-0Y11919D01*
X-272Y12326D01*
X-870Y12726D01*
X-1075Y12767D01*
D02*
G37*
G36*
X7874Y15506D02*
X7364Y15405D01*
X6932Y15116D01*
X6643Y14683D01*
X6541Y14173D01*
X6643Y13663D01*
X6932Y13231D01*
X7364Y12942D01*
X7874Y12841D01*
X8384Y12942D01*
X8816Y13231D01*
X9105Y13663D01*
X9207Y14173D01*
X9105Y14683D01*
X8816Y15116D01*
X8384Y15405D01*
X7874Y15506D01*
D02*
G37*
G36*
X4724D02*
X4214Y15405D01*
X3782Y15116D01*
X3493Y14683D01*
X3392Y14173D01*
X3493Y13663D01*
X3782Y13231D01*
X4214Y12942D01*
X4724Y12841D01*
X5234Y12942D01*
X5667Y13231D01*
X5956Y13663D01*
X6057Y14173D01*
X5956Y14683D01*
X5667Y15116D01*
X5234Y15405D01*
X4724Y15506D01*
D02*
G37*
G36*
X-7874Y6057D02*
X-8384Y5956D01*
X-8816Y5667D01*
X-9105Y5234D01*
X-9207Y4724D01*
X-9105Y4214D01*
X-8816Y3782D01*
X-8384Y3493D01*
X-7874Y3392D01*
X-7364Y3493D01*
X-6932Y3782D01*
X-6643Y4214D01*
X-6541Y4724D01*
X-6643Y5234D01*
X-6932Y5667D01*
X-7364Y5956D01*
X-7874Y6057D01*
D02*
G37*
G36*
X7874Y2908D02*
X7364Y2806D01*
X6932Y2517D01*
X6643Y2085D01*
X6541Y1575D01*
X6643Y1065D01*
X6932Y632D01*
X7364Y344D01*
X7874Y242D01*
X8384Y344D01*
X8816Y632D01*
X9105Y1065D01*
X9207Y1575D01*
X9105Y2085D01*
X8816Y2517D01*
X8384Y2806D01*
X7874Y2908D01*
D02*
G37*
G36*
Y6057D02*
X7364Y5956D01*
X6932Y5667D01*
X6643Y5234D01*
X6541Y4724D01*
X6643Y4214D01*
X6932Y3782D01*
X7364Y3493D01*
X7874Y3392D01*
X8384Y3493D01*
X8816Y3782D01*
X9105Y4214D01*
X9207Y4724D01*
X9105Y5234D01*
X8816Y5667D01*
X8384Y5956D01*
X7874Y6057D01*
D02*
G37*
G36*
X4724D02*
X4214Y5956D01*
X3782Y5667D01*
X3493Y5234D01*
X3392Y4724D01*
X3493Y4214D01*
X3782Y3782D01*
X4214Y3493D01*
X4724Y3392D01*
X5234Y3493D01*
X5667Y3782D01*
X5956Y4214D01*
X6057Y4724D01*
X5956Y5234D01*
X5667Y5667D01*
X5234Y5956D01*
X4724Y6057D01*
D02*
G37*
%LPD*%
D12*
X6275Y-9473D02*
X6275D01*
X7874Y-7874D01*
X3125Y-9473D02*
X4724Y-7874D01*
X-4724Y-4724D02*
X-3125Y-6323D01*
Y-6323D02*
Y-6323D01*
X6299Y9449D02*
X7874Y11024D01*
X3150Y9449D02*
X4724Y11024D01*
X-4724Y7874D02*
X-3125Y6275D01*
X-0Y9449D02*
X1575Y11024D01*
X-4724D02*
X-3150Y9449D01*
X-1575Y7874D02*
X0Y6299D01*
X-1575Y7874D02*
X-1575D01*
X-7874Y11024D02*
X-6275Y9425D01*
X-1575Y11024D02*
Y13575D01*
X-4724Y-7874D02*
X-3125Y-9473D01*
X1575Y-7874D02*
X3126Y-6323D01*
Y-6323D01*
X6323Y-3173D02*
X7874Y-4724D01*
X6276Y-3173D02*
X6323D01*
D14*
X-6276Y-9472D02*
X-4724Y-11024D01*
X-7874Y-13386D02*
Y-11024D01*
Y-13386D02*
X-7480Y-13780D01*
X1575Y-11071D02*
Y-11024D01*
Y-11071D02*
X3126Y-12622D01*
X-1575Y-11071D02*
Y-11024D01*
X-3126Y-12622D02*
X-1575Y-11071D01*
X4724Y-11071D02*
Y-11024D01*
Y-11071D02*
X6276Y-12622D01*
X7874Y-11071D02*
Y-11024D01*
Y-11071D02*
X9425Y-12622D01*
D15*
X-7480Y13780D02*
D03*
Y-13780D02*
D03*
D16*
X6275Y-9473D02*
D03*
X3125D02*
D03*
X-3125Y-6323D02*
D03*
X6299Y9449D02*
D03*
X3150D02*
D03*
X-3125Y6275D02*
D03*
X-0Y9449D02*
D03*
X-3150D02*
D03*
X0Y6299D02*
D03*
X-6275Y9425D02*
D03*
X-1575Y13724D02*
D03*
X-3125Y-9473D02*
D03*
X-6276Y-9472D02*
D03*
X3126Y-12622D02*
D03*
X-3126D02*
D03*
X6276D02*
D03*
X3126Y-6323D02*
D03*
X6276Y-3173D02*
D03*
X11000Y-1000D02*
D03*
X-11000Y2000D02*
D03*
X9425Y-12622D02*
D03*
D17*
X11024Y-14173D02*
D03*
Y-11024D02*
D03*
Y-7874D02*
D03*
Y7874D02*
D03*
Y11024D02*
D03*
Y14173D02*
D03*
X7874Y-14173D02*
D03*
Y-11024D02*
D03*
Y-7874D02*
D03*
Y-4724D02*
D03*
Y-1575D02*
D03*
Y1575D02*
D03*
Y4724D02*
D03*
Y7874D02*
D03*
Y11024D02*
D03*
Y14173D02*
D03*
X4724Y-14173D02*
D03*
Y-11024D02*
D03*
Y-7874D02*
D03*
Y-4724D02*
D03*
Y-1575D02*
D03*
Y1575D02*
D03*
Y4724D02*
D03*
Y7874D02*
D03*
Y11024D02*
D03*
Y14173D02*
D03*
X1575Y-11024D02*
D03*
Y-7874D02*
D03*
Y-4724D02*
D03*
Y-1575D02*
D03*
Y1575D02*
D03*
Y4724D02*
D03*
Y7874D02*
D03*
Y11024D02*
D03*
X-1575Y-11024D02*
D03*
Y-7874D02*
D03*
Y-4724D02*
D03*
Y-1575D02*
D03*
Y1575D02*
D03*
Y4724D02*
D03*
Y7874D02*
D03*
Y11024D02*
D03*
X-4724Y-14173D02*
D03*
Y-11024D02*
D03*
Y-7874D02*
D03*
Y-4724D02*
D03*
Y-1575D02*
D03*
Y1575D02*
D03*
Y4724D02*
D03*
Y7874D02*
D03*
Y11024D02*
D03*
Y14173D02*
D03*
X-7874Y-11024D02*
D03*
Y-7874D02*
D03*
Y-4724D02*
D03*
Y-1575D02*
D03*
Y1575D02*
D03*
Y4724D02*
D03*
Y7874D02*
D03*
Y11024D02*
D03*
X-11024Y-14173D02*
D03*
Y-11024D02*
D03*
Y-7874D02*
D03*
Y7874D02*
D03*
Y11024D02*
D03*
M02*
