M48
;Layer_Color=9474304
;FILE_FORMAT=2:5
INCH,TZ
;TYPE=PLATED
T1F00S00C0.00787
T2F00S00C0.02362
%
T01
X-6276Y-9472
X-3125Y-9473
Y-6323
X3126Y-6323
X3125Y-9473
X6275
X6276Y-12622
X3126
X-3126
X9425
X6276Y-3173
X11000Y-1000
X6299Y9449
X3150
X-0
X-3150
X-6275Y9425
X-3125Y6275
X0Y6299
X-1575Y13724
X-11000Y2000
T02
X-7480Y-13780
Y13780
M30
