%FSLAX25Y25*%
%MOIN*%
G70*
G01*
G75*
%ADD19C,0.00197*%
%ADD20C,0.00591*%
G36*
X638555Y193842D02*
X636276D01*
X638555Y196122D01*
Y193842D01*
D02*
G37*
D19*
X610996D02*
X638555D01*
X610996Y227307D02*
X638555D01*
Y193842D02*
Y227307D01*
X610996Y193842D02*
Y227307D01*
X638555Y196122D02*
Y196575D01*
X636276Y193842D02*
X638555Y196122D01*
D20*
X621478Y185803D02*
Y184229D01*
X622265Y183442D01*
X623052Y184229D01*
Y185803D01*
X625413D02*
X623839D01*
Y184622D01*
X624626D01*
X623839D01*
Y183442D01*
X626201Y185803D02*
Y183442D01*
X627381D01*
X627775Y183835D01*
Y184229D01*
X627381Y184622D01*
X626201D01*
X627381D01*
X627775Y185016D01*
Y185409D01*
X627381Y185803D01*
X626201D01*
X630136Y185409D02*
X629743Y185803D01*
X628956D01*
X628562Y185409D01*
Y183835D01*
X628956Y183442D01*
X629743D01*
X630136Y183835D01*
Y184622D01*
X629349D01*
X630923Y183442D02*
Y185016D01*
X631711Y185803D01*
X632498Y185016D01*
Y183442D01*
Y184622D01*
X630923D01*
X634859Y185803D02*
X634072Y185409D01*
X633285Y184622D01*
Y183835D01*
X633678Y183442D01*
X634466D01*
X634859Y183835D01*
Y184229D01*
X634466Y184622D01*
X633285D01*
X635646Y185803D02*
X637221D01*
Y185409D01*
X635646Y183835D01*
Y183442D01*
X620690Y181552D02*
Y179191D01*
X621871D01*
X622265Y179584D01*
Y179978D01*
Y180371D01*
X621871Y180765D01*
X620690D01*
X623052D02*
Y179191D01*
Y179978D01*
X623446Y180371D01*
X623839Y180765D01*
X624233D01*
X626594Y179191D02*
X625807D01*
X625413Y179584D01*
Y180371D01*
X625807Y180765D01*
X626594D01*
X626988Y180371D01*
Y179978D01*
X625413D01*
X628168Y180765D02*
X628956D01*
X629349Y180371D01*
Y179191D01*
X628168D01*
X627775Y179584D01*
X628168Y179978D01*
X629349D01*
X630136Y179191D02*
Y181552D01*
Y179978D02*
X631317Y180765D01*
X630136Y179978D02*
X631317Y179191D01*
X632891D02*
X633678D01*
X634072Y179584D01*
Y180371D01*
X633678Y180765D01*
X632891D01*
X632498Y180371D01*
Y179584D01*
X632891Y179191D01*
X634859Y180765D02*
Y179584D01*
X635253Y179191D01*
X636434D01*
Y180765D01*
X637614Y181158D02*
Y180765D01*
X637221D01*
X638008D01*
X637614D01*
Y179584D01*
X638008Y179191D01*
X651674Y164568D02*
X651281Y164961D01*
X650494D01*
X650100Y164568D01*
Y162994D01*
X650494Y162600D01*
X651281D01*
X651674Y162994D01*
Y163781D01*
X650887D01*
X652461Y162600D02*
Y164961D01*
X654036Y162600D01*
Y164961D01*
X654823D02*
Y162600D01*
X656004D01*
X656397Y162994D01*
Y164568D01*
X656004Y164961D01*
X654823D01*
X602674Y164568D02*
X602281Y164961D01*
X601494D01*
X601100Y164568D01*
Y162994D01*
X601494Y162600D01*
X602281D01*
X602674Y162994D01*
X605036Y164961D02*
X603461D01*
Y162600D01*
X605036D01*
X603461Y163781D02*
X604249D01*
X611100Y162600D02*
Y164961D01*
X612281D01*
X612674Y164568D01*
Y163781D01*
X612281Y163387D01*
X611100D01*
X611887D02*
X612674Y162600D01*
X615036Y164961D02*
X613461D01*
Y162600D01*
X615036D01*
X613461Y163781D02*
X614249D01*
X621100Y164961D02*
Y162600D01*
X621887Y163387D01*
X622674Y162600D01*
Y164961D01*
X625036D02*
X623461D01*
Y162600D01*
X625036D01*
X623461Y163781D02*
X624249D01*
X631600Y164961D02*
Y162600D01*
X632387Y163387D01*
X633174Y162600D01*
Y164961D01*
X633961Y162600D02*
Y164961D01*
X635142D01*
X635536Y164568D01*
Y163781D01*
X635142Y163387D01*
X633961D01*
X641100Y162600D02*
Y164961D01*
X642281D01*
X642674Y164568D01*
Y163781D01*
X642281Y163387D01*
X641100D01*
X641887D02*
X642674Y162600D01*
X643461Y164961D02*
Y164568D01*
X644249Y163781D01*
X645036Y164568D01*
Y164961D01*
X644249Y163781D02*
Y162600D01*
X646739Y176100D02*
X648313D01*
X649100Y176887D01*
X648313Y177674D01*
X646739D01*
X647132Y180036D02*
X646739Y179642D01*
Y178855D01*
X647132Y178461D01*
X648706D01*
X649100Y178855D01*
Y179642D01*
X648706Y180036D01*
X647132Y182397D02*
X646739Y182004D01*
Y181217D01*
X647132Y180823D01*
X648706D01*
X649100Y181217D01*
Y182004D01*
X648706Y182397D01*
X647132Y187674D02*
X646739Y187281D01*
Y186494D01*
X647132Y186100D01*
X648706D01*
X649100Y186494D01*
Y187281D01*
X648706Y187674D01*
X647919D01*
Y186887D01*
X649100Y188461D02*
X646739D01*
X649100Y190036D01*
X646739D01*
Y190823D02*
X649100D01*
Y192004D01*
X648706Y192397D01*
X647132D01*
X646739Y192004D01*
Y190823D01*
Y196600D02*
Y197387D01*
Y196994D01*
X649100D01*
Y196600D01*
Y197387D01*
X646739Y199749D02*
Y198961D01*
X647132Y198568D01*
X648706D01*
X649100Y198961D01*
Y199749D01*
X648706Y200142D01*
X647132D01*
X646739Y199749D01*
X649100Y200929D02*
Y201716D01*
Y201323D01*
X646739D01*
X647132Y200929D01*
X646739Y206600D02*
Y207387D01*
Y206994D01*
X649100D01*
Y206600D01*
Y207387D01*
X646739Y209749D02*
Y208961D01*
X647132Y208568D01*
X648706D01*
X649100Y208961D01*
Y209749D01*
X648706Y210142D01*
X647132D01*
X646739Y209749D01*
X649100Y212504D02*
Y210929D01*
X647526Y212504D01*
X647132D01*
X646739Y212110D01*
Y211323D01*
X647132Y210929D01*
X646739Y216100D02*
Y216887D01*
Y216494D01*
X649100D01*
Y216100D01*
Y216887D01*
X646739Y219249D02*
Y218461D01*
X647132Y218068D01*
X648706D01*
X649100Y218461D01*
Y219249D01*
X648706Y219642D01*
X647132D01*
X646739Y219249D01*
X647132Y220429D02*
X646739Y220823D01*
Y221610D01*
X647132Y222004D01*
X647526D01*
X647919Y221610D01*
Y221216D01*
Y221610D01*
X648313Y222004D01*
X648706D01*
X649100Y221610D01*
Y220823D01*
X648706Y220429D01*
X646739Y226600D02*
Y227387D01*
Y226994D01*
X649100D01*
Y226600D01*
Y227387D01*
X646739Y229749D02*
Y228961D01*
X647132Y228568D01*
X648706D01*
X649100Y228961D01*
Y229749D01*
X648706Y230142D01*
X647132D01*
X646739Y229749D01*
X649100Y232110D02*
X646739D01*
X647919Y230929D01*
Y232504D01*
X610100Y176100D02*
X608526D01*
X607739Y176887D01*
X608526Y177674D01*
X610100D01*
X608919D01*
Y176100D01*
X607739Y178461D02*
X610100D01*
Y180036D01*
X607739Y182397D02*
Y180823D01*
X610100D01*
Y182397D01*
X608919Y180823D02*
Y181610D01*
X608132Y188174D02*
X607739Y187781D01*
Y186994D01*
X608132Y186600D01*
X609706D01*
X610100Y186994D01*
Y187781D01*
X609706Y188174D01*
X607739Y188961D02*
X610100D01*
Y190536D01*
X607739Y192897D02*
Y191323D01*
X610100D01*
Y192897D01*
X608919Y191323D02*
Y192110D01*
X607739Y197100D02*
Y197887D01*
Y197494D01*
X610100D01*
Y197100D01*
Y197887D01*
X607739Y200249D02*
Y199461D01*
X608132Y199068D01*
X609706D01*
X610100Y199461D01*
Y200249D01*
X609706Y200642D01*
X608132D01*
X607739Y200249D01*
X608132Y201429D02*
X607739Y201823D01*
Y202610D01*
X608132Y203004D01*
X608526D01*
X608919Y202610D01*
X609313Y203004D01*
X609706D01*
X610100Y202610D01*
Y201823D01*
X609706Y201429D01*
X609313D01*
X608919Y201823D01*
X608526Y201429D01*
X608132D01*
X608919Y201823D02*
Y202610D01*
X607739Y206600D02*
Y207387D01*
Y206994D01*
X610100D01*
Y206600D01*
Y207387D01*
X607739Y209749D02*
Y208961D01*
X608132Y208568D01*
X609706D01*
X610100Y208961D01*
Y209749D01*
X609706Y210142D01*
X608132D01*
X607739Y209749D01*
Y210929D02*
Y212504D01*
X608132D01*
X609706Y210929D01*
X610100D01*
X607739Y216600D02*
Y217387D01*
Y216994D01*
X610100D01*
Y216600D01*
Y217387D01*
X607739Y219749D02*
Y218961D01*
X608132Y218568D01*
X609706D01*
X610100Y218961D01*
Y219749D01*
X609706Y220142D01*
X608132D01*
X607739Y219749D01*
Y222504D02*
X608132Y221716D01*
X608919Y220929D01*
X609706D01*
X610100Y221323D01*
Y222110D01*
X609706Y222504D01*
X609313D01*
X608919Y222110D01*
Y220929D01*
X607739Y226100D02*
Y226887D01*
Y226494D01*
X610100D01*
Y226100D01*
Y226887D01*
X607739Y229249D02*
Y228461D01*
X608132Y228068D01*
X609706D01*
X610100Y228461D01*
Y229249D01*
X609706Y229642D01*
X608132D01*
X607739Y229249D01*
Y232004D02*
Y230429D01*
X608919D01*
X608526Y231216D01*
Y231610D01*
X608919Y232004D01*
X609706D01*
X610100Y231610D01*
Y230823D01*
X609706Y230429D01*
M02*
