%FSLAX25Y25*%
%MOIN*%
G70*
G01*
G75*
%ADD11C,0.00500*%
%ADD12C,0.01000*%
%ADD13R,0.05905X0.05905*%
%ADD14C,0.05905*%
%ADD15R,0.05905X0.05905*%
%ADD16C,0.02362*%
%ADD17R,0.08268X0.05512*%
%ADD18R,0.03937X0.00984*%
G36*
X660652Y162048D02*
X595548Y162048D01*
Y233852D01*
X660652Y233852D01*
Y162048D01*
D02*
G37*
%LPC*%
G36*
X623500Y172983D02*
X622599Y172864D01*
X621759Y172516D01*
X621037Y171962D01*
X620484Y171241D01*
X620136Y170401D01*
X620017Y169500D01*
X620136Y168599D01*
X620484Y167759D01*
X621037Y167037D01*
X621759Y166484D01*
X622599Y166136D01*
X623500Y166017D01*
X624401Y166136D01*
X625241Y166484D01*
X625962Y167037D01*
X626516Y167759D01*
X626864Y168599D01*
X626982Y169500D01*
X626864Y170401D01*
X626516Y171241D01*
X625962Y171962D01*
X625241Y172516D01*
X624401Y172864D01*
X623500Y172983D01*
D02*
G37*
G36*
X653000Y173421D02*
X652468Y173351D01*
X651507Y172953D01*
X650681Y172319D01*
X650047Y171493D01*
X649649Y170532D01*
X649579Y170000D01*
X653000D01*
Y173421D01*
D02*
G37*
G36*
X654000D02*
Y170000D01*
X657421D01*
X657351Y170532D01*
X656953Y171493D01*
X656319Y172319D01*
X655493Y172953D01*
X654532Y173351D01*
X654000Y173421D01*
D02*
G37*
G36*
X613500Y172983D02*
X612599Y172864D01*
X611759Y172516D01*
X611037Y171962D01*
X610484Y171241D01*
X610136Y170401D01*
X610017Y169500D01*
X610136Y168599D01*
X610484Y167759D01*
X611037Y167037D01*
X611759Y166484D01*
X612599Y166136D01*
X613500Y166017D01*
X614401Y166136D01*
X615241Y166484D01*
X615963Y167037D01*
X616516Y167759D01*
X616864Y168599D01*
X616983Y169500D01*
X616864Y170401D01*
X616516Y171241D01*
X615963Y171962D01*
X615241Y172516D01*
X614401Y172864D01*
X613500Y172983D01*
D02*
G37*
G36*
X653000Y169000D02*
X649579D01*
X649649Y168468D01*
X650047Y167507D01*
X650681Y166681D01*
X651507Y166047D01*
X652468Y165649D01*
X653000Y165579D01*
Y169000D01*
D02*
G37*
G36*
X657421D02*
X654000D01*
Y165579D01*
X654532Y165649D01*
X655493Y166047D01*
X656319Y166681D01*
X656953Y167507D01*
X657351Y168468D01*
X657421Y169000D01*
D02*
G37*
G36*
X606453Y172994D02*
X600547D01*
X600165Y172835D01*
X600006Y172453D01*
Y166547D01*
X600165Y166165D01*
X600547Y166006D01*
X606453D01*
X606835Y166165D01*
X606994Y166547D01*
Y172453D01*
X606835Y172835D01*
X606453Y172994D01*
D02*
G37*
G36*
X628067Y182158D02*
X623414D01*
Y179902D01*
X623491Y179511D01*
X623712Y179181D01*
X624043Y178960D01*
X624433Y178882D01*
X628067D01*
Y182158D01*
D02*
G37*
G36*
Y215874D02*
X623414D01*
Y213618D01*
X623491Y213228D01*
X623712Y212897D01*
X624043Y212676D01*
X624433Y212598D01*
X628067D01*
Y215874D01*
D02*
G37*
G36*
X653500Y222482D02*
X652599Y222364D01*
X651759Y222016D01*
X651038Y221462D01*
X650484Y220741D01*
X650136Y219901D01*
X650017Y219000D01*
X650136Y218099D01*
X650484Y217259D01*
X651038Y216537D01*
X651759Y215984D01*
X652599Y215636D01*
X653500Y215517D01*
X654401Y215636D01*
X655241Y215984D01*
X655963Y216537D01*
X656516Y217259D01*
X656864Y218099D01*
X656983Y219000D01*
X656864Y219901D01*
X656516Y220741D01*
X655963Y221462D01*
X655241Y222016D01*
X654401Y222364D01*
X653500Y222482D01*
D02*
G37*
G36*
X628067Y220149D02*
X624433D01*
X624043Y220072D01*
X623712Y219851D01*
X623491Y219520D01*
X623414Y219130D01*
Y216874D01*
X628067D01*
Y220149D01*
D02*
G37*
G36*
X606453Y232494D02*
X600547D01*
X600165Y232335D01*
X600006Y231953D01*
Y226047D01*
X600165Y225665D01*
X600547Y225506D01*
X606453D01*
X606835Y225665D01*
X606897Y225814D01*
X607456Y225963D01*
X609299Y224119D01*
X609151Y223613D01*
X609121Y223590D01*
X608500Y223714D01*
X607844Y223584D01*
X607288Y223212D01*
X606916Y222656D01*
X606786Y222000D01*
X606863Y221612D01*
X606560Y221335D01*
X606025Y221381D01*
X605963Y221462D01*
X605241Y222016D01*
X604401Y222364D01*
X603500Y222482D01*
X602599Y222364D01*
X601759Y222016D01*
X601038Y221462D01*
X600484Y220741D01*
X600136Y219901D01*
X600017Y219000D01*
X600136Y218099D01*
X600484Y217259D01*
X601038Y216537D01*
X601759Y215984D01*
X602599Y215636D01*
X603500Y215517D01*
X604401Y215636D01*
X605241Y215984D01*
X605938Y216519D01*
X606111Y216491D01*
X606438Y216379D01*
Y213019D01*
X605351Y211932D01*
X605241Y212016D01*
X604401Y212364D01*
X603500Y212483D01*
X602599Y212364D01*
X601759Y212016D01*
X601038Y211462D01*
X600484Y210741D01*
X600136Y209901D01*
X600017Y209000D01*
X600136Y208099D01*
X600484Y207259D01*
X601038Y206538D01*
X601759Y205984D01*
X602599Y205636D01*
X603500Y205518D01*
X604401Y205636D01*
X605241Y205984D01*
X605963Y206538D01*
X606516Y207259D01*
X606864Y208099D01*
X606983Y209000D01*
X606864Y209901D01*
X606516Y210741D01*
X606432Y210851D01*
X607744Y212162D01*
X607909Y212410D01*
X607968Y212703D01*
Y219882D01*
X608467Y220292D01*
X608500Y220286D01*
X609156Y220416D01*
X609712Y220788D01*
X610084Y221344D01*
X610214Y222000D01*
X610090Y222621D01*
X610113Y222651D01*
X610619Y222799D01*
X616986Y216433D01*
X616740Y215972D01*
X616500Y216020D01*
X611500D01*
X611110Y215942D01*
X610779Y215721D01*
X610727Y215669D01*
X610500Y215714D01*
X609844Y215584D01*
X609288Y215212D01*
X608916Y214656D01*
X608786Y214000D01*
X608916Y213344D01*
X609288Y212788D01*
X609844Y212416D01*
X610500Y212286D01*
X611156Y212416D01*
X611712Y212788D01*
X612084Y213344D01*
X612210Y213980D01*
X616078D01*
X620185Y209873D01*
X619944Y209407D01*
X616165D01*
X615783Y209249D01*
X615737Y209139D01*
X614261D01*
X614212Y209212D01*
X613656Y209584D01*
X613000Y209714D01*
X612344Y209584D01*
X611788Y209212D01*
X611416Y208656D01*
X611286Y208000D01*
X611308Y207889D01*
X606959Y203541D01*
X606793Y203293D01*
X606735Y203000D01*
Y201277D01*
X606235Y201107D01*
X605963Y201463D01*
X605241Y202016D01*
X604401Y202364D01*
X603500Y202483D01*
X602599Y202364D01*
X601759Y202016D01*
X601038Y201463D01*
X600484Y200741D01*
X600136Y199901D01*
X600017Y199000D01*
X600136Y198099D01*
X600484Y197259D01*
X601038Y196537D01*
X601759Y195984D01*
X602599Y195636D01*
X603500Y195518D01*
X604401Y195636D01*
X605241Y195984D01*
X605963Y196537D01*
X606235Y196893D01*
X606735Y196723D01*
Y191277D01*
X606235Y191107D01*
X605963Y191463D01*
X605241Y192016D01*
X604401Y192364D01*
X603500Y192482D01*
X602599Y192364D01*
X601759Y192016D01*
X601038Y191463D01*
X600484Y190741D01*
X600136Y189901D01*
X600017Y189000D01*
X600136Y188099D01*
X600484Y187259D01*
X601038Y186538D01*
X601759Y185984D01*
X602599Y185636D01*
X603500Y185518D01*
X604401Y185636D01*
X605241Y185984D01*
X605963Y186538D01*
X606235Y186893D01*
X606735Y186723D01*
Y183317D01*
X605351Y181932D01*
X605241Y182016D01*
X604401Y182364D01*
X603500Y182483D01*
X602599Y182364D01*
X601759Y182016D01*
X601038Y181463D01*
X600484Y180741D01*
X600136Y179901D01*
X600017Y179000D01*
X600136Y178099D01*
X600484Y177259D01*
X601038Y176538D01*
X601759Y175984D01*
X602599Y175636D01*
X603500Y175517D01*
X604401Y175636D01*
X605241Y175984D01*
X605963Y176538D01*
X606516Y177259D01*
X606864Y178099D01*
X606983Y179000D01*
X606864Y179901D01*
X606516Y180741D01*
X606432Y180851D01*
X607422Y181840D01*
X608028Y181745D01*
X608031Y181742D01*
X610313Y179461D01*
X610288Y179212D01*
X609916Y178656D01*
X609786Y178000D01*
X609916Y177344D01*
X610288Y176788D01*
X610844Y176416D01*
X611500Y176286D01*
X612156Y176416D01*
X612712Y176788D01*
X612961Y176813D01*
X614814Y174959D01*
X614814Y174959D01*
X615062Y174794D01*
X615355Y174735D01*
X615355Y174735D01*
X627183D01*
X630568Y171351D01*
X630484Y171241D01*
X630136Y170401D01*
X630018Y169500D01*
X630136Y168599D01*
X630484Y167759D01*
X631038Y167037D01*
X631759Y166484D01*
X632599Y166136D01*
X633500Y166017D01*
X634401Y166136D01*
X635241Y166484D01*
X635962Y167037D01*
X636516Y167759D01*
X636864Y168599D01*
X636982Y169500D01*
X636864Y170401D01*
X636516Y171241D01*
X635962Y171962D01*
X635241Y172516D01*
X634401Y172864D01*
X633500Y172983D01*
X632599Y172864D01*
X631759Y172516D01*
X631649Y172432D01*
X628041Y176041D01*
X627793Y176207D01*
X627500Y176265D01*
X615672D01*
X612163Y179773D01*
X612354Y180235D01*
X616489D01*
X616788Y179788D01*
X617344Y179416D01*
X618000Y179286D01*
X618656Y179416D01*
X619212Y179788D01*
X619584Y180344D01*
X619714Y181000D01*
X619609Y181528D01*
X622389Y184308D01*
X622500Y184286D01*
X622914Y184368D01*
X623414Y184033D01*
Y183158D01*
X628567D01*
X633720D01*
Y184358D01*
X634220Y184509D01*
X634348Y184318D01*
X634419Y184247D01*
X634475Y184164D01*
X634558Y184108D01*
X634629Y184037D01*
X635020Y183776D01*
X635113Y183738D01*
X635196Y183682D01*
X635295Y183662D01*
X635388Y183624D01*
X635547Y183592D01*
Y185736D01*
X636047D01*
Y186236D01*
X638192D01*
X638160Y186396D01*
X638121Y186489D01*
X638102Y186587D01*
X638046Y186671D01*
X638008Y186764D01*
X637746Y187154D01*
X637681Y187220D01*
X637681Y187244D01*
X637778Y187540D01*
X637901Y187720D01*
X642484D01*
X642777Y187778D01*
X643025Y187944D01*
X647837Y192755D01*
X648344Y192416D01*
X648581Y192369D01*
X648745Y191827D01*
X642959Y186041D01*
X642794Y185793D01*
X642735Y185500D01*
Y172882D01*
X642599Y172864D01*
X641759Y172516D01*
X641038Y171962D01*
X640484Y171241D01*
X640136Y170401D01*
X640018Y169500D01*
X640136Y168599D01*
X640484Y167759D01*
X641038Y167037D01*
X641759Y166484D01*
X642599Y166136D01*
X643500Y166017D01*
X644401Y166136D01*
X645241Y166484D01*
X645962Y167037D01*
X646516Y167759D01*
X646864Y168599D01*
X646982Y169500D01*
X646864Y170401D01*
X646516Y171241D01*
X645962Y171962D01*
X645241Y172516D01*
X644401Y172864D01*
X644265Y172882D01*
Y185183D01*
X649149Y190068D01*
X649623Y189834D01*
X649579Y189500D01*
X653000D01*
Y192921D01*
X652468Y192851D01*
X652165Y192725D01*
X651985Y192804D01*
X651696Y193072D01*
Y195469D01*
X651916Y195689D01*
X652156Y195820D01*
X652599Y195636D01*
X653500Y195518D01*
X654401Y195636D01*
X655241Y195984D01*
X655963Y196537D01*
X656516Y197259D01*
X656864Y198099D01*
X656983Y199000D01*
X656864Y199901D01*
X656516Y200741D01*
X656432Y200851D01*
X657268Y201687D01*
X657730Y201496D01*
Y190422D01*
X657230Y190323D01*
X656953Y190993D01*
X656319Y191819D01*
X655493Y192453D01*
X654532Y192851D01*
X654000Y192921D01*
Y189000D01*
Y185079D01*
X654532Y185149D01*
X655493Y185547D01*
X656319Y186181D01*
X656953Y187007D01*
X657230Y187677D01*
X657730Y187577D01*
Y184672D01*
X655552Y182494D01*
X650547D01*
X650165Y182335D01*
X650006Y181953D01*
Y176047D01*
X650165Y175665D01*
X650547Y175506D01*
X656453D01*
X656835Y175665D01*
X656994Y176047D01*
Y181052D01*
X659471Y183529D01*
X659692Y183860D01*
X659770Y184250D01*
Y221750D01*
X659692Y222140D01*
X659471Y222471D01*
X656721Y225221D01*
X656390Y225442D01*
X656000Y225520D01*
X655427D01*
X655289Y225864D01*
X655288Y226020D01*
X655963Y226537D01*
X656516Y227259D01*
X656864Y228099D01*
X656983Y229000D01*
X656864Y229901D01*
X656516Y230741D01*
X655963Y231463D01*
X655241Y232016D01*
X654401Y232364D01*
X653500Y232483D01*
X652599Y232364D01*
X651759Y232016D01*
X651038Y231463D01*
X650484Y230741D01*
X650136Y229901D01*
X650017Y229000D01*
X650136Y228099D01*
X650484Y227259D01*
X651038Y226537D01*
X651712Y226020D01*
X651711Y225864D01*
X651573Y225520D01*
X647422D01*
X646221Y226721D01*
X645890Y226942D01*
X645500Y227020D01*
X624922D01*
X623721Y228221D01*
X623390Y228442D01*
X623000Y228520D01*
X621611D01*
X621584Y228656D01*
X621212Y229212D01*
X620656Y229584D01*
X620000Y229714D01*
X619344Y229584D01*
X618788Y229212D01*
X618416Y228656D01*
X618286Y228000D01*
X618416Y227344D01*
X618788Y226788D01*
X619344Y226416D01*
X620000Y226286D01*
X620656Y226416D01*
X620752Y226480D01*
X622578D01*
X623779Y225279D01*
X624110Y225058D01*
X624500Y224980D01*
X645078D01*
X646279Y223779D01*
X646610Y223558D01*
X647000Y223480D01*
X655578D01*
X657730Y221328D01*
Y213504D01*
X657268Y213313D01*
X656541Y214041D01*
X656293Y214207D01*
X656000Y214265D01*
X652217D01*
X648941Y217541D01*
X648693Y217706D01*
X648400Y217765D01*
X646011D01*
X645712Y218212D01*
X645156Y218584D01*
X644500Y218714D01*
X643844Y218584D01*
X643288Y218212D01*
X642916Y217656D01*
X642834Y217243D01*
X642834Y217239D01*
X642714Y217251D01*
Y217251D01*
X642714Y217251D01*
X642334Y217540D01*
Y218058D01*
X642781Y218357D01*
X643153Y218913D01*
X643283Y219569D01*
X643153Y220225D01*
X642781Y220781D01*
X642225Y221152D01*
X641569Y221283D01*
X640913Y221152D01*
X640357Y220781D01*
X639985Y220225D01*
X639855Y219569D01*
X639985Y218913D01*
X640357Y218357D01*
X640804Y218058D01*
Y216865D01*
X635040D01*
X634747Y216807D01*
X634499Y216641D01*
X634182Y216324D01*
X633720Y216516D01*
Y219130D01*
X633643Y219520D01*
X633422Y219851D01*
X633091Y220072D01*
X632701Y220149D01*
X629067D01*
Y216374D01*
Y212598D01*
X632701D01*
X632735Y212570D01*
Y210417D01*
X627459Y205141D01*
X627293Y204893D01*
X627235Y204600D01*
Y199731D01*
X623338Y195834D01*
X621497D01*
X620954Y196377D01*
X620706Y196543D01*
X620644Y196555D01*
Y197055D01*
X620599Y197163D01*
X620569Y197293D01*
X620809Y197767D01*
X621032D01*
X621324Y197825D01*
X621572Y197991D01*
X625041Y201459D01*
X625207Y201707D01*
X625265Y202000D01*
Y210000D01*
X625265Y210000D01*
X625207Y210293D01*
X625041Y210541D01*
X606994Y228588D01*
Y231953D01*
X606835Y232335D01*
X606453Y232494D01*
D02*
G37*
G36*
X633720Y182158D02*
X629067D01*
Y178882D01*
X632701D01*
X633091Y178960D01*
X633422Y179181D01*
X633643Y179511D01*
X633720Y179902D01*
Y182158D01*
D02*
G37*
G36*
X638192Y185236D02*
X636547D01*
Y183592D01*
X636707Y183624D01*
X636800Y183662D01*
X636898Y183682D01*
X636982Y183738D01*
X637075Y183776D01*
X637465Y184037D01*
X637536Y184108D01*
X637620Y184164D01*
X637676Y184247D01*
X637746Y184318D01*
X638008Y184709D01*
X638046Y184802D01*
X638102Y184885D01*
X638121Y184984D01*
X638160Y185076D01*
X638192Y185236D01*
D02*
G37*
G36*
X653000Y188500D02*
X649579D01*
X649649Y187968D01*
X650047Y187007D01*
X650681Y186181D01*
X651507Y185547D01*
X652468Y185149D01*
X653000Y185079D01*
Y188500D01*
D02*
G37*
%LPD*%
G36*
X636513Y207827D02*
X636535Y207774D01*
X636624Y207390D01*
X636535Y207005D01*
X636490Y206898D01*
Y205913D01*
X636649Y205531D01*
X636649Y205312D01*
X636490Y204929D01*
Y203945D01*
X636535Y203837D01*
X636624Y203453D01*
X636535Y203068D01*
X636490Y202961D01*
Y201976D01*
X636537Y201864D01*
X636310Y201713D01*
X636090Y201382D01*
X636014Y201000D01*
X639000D01*
Y200000D01*
X636014D01*
X636090Y199618D01*
X636158Y199516D01*
X636090Y199414D01*
X636012Y199024D01*
Y198511D01*
X635998Y198483D01*
X635512Y198140D01*
X635138Y198214D01*
X634482Y198084D01*
X633926Y197712D01*
X633627Y197265D01*
X630499D01*
X630308Y197727D01*
X632541Y199959D01*
X632706Y200207D01*
X632765Y200500D01*
Y204814D01*
X634884Y206934D01*
X634969Y206990D01*
X636028Y208050D01*
X636513Y207827D01*
D02*
G37*
D11*
X633500Y214561D02*
X635040Y216100D01*
X633500Y210100D02*
Y214561D01*
X628000Y204600D02*
X633500Y210100D01*
X644500Y216687D02*
X644657Y216843D01*
X636099Y210616D02*
X637085D01*
X639500Y213031D01*
X634014Y208531D02*
X636099Y210616D01*
X633986Y208531D02*
X634014D01*
X639500Y213031D02*
X642297D01*
X634428Y207531D02*
X636513Y209616D01*
X638816D01*
X640300Y211100D01*
X642484Y188484D02*
X648000Y194000D01*
X631585Y188484D02*
X642484D01*
X630515Y189553D02*
X631585Y188484D01*
X633200Y189484D02*
Y189569D01*
X631269Y191500D02*
X633200Y189569D01*
X637827Y189484D02*
X639000Y190657D01*
X633200Y189484D02*
X637827D01*
X639000Y208374D02*
X644500D01*
X633900Y191600D02*
X634152D01*
X634500Y191252D01*
X629355Y196500D02*
X635138D01*
X629000Y197500D02*
X632000Y200500D01*
X628941Y197500D02*
X629000D01*
X622270Y189415D02*
X629355Y196500D01*
X624067Y192626D02*
X628941Y197500D01*
X634500Y191252D02*
X635874Y192626D01*
X639000D01*
X628500Y191500D02*
X631269D01*
X630485Y189553D02*
X630515D01*
X627500Y190500D02*
X628500Y191500D01*
X622200Y187931D02*
X628269Y194000D01*
X618134Y192626D02*
X624067D01*
X624069Y194069D02*
X630000Y200000D01*
X618659Y194069D02*
X624069D01*
X623655Y195069D02*
X628000Y199414D01*
X621181Y195069D02*
X623655D01*
X635040Y216100D02*
X641569D01*
Y219569D01*
Y215131D02*
Y216100D01*
X627500Y175500D02*
X633500Y169500D01*
X614405Y206405D02*
X618134D01*
X615437Y204437D02*
X618134D01*
Y198531D02*
X621032D01*
X642469Y202468D02*
X642500Y202500D01*
X639000Y202468D02*
X642469D01*
X644563Y204437D02*
X645500Y203500D01*
X639000Y204437D02*
X644563D01*
X639000Y206405D02*
X639337Y206069D01*
X607203Y220703D02*
X608500Y222000D01*
X603500Y209000D02*
X607203Y212703D01*
Y220703D01*
X614843Y190657D02*
X618134D01*
X612000Y193500D02*
X614843Y190657D01*
X608569Y200569D02*
X614405Y206405D01*
X611500Y194500D02*
Y195000D01*
X611000Y200000D02*
X615437Y204437D01*
X639337Y206069D02*
X643200D01*
X643700Y205569D01*
X646162D01*
X644500Y207500D02*
X646000D01*
X622500Y185500D02*
Y186000D01*
X620931Y187931D02*
X622200D01*
X618000Y185000D02*
X620931Y187931D01*
X609569Y198569D02*
X611000Y200000D01*
X603500Y179000D02*
X607500Y183000D01*
Y203000D01*
X609569Y182700D02*
Y198569D01*
X608569Y182286D02*
Y200569D01*
X615355Y175500D02*
X627500D01*
X609569Y182700D02*
X611269Y181000D01*
X618000D01*
X622500Y185500D01*
X613000Y183000D02*
Y183500D01*
X618915Y189415D01*
X621032Y198531D02*
X624500Y202000D01*
X603500Y229000D02*
X605500D01*
X624500Y202000D02*
Y210000D01*
X648000Y194000D02*
X649000D01*
X648797Y194203D02*
X649000Y194000D01*
X648797Y194203D02*
Y202934D01*
X646000Y207500D02*
X649797Y203703D01*
X646162Y205569D02*
X648797Y202934D01*
X643500Y185500D02*
X650931Y192931D01*
X649797Y196703D02*
Y203703D01*
Y196703D02*
X650931Y195569D01*
Y192931D02*
Y195569D01*
X656000Y213500D02*
X657203Y212297D01*
X605500Y229000D02*
X624500Y210000D01*
X618915Y189415D02*
X622270D01*
X618134Y196563D02*
X618860Y195837D01*
X620413D01*
X621181Y195069D01*
X618134Y194595D02*
X618659Y194069D01*
X643500Y169500D02*
Y185500D01*
X653500Y199000D02*
Y201828D01*
X657203Y202703D02*
Y212297D01*
X653500Y199000D02*
X657203Y202703D01*
X645500Y197200D02*
Y203500D01*
X628269Y194000D02*
X635369D01*
X635963Y194595D01*
X639000D01*
X642700Y194400D02*
X645500Y197200D01*
X644500Y216687D02*
Y217000D01*
X647900Y214600D02*
X653500Y209000D01*
X641569Y215131D02*
X642100Y214600D01*
X648400Y217000D02*
X651900Y213500D01*
X656000D01*
X644500Y217000D02*
X648400D01*
X642100Y214600D02*
X647900D01*
X642297Y213031D02*
X653500Y201828D01*
X628000Y199414D02*
Y204600D01*
X634400Y207531D02*
X634428D01*
X630000Y204545D02*
X633986Y208531D01*
X632000Y205131D02*
X634400Y207531D01*
X632000Y200500D02*
Y205131D01*
X630000Y200000D02*
Y204545D01*
X607500Y203000D02*
X612874Y208374D01*
X618134D01*
X608569Y182286D02*
X615355Y175500D01*
D12*
X636019Y198681D02*
X638850D01*
X635200Y199500D02*
X636019Y198681D01*
X638850D02*
X639000Y198531D01*
Y196563D02*
Y198531D01*
Y200500D01*
X620984Y201484D02*
X622500Y203000D01*
Y209000D01*
X616500Y215000D02*
X622500Y209000D01*
X611500Y215000D02*
X616500D01*
X610500Y214000D02*
X611500Y215000D01*
X618134Y200500D02*
Y201484D01*
Y202468D01*
X653500Y179000D02*
X658750Y184250D01*
Y221750D01*
X656000Y224500D02*
X658750Y221750D01*
X623000Y227500D02*
X624500Y226000D01*
X620500Y227500D02*
X623000D01*
X620000Y228000D02*
X620500Y227500D01*
X647000Y224500D02*
X656000D01*
X624500Y226000D02*
X645500D01*
X647000Y224500D01*
X635200Y199500D02*
Y205600D01*
X618134Y201484D02*
X620984D01*
D13*
X653500Y179000D02*
D03*
X603500Y229000D02*
D03*
D14*
X653500Y189000D02*
D03*
Y199000D02*
D03*
Y209000D02*
D03*
Y219000D02*
D03*
Y229000D02*
D03*
X603500Y219000D02*
D03*
Y209000D02*
D03*
Y199000D02*
D03*
Y189000D02*
D03*
Y179000D02*
D03*
X613500Y169500D02*
D03*
X623500D02*
D03*
X633500D02*
D03*
X643500D02*
D03*
X653500D02*
D03*
D15*
X603500D02*
D03*
D16*
X636047Y185736D02*
D03*
Y213295D02*
D03*
X633900Y191600D02*
D03*
X635138Y196500D02*
D03*
X630485Y189553D02*
D03*
X627500Y190500D02*
D03*
X642500Y202500D02*
D03*
X645500Y203500D02*
D03*
X618000Y185000D02*
D03*
X613000Y208000D02*
D03*
X608500Y222000D02*
D03*
X641569Y219569D02*
D03*
X611500Y194500D02*
D03*
X611000Y200000D02*
D03*
X644500Y207500D02*
D03*
X622500Y186000D02*
D03*
X611500Y178000D02*
D03*
X618000Y181000D02*
D03*
X613000Y183000D02*
D03*
X610500Y214000D02*
D03*
X641000Y223000D02*
D03*
X615500Y227500D02*
D03*
X649000Y194000D02*
D03*
X620000Y228000D02*
D03*
X641500Y198500D02*
D03*
X622600Y197000D02*
D03*
X642700Y194400D02*
D03*
X644500Y217000D02*
D03*
X640300Y211100D02*
D03*
X635200Y205600D02*
D03*
D17*
X628567Y182658D02*
D03*
Y216374D02*
D03*
D18*
X639000Y208374D02*
D03*
Y206405D02*
D03*
Y204437D02*
D03*
Y202468D02*
D03*
Y200500D02*
D03*
Y198531D02*
D03*
Y196563D02*
D03*
Y194595D02*
D03*
Y192626D02*
D03*
Y190657D02*
D03*
X618134D02*
D03*
Y192626D02*
D03*
Y194595D02*
D03*
Y196563D02*
D03*
Y198531D02*
D03*
Y200500D02*
D03*
Y202468D02*
D03*
Y204437D02*
D03*
Y206405D02*
D03*
Y208374D02*
D03*
M02*
