%FSLAX25Y25*%
%MOIN*%
G70*
G01*
G75*
%ADD10C,0.01614*%
%ADD11C,0.00500*%
%ADD12C,0.01000*%
%ADD13R,0.05905X0.05905*%
%ADD14C,0.05905*%
%ADD15R,0.05905X0.05905*%
%ADD16C,0.02362*%
G36*
X660652Y162048D02*
X595548Y162048D01*
Y233852D01*
X660652Y233852D01*
Y162048D01*
D02*
G37*
%LPC*%
G36*
X603500Y182483D02*
X602599Y182364D01*
X601759Y182016D01*
X601038Y181463D01*
X600484Y180741D01*
X600136Y179901D01*
X600017Y179000D01*
X600136Y178099D01*
X600484Y177259D01*
X601038Y176538D01*
X601759Y175984D01*
X602599Y175636D01*
X603500Y175517D01*
X604401Y175636D01*
X605241Y175984D01*
X605963Y176538D01*
X606516Y177259D01*
X606864Y178099D01*
X606983Y179000D01*
X606864Y179901D01*
X606516Y180741D01*
X605963Y181463D01*
X605241Y182016D01*
X604401Y182364D01*
X603500Y182483D01*
D02*
G37*
G36*
X656453Y182494D02*
X650547D01*
X650165Y182335D01*
X650006Y181953D01*
Y176047D01*
X650165Y175665D01*
X650547Y175506D01*
X656453D01*
X656835Y175665D01*
X656994Y176047D01*
Y181953D01*
X656835Y182335D01*
X656453Y182494D01*
D02*
G37*
G36*
X657421Y188500D02*
X654000D01*
Y185079D01*
X654532Y185149D01*
X655493Y185547D01*
X656319Y186181D01*
X656953Y187007D01*
X657351Y187968D01*
X657421Y188500D01*
D02*
G37*
G36*
X653500Y202483D02*
X652599Y202364D01*
X651759Y202016D01*
X651038Y201463D01*
X650484Y200741D01*
X650136Y199901D01*
X650017Y199000D01*
X650136Y198099D01*
X650484Y197259D01*
X651038Y196537D01*
X651759Y195984D01*
X652599Y195636D01*
X653500Y195518D01*
X654401Y195636D01*
X655241Y195984D01*
X655963Y196537D01*
X656516Y197259D01*
X656864Y198099D01*
X656983Y199000D01*
X656864Y199901D01*
X656516Y200741D01*
X655963Y201463D01*
X655241Y202016D01*
X654401Y202364D01*
X653500Y202483D01*
D02*
G37*
G36*
X654000Y192921D02*
Y189500D01*
X657421D01*
X657351Y190032D01*
X656953Y190993D01*
X656319Y191819D01*
X655493Y192453D01*
X654532Y192851D01*
X654000Y192921D01*
D02*
G37*
G36*
Y173421D02*
Y170000D01*
X657421D01*
X657351Y170532D01*
X656953Y171493D01*
X656319Y172319D01*
X655493Y172953D01*
X654532Y173351D01*
X654000Y173421D01*
D02*
G37*
G36*
X657421Y169000D02*
X654000D01*
Y165579D01*
X654532Y165649D01*
X655493Y166047D01*
X656319Y166681D01*
X656953Y167507D01*
X657351Y168468D01*
X657421Y169000D01*
D02*
G37*
G36*
X653000D02*
X649579D01*
X649649Y168468D01*
X650047Y167507D01*
X650681Y166681D01*
X651507Y166047D01*
X652468Y165649D01*
X653000Y165579D01*
Y169000D01*
D02*
G37*
G36*
X633500Y172983D02*
X632599Y172864D01*
X631759Y172516D01*
X631038Y171962D01*
X630484Y171241D01*
X630136Y170401D01*
X630018Y169500D01*
X630136Y168599D01*
X630484Y167759D01*
X631038Y167037D01*
X631759Y166484D01*
X632599Y166136D01*
X633500Y166017D01*
X634401Y166136D01*
X635241Y166484D01*
X635962Y167037D01*
X636516Y167759D01*
X636864Y168599D01*
X636982Y169500D01*
X636864Y170401D01*
X636516Y171241D01*
X635962Y171962D01*
X635241Y172516D01*
X634401Y172864D01*
X633500Y172983D01*
D02*
G37*
G36*
X653000Y173421D02*
X652468Y173351D01*
X651507Y172953D01*
X650681Y172319D01*
X650047Y171493D01*
X649649Y170532D01*
X649579Y170000D01*
X653000D01*
Y173421D01*
D02*
G37*
G36*
X643500Y172983D02*
X642599Y172864D01*
X641759Y172516D01*
X641038Y171962D01*
X640484Y171241D01*
X640136Y170401D01*
X640018Y169500D01*
X640136Y168599D01*
X640484Y167759D01*
X641038Y167037D01*
X641759Y166484D01*
X642599Y166136D01*
X643500Y166017D01*
X644401Y166136D01*
X645241Y166484D01*
X645962Y167037D01*
X646516Y167759D01*
X646864Y168599D01*
X646982Y169500D01*
X646864Y170401D01*
X646516Y171241D01*
X645962Y171962D01*
X645241Y172516D01*
X644401Y172864D01*
X643500Y172983D01*
D02*
G37*
G36*
X629500Y213482D02*
X628990Y213381D01*
X628558Y213092D01*
X628269Y212660D01*
X628167Y212150D01*
X628269Y211640D01*
X628558Y211207D01*
X628990Y210918D01*
X629500Y210817D01*
X630010Y210918D01*
X630442Y211207D01*
X630731Y211640D01*
X630833Y212150D01*
X630731Y212660D01*
X630442Y213092D01*
X630010Y213381D01*
X629500Y213482D01*
D02*
G37*
G36*
X636547Y215440D02*
Y213795D01*
X638192D01*
X638160Y213955D01*
X638121Y214048D01*
X638102Y214146D01*
X638046Y214230D01*
X638008Y214323D01*
X637746Y214713D01*
X637676Y214784D01*
X637620Y214868D01*
X637536Y214924D01*
X637465Y214995D01*
X637075Y215256D01*
X636982Y215294D01*
X636898Y215350D01*
X636800Y215369D01*
X636707Y215408D01*
X636547Y215440D01*
D02*
G37*
G36*
X638192Y212795D02*
X636547D01*
Y211151D01*
X636707Y211183D01*
X636800Y211221D01*
X636898Y211241D01*
X636982Y211297D01*
X637075Y211335D01*
X637465Y211596D01*
X637536Y211667D01*
X637620Y211723D01*
X637676Y211806D01*
X637746Y211877D01*
X638008Y212268D01*
X638046Y212361D01*
X638102Y212444D01*
X638121Y212543D01*
X638160Y212635D01*
X638192Y212795D01*
D02*
G37*
G36*
X632650Y207183D02*
X632140Y207082D01*
X631707Y206793D01*
X631418Y206360D01*
X631317Y205850D01*
X631418Y205340D01*
X631707Y204908D01*
X632140Y204619D01*
X632650Y204518D01*
X633160Y204619D01*
X633592Y204908D01*
X633881Y205340D01*
X633982Y205850D01*
X633881Y206360D01*
X633592Y206793D01*
X633160Y207082D01*
X632650Y207183D01*
D02*
G37*
G36*
Y210333D02*
X632140Y210231D01*
X631707Y209942D01*
X631418Y209510D01*
X631317Y209000D01*
X631418Y208490D01*
X631707Y208058D01*
X632140Y207769D01*
X632650Y207667D01*
X633160Y207769D01*
X633592Y208058D01*
X633881Y208490D01*
X633982Y209000D01*
X633881Y209510D01*
X633592Y209942D01*
X633160Y210231D01*
X632650Y210333D01*
D02*
G37*
G36*
X606453Y232494D02*
X600547D01*
X600165Y232335D01*
X600006Y231953D01*
Y226047D01*
X600165Y225665D01*
X600547Y225506D01*
X606453D01*
X606835Y225665D01*
X606994Y226047D01*
Y230235D01*
X609447D01*
X609654Y229735D01*
X607959Y228041D01*
X607794Y227793D01*
X607735Y227500D01*
Y223511D01*
X607288Y223212D01*
X606916Y222656D01*
X606786Y222000D01*
X606869Y221584D01*
X606571Y221114D01*
X606501Y221067D01*
X606280Y221049D01*
X605963Y221462D01*
X605241Y222016D01*
X604401Y222364D01*
X603500Y222482D01*
X602599Y222364D01*
X601759Y222016D01*
X601038Y221462D01*
X600484Y220741D01*
X600136Y219901D01*
X600017Y219000D01*
X600136Y218099D01*
X600484Y217259D01*
X600568Y217149D01*
X597459Y214041D01*
X597294Y213793D01*
X597235Y213500D01*
Y187000D01*
X597294Y186707D01*
X597459Y186459D01*
X599459Y184459D01*
X599707Y184293D01*
X600000Y184235D01*
X600000Y184235D01*
X611202D01*
X611470Y183735D01*
X611416Y183656D01*
X611286Y183000D01*
X611416Y182344D01*
X611788Y181788D01*
X612235Y181489D01*
Y180026D01*
X611803Y179654D01*
X611500Y179714D01*
X610844Y179584D01*
X610288Y179212D01*
X609916Y178656D01*
X609786Y178000D01*
X609916Y177344D01*
X610288Y176788D01*
X610844Y176416D01*
X611500Y176286D01*
X612156Y176416D01*
X612235Y176470D01*
X612735Y176202D01*
Y172882D01*
X612599Y172864D01*
X611759Y172516D01*
X611037Y171962D01*
X610484Y171241D01*
X610136Y170401D01*
X610017Y169500D01*
X610136Y168599D01*
X610484Y167759D01*
X611019Y167062D01*
X610991Y166889D01*
X610879Y166562D01*
X607519D01*
X606994Y167087D01*
Y172453D01*
X606835Y172835D01*
X606453Y172994D01*
X600547D01*
X600165Y172835D01*
X600006Y172453D01*
Y166547D01*
X600165Y166165D01*
X600547Y166006D01*
X605912D01*
X606662Y165257D01*
X606910Y165091D01*
X607203Y165032D01*
X616297D01*
X616590Y165091D01*
X616838Y165257D01*
X619041Y167459D01*
X619206Y167707D01*
X619265Y168000D01*
Y170183D01*
X619674Y170593D01*
X620008Y170455D01*
X620128Y170339D01*
X620017Y169500D01*
X620136Y168599D01*
X620484Y167759D01*
X621037Y167037D01*
X621759Y166484D01*
X622599Y166136D01*
X623500Y166017D01*
X624401Y166136D01*
X625241Y166484D01*
X625962Y167037D01*
X626516Y167759D01*
X626864Y168599D01*
X626982Y169500D01*
X626864Y170401D01*
X626516Y171241D01*
X625962Y171962D01*
X625241Y172516D01*
X624650Y172761D01*
X624510Y173316D01*
X624514Y173332D01*
X629417Y178235D01*
X638000D01*
X638293Y178294D01*
X638541Y178459D01*
X649018Y188936D01*
X649545Y188757D01*
X649649Y187968D01*
X650047Y187007D01*
X650681Y186181D01*
X651507Y185547D01*
X652468Y185149D01*
X653000Y185079D01*
Y189000D01*
Y192921D01*
X652468Y192851D01*
X651507Y192453D01*
X650681Y191819D01*
X650265Y191277D01*
X649765Y191446D01*
Y192489D01*
X650212Y192788D01*
X650584Y193344D01*
X650714Y194000D01*
X650584Y194656D01*
X650212Y195212D01*
X649656Y195584D01*
X649000Y195714D01*
X648344Y195584D01*
X648265Y195530D01*
X647765Y195798D01*
Y202000D01*
X647707Y202293D01*
X647541Y202541D01*
X647109Y202972D01*
X647214Y203500D01*
X647084Y204156D01*
X646712Y204712D01*
X646424Y204904D01*
X646332Y205520D01*
X646972Y206159D01*
X646972Y206159D01*
X647138Y206407D01*
X647196Y206700D01*
X647196Y206700D01*
Y208569D01*
X647138Y208861D01*
X646972Y209110D01*
X646972Y209110D01*
X646041Y210041D01*
X645793Y210207D01*
X645500Y210265D01*
X643000D01*
X642707Y210207D01*
X642459Y210041D01*
X637959Y205541D01*
X637793Y205293D01*
X637735Y205000D01*
Y203662D01*
X637385Y203361D01*
X636874Y203444D01*
X636742Y203643D01*
X636309Y203932D01*
X635799Y204033D01*
X635289Y203932D01*
X634857Y203643D01*
X634568Y203211D01*
X634467Y202701D01*
X634224Y202495D01*
X633982Y202701D01*
X633881Y203211D01*
X633592Y203643D01*
X633160Y203932D01*
X632650Y204033D01*
X632140Y203932D01*
X631707Y203643D01*
X631418Y203211D01*
X631317Y202701D01*
X631075Y202495D01*
X630833Y202701D01*
X630731Y203211D01*
X630442Y203643D01*
X630010Y203932D01*
X629743Y203985D01*
X629706Y204049D01*
X629959Y204609D01*
X630010Y204619D01*
X630442Y204908D01*
X630731Y205340D01*
X630833Y205850D01*
X630731Y206360D01*
X630442Y206793D01*
X630010Y207082D01*
X629500Y207183D01*
X629295Y207425D01*
X629500Y207667D01*
X630010Y207769D01*
X630442Y208058D01*
X630731Y208490D01*
X630833Y209000D01*
X630731Y209510D01*
X630442Y209942D01*
X630010Y210231D01*
X629500Y210333D01*
X628990Y210231D01*
X628780Y210091D01*
X628484Y210150D01*
X627536Y211098D01*
X627463Y211463D01*
X627582Y211640D01*
X627683Y212150D01*
X627582Y212660D01*
X627293Y213092D01*
X626860Y213381D01*
X626350Y213482D01*
X625840Y213381D01*
X625408Y213092D01*
X625119Y212660D01*
X625018Y212150D01*
X624776Y211957D01*
X624534Y212150D01*
X624432Y212660D01*
X624314Y212836D01*
X624387Y213201D01*
X625299Y214113D01*
X625664Y214186D01*
X625840Y214068D01*
X626350Y213966D01*
X626860Y214068D01*
X627293Y214357D01*
X627582Y214789D01*
X627683Y215299D01*
X627582Y215809D01*
X627293Y216242D01*
X626860Y216530D01*
X626350Y216632D01*
X626158Y216874D01*
X626350Y217116D01*
X626860Y217218D01*
X627293Y217507D01*
X627582Y217939D01*
X627683Y218449D01*
X627582Y218959D01*
X627293Y219391D01*
X626860Y219680D01*
X626810Y219690D01*
X626557Y220250D01*
X626593Y220314D01*
X626860Y220367D01*
X627293Y220656D01*
X627582Y221088D01*
X627592Y221139D01*
X628152Y221392D01*
X628216Y221355D01*
X628269Y221088D01*
X628558Y220656D01*
X628990Y220367D01*
X629040Y220357D01*
X629294Y219797D01*
X629257Y219733D01*
X628990Y219680D01*
X628558Y219391D01*
X628269Y218959D01*
X628167Y218449D01*
X628269Y217939D01*
X628558Y217507D01*
X628990Y217218D01*
X629040Y217208D01*
X629294Y216647D01*
X629257Y216584D01*
X628990Y216530D01*
X628558Y216242D01*
X628269Y215809D01*
X628167Y215299D01*
X628269Y214789D01*
X628558Y214357D01*
X628990Y214068D01*
X629500Y213966D01*
X630010Y214068D01*
X630442Y214357D01*
X630731Y214789D01*
X630784Y215056D01*
X630848Y215093D01*
X631408Y214840D01*
X631418Y214789D01*
X631707Y214357D01*
X632140Y214068D01*
X632650Y213966D01*
X633160Y214068D01*
X633559Y214335D01*
X633648Y214296D01*
X633714Y214261D01*
X633975Y214057D01*
X633973Y214048D01*
X633935Y213955D01*
X633843Y213494D01*
X633843Y213494D01*
X633573Y213311D01*
X633420Y213263D01*
X633345Y213257D01*
X633160Y213381D01*
X632650Y213482D01*
X632140Y213381D01*
X631707Y213092D01*
X631418Y212660D01*
X631317Y212150D01*
X631418Y211640D01*
X631707Y211207D01*
X632140Y210918D01*
X632650Y210817D01*
X633160Y210918D01*
X633592Y211207D01*
X633881Y211640D01*
X633886Y211668D01*
X634114Y211771D01*
X634403Y211804D01*
X634423Y211801D01*
X634475Y211723D01*
X634558Y211667D01*
X634629Y211596D01*
X635020Y211335D01*
X635113Y211297D01*
X635196Y211241D01*
X635295Y211221D01*
X635388Y211183D01*
X635547Y211151D01*
Y213295D01*
Y215440D01*
X635388Y215408D01*
X635295Y215369D01*
X635196Y215350D01*
X635113Y215294D01*
X635020Y215256D01*
X634629Y214995D01*
X634187Y214997D01*
X634013Y215076D01*
X633951Y215140D01*
X633982Y215299D01*
X633917Y215627D01*
X634224Y216127D01*
X640554D01*
X640689Y215627D01*
X640559Y215541D01*
X639759Y214741D01*
X639594Y214493D01*
X639535Y214200D01*
Y212611D01*
X639088Y212312D01*
X638716Y211756D01*
X638586Y211100D01*
X638716Y210444D01*
X639088Y209888D01*
X639644Y209516D01*
X640300Y209386D01*
X640956Y209516D01*
X641512Y209888D01*
X641884Y210444D01*
X642014Y211100D01*
X641884Y211756D01*
X641512Y212312D01*
X641065Y212611D01*
Y213883D01*
X641417Y214235D01*
X649500D01*
X649793Y214294D01*
X650041Y214459D01*
X651649Y216068D01*
X651759Y215984D01*
X652599Y215636D01*
X653500Y215517D01*
X654401Y215636D01*
X655241Y215984D01*
X655963Y216537D01*
X656516Y217259D01*
X656864Y218099D01*
X656983Y219000D01*
X656864Y219901D01*
X656516Y220741D01*
X655963Y221462D01*
X655241Y222016D01*
X654401Y222364D01*
X653500Y222482D01*
X652599Y222364D01*
X651759Y222016D01*
X651649Y221932D01*
X646541Y227041D01*
X646293Y227206D01*
X646000Y227265D01*
X628553D01*
X628453Y227389D01*
X628320Y227739D01*
X628817Y228235D01*
X650118D01*
X650136Y228099D01*
X650484Y227259D01*
X651038Y226537D01*
X651759Y225984D01*
X652599Y225636D01*
X653500Y225518D01*
X654401Y225636D01*
X655241Y225984D01*
X655963Y226537D01*
X656516Y227259D01*
X656864Y228099D01*
X656983Y229000D01*
X656864Y229901D01*
X656516Y230741D01*
X655963Y231463D01*
X655241Y232016D01*
X654401Y232364D01*
X653500Y232483D01*
X652599Y232364D01*
X651759Y232016D01*
X651038Y231463D01*
X650484Y230741D01*
X650136Y229901D01*
X650118Y229765D01*
X628500D01*
X628207Y229707D01*
X627959Y229541D01*
X625810Y227391D01*
X625644Y227143D01*
X625586Y226850D01*
Y222659D01*
X625408Y222541D01*
X625119Y222108D01*
X625066Y221842D01*
X625002Y221805D01*
X624442Y222058D01*
X624432Y222108D01*
X624143Y222541D01*
X623966Y222659D01*
Y227530D01*
X623907Y227823D01*
X623741Y228071D01*
X620272Y231541D01*
X620024Y231707D01*
X619731Y231765D01*
X606994D01*
Y231953D01*
X606835Y232335D01*
X606453Y232494D01*
D02*
G37*
G36*
X653500Y212483D02*
X652599Y212364D01*
X651759Y212016D01*
X651038Y211462D01*
X650484Y210741D01*
X650136Y209901D01*
X650017Y209000D01*
X650136Y208099D01*
X650484Y207259D01*
X651038Y206538D01*
X651759Y205984D01*
X652599Y205636D01*
X653500Y205518D01*
X654401Y205636D01*
X655241Y205984D01*
X655963Y206538D01*
X656516Y207259D01*
X656864Y208099D01*
X656983Y209000D01*
X656864Y209901D01*
X656516Y210741D01*
X655963Y211462D01*
X655241Y212016D01*
X654401Y212364D01*
X653500Y212483D01*
D02*
G37*
%LPD*%
G36*
X617304Y228114D02*
Y227200D01*
X617362Y226907D01*
X617469Y226749D01*
X617484Y226498D01*
X617375Y226105D01*
X617229Y226015D01*
X616902Y226081D01*
X616392Y225979D01*
X615959Y225690D01*
X615670Y225258D01*
X615569Y224748D01*
X615670Y224238D01*
X615959Y223806D01*
X616040Y223752D01*
X616051Y223720D01*
X616006Y223173D01*
X615599Y222901D01*
X615327Y222494D01*
X614780Y222449D01*
X614748Y222460D01*
X614694Y222541D01*
X614262Y222830D01*
X613752Y222931D01*
X613242Y222830D01*
X612810Y222541D01*
X612521Y222108D01*
X612419Y221598D01*
X612485Y221271D01*
X612178Y220771D01*
X610302D01*
X610035Y221271D01*
X610084Y221344D01*
X610214Y222000D01*
X610084Y222656D01*
X609712Y223212D01*
X609265Y223511D01*
Y227183D01*
X610748Y228666D01*
X616752D01*
X617304Y228114D01*
D02*
G37*
G36*
X650568Y220851D02*
X650484Y220741D01*
X650136Y219901D01*
X650017Y219000D01*
X650136Y218099D01*
X650484Y217259D01*
X650568Y217149D01*
X649183Y215765D01*
X646298D01*
X646031Y216265D01*
X646084Y216344D01*
X646214Y217000D01*
X646084Y217656D01*
X645712Y218212D01*
X645156Y218584D01*
X644500Y218714D01*
X643844Y218584D01*
X643288Y218212D01*
X643081Y217902D01*
X643014Y217912D01*
X642918Y218095D01*
X642838Y218443D01*
X643153Y218913D01*
X643283Y219569D01*
X643153Y220225D01*
X642781Y220781D01*
X642225Y221152D01*
X641569Y221283D01*
X640913Y221152D01*
X640357Y220781D01*
X640350Y220771D01*
X637374D01*
X637067Y221271D01*
X637132Y221598D01*
X637031Y222108D01*
X636742Y222541D01*
X636309Y222830D01*
X635799Y222931D01*
X635289Y222830D01*
X634857Y222541D01*
X634803Y222460D01*
X634771Y222449D01*
X634224Y222494D01*
X633952Y222901D01*
X633545Y223173D01*
X633500Y223720D01*
X633511Y223752D01*
X633592Y223806D01*
X633881Y224238D01*
X633982Y224748D01*
X633962Y224848D01*
X634224Y225172D01*
X634486Y224848D01*
X634467Y224748D01*
X634568Y224238D01*
X634857Y223806D01*
X635289Y223517D01*
X635799Y223415D01*
X636309Y223517D01*
X636742Y223806D01*
X637031Y224238D01*
X637132Y224748D01*
X637035Y225235D01*
X637033Y225262D01*
X637313Y225735D01*
X645683D01*
X650568Y220851D01*
D02*
G37*
G36*
X612477Y218741D02*
X612419Y218449D01*
X612521Y217939D01*
X612637Y217765D01*
X612370Y217265D01*
X609000D01*
X608707Y217207D01*
X608459Y217041D01*
X608459Y217041D01*
X605383Y213965D01*
X601700D01*
X601407Y213907D01*
X601159Y213741D01*
X599265Y211846D01*
X598765Y212053D01*
Y213183D01*
X601649Y216068D01*
X601759Y215984D01*
X602599Y215636D01*
X603500Y215517D01*
X604401Y215636D01*
X605241Y215984D01*
X605963Y216537D01*
X606516Y217259D01*
X606864Y218099D01*
X606983Y219000D01*
X607194Y219241D01*
X612154D01*
X612477Y218741D01*
D02*
G37*
G36*
X644961Y191673D02*
X644983Y191564D01*
X638713Y185294D01*
X638257Y185534D01*
X638251Y185540D01*
Y185638D01*
X638271Y185736D01*
X638251Y185835D01*
Y185935D01*
X638160Y186396D01*
X638121Y186489D01*
X638102Y186587D01*
X638046Y186671D01*
X638008Y186764D01*
X637746Y187154D01*
X637676Y187225D01*
X637620Y187309D01*
X637536Y187364D01*
X637465Y187435D01*
X637075Y187697D01*
X636982Y187735D01*
X636898Y187791D01*
X636800Y187810D01*
X636707Y187849D01*
X636547Y187881D01*
Y185736D01*
X636047D01*
Y185236D01*
X633903D01*
X633935Y185076D01*
X633973Y184984D01*
X633993Y184885D01*
X634049Y184802D01*
X634087Y184709D01*
X634348Y184318D01*
X634419Y184247D01*
X634475Y184164D01*
X634558Y184108D01*
X634629Y184037D01*
X635020Y183776D01*
X635113Y183738D01*
X634925Y183265D01*
X622817D01*
X622257Y183825D01*
X622500Y184286D01*
X623156Y184416D01*
X623712Y184788D01*
X624084Y185344D01*
X624214Y186000D01*
X624084Y186656D01*
X623712Y187212D01*
X623677Y187235D01*
X623829Y187735D01*
X625983D01*
X626759Y186959D01*
X626759Y186959D01*
X627007Y186793D01*
X627300Y186735D01*
X632000D01*
X632293Y186793D01*
X632541Y186959D01*
X634441Y188859D01*
X634441Y188859D01*
X634607Y189107D01*
X634665Y189400D01*
X634665Y189400D01*
Y190089D01*
X635112Y190388D01*
X635484Y190944D01*
X635569Y191374D01*
X636090Y191559D01*
X636338Y191393D01*
X636631Y191335D01*
X643600D01*
X643893Y191393D01*
X644141Y191559D01*
X644418Y191837D01*
X644961Y191673D01*
D02*
G37*
G36*
X642486Y207197D02*
X642503Y207084D01*
X640028Y204610D01*
X639862Y204362D01*
X639804Y204069D01*
Y201700D01*
X639862Y201408D01*
X640028Y201159D01*
X641159Y200028D01*
X641407Y199862D01*
X641700Y199804D01*
X641700Y199804D01*
X642614D01*
X644166Y198252D01*
Y196043D01*
X643666Y195776D01*
X643356Y195984D01*
X642700Y196114D01*
X642044Y195984D01*
X641488Y195612D01*
X641277Y195296D01*
X636885D01*
X636650Y195737D01*
X636721Y195844D01*
X636852Y196500D01*
X636721Y197156D01*
X636350Y197712D01*
X636227Y197794D01*
X636309Y198320D01*
X636742Y198609D01*
X637031Y199041D01*
X637132Y199551D01*
X637031Y200061D01*
X636912Y200238D01*
X636985Y200603D01*
X639041Y202659D01*
X639207Y202907D01*
X639265Y203200D01*
Y204683D01*
X641953Y207372D01*
X642486Y207197D01*
D02*
G37*
G36*
X611335Y208246D02*
X611286Y208000D01*
X611416Y207344D01*
X611788Y206788D01*
X612344Y206416D01*
X613000Y206286D01*
X613656Y206416D01*
X614048Y206678D01*
X615327D01*
X615634Y206178D01*
X615569Y205850D01*
X615670Y205340D01*
X615959Y204908D01*
X616392Y204619D01*
X616902Y204518D01*
X617412Y204619D01*
X617844Y204908D01*
X618133Y205340D01*
X618234Y205850D01*
X618476Y206043D01*
X618718Y205850D01*
X618820Y205340D01*
X619109Y204908D01*
X619541Y204619D01*
X620051Y204518D01*
X620561Y204619D01*
X620994Y204908D01*
X621282Y205340D01*
X621384Y205850D01*
X621626Y206043D01*
X621868Y205850D01*
X621970Y205340D01*
X622258Y204908D01*
X622691Y204619D01*
X623201Y204518D01*
X623394Y204276D01*
X623201Y204033D01*
X622691Y203932D01*
X622258Y203643D01*
X621970Y203211D01*
X621868Y202701D01*
X621970Y202191D01*
X622258Y201758D01*
X622691Y201469D01*
X623201Y201368D01*
X623711Y201469D01*
X623888Y201588D01*
X624253Y201515D01*
X624864Y200904D01*
X624653Y200488D01*
X624165Y200461D01*
X624143Y200494D01*
X623711Y200782D01*
X623201Y200884D01*
X622691Y200782D01*
X622258Y200494D01*
X621970Y200061D01*
X621868Y199551D01*
X621970Y199041D01*
X622258Y198609D01*
X622691Y198320D01*
X623201Y198219D01*
X623410Y198260D01*
X624217Y197453D01*
X624465Y197288D01*
X624758Y197229D01*
X624758Y197229D01*
X627925D01*
X628232Y196729D01*
X628167Y196402D01*
X628269Y195892D01*
X628558Y195459D01*
X628990Y195170D01*
X629500Y195069D01*
X630010Y195170D01*
X630187Y195289D01*
X630552Y195216D01*
X631010Y194758D01*
X630819Y194296D01*
X626386D01*
X626093Y194238D01*
X625845Y194072D01*
X625238Y193465D01*
X620817D01*
X619641Y194641D01*
X619887Y195101D01*
X620051Y195069D01*
X620561Y195170D01*
X620994Y195459D01*
X621282Y195892D01*
X621384Y196402D01*
X621282Y196912D01*
X620994Y197344D01*
X620561Y197633D01*
X620051Y197734D01*
X619841Y197974D01*
X620051Y198219D01*
X620561Y198320D01*
X620994Y198609D01*
X621282Y199041D01*
X621384Y199551D01*
X621282Y200061D01*
X620994Y200494D01*
X620561Y200782D01*
X620294Y200835D01*
X620257Y200899D01*
X620511Y201460D01*
X620561Y201469D01*
X620994Y201758D01*
X621282Y202191D01*
X621384Y202701D01*
X621282Y203211D01*
X620994Y203643D01*
X620561Y203932D01*
X620051Y204033D01*
X619541Y203932D01*
X619109Y203643D01*
X618820Y203211D01*
X618718Y202701D01*
X618474Y202490D01*
X618234Y202701D01*
X618133Y203211D01*
X617844Y203643D01*
X617412Y203932D01*
X616902Y204033D01*
X616392Y203932D01*
X615959Y203643D01*
X615670Y203211D01*
X615569Y202701D01*
X615670Y202191D01*
X615567Y201649D01*
X615567Y201649D01*
X614768Y200850D01*
X614262Y200782D01*
X613752Y200884D01*
X613242Y200782D01*
X613089Y200680D01*
X612990Y200675D01*
X612474Y200821D01*
X612472Y200823D01*
X612212Y201212D01*
X611656Y201584D01*
X611000Y201714D01*
X610765Y201907D01*
Y208436D01*
X610907Y208536D01*
X611335Y208246D01*
D02*
G37*
G36*
X606735Y206723D02*
Y201277D01*
X606235Y201107D01*
X605963Y201463D01*
X605241Y202016D01*
X604401Y202364D01*
X603500Y202483D01*
X602599Y202364D01*
X601759Y202016D01*
X601649Y201932D01*
X600265Y203317D01*
Y206723D01*
X600765Y206893D01*
X601038Y206538D01*
X601759Y205984D01*
X602599Y205636D01*
X603500Y205518D01*
X604401Y205636D01*
X605241Y205984D01*
X605963Y206538D01*
X606235Y206893D01*
X606735Y206723D01*
D02*
G37*
G36*
X616788Y183788D02*
X617344Y183416D01*
X618000Y183286D01*
X618656Y183416D01*
X619212Y183788D01*
X619377Y184034D01*
X619504Y184062D01*
X619955Y184000D01*
X620028Y183890D01*
X621959Y181959D01*
X622207Y181793D01*
X622500Y181735D01*
X622500Y181735D01*
X628303D01*
X628352Y181235D01*
X628207Y181207D01*
X627959Y181041D01*
X627959Y181041D01*
X617959Y171041D01*
X617794Y170793D01*
X617735Y170500D01*
Y168317D01*
X616927Y167509D01*
X616516Y167759D01*
X616864Y168599D01*
X616983Y169500D01*
X616864Y170401D01*
X616516Y171241D01*
X615963Y171962D01*
X615241Y172516D01*
X614401Y172864D01*
X614265Y172882D01*
Y176183D01*
X617472Y179391D01*
X618000Y179286D01*
X618656Y179416D01*
X619212Y179788D01*
X619584Y180344D01*
X619714Y181000D01*
X619584Y181656D01*
X619212Y182212D01*
X618656Y182584D01*
X618000Y182714D01*
X617344Y182584D01*
X616788Y182212D01*
X616416Y181656D01*
X616286Y181000D01*
X616391Y180472D01*
X613675Y177757D01*
X613214Y178000D01*
X613109Y178528D01*
X613541Y178959D01*
X613706Y179207D01*
X613765Y179500D01*
Y181489D01*
X614212Y181788D01*
X614584Y182344D01*
X614714Y183000D01*
X614584Y183656D01*
X614531Y183735D01*
X614798Y184235D01*
X616489D01*
X616788Y183788D01*
D02*
G37*
G36*
X600568Y200851D02*
X600484Y200741D01*
X600136Y199901D01*
X600017Y199000D01*
X600136Y198099D01*
X600484Y197259D01*
X601038Y196537D01*
X601759Y195984D01*
X602599Y195636D01*
X603156Y195563D01*
X609159Y189559D01*
X609159Y189559D01*
X609407Y189393D01*
X609700Y189335D01*
X615083D01*
X616054Y188365D01*
X615847Y187865D01*
X609617D01*
X608641Y188841D01*
X608393Y189006D01*
X608100Y189065D01*
X606974D01*
X606864Y189901D01*
X606516Y190741D01*
X605963Y191463D01*
X605241Y192016D01*
X604401Y192364D01*
X603500Y192482D01*
X602599Y192364D01*
X601759Y192016D01*
X601038Y191463D01*
X600484Y190741D01*
X600136Y189901D01*
X600017Y189000D01*
X600136Y188099D01*
X600484Y187259D01*
X601038Y186538D01*
X601393Y186265D01*
X601223Y185765D01*
X600317D01*
X598765Y187317D01*
Y201947D01*
X599265Y202154D01*
X600568Y200851D01*
D02*
G37*
%LPC*%
G36*
X613752Y226081D02*
X613242Y225979D01*
X612810Y225690D01*
X612521Y225258D01*
X612419Y224748D01*
X612521Y224238D01*
X612810Y223806D01*
X613242Y223517D01*
X613752Y223415D01*
X614262Y223517D01*
X614694Y223806D01*
X614983Y224238D01*
X615085Y224748D01*
X614983Y225258D01*
X614694Y225690D01*
X614262Y225979D01*
X613752Y226081D01*
D02*
G37*
G36*
X635547Y187881D02*
X635388Y187849D01*
X635295Y187810D01*
X635196Y187791D01*
X635113Y187735D01*
X635020Y187697D01*
X634629Y187435D01*
X634558Y187364D01*
X634475Y187309D01*
X634419Y187225D01*
X634348Y187154D01*
X634087Y186764D01*
X634049Y186671D01*
X633993Y186587D01*
X633973Y186489D01*
X633935Y186396D01*
X633903Y186236D01*
X635547D01*
Y187881D01*
D02*
G37*
G36*
X613752Y204033D02*
X613242Y203932D01*
X612810Y203643D01*
X612521Y203211D01*
X612419Y202701D01*
X612521Y202191D01*
X612810Y201758D01*
X613242Y201469D01*
X613752Y201368D01*
X614262Y201469D01*
X614694Y201758D01*
X614983Y202191D01*
X615085Y202701D01*
X614983Y203211D01*
X614694Y203643D01*
X614262Y203932D01*
X613752Y204033D01*
D02*
G37*
%LPD*%
D10*
Y224748D02*
D03*
Y221598D02*
D03*
Y218449D02*
D03*
Y202701D02*
D03*
Y199551D02*
D03*
Y196402D02*
D03*
X616902Y224748D02*
D03*
Y221598D02*
D03*
Y218449D02*
D03*
Y215299D02*
D03*
Y212150D02*
D03*
Y209000D02*
D03*
Y205850D02*
D03*
Y202701D02*
D03*
Y199551D02*
D03*
Y196402D02*
D03*
X620051Y224748D02*
D03*
Y221598D02*
D03*
Y218449D02*
D03*
Y215299D02*
D03*
Y212150D02*
D03*
Y209000D02*
D03*
Y205850D02*
D03*
Y202701D02*
D03*
Y199551D02*
D03*
Y196402D02*
D03*
X623201Y221598D02*
D03*
Y218449D02*
D03*
Y215299D02*
D03*
Y212150D02*
D03*
Y209000D02*
D03*
Y205850D02*
D03*
Y202701D02*
D03*
Y199551D02*
D03*
X626350Y221598D02*
D03*
Y218449D02*
D03*
Y215299D02*
D03*
Y212150D02*
D03*
Y209000D02*
D03*
Y205850D02*
D03*
Y202701D02*
D03*
Y199551D02*
D03*
X629500Y224748D02*
D03*
Y221598D02*
D03*
Y218449D02*
D03*
Y215299D02*
D03*
Y212150D02*
D03*
Y209000D02*
D03*
Y205850D02*
D03*
Y202701D02*
D03*
Y199551D02*
D03*
Y196402D02*
D03*
X632650Y224748D02*
D03*
Y221598D02*
D03*
Y218449D02*
D03*
Y215299D02*
D03*
Y212150D02*
D03*
Y209000D02*
D03*
Y205850D02*
D03*
Y202701D02*
D03*
Y199551D02*
D03*
Y196402D02*
D03*
X635799Y224748D02*
D03*
Y221598D02*
D03*
Y218449D02*
D03*
Y202701D02*
D03*
Y199551D02*
D03*
D11*
X631057Y220006D02*
X641994D01*
X631093Y195757D02*
X632318Y194531D01*
X629069Y192431D02*
X630485Y191015D01*
X625555Y192700D02*
X626386Y193531D01*
X631093Y195757D02*
Y197011D01*
X635200Y193531D02*
X636631Y192100D01*
X626386Y193531D02*
X635200D01*
X632318Y194531D02*
X642569D01*
X642700Y194400D01*
X633900Y189400D02*
Y191600D01*
X635000Y196638D02*
X635138Y196500D01*
X636631Y192100D02*
X643600D01*
X632000Y187500D02*
X633900Y189400D01*
X643600Y192100D02*
X644931Y193431D01*
X630485Y189553D02*
Y191015D01*
X626842Y191158D02*
X627500Y190500D01*
X626900Y189900D02*
X627500Y190500D01*
X626700Y192431D02*
X629069D01*
X625169Y190900D02*
X626700Y192431D01*
X620500Y192700D02*
X625555D01*
X627300Y187500D02*
X632000D01*
X618700Y189900D02*
X626900D01*
X626300Y188500D02*
X627300Y187500D01*
X617000Y188500D02*
X626300D01*
X603500Y209000D02*
X606500D01*
X620051Y218449D02*
Y218949D01*
X603500Y169500D02*
X607203Y165797D01*
X616297D01*
X618500Y168000D01*
X613000Y208000D02*
X613557Y207443D01*
X618494Y223155D02*
X620051Y221598D01*
X617547Y220006D02*
X617553Y220000D01*
X619000D01*
X620051Y218949D01*
X626350Y221598D02*
Y226850D01*
X628500Y229000D01*
X653500D01*
X629500Y218449D02*
X631057Y220006D01*
X603500Y219000D02*
X604506Y220006D01*
X598000Y187000D02*
X600000Y185000D01*
X598000Y187000D02*
Y213500D01*
X603500Y219000D01*
X599500Y203000D02*
X603500Y199000D01*
X599500Y203000D02*
Y211000D01*
X629500Y215299D02*
X631093Y216892D01*
X641569Y219581D02*
X641994Y220006D01*
X641569Y219569D02*
Y219581D01*
X606500Y209000D02*
X607500Y208000D01*
X616902Y215299D02*
X618494Y216892D01*
X621644D01*
X623201Y218449D01*
X624758Y214654D02*
Y220006D01*
X626350Y221598D01*
X615309Y200309D02*
X616108Y201108D01*
X627943Y223155D02*
X629500Y221598D01*
X627943Y223155D02*
Y225943D01*
X628500Y226500D01*
X646000D01*
X653500Y219000D01*
X618494Y201108D02*
X620051Y199551D01*
X616108Y201108D02*
X618494D01*
X618500Y168000D02*
Y170500D01*
X628500Y180500D01*
X637000D01*
X613500Y169500D02*
Y176500D01*
X624057Y207443D02*
X624793Y206707D01*
X613557Y207443D02*
X624057D01*
X626995Y210557D02*
X627943Y209610D01*
X609000Y197000D02*
X611500Y194500D01*
X624793Y202056D02*
Y206707D01*
X627943Y204258D02*
X629500Y202701D01*
X627943Y204258D02*
Y209610D01*
X624793Y202056D02*
X625705Y201144D01*
X624758Y197994D02*
X630145D01*
X623201Y199551D02*
X624758Y197994D01*
X644000Y207500D02*
X644500D01*
X631093Y216892D02*
X644392D01*
X610000Y201000D02*
X611000Y200000D01*
X610000Y201000D02*
Y209000D01*
X611557Y210557D01*
X626995D01*
X632650Y199551D02*
X635000Y197201D01*
Y196638D02*
Y197201D01*
X620569Y184431D02*
X622500Y182500D01*
X637000D01*
X600000Y185000D02*
X618000D01*
X613500Y176500D02*
X618000Y181000D01*
X613000Y179500D02*
Y183000D01*
X611500Y178000D02*
X613000Y179500D01*
X609000Y197000D02*
Y209414D01*
X611586Y212000D01*
X623846Y213742D02*
X624758Y214654D01*
X604506Y220006D02*
X617547D01*
X615730Y213742D02*
X623846D01*
X611586Y212000D02*
X613988D01*
X615730Y213742D01*
X615949Y218449D02*
X616902D01*
X615309Y217804D02*
Y217809D01*
X615949Y218449D01*
X609000Y216500D02*
X614005D01*
X615309Y217804D01*
X632650Y221598D02*
X634207Y223155D01*
X640844D01*
X641000Y223000D01*
X615344Y223155D02*
X616902Y221598D01*
X615344Y223155D02*
Y227344D01*
X615500Y227500D01*
X608500Y222000D02*
Y227500D01*
X610431Y229431D01*
X617069D01*
X603500Y229000D02*
X605500Y231000D01*
X636444Y201144D02*
X638500Y203200D01*
Y205000D01*
X643000Y209500D01*
X645500D01*
X645162Y205431D02*
X646431Y206700D01*
X644700Y205431D02*
X645162D01*
X642500Y203231D02*
X644700Y205431D01*
X642500Y202500D02*
Y203231D01*
X645500Y209500D02*
X646431Y208569D01*
Y206700D02*
Y208569D01*
X625705Y201144D02*
X627441D01*
X629033Y199551D01*
X626350Y202701D02*
X627299D01*
X627943Y202057D01*
Y202056D02*
Y202057D01*
Y202056D02*
X628855Y201144D01*
X629033Y199551D02*
X629500D01*
X630145Y197959D02*
Y197994D01*
X628855Y201144D02*
X636444D01*
X630145Y197959D02*
X631093Y197011D01*
X640569Y204069D02*
X644000Y207500D01*
X649000Y190000D02*
Y194000D01*
X638000Y179000D02*
X649000Y190000D01*
X621608Y220041D02*
X623201Y218449D01*
X621608Y220041D02*
Y226305D01*
X620000Y227913D02*
X621608Y226305D01*
X620000Y227913D02*
Y228000D01*
X618494Y223155D02*
Y226775D01*
X619731Y231000D02*
X623201Y227530D01*
X605500Y231000D02*
X619731D01*
X623201Y221598D02*
Y227530D01*
X640569Y201700D02*
X641700Y200569D01*
X642931D01*
X640569Y201700D02*
Y204069D01*
X642500Y202500D02*
X643500D01*
X625884Y199551D02*
X626350D01*
X624327Y201108D02*
X625884Y199551D01*
X622556Y201108D02*
X624327D01*
X621608Y200161D02*
X622556Y201108D01*
X616902Y199551D02*
X618459Y197994D01*
X621608Y197992D02*
Y200161D01*
Y197992D02*
X622600Y197000D01*
X618459Y194741D02*
Y197994D01*
X607500Y195300D02*
Y208000D01*
Y195300D02*
X610500Y192300D01*
X626842Y191158D02*
X626842D01*
X610500Y192300D02*
X616300D01*
X618700Y189900D01*
X615309Y195091D02*
Y200309D01*
Y195091D02*
X619500Y190900D01*
X625169D01*
X603500Y189000D02*
X604200Y188300D01*
X608100D01*
X620569Y184431D02*
Y185331D01*
X618459Y194741D02*
X620500Y192700D01*
X642931Y200569D02*
X644931Y198569D01*
X643500Y202500D02*
X646000Y200000D01*
X637000Y182500D02*
X646000Y191500D01*
X645500Y203500D02*
X647000Y202000D01*
X637000Y180500D02*
X647000Y190500D01*
Y202000D01*
X646000Y191500D02*
Y200000D01*
X644931Y193431D02*
Y198569D01*
X644392Y216892D02*
X644500Y217000D01*
X641100Y215000D02*
X649500D01*
X653500Y219000D01*
X640300Y214200D02*
X641100Y215000D01*
X640300Y211100D02*
Y214200D01*
X623500Y169500D02*
Y173400D01*
X629100Y179000D01*
X638000D01*
X608100Y188300D02*
X609300Y187100D01*
X618800D01*
X620569Y185331D01*
X615400Y190100D02*
X617000Y188500D01*
X609700Y190100D02*
X615400D01*
X603500Y196300D02*
Y199000D01*
Y196300D02*
X609700Y190100D01*
X599500Y211000D02*
X601700Y213200D01*
X605700D01*
X609000Y216500D01*
X618069Y227200D02*
X618494Y226775D01*
X618069Y227200D02*
Y228431D01*
X617069Y229431D02*
X618069Y228431D01*
D12*
X610500Y214000D02*
X611250Y214750D01*
X615520Y215299D02*
X616902D01*
X614970Y214750D02*
X615520Y215299D01*
X611250Y214750D02*
X614970D01*
D13*
X653500Y179000D02*
D03*
X603500Y229000D02*
D03*
D14*
X653500Y189000D02*
D03*
Y199000D02*
D03*
Y209000D02*
D03*
Y219000D02*
D03*
Y229000D02*
D03*
X603500Y219000D02*
D03*
Y209000D02*
D03*
Y199000D02*
D03*
Y189000D02*
D03*
Y179000D02*
D03*
X613500Y169500D02*
D03*
X623500D02*
D03*
X633500D02*
D03*
X643500D02*
D03*
X653500D02*
D03*
D15*
X603500D02*
D03*
D16*
X636047Y185736D02*
D03*
Y213295D02*
D03*
X633900Y191600D02*
D03*
X635138Y196500D02*
D03*
X630485Y189553D02*
D03*
X627500Y190500D02*
D03*
X642500Y202500D02*
D03*
X645500Y203500D02*
D03*
X618000Y185000D02*
D03*
X613000Y208000D02*
D03*
X608500Y222000D02*
D03*
X641569Y219569D02*
D03*
X611500Y194500D02*
D03*
X611000Y200000D02*
D03*
X644500Y207500D02*
D03*
X622500Y186000D02*
D03*
X611500Y178000D02*
D03*
X618000Y181000D02*
D03*
X613000Y183000D02*
D03*
X610500Y214000D02*
D03*
X641000Y223000D02*
D03*
X615500Y227500D02*
D03*
X649000Y194000D02*
D03*
X620000Y228000D02*
D03*
X641500Y198500D02*
D03*
X622600Y197000D02*
D03*
X642700Y194400D02*
D03*
X644500Y217000D02*
D03*
X640300Y211100D02*
D03*
X635200Y205600D02*
D03*
M02*
